<?xml version="1.0" encoding="UTF-8"?>
<svg xmlns="http://www.w3.org/2000/svg" width="722.70" height="578.16" viewBox="0,0,722.70,578.16">
<desc>R SVG Plot!</desc>
<rect width="100%" height="100%" style="fill:#FFFFFF"/>
<polygon points="361.35 , 578.16 722.70 , 578.16 722.70 , 0.00 361.35 , 0.00 " style="stroke-width:1;stroke:#FFFFFF;fill:#FFFFFF;stroke-opacity:0.000000;fill-opacity:1.000000" />
<polygon points="0.00 , 578.16 361.35 , 578.16 361.35 , 0.00 0.00 , 0.00 " style="stroke-width:1;stroke:#FFFFFF;fill:#FFFFFF;stroke-opacity:0.000000;fill-opacity:1.000000" />
<line x1="45.64" y1="485.57" x2="45.64" y2="52.74" style="stroke-width:1;stroke:#000000;fill:#000000;stroke-opacity:1.000000;fill-opacity:0.000000"/>
<line x1="49.22" y1="485.57" x2="49.22" y2="513.49" style="stroke-width:1;stroke:#000000;fill:#000000;stroke-opacity:1.000000;fill-opacity:0.000000"/>
<line x1="52.81" y1="485.57" x2="52.81" y2="465.78" style="stroke-width:1;stroke:#000000;fill:#000000;stroke-opacity:1.000000;fill-opacity:0.000000"/>
<line x1="56.39" y1="485.57" x2="56.39" y2="488.45" style="stroke-width:1;stroke:#000000;fill:#000000;stroke-opacity:1.000000;fill-opacity:0.000000"/>
<line x1="59.97" y1="485.57" x2="59.97" y2="471.79" style="stroke-width:1;stroke:#000000;fill:#000000;stroke-opacity:1.000000;fill-opacity:0.000000"/>
<line x1="63.56" y1="485.57" x2="63.56" y2="483.05" style="stroke-width:1;stroke:#000000;fill:#000000;stroke-opacity:1.000000;fill-opacity:0.000000"/>
<line x1="67.14" y1="485.57" x2="67.14" y2="482.51" style="stroke-width:1;stroke:#000000;fill:#000000;stroke-opacity:1.000000;fill-opacity:0.000000"/>
<line x1="70.73" y1="485.57" x2="70.73" y2="480.50" style="stroke-width:1;stroke:#000000;fill:#000000;stroke-opacity:1.000000;fill-opacity:0.000000"/>
<line x1="74.31" y1="485.57" x2="74.31" y2="480.18" style="stroke-width:1;stroke:#000000;fill:#000000;stroke-opacity:1.000000;fill-opacity:0.000000"/>
<line x1="77.90" y1="485.57" x2="77.90" y2="465.30" style="stroke-width:1;stroke:#000000;fill:#000000;stroke-opacity:1.000000;fill-opacity:0.000000"/>
<line x1="81.48" y1="485.57" x2="81.48" y2="492.14" style="stroke-width:1;stroke:#000000;fill:#000000;stroke-opacity:1.000000;fill-opacity:0.000000"/>
<line x1="85.06" y1="485.57" x2="85.06" y2="501.27" style="stroke-width:1;stroke:#000000;fill:#000000;stroke-opacity:1.000000;fill-opacity:0.000000"/>
<line x1="88.65" y1="485.57" x2="88.65" y2="471.79" style="stroke-width:1;stroke:#000000;fill:#000000;stroke-opacity:1.000000;fill-opacity:0.000000"/>
<line x1="92.23" y1="485.57" x2="92.23" y2="470.35" style="stroke-width:1;stroke:#000000;fill:#000000;stroke-opacity:1.000000;fill-opacity:0.000000"/>
<line x1="95.82" y1="485.57" x2="95.82" y2="475.05" style="stroke-width:1;stroke:#000000;fill:#000000;stroke-opacity:1.000000;fill-opacity:0.000000"/>
<line x1="99.40" y1="485.57" x2="99.40" y2="490.92" style="stroke-width:1;stroke:#000000;fill:#000000;stroke-opacity:1.000000;fill-opacity:0.000000"/>
<line x1="102.99" y1="485.57" x2="102.99" y2="488.25" style="stroke-width:1;stroke:#000000;fill:#000000;stroke-opacity:1.000000;fill-opacity:0.000000"/>
<line x1="106.57" y1="485.57" x2="106.57" y2="491.21" style="stroke-width:1;stroke:#000000;fill:#000000;stroke-opacity:1.000000;fill-opacity:0.000000"/>
<line x1="110.15" y1="485.57" x2="110.15" y2="486.41" style="stroke-width:1;stroke:#000000;fill:#000000;stroke-opacity:1.000000;fill-opacity:0.000000"/>
<line x1="113.74" y1="485.57" x2="113.74" y2="485.76" style="stroke-width:1;stroke:#000000;fill:#000000;stroke-opacity:1.000000;fill-opacity:0.000000"/>
<line x1="117.32" y1="485.57" x2="117.32" y2="486.17" style="stroke-width:1;stroke:#000000;fill:#000000;stroke-opacity:1.000000;fill-opacity:0.000000"/>
<line x1="120.91" y1="485.57" x2="120.91" y2="491.55" style="stroke-width:1;stroke:#000000;fill:#000000;stroke-opacity:1.000000;fill-opacity:0.000000"/>
<line x1="124.49" y1="485.57" x2="124.49" y2="465.72" style="stroke-width:1;stroke:#000000;fill:#000000;stroke-opacity:1.000000;fill-opacity:0.000000"/>
<line x1="128.08" y1="485.57" x2="128.08" y2="490.95" style="stroke-width:1;stroke:#000000;fill:#000000;stroke-opacity:1.000000;fill-opacity:0.000000"/>
<line x1="131.66" y1="485.57" x2="131.66" y2="494.82" style="stroke-width:1;stroke:#000000;fill:#000000;stroke-opacity:1.000000;fill-opacity:0.000000"/>
<line x1="135.24" y1="485.57" x2="135.24" y2="510.89" style="stroke-width:1;stroke:#000000;fill:#000000;stroke-opacity:1.000000;fill-opacity:0.000000"/>
<line x1="138.83" y1="485.57" x2="138.83" y2="471.91" style="stroke-width:1;stroke:#000000;fill:#000000;stroke-opacity:1.000000;fill-opacity:0.000000"/>
<line x1="142.41" y1="485.57" x2="142.41" y2="507.71" style="stroke-width:1;stroke:#000000;fill:#000000;stroke-opacity:1.000000;fill-opacity:0.000000"/>
<line x1="146.00" y1="485.57" x2="146.00" y2="477.68" style="stroke-width:1;stroke:#000000;fill:#000000;stroke-opacity:1.000000;fill-opacity:0.000000"/>
<line x1="149.58" y1="485.57" x2="149.58" y2="517.09" style="stroke-width:1;stroke:#000000;fill:#000000;stroke-opacity:1.000000;fill-opacity:0.000000"/>
<line x1="153.17" y1="485.57" x2="153.17" y2="485.38" style="stroke-width:1;stroke:#000000;fill:#000000;stroke-opacity:1.000000;fill-opacity:0.000000"/>
<line x1="156.75" y1="485.57" x2="156.75" y2="466.80" style="stroke-width:1;stroke:#000000;fill:#000000;stroke-opacity:1.000000;fill-opacity:0.000000"/>
<line x1="160.33" y1="485.57" x2="160.33" y2="493.81" style="stroke-width:1;stroke:#000000;fill:#000000;stroke-opacity:1.000000;fill-opacity:0.000000"/>
<line x1="163.92" y1="485.57" x2="163.92" y2="490.54" style="stroke-width:1;stroke:#000000;fill:#000000;stroke-opacity:1.000000;fill-opacity:0.000000"/>
<line x1="167.50" y1="485.57" x2="167.50" y2="500.66" style="stroke-width:1;stroke:#000000;fill:#000000;stroke-opacity:1.000000;fill-opacity:0.000000"/>
<line x1="171.09" y1="485.57" x2="171.09" y2="467.41" style="stroke-width:1;stroke:#000000;fill:#000000;stroke-opacity:1.000000;fill-opacity:0.000000"/>
<line x1="174.67" y1="485.57" x2="174.67" y2="485.17" style="stroke-width:1;stroke:#000000;fill:#000000;stroke-opacity:1.000000;fill-opacity:0.000000"/>
<line x1="178.26" y1="485.57" x2="178.26" y2="480.64" style="stroke-width:1;stroke:#000000;fill:#000000;stroke-opacity:1.000000;fill-opacity:0.000000"/>
<line x1="181.84" y1="485.57" x2="181.84" y2="476.32" style="stroke-width:1;stroke:#000000;fill:#000000;stroke-opacity:1.000000;fill-opacity:0.000000"/>
<line x1="185.42" y1="485.57" x2="185.42" y2="488.93" style="stroke-width:1;stroke:#000000;fill:#000000;stroke-opacity:1.000000;fill-opacity:0.000000"/>
<line x1="189.01" y1="485.57" x2="189.01" y2="490.78" style="stroke-width:1;stroke:#000000;fill:#000000;stroke-opacity:1.000000;fill-opacity:0.000000"/>
<line x1="192.59" y1="485.57" x2="192.59" y2="482.08" style="stroke-width:1;stroke:#000000;fill:#000000;stroke-opacity:1.000000;fill-opacity:0.000000"/>
<line x1="196.18" y1="485.57" x2="196.18" y2="489.84" style="stroke-width:1;stroke:#000000;fill:#000000;stroke-opacity:1.000000;fill-opacity:0.000000"/>
<line x1="199.76" y1="485.57" x2="199.76" y2="488.26" style="stroke-width:1;stroke:#000000;fill:#000000;stroke-opacity:1.000000;fill-opacity:0.000000"/>
<line x1="203.35" y1="485.57" x2="203.35" y2="483.63" style="stroke-width:1;stroke:#000000;fill:#000000;stroke-opacity:1.000000;fill-opacity:0.000000"/>
<line x1="206.93" y1="485.57" x2="206.93" y2="465.29" style="stroke-width:1;stroke:#000000;fill:#000000;stroke-opacity:1.000000;fill-opacity:0.000000"/>
<line x1="210.51" y1="485.57" x2="210.51" y2="480.70" style="stroke-width:1;stroke:#000000;fill:#000000;stroke-opacity:1.000000;fill-opacity:0.000000"/>
<line x1="214.10" y1="485.57" x2="214.10" y2="491.81" style="stroke-width:1;stroke:#000000;fill:#000000;stroke-opacity:1.000000;fill-opacity:0.000000"/>
<line x1="217.68" y1="485.57" x2="217.68" y2="478.13" style="stroke-width:1;stroke:#000000;fill:#000000;stroke-opacity:1.000000;fill-opacity:0.000000"/>
<line x1="221.27" y1="485.57" x2="221.27" y2="493.66" style="stroke-width:1;stroke:#000000;fill:#000000;stroke-opacity:1.000000;fill-opacity:0.000000"/>
<line x1="224.85" y1="485.57" x2="224.85" y2="479.87" style="stroke-width:1;stroke:#000000;fill:#000000;stroke-opacity:1.000000;fill-opacity:0.000000"/>
<line x1="228.44" y1="485.57" x2="228.44" y2="484.58" style="stroke-width:1;stroke:#000000;fill:#000000;stroke-opacity:1.000000;fill-opacity:0.000000"/>
<line x1="232.02" y1="485.57" x2="232.02" y2="488.15" style="stroke-width:1;stroke:#000000;fill:#000000;stroke-opacity:1.000000;fill-opacity:0.000000"/>
<line x1="235.60" y1="485.57" x2="235.60" y2="494.30" style="stroke-width:1;stroke:#000000;fill:#000000;stroke-opacity:1.000000;fill-opacity:0.000000"/>
<line x1="239.19" y1="485.57" x2="239.19" y2="482.97" style="stroke-width:1;stroke:#000000;fill:#000000;stroke-opacity:1.000000;fill-opacity:0.000000"/>
<line x1="242.77" y1="485.57" x2="242.77" y2="497.56" style="stroke-width:1;stroke:#000000;fill:#000000;stroke-opacity:1.000000;fill-opacity:0.000000"/>
<line x1="246.36" y1="485.57" x2="246.36" y2="486.62" style="stroke-width:1;stroke:#000000;fill:#000000;stroke-opacity:1.000000;fill-opacity:0.000000"/>
<line x1="249.94" y1="485.57" x2="249.94" y2="484.26" style="stroke-width:1;stroke:#000000;fill:#000000;stroke-opacity:1.000000;fill-opacity:0.000000"/>
<line x1="253.53" y1="485.57" x2="253.53" y2="477.59" style="stroke-width:1;stroke:#000000;fill:#000000;stroke-opacity:1.000000;fill-opacity:0.000000"/>
<line x1="257.11" y1="485.57" x2="257.11" y2="486.39" style="stroke-width:1;stroke:#000000;fill:#000000;stroke-opacity:1.000000;fill-opacity:0.000000"/>
<line x1="260.69" y1="485.57" x2="260.69" y2="480.89" style="stroke-width:1;stroke:#000000;fill:#000000;stroke-opacity:1.000000;fill-opacity:0.000000"/>
<line x1="264.28" y1="485.57" x2="264.28" y2="487.85" style="stroke-width:1;stroke:#000000;fill:#000000;stroke-opacity:1.000000;fill-opacity:0.000000"/>
<line x1="267.86" y1="485.57" x2="267.86" y2="471.66" style="stroke-width:1;stroke:#000000;fill:#000000;stroke-opacity:1.000000;fill-opacity:0.000000"/>
<line x1="271.45" y1="485.57" x2="271.45" y2="497.12" style="stroke-width:1;stroke:#000000;fill:#000000;stroke-opacity:1.000000;fill-opacity:0.000000"/>
<line x1="275.03" y1="485.57" x2="275.03" y2="496.05" style="stroke-width:1;stroke:#000000;fill:#000000;stroke-opacity:1.000000;fill-opacity:0.000000"/>
<line x1="278.62" y1="485.57" x2="278.62" y2="477.94" style="stroke-width:1;stroke:#000000;fill:#000000;stroke-opacity:1.000000;fill-opacity:0.000000"/>
<line x1="282.20" y1="485.57" x2="282.20" y2="485.33" style="stroke-width:1;stroke:#000000;fill:#000000;stroke-opacity:1.000000;fill-opacity:0.000000"/>
<line x1="285.78" y1="485.57" x2="285.78" y2="494.59" style="stroke-width:1;stroke:#000000;fill:#000000;stroke-opacity:1.000000;fill-opacity:0.000000"/>
<line x1="289.37" y1="485.57" x2="289.37" y2="472.59" style="stroke-width:1;stroke:#000000;fill:#000000;stroke-opacity:1.000000;fill-opacity:0.000000"/>
<line x1="292.95" y1="485.57" x2="292.95" y2="473.83" style="stroke-width:1;stroke:#000000;fill:#000000;stroke-opacity:1.000000;fill-opacity:0.000000"/>
<line x1="296.54" y1="485.57" x2="296.54" y2="477.41" style="stroke-width:1;stroke:#000000;fill:#000000;stroke-opacity:1.000000;fill-opacity:0.000000"/>
<line x1="300.12" y1="485.57" x2="300.12" y2="495.82" style="stroke-width:1;stroke:#000000;fill:#000000;stroke-opacity:1.000000;fill-opacity:0.000000"/>
<line x1="303.71" y1="485.57" x2="303.71" y2="484.82" style="stroke-width:1;stroke:#000000;fill:#000000;stroke-opacity:1.000000;fill-opacity:0.000000"/>
<line x1="307.29" y1="485.57" x2="307.29" y2="502.60" style="stroke-width:1;stroke:#000000;fill:#000000;stroke-opacity:1.000000;fill-opacity:0.000000"/>
<line x1="310.87" y1="485.57" x2="310.87" y2="484.55" style="stroke-width:1;stroke:#000000;fill:#000000;stroke-opacity:1.000000;fill-opacity:0.000000"/>
<line x1="314.46" y1="485.57" x2="314.46" y2="491.63" style="stroke-width:1;stroke:#000000;fill:#000000;stroke-opacity:1.000000;fill-opacity:0.000000"/>
<line x1="318.04" y1="485.57" x2="318.04" y2="478.03" style="stroke-width:1;stroke:#000000;fill:#000000;stroke-opacity:1.000000;fill-opacity:0.000000"/>
<line x1="321.63" y1="485.57" x2="321.63" y2="485.26" style="stroke-width:1;stroke:#000000;fill:#000000;stroke-opacity:1.000000;fill-opacity:0.000000"/>
<line x1="325.21" y1="485.57" x2="325.21" y2="484.20" style="stroke-width:1;stroke:#000000;fill:#000000;stroke-opacity:1.000000;fill-opacity:0.000000"/>
<line x1="328.80" y1="485.57" x2="328.80" y2="484.08" style="stroke-width:1;stroke:#000000;fill:#000000;stroke-opacity:1.000000;fill-opacity:0.000000"/>
<line x1="332.38" y1="485.57" x2="332.38" y2="477.02" style="stroke-width:1;stroke:#000000;fill:#000000;stroke-opacity:1.000000;fill-opacity:0.000000"/>
<line x1="45.64" y1="535.66" x2="332.38" y2="535.66" style="stroke-width:1;stroke:#000000;fill:#000000;stroke-opacity:1.000000;fill-opacity:0.000000"/>
<line x1="45.64" y1="535.66" x2="45.64" y2="539.83" style="stroke-width:1;stroke:#000000;fill:#000000;stroke-opacity:1.000000;fill-opacity:0.000000"/>
<line x1="117.32" y1="535.66" x2="117.32" y2="539.83" style="stroke-width:1;stroke:#000000;fill:#000000;stroke-opacity:1.000000;fill-opacity:0.000000"/>
<line x1="189.01" y1="535.66" x2="189.01" y2="539.83" style="stroke-width:1;stroke:#000000;fill:#000000;stroke-opacity:1.000000;fill-opacity:0.000000"/>
<line x1="260.69" y1="535.66" x2="260.69" y2="539.83" style="stroke-width:1;stroke:#000000;fill:#000000;stroke-opacity:1.000000;fill-opacity:0.000000"/>
<line x1="332.38" y1="535.66" x2="332.38" y2="539.83" style="stroke-width:1;stroke:#000000;fill:#000000;stroke-opacity:1.000000;fill-opacity:0.000000"/>
<text transform="translate(43.14,552.33)"  style="font-size:10" >0</text>
<text transform="translate(111.82,552.33)"  style="font-size:10" >20</text>
<text transform="translate(183.51,552.33)"  style="font-size:10" >40</text>
<text transform="translate(255.19,552.33)"  style="font-size:10" >60</text>
<text transform="translate(326.88,552.33)"  style="font-size:10" >80</text>
<line x1="34.17" y1="485.57" x2="34.17" y2="52.74" style="stroke-width:1;stroke:#000000;fill:#000000;stroke-opacity:1.000000;fill-opacity:0.000000"/>
<line x1="34.17" y1="485.57" x2="30.00" y2="485.57" style="stroke-width:1;stroke:#000000;fill:#000000;stroke-opacity:1.000000;fill-opacity:0.000000"/>
<line x1="34.17" y1="399.00" x2="30.00" y2="399.00" style="stroke-width:1;stroke:#000000;fill:#000000;stroke-opacity:1.000000;fill-opacity:0.000000"/>
<line x1="34.17" y1="312.44" x2="30.00" y2="312.44" style="stroke-width:1;stroke:#000000;fill:#000000;stroke-opacity:1.000000;fill-opacity:0.000000"/>
<line x1="34.17" y1="225.87" x2="30.00" y2="225.87" style="stroke-width:1;stroke:#000000;fill:#000000;stroke-opacity:1.000000;fill-opacity:0.000000"/>
<line x1="34.17" y1="139.31" x2="30.00" y2="139.31" style="stroke-width:1;stroke:#000000;fill:#000000;stroke-opacity:1.000000;fill-opacity:0.000000"/>
<line x1="34.17" y1="52.74" x2="30.00" y2="52.74" style="stroke-width:1;stroke:#000000;fill:#000000;stroke-opacity:1.000000;fill-opacity:0.000000"/>
<text transform="translate(25.83,492.60) rotate(-90)"  style="font-size:10" >0.0</text>
<text transform="translate(25.83,406.03) rotate(-90)"  style="font-size:10" >0.2</text>
<text transform="translate(25.83,319.47) rotate(-90)"  style="font-size:10" >0.4</text>
<text transform="translate(25.83,232.90) rotate(-90)"  style="font-size:10" >0.6</text>
<text transform="translate(25.83,146.33) rotate(-90)"  style="font-size:10" >0.8</text>
<text transform="translate(25.83,59.77) rotate(-90)"  style="font-size:10" >1.0</text>
<polyline points="34.17 , 535.66 343.85 , 535.66 343.85 , 34.17 34.17 , 34.17 34.17 , 535.66 " style="stroke-width:1;stroke:#000000;fill:#000000;stroke-opacity:1.000000;fill-opacity:0.000000"/>
<text transform="translate(180.73,568.99)"  style="font-size:10" >Lag</text>
<text transform="translate(9.17,295.15) rotate(-90)"  style="font-size:10" >ACF</text>
<line x1="34.17" y1="485.57" x2="343.85" y2="485.57" style="stroke-width:1;stroke:#000000;fill:#000000;stroke-opacity:1.000000;fill-opacity:0.000000"/>
<line x1="34.17" y1="467.74" x2="343.85" y2="467.74" style="stroke-width:1;stroke:#0000FF;fill:#000000;stroke-opacity:1.000000;fill-opacity:0.000000;stroke-dasharray:4, 4"/>
<line x1="34.17" y1="503.39" x2="343.85" y2="503.39" style="stroke-width:1;stroke:#0000FF;fill:#000000;stroke-opacity:1.000000;fill-opacity:0.000000;stroke-dasharray:4, 4"/>
<text transform="translate(142.06,17.50)"  style="font-size:12" >Series  RentH$Rt</text>
<polygon points="361.35 , 578.16 722.70 , 578.16 722.70 , 0.00 361.35 , 0.00 " style="stroke-width:1;stroke:#FFFFFF;fill:#FFFFFF;stroke-opacity:0.000000;fill-opacity:1.000000" />
<line x1="406.99" y1="255.31" x2="406.99" y2="517.09" style="stroke-width:1;stroke:#000000;fill:#000000;stroke-opacity:1.000000;fill-opacity:0.000000"/>
<line x1="410.62" y1="255.31" x2="410.62" y2="85.89" style="stroke-width:1;stroke:#000000;fill:#000000;stroke-opacity:1.000000;fill-opacity:0.000000"/>
<line x1="414.25" y1="255.31" x2="414.25" y2="260.00" style="stroke-width:1;stroke:#000000;fill:#000000;stroke-opacity:1.000000;fill-opacity:0.000000"/>
<line x1="417.88" y1="255.31" x2="417.88" y2="135.09" style="stroke-width:1;stroke:#000000;fill:#000000;stroke-opacity:1.000000;fill-opacity:0.000000"/>
<line x1="421.51" y1="255.31" x2="421.51" y2="214.69" style="stroke-width:1;stroke:#000000;fill:#000000;stroke-opacity:1.000000;fill-opacity:0.000000"/>
<line x1="425.13" y1="255.31" x2="425.13" y2="233.21" style="stroke-width:1;stroke:#000000;fill:#000000;stroke-opacity:1.000000;fill-opacity:0.000000"/>
<line x1="428.76" y1="255.31" x2="428.76" y2="206.38" style="stroke-width:1;stroke:#000000;fill:#000000;stroke-opacity:1.000000;fill-opacity:0.000000"/>
<line x1="432.39" y1="255.31" x2="432.39" y2="204.19" style="stroke-width:1;stroke:#000000;fill:#000000;stroke-opacity:1.000000;fill-opacity:0.000000"/>
<line x1="436.02" y1="255.31" x2="436.02" y2="63.50" style="stroke-width:1;stroke:#000000;fill:#000000;stroke-opacity:1.000000;fill-opacity:0.000000"/>
<line x1="439.65" y1="255.31" x2="439.65" y2="299.39" style="stroke-width:1;stroke:#000000;fill:#000000;stroke-opacity:1.000000;fill-opacity:0.000000"/>
<line x1="443.28" y1="255.31" x2="443.28" y2="429.83" style="stroke-width:1;stroke:#000000;fill:#000000;stroke-opacity:1.000000;fill-opacity:0.000000"/>
<line x1="446.91" y1="255.31" x2="446.91" y2="143.51" style="stroke-width:1;stroke:#000000;fill:#000000;stroke-opacity:1.000000;fill-opacity:0.000000"/>
<line x1="450.54" y1="255.31" x2="450.54" y2="95.31" style="stroke-width:1;stroke:#000000;fill:#000000;stroke-opacity:1.000000;fill-opacity:0.000000"/>
<line x1="454.17" y1="255.31" x2="454.17" y2="148.69" style="stroke-width:1;stroke:#000000;fill:#000000;stroke-opacity:1.000000;fill-opacity:0.000000"/>
<line x1="457.80" y1="255.31" x2="457.80" y2="299.20" style="stroke-width:1;stroke:#000000;fill:#000000;stroke-opacity:1.000000;fill-opacity:0.000000"/>
<line x1="461.43" y1="255.31" x2="461.43" y2="304.92" style="stroke-width:1;stroke:#000000;fill:#000000;stroke-opacity:1.000000;fill-opacity:0.000000"/>
<line x1="465.06" y1="255.31" x2="465.06" y2="321.56" style="stroke-width:1;stroke:#000000;fill:#000000;stroke-opacity:1.000000;fill-opacity:0.000000"/>
<line x1="468.69" y1="255.31" x2="468.69" y2="280.89" style="stroke-width:1;stroke:#000000;fill:#000000;stroke-opacity:1.000000;fill-opacity:0.000000"/>
<line x1="472.32" y1="255.31" x2="472.32" y2="247.11" style="stroke-width:1;stroke:#000000;fill:#000000;stroke-opacity:1.000000;fill-opacity:0.000000"/>
<line x1="475.95" y1="255.31" x2="475.95" y2="250.56" style="stroke-width:1;stroke:#000000;fill:#000000;stroke-opacity:1.000000;fill-opacity:0.000000"/>
<line x1="479.58" y1="255.31" x2="479.58" y2="331.59" style="stroke-width:1;stroke:#000000;fill:#000000;stroke-opacity:1.000000;fill-opacity:0.000000"/>
<line x1="483.21" y1="255.31" x2="483.21" y2="91.85" style="stroke-width:1;stroke:#000000;fill:#000000;stroke-opacity:1.000000;fill-opacity:0.000000"/>
<line x1="486.84" y1="255.31" x2="486.84" y2="270.12" style="stroke-width:1;stroke:#000000;fill:#000000;stroke-opacity:1.000000;fill-opacity:0.000000"/>
<line x1="490.47" y1="255.31" x2="490.47" y2="344.88" style="stroke-width:1;stroke:#000000;fill:#000000;stroke-opacity:1.000000;fill-opacity:0.000000"/>
<line x1="494.10" y1="255.31" x2="494.10" y2="498.17" style="stroke-width:1;stroke:#000000;fill:#000000;stroke-opacity:1.000000;fill-opacity:0.000000"/>
<line x1="497.73" y1="255.31" x2="497.73" y2="168.52" style="stroke-width:1;stroke:#000000;fill:#000000;stroke-opacity:1.000000;fill-opacity:0.000000"/>
<line x1="501.36" y1="255.31" x2="501.36" y2="438.96" style="stroke-width:1;stroke:#000000;fill:#000000;stroke-opacity:1.000000;fill-opacity:0.000000"/>
<line x1="504.99" y1="255.31" x2="504.99" y2="211.52" style="stroke-width:1;stroke:#000000;fill:#000000;stroke-opacity:1.000000;fill-opacity:0.000000"/>
<line x1="508.62" y1="255.31" x2="508.62" y2="511.40" style="stroke-width:1;stroke:#000000;fill:#000000;stroke-opacity:1.000000;fill-opacity:0.000000"/>
<line x1="512.25" y1="255.31" x2="512.25" y2="286.41" style="stroke-width:1;stroke:#000000;fill:#000000;stroke-opacity:1.000000;fill-opacity:0.000000"/>
<line x1="515.88" y1="255.31" x2="515.88" y2="52.74" style="stroke-width:1;stroke:#000000;fill:#000000;stroke-opacity:1.000000;fill-opacity:0.000000"/>
<line x1="519.51" y1="255.31" x2="519.51" y2="299.65" style="stroke-width:1;stroke:#000000;fill:#000000;stroke-opacity:1.000000;fill-opacity:0.000000"/>
<line x1="523.14" y1="255.31" x2="523.14" y2="283.02" style="stroke-width:1;stroke:#000000;fill:#000000;stroke-opacity:1.000000;fill-opacity:0.000000"/>
<line x1="526.77" y1="255.31" x2="526.77" y2="386.36" style="stroke-width:1;stroke:#000000;fill:#000000;stroke-opacity:1.000000;fill-opacity:0.000000"/>
<line x1="530.40" y1="255.31" x2="530.40" y2="130.44" style="stroke-width:1;stroke:#000000;fill:#000000;stroke-opacity:1.000000;fill-opacity:0.000000"/>
<line x1="534.02" y1="255.31" x2="534.02" y2="211.07" style="stroke-width:1;stroke:#000000;fill:#000000;stroke-opacity:1.000000;fill-opacity:0.000000"/>
<line x1="537.65" y1="255.31" x2="537.65" y2="185.86" style="stroke-width:1;stroke:#000000;fill:#000000;stroke-opacity:1.000000;fill-opacity:0.000000"/>
<line x1="541.28" y1="255.31" x2="541.28" y2="128.10" style="stroke-width:1;stroke:#000000;fill:#000000;stroke-opacity:1.000000;fill-opacity:0.000000"/>
<line x1="544.91" y1="255.31" x2="544.91" y2="275.76" style="stroke-width:1;stroke:#000000;fill:#000000;stroke-opacity:1.000000;fill-opacity:0.000000"/>
<line x1="548.54" y1="255.31" x2="548.54" y2="354.11" style="stroke-width:1;stroke:#000000;fill:#000000;stroke-opacity:1.000000;fill-opacity:0.000000"/>
<line x1="552.17" y1="255.31" x2="552.17" y2="199.05" style="stroke-width:1;stroke:#000000;fill:#000000;stroke-opacity:1.000000;fill-opacity:0.000000"/>
<line x1="555.80" y1="255.31" x2="555.80" y2="266.28" style="stroke-width:1;stroke:#000000;fill:#000000;stroke-opacity:1.000000;fill-opacity:0.000000"/>
<line x1="559.43" y1="255.31" x2="559.43" y2="282.04" style="stroke-width:1;stroke:#000000;fill:#000000;stroke-opacity:1.000000;fill-opacity:0.000000"/>
<line x1="563.06" y1="255.31" x2="563.06" y2="285.92" style="stroke-width:1;stroke:#000000;fill:#000000;stroke-opacity:1.000000;fill-opacity:0.000000"/>
<line x1="566.69" y1="255.31" x2="566.69" y2="76.25" style="stroke-width:1;stroke:#000000;fill:#000000;stroke-opacity:1.000000;fill-opacity:0.000000"/>
<line x1="570.32" y1="255.31" x2="570.32" y2="164.24" style="stroke-width:1;stroke:#000000;fill:#000000;stroke-opacity:1.000000;fill-opacity:0.000000"/>
<line x1="573.95" y1="255.31" x2="573.95" y2="304.04" style="stroke-width:1;stroke:#000000;fill:#000000;stroke-opacity:1.000000;fill-opacity:0.000000"/>
<line x1="577.58" y1="255.31" x2="577.58" y2="207.05" style="stroke-width:1;stroke:#000000;fill:#000000;stroke-opacity:1.000000;fill-opacity:0.000000"/>
<line x1="581.21" y1="255.31" x2="581.21" y2="326.08" style="stroke-width:1;stroke:#000000;fill:#000000;stroke-opacity:1.000000;fill-opacity:0.000000"/>
<line x1="584.84" y1="255.31" x2="584.84" y2="263.23" style="stroke-width:1;stroke:#000000;fill:#000000;stroke-opacity:1.000000;fill-opacity:0.000000"/>
<line x1="588.47" y1="255.31" x2="588.47" y2="222.22" style="stroke-width:1;stroke:#000000;fill:#000000;stroke-opacity:1.000000;fill-opacity:0.000000"/>
<line x1="592.10" y1="255.31" x2="592.10" y2="296.87" style="stroke-width:1;stroke:#000000;fill:#000000;stroke-opacity:1.000000;fill-opacity:0.000000"/>
<line x1="595.73" y1="255.31" x2="595.73" y2="359.95" style="stroke-width:1;stroke:#000000;fill:#000000;stroke-opacity:1.000000;fill-opacity:0.000000"/>
<line x1="599.36" y1="255.31" x2="599.36" y2="291.38" style="stroke-width:1;stroke:#000000;fill:#000000;stroke-opacity:1.000000;fill-opacity:0.000000"/>
<line x1="602.99" y1="255.31" x2="602.99" y2="333.53" style="stroke-width:1;stroke:#000000;fill:#000000;stroke-opacity:1.000000;fill-opacity:0.000000"/>
<line x1="606.62" y1="255.31" x2="606.62" y2="244.79" style="stroke-width:1;stroke:#000000;fill:#000000;stroke-opacity:1.000000;fill-opacity:0.000000"/>
<line x1="610.25" y1="255.31" x2="610.25" y2="272.12" style="stroke-width:1;stroke:#000000;fill:#000000;stroke-opacity:1.000000;fill-opacity:0.000000"/>
<line x1="613.88" y1="255.31" x2="613.88" y2="202.31" style="stroke-width:1;stroke:#000000;fill:#000000;stroke-opacity:1.000000;fill-opacity:0.000000"/>
<line x1="617.51" y1="255.31" x2="617.51" y2="279.57" style="stroke-width:1;stroke:#000000;fill:#000000;stroke-opacity:1.000000;fill-opacity:0.000000"/>
<line x1="621.14" y1="255.31" x2="621.14" y2="178.90" style="stroke-width:1;stroke:#000000;fill:#000000;stroke-opacity:1.000000;fill-opacity:0.000000"/>
<line x1="624.77" y1="255.31" x2="624.77" y2="270.05" style="stroke-width:1;stroke:#000000;fill:#000000;stroke-opacity:1.000000;fill-opacity:0.000000"/>
<line x1="628.40" y1="255.31" x2="628.40" y2="94.08" style="stroke-width:1;stroke:#000000;fill:#000000;stroke-opacity:1.000000;fill-opacity:0.000000"/>
<line x1="632.03" y1="255.31" x2="632.03" y2="359.00" style="stroke-width:1;stroke:#000000;fill:#000000;stroke-opacity:1.000000;fill-opacity:0.000000"/>
<line x1="635.66" y1="255.31" x2="635.66" y2="368.60" style="stroke-width:1;stroke:#000000;fill:#000000;stroke-opacity:1.000000;fill-opacity:0.000000"/>
<line x1="639.29" y1="255.31" x2="639.29" y2="159.90" style="stroke-width:1;stroke:#000000;fill:#000000;stroke-opacity:1.000000;fill-opacity:0.000000"/>
<line x1="642.91" y1="255.31" x2="642.91" y2="246.55" style="stroke-width:1;stroke:#000000;fill:#000000;stroke-opacity:1.000000;fill-opacity:0.000000"/>
<line x1="646.54" y1="255.31" x2="646.54" y2="353.45" style="stroke-width:1;stroke:#000000;fill:#000000;stroke-opacity:1.000000;fill-opacity:0.000000"/>
<line x1="650.17" y1="255.31" x2="650.17" y2="137.77" style="stroke-width:1;stroke:#000000;fill:#000000;stroke-opacity:1.000000;fill-opacity:0.000000"/>
<line x1="653.80" y1="255.31" x2="653.80" y2="113.22" style="stroke-width:1;stroke:#000000;fill:#000000;stroke-opacity:1.000000;fill-opacity:0.000000"/>
<line x1="657.43" y1="255.31" x2="657.43" y2="152.45" style="stroke-width:1;stroke:#000000;fill:#000000;stroke-opacity:1.000000;fill-opacity:0.000000"/>
<line x1="661.06" y1="255.31" x2="661.06" y2="352.46" style="stroke-width:1;stroke:#000000;fill:#000000;stroke-opacity:1.000000;fill-opacity:0.000000"/>
<line x1="664.69" y1="255.31" x2="664.69" y2="267.75" style="stroke-width:1;stroke:#000000;fill:#000000;stroke-opacity:1.000000;fill-opacity:0.000000"/>
<line x1="668.32" y1="255.31" x2="668.32" y2="413.08" style="stroke-width:1;stroke:#000000;fill:#000000;stroke-opacity:1.000000;fill-opacity:0.000000"/>
<line x1="671.95" y1="255.31" x2="671.95" y2="290.10" style="stroke-width:1;stroke:#000000;fill:#000000;stroke-opacity:1.000000;fill-opacity:0.000000"/>
<line x1="675.58" y1="255.31" x2="675.58" y2="265.97" style="stroke-width:1;stroke:#000000;fill:#000000;stroke-opacity:1.000000;fill-opacity:0.000000"/>
<line x1="679.21" y1="255.31" x2="679.21" y2="211.82" style="stroke-width:1;stroke:#000000;fill:#000000;stroke-opacity:1.000000;fill-opacity:0.000000"/>
<line x1="682.84" y1="255.31" x2="682.84" y2="228.22" style="stroke-width:1;stroke:#000000;fill:#000000;stroke-opacity:1.000000;fill-opacity:0.000000"/>
<line x1="686.47" y1="255.31" x2="686.47" y2="263.16" style="stroke-width:1;stroke:#000000;fill:#000000;stroke-opacity:1.000000;fill-opacity:0.000000"/>
<line x1="690.10" y1="255.31" x2="690.10" y2="220.52" style="stroke-width:1;stroke:#000000;fill:#000000;stroke-opacity:1.000000;fill-opacity:0.000000"/>
<line x1="693.73" y1="255.31" x2="693.73" y2="170.27" style="stroke-width:1;stroke:#000000;fill:#000000;stroke-opacity:1.000000;fill-opacity:0.000000"/>
<line x1="403.36" y1="535.66" x2="693.73" y2="535.66" style="stroke-width:1;stroke:#000000;fill:#000000;stroke-opacity:1.000000;fill-opacity:0.000000"/>
<line x1="403.36" y1="535.66" x2="403.36" y2="539.83" style="stroke-width:1;stroke:#000000;fill:#000000;stroke-opacity:1.000000;fill-opacity:0.000000"/>
<line x1="475.95" y1="535.66" x2="475.95" y2="539.83" style="stroke-width:1;stroke:#000000;fill:#000000;stroke-opacity:1.000000;fill-opacity:0.000000"/>
<line x1="548.54" y1="535.66" x2="548.54" y2="539.83" style="stroke-width:1;stroke:#000000;fill:#000000;stroke-opacity:1.000000;fill-opacity:0.000000"/>
<line x1="621.14" y1="535.66" x2="621.14" y2="539.83" style="stroke-width:1;stroke:#000000;fill:#000000;stroke-opacity:1.000000;fill-opacity:0.000000"/>
<line x1="693.73" y1="535.66" x2="693.73" y2="539.83" style="stroke-width:1;stroke:#000000;fill:#000000;stroke-opacity:1.000000;fill-opacity:0.000000"/>
<text transform="translate(400.86,552.33)"  style="font-size:10" >0</text>
<text transform="translate(470.45,552.33)"  style="font-size:10" >20</text>
<text transform="translate(543.04,552.33)"  style="font-size:10" >40</text>
<text transform="translate(615.64,552.33)"  style="font-size:10" >60</text>
<text transform="translate(688.23,552.33)"  style="font-size:10" >80</text>
<line x1="395.52" y1="498.82" x2="395.52" y2="92.97" style="stroke-width:1;stroke:#000000;fill:#000000;stroke-opacity:1.000000;fill-opacity:0.000000"/>
<line x1="395.52" y1="498.82" x2="391.35" y2="498.82" style="stroke-width:1;stroke:#000000;fill:#000000;stroke-opacity:1.000000;fill-opacity:0.000000"/>
<line x1="395.52" y1="417.65" x2="391.35" y2="417.65" style="stroke-width:1;stroke:#000000;fill:#000000;stroke-opacity:1.000000;fill-opacity:0.000000"/>
<line x1="395.52" y1="336.48" x2="391.35" y2="336.48" style="stroke-width:1;stroke:#000000;fill:#000000;stroke-opacity:1.000000;fill-opacity:0.000000"/>
<line x1="395.52" y1="255.31" x2="391.35" y2="255.31" style="stroke-width:1;stroke:#000000;fill:#000000;stroke-opacity:1.000000;fill-opacity:0.000000"/>
<line x1="395.52" y1="174.14" x2="391.35" y2="174.14" style="stroke-width:1;stroke:#000000;fill:#000000;stroke-opacity:1.000000;fill-opacity:0.000000"/>
<line x1="395.52" y1="92.97" x2="391.35" y2="92.97" style="stroke-width:1;stroke:#000000;fill:#000000;stroke-opacity:1.000000;fill-opacity:0.000000"/>
<text transform="translate(387.18,510.43) rotate(-90)"  style="font-size:10" >-0.06</text>
<text transform="translate(387.18,429.26) rotate(-90)"  style="font-size:10" >-0.04</text>
<text transform="translate(387.18,348.09) rotate(-90)"  style="font-size:10" >-0.02</text>
<text transform="translate(387.18,265.08) rotate(-90)"  style="font-size:10" >0.00</text>
<text transform="translate(387.18,183.91) rotate(-90)"  style="font-size:10" >0.02</text>
<text transform="translate(387.18,102.74) rotate(-90)"  style="font-size:10" >0.04</text>
<polyline points="395.52 , 535.66 705.20 , 535.66 705.20 , 34.17 395.52 , 34.17 395.52 , 535.66 " style="stroke-width:1;stroke:#000000;fill:#000000;stroke-opacity:1.000000;fill-opacity:0.000000"/>
<text transform="translate(542.08,568.99)"  style="font-size:10" >Lag</text>
<text transform="translate(370.52,311.63) rotate(-90)"  style="font-size:10" >Partial ACF</text>
<line x1="395.52" y1="255.31" x2="705.20" y2="255.31" style="stroke-width:1;stroke:#000000;fill:#000000;stroke-opacity:1.000000;fill-opacity:0.000000"/>
<line x1="395.52" y1="88.17" x2="705.20" y2="88.17" style="stroke-width:1;stroke:#0000FF;fill:#000000;stroke-opacity:1.000000;fill-opacity:0.000000;stroke-dasharray:4, 4"/>
<line x1="395.52" y1="422.45" x2="705.20" y2="422.45" style="stroke-width:1;stroke:#0000FF;fill:#000000;stroke-opacity:1.000000;fill-opacity:0.000000;stroke-dasharray:4, 4"/>
<text transform="translate(503.41,17.50)"  style="font-size:12" >Series  RentH$Rt</text>
</svg>
