<?xml version="1.0" encoding="UTF-8"?>
<svg xmlns="http://www.w3.org/2000/svg" width="722.70" height="578.16" viewBox="0,0,722.70,578.16">
<desc>R SVG Plot!</desc>
<rect width="100%" height="100%" style="fill:#FFFFFF"/>
<text transform="translate(314.87,22.08)"  style="font-size:12" >Histogram of residuals</text>
<text transform="translate(350.44,568.99)"  style="font-size:10" >Residuals</text>
<text transform="translate(9.17,302.15) rotate(-90)"  style="font-size:10" >Density</text>
<line x1="88.41" y1="535.66" x2="613.18" y2="535.66" style="stroke-width:1;stroke:#000000;fill:#000000;stroke-opacity:1.000000;fill-opacity:0.000000"/>
<line x1="88.41" y1="535.66" x2="88.41" y2="539.83" style="stroke-width:1;stroke:#000000;fill:#000000;stroke-opacity:1.000000;fill-opacity:0.000000"/>
<line x1="193.36" y1="535.66" x2="193.36" y2="539.83" style="stroke-width:1;stroke:#000000;fill:#000000;stroke-opacity:1.000000;fill-opacity:0.000000"/>
<line x1="298.31" y1="535.66" x2="298.31" y2="539.83" style="stroke-width:1;stroke:#000000;fill:#000000;stroke-opacity:1.000000;fill-opacity:0.000000"/>
<line x1="403.27" y1="535.66" x2="403.27" y2="539.83" style="stroke-width:1;stroke:#000000;fill:#000000;stroke-opacity:1.000000;fill-opacity:0.000000"/>
<line x1="508.22" y1="535.66" x2="508.22" y2="539.83" style="stroke-width:1;stroke:#000000;fill:#000000;stroke-opacity:1.000000;fill-opacity:0.000000"/>
<line x1="613.18" y1="535.66" x2="613.18" y2="539.83" style="stroke-width:1;stroke:#000000;fill:#000000;stroke-opacity:1.000000;fill-opacity:0.000000"/>
<text transform="translate(76.80,552.33)"  style="font-size:10" >-0.15</text>
<text transform="translate(181.75,552.33)"  style="font-size:10" >-0.10</text>
<text transform="translate(286.70,552.33)"  style="font-size:10" >-0.05</text>
<text transform="translate(393.49,552.33)"  style="font-size:10" >0.00</text>
<text transform="translate(498.44,552.33)"  style="font-size:10" >0.05</text>
<text transform="translate(603.40,552.33)"  style="font-size:10" >0.10</text>
<line x1="34.17" y1="517.09" x2="34.17" y2="56.11" style="stroke-width:1;stroke:#000000;fill:#000000;stroke-opacity:1.000000;fill-opacity:0.000000"/>
<line x1="34.17" y1="517.09" x2="30.00" y2="517.09" style="stroke-width:1;stroke:#000000;fill:#000000;stroke-opacity:1.000000;fill-opacity:0.000000"/>
<line x1="34.17" y1="424.89" x2="30.00" y2="424.89" style="stroke-width:1;stroke:#000000;fill:#000000;stroke-opacity:1.000000;fill-opacity:0.000000"/>
<line x1="34.17" y1="332.70" x2="30.00" y2="332.70" style="stroke-width:1;stroke:#000000;fill:#000000;stroke-opacity:1.000000;fill-opacity:0.000000"/>
<line x1="34.17" y1="240.50" x2="30.00" y2="240.50" style="stroke-width:1;stroke:#000000;fill:#000000;stroke-opacity:1.000000;fill-opacity:0.000000"/>
<line x1="34.17" y1="148.31" x2="30.00" y2="148.31" style="stroke-width:1;stroke:#000000;fill:#000000;stroke-opacity:1.000000;fill-opacity:0.000000"/>
<line x1="34.17" y1="56.11" x2="30.00" y2="56.11" style="stroke-width:1;stroke:#000000;fill:#000000;stroke-opacity:1.000000;fill-opacity:0.000000"/>
<text transform="translate(25.83,519.84) rotate(-90)"  style="font-size:10" >0</text>
<text transform="translate(25.83,430.39) rotate(-90)"  style="font-size:10" >10</text>
<text transform="translate(25.83,338.20) rotate(-90)"  style="font-size:10" >20</text>
<text transform="translate(25.83,246.00) rotate(-90)"  style="font-size:10" >30</text>
<text transform="translate(25.83,153.81) rotate(-90)"  style="font-size:10" >40</text>
<text transform="translate(25.83,61.61) rotate(-90)"  style="font-size:10" >50</text>
<rect x="59.02" y="517.09" width="3.12" height="0.00" style="stroke-width:1;stroke:#000000;fill:#BEBEBE;stroke-opacity:1.000000;fill-opacity:1.000000" />
<rect x="62.14" y="516.51" width="3.12" height="0.58" style="stroke-width:1;stroke:#000000;fill:#BEBEBE;stroke-opacity:1.000000;fill-opacity:1.000000" />
<rect x="65.26" y="517.09" width="3.12" height="0.00" style="stroke-width:1;stroke:#000000;fill:#BEBEBE;stroke-opacity:1.000000;fill-opacity:1.000000" />
<rect x="68.39" y="517.09" width="3.12" height="0.00" style="stroke-width:1;stroke:#000000;fill:#BEBEBE;stroke-opacity:1.000000;fill-opacity:1.000000" />
<rect x="71.51" y="517.09" width="3.12" height="0.00" style="stroke-width:1;stroke:#000000;fill:#BEBEBE;stroke-opacity:1.000000;fill-opacity:1.000000" />
<rect x="74.63" y="517.09" width="3.12" height="0.00" style="stroke-width:1;stroke:#000000;fill:#BEBEBE;stroke-opacity:1.000000;fill-opacity:1.000000" />
<rect x="77.75" y="517.09" width="3.12" height="0.00" style="stroke-width:1;stroke:#000000;fill:#BEBEBE;stroke-opacity:1.000000;fill-opacity:1.000000" />
<rect x="80.88" y="517.09" width="3.12" height="0.00" style="stroke-width:1;stroke:#000000;fill:#BEBEBE;stroke-opacity:1.000000;fill-opacity:1.000000" />
<rect x="84.00" y="517.09" width="3.12" height="0.00" style="stroke-width:1;stroke:#000000;fill:#BEBEBE;stroke-opacity:1.000000;fill-opacity:1.000000" />
<rect x="87.12" y="517.09" width="3.12" height="0.00" style="stroke-width:1;stroke:#000000;fill:#BEBEBE;stroke-opacity:1.000000;fill-opacity:1.000000" />
<rect x="90.24" y="517.09" width="3.12" height="0.00" style="stroke-width:1;stroke:#000000;fill:#BEBEBE;stroke-opacity:1.000000;fill-opacity:1.000000" />
<rect x="93.36" y="517.09" width="3.12" height="0.00" style="stroke-width:1;stroke:#000000;fill:#BEBEBE;stroke-opacity:1.000000;fill-opacity:1.000000" />
<rect x="96.49" y="517.09" width="3.12" height="0.00" style="stroke-width:1;stroke:#000000;fill:#BEBEBE;stroke-opacity:1.000000;fill-opacity:1.000000" />
<rect x="99.61" y="517.09" width="3.12" height="0.00" style="stroke-width:1;stroke:#000000;fill:#BEBEBE;stroke-opacity:1.000000;fill-opacity:1.000000" />
<rect x="102.73" y="517.09" width="3.12" height="0.00" style="stroke-width:1;stroke:#000000;fill:#BEBEBE;stroke-opacity:1.000000;fill-opacity:1.000000" />
<rect x="105.85" y="517.09" width="3.12" height="0.00" style="stroke-width:1;stroke:#000000;fill:#BEBEBE;stroke-opacity:1.000000;fill-opacity:1.000000" />
<rect x="108.98" y="517.09" width="3.12" height="0.00" style="stroke-width:1;stroke:#000000;fill:#BEBEBE;stroke-opacity:1.000000;fill-opacity:1.000000" />
<rect x="112.10" y="517.09" width="3.12" height="0.00" style="stroke-width:1;stroke:#000000;fill:#BEBEBE;stroke-opacity:1.000000;fill-opacity:1.000000" />
<rect x="115.22" y="517.09" width="3.12" height="0.00" style="stroke-width:1;stroke:#000000;fill:#BEBEBE;stroke-opacity:1.000000;fill-opacity:1.000000" />
<rect x="118.34" y="517.09" width="3.12" height="0.00" style="stroke-width:1;stroke:#000000;fill:#BEBEBE;stroke-opacity:1.000000;fill-opacity:1.000000" />
<rect x="121.46" y="517.09" width="3.12" height="0.00" style="stroke-width:1;stroke:#000000;fill:#BEBEBE;stroke-opacity:1.000000;fill-opacity:1.000000" />
<rect x="124.59" y="517.09" width="3.12" height="0.00" style="stroke-width:1;stroke:#000000;fill:#BEBEBE;stroke-opacity:1.000000;fill-opacity:1.000000" />
<rect x="127.71" y="517.09" width="3.12" height="0.00" style="stroke-width:1;stroke:#000000;fill:#BEBEBE;stroke-opacity:1.000000;fill-opacity:1.000000" />
<rect x="130.83" y="517.09" width="3.12" height="0.00" style="stroke-width:1;stroke:#000000;fill:#BEBEBE;stroke-opacity:1.000000;fill-opacity:1.000000" />
<rect x="133.95" y="517.09" width="3.12" height="0.00" style="stroke-width:1;stroke:#000000;fill:#BEBEBE;stroke-opacity:1.000000;fill-opacity:1.000000" />
<rect x="137.08" y="517.09" width="3.12" height="0.00" style="stroke-width:1;stroke:#000000;fill:#BEBEBE;stroke-opacity:1.000000;fill-opacity:1.000000" />
<rect x="140.20" y="517.09" width="3.12" height="0.00" style="stroke-width:1;stroke:#000000;fill:#BEBEBE;stroke-opacity:1.000000;fill-opacity:1.000000" />
<rect x="143.32" y="517.09" width="3.12" height="0.00" style="stroke-width:1;stroke:#000000;fill:#BEBEBE;stroke-opacity:1.000000;fill-opacity:1.000000" />
<rect x="146.44" y="517.09" width="3.12" height="0.00" style="stroke-width:1;stroke:#000000;fill:#BEBEBE;stroke-opacity:1.000000;fill-opacity:1.000000" />
<rect x="149.56" y="517.09" width="3.12" height="0.00" style="stroke-width:1;stroke:#000000;fill:#BEBEBE;stroke-opacity:1.000000;fill-opacity:1.000000" />
<rect x="152.69" y="517.09" width="3.12" height="0.00" style="stroke-width:1;stroke:#000000;fill:#BEBEBE;stroke-opacity:1.000000;fill-opacity:1.000000" />
<rect x="155.81" y="516.51" width="3.12" height="0.58" style="stroke-width:1;stroke:#000000;fill:#BEBEBE;stroke-opacity:1.000000;fill-opacity:1.000000" />
<rect x="158.93" y="517.09" width="3.12" height="0.00" style="stroke-width:1;stroke:#000000;fill:#BEBEBE;stroke-opacity:1.000000;fill-opacity:1.000000" />
<rect x="162.05" y="517.09" width="3.12" height="0.00" style="stroke-width:1;stroke:#000000;fill:#BEBEBE;stroke-opacity:1.000000;fill-opacity:1.000000" />
<rect x="165.18" y="516.51" width="3.12" height="0.58" style="stroke-width:1;stroke:#000000;fill:#BEBEBE;stroke-opacity:1.000000;fill-opacity:1.000000" />
<rect x="168.30" y="517.09" width="3.12" height="0.00" style="stroke-width:1;stroke:#000000;fill:#BEBEBE;stroke-opacity:1.000000;fill-opacity:1.000000" />
<rect x="171.42" y="517.09" width="3.12" height="0.00" style="stroke-width:1;stroke:#000000;fill:#BEBEBE;stroke-opacity:1.000000;fill-opacity:1.000000" />
<rect x="174.54" y="517.09" width="3.12" height="0.00" style="stroke-width:1;stroke:#000000;fill:#BEBEBE;stroke-opacity:1.000000;fill-opacity:1.000000" />
<rect x="177.67" y="517.09" width="3.12" height="0.00" style="stroke-width:1;stroke:#000000;fill:#BEBEBE;stroke-opacity:1.000000;fill-opacity:1.000000" />
<rect x="180.79" y="516.51" width="3.12" height="0.58" style="stroke-width:1;stroke:#000000;fill:#BEBEBE;stroke-opacity:1.000000;fill-opacity:1.000000" />
<rect x="183.91" y="516.51" width="3.12" height="0.58" style="stroke-width:1;stroke:#000000;fill:#BEBEBE;stroke-opacity:1.000000;fill-opacity:1.000000" />
<rect x="187.03" y="517.09" width="3.12" height="0.00" style="stroke-width:1;stroke:#000000;fill:#BEBEBE;stroke-opacity:1.000000;fill-opacity:1.000000" />
<rect x="190.15" y="516.51" width="3.12" height="0.58" style="stroke-width:1;stroke:#000000;fill:#BEBEBE;stroke-opacity:1.000000;fill-opacity:1.000000" />
<rect x="193.28" y="517.09" width="3.12" height="0.00" style="stroke-width:1;stroke:#000000;fill:#BEBEBE;stroke-opacity:1.000000;fill-opacity:1.000000" />
<rect x="196.40" y="517.09" width="3.12" height="0.00" style="stroke-width:1;stroke:#000000;fill:#BEBEBE;stroke-opacity:1.000000;fill-opacity:1.000000" />
<rect x="199.52" y="517.09" width="3.12" height="0.00" style="stroke-width:1;stroke:#000000;fill:#BEBEBE;stroke-opacity:1.000000;fill-opacity:1.000000" />
<rect x="202.64" y="517.09" width="3.12" height="0.00" style="stroke-width:1;stroke:#000000;fill:#BEBEBE;stroke-opacity:1.000000;fill-opacity:1.000000" />
<rect x="205.77" y="517.09" width="3.12" height="0.00" style="stroke-width:1;stroke:#000000;fill:#BEBEBE;stroke-opacity:1.000000;fill-opacity:1.000000" />
<rect x="208.89" y="517.09" width="3.12" height="0.00" style="stroke-width:1;stroke:#000000;fill:#BEBEBE;stroke-opacity:1.000000;fill-opacity:1.000000" />
<rect x="212.01" y="517.09" width="3.12" height="0.00" style="stroke-width:1;stroke:#000000;fill:#BEBEBE;stroke-opacity:1.000000;fill-opacity:1.000000" />
<rect x="215.13" y="517.09" width="3.12" height="0.00" style="stroke-width:1;stroke:#000000;fill:#BEBEBE;stroke-opacity:1.000000;fill-opacity:1.000000" />
<rect x="218.25" y="517.09" width="3.12" height="0.00" style="stroke-width:1;stroke:#000000;fill:#BEBEBE;stroke-opacity:1.000000;fill-opacity:1.000000" />
<rect x="221.38" y="517.09" width="3.12" height="0.00" style="stroke-width:1;stroke:#000000;fill:#BEBEBE;stroke-opacity:1.000000;fill-opacity:1.000000" />
<rect x="224.50" y="517.09" width="3.12" height="0.00" style="stroke-width:1;stroke:#000000;fill:#BEBEBE;stroke-opacity:1.000000;fill-opacity:1.000000" />
<rect x="227.62" y="517.09" width="3.12" height="0.00" style="stroke-width:1;stroke:#000000;fill:#BEBEBE;stroke-opacity:1.000000;fill-opacity:1.000000" />
<rect x="230.74" y="517.09" width="3.12" height="0.00" style="stroke-width:1;stroke:#000000;fill:#BEBEBE;stroke-opacity:1.000000;fill-opacity:1.000000" />
<rect x="233.87" y="517.09" width="3.12" height="0.00" style="stroke-width:1;stroke:#000000;fill:#BEBEBE;stroke-opacity:1.000000;fill-opacity:1.000000" />
<rect x="236.99" y="517.09" width="3.12" height="0.00" style="stroke-width:1;stroke:#000000;fill:#BEBEBE;stroke-opacity:1.000000;fill-opacity:1.000000" />
<rect x="240.11" y="517.09" width="3.12" height="0.00" style="stroke-width:1;stroke:#000000;fill:#BEBEBE;stroke-opacity:1.000000;fill-opacity:1.000000" />
<rect x="243.23" y="516.51" width="3.12" height="0.58" style="stroke-width:1;stroke:#000000;fill:#BEBEBE;stroke-opacity:1.000000;fill-opacity:1.000000" />
<rect x="246.35" y="517.09" width="3.12" height="0.00" style="stroke-width:1;stroke:#000000;fill:#BEBEBE;stroke-opacity:1.000000;fill-opacity:1.000000" />
<rect x="249.48" y="515.93" width="3.12" height="1.16" style="stroke-width:1;stroke:#000000;fill:#BEBEBE;stroke-opacity:1.000000;fill-opacity:1.000000" />
<rect x="252.60" y="517.09" width="3.12" height="0.00" style="stroke-width:1;stroke:#000000;fill:#BEBEBE;stroke-opacity:1.000000;fill-opacity:1.000000" />
<rect x="255.72" y="515.35" width="3.12" height="1.74" style="stroke-width:1;stroke:#000000;fill:#BEBEBE;stroke-opacity:1.000000;fill-opacity:1.000000" />
<rect x="258.84" y="516.51" width="3.12" height="0.58" style="stroke-width:1;stroke:#000000;fill:#BEBEBE;stroke-opacity:1.000000;fill-opacity:1.000000" />
<rect x="261.97" y="516.51" width="3.12" height="0.58" style="stroke-width:1;stroke:#000000;fill:#BEBEBE;stroke-opacity:1.000000;fill-opacity:1.000000" />
<rect x="265.09" y="515.35" width="3.12" height="1.74" style="stroke-width:1;stroke:#000000;fill:#BEBEBE;stroke-opacity:1.000000;fill-opacity:1.000000" />
<rect x="268.21" y="517.09" width="3.12" height="0.00" style="stroke-width:1;stroke:#000000;fill:#BEBEBE;stroke-opacity:1.000000;fill-opacity:1.000000" />
<rect x="271.33" y="516.51" width="3.12" height="0.58" style="stroke-width:1;stroke:#000000;fill:#BEBEBE;stroke-opacity:1.000000;fill-opacity:1.000000" />
<rect x="274.45" y="516.51" width="3.12" height="0.58" style="stroke-width:1;stroke:#000000;fill:#BEBEBE;stroke-opacity:1.000000;fill-opacity:1.000000" />
<rect x="277.58" y="516.51" width="3.12" height="0.58" style="stroke-width:1;stroke:#000000;fill:#BEBEBE;stroke-opacity:1.000000;fill-opacity:1.000000" />
<rect x="280.70" y="515.93" width="3.12" height="1.16" style="stroke-width:1;stroke:#000000;fill:#BEBEBE;stroke-opacity:1.000000;fill-opacity:1.000000" />
<rect x="283.82" y="514.77" width="3.12" height="2.32" style="stroke-width:1;stroke:#000000;fill:#BEBEBE;stroke-opacity:1.000000;fill-opacity:1.000000" />
<rect x="286.94" y="516.51" width="3.12" height="0.58" style="stroke-width:1;stroke:#000000;fill:#BEBEBE;stroke-opacity:1.000000;fill-opacity:1.000000" />
<rect x="290.07" y="514.77" width="3.12" height="2.32" style="stroke-width:1;stroke:#000000;fill:#BEBEBE;stroke-opacity:1.000000;fill-opacity:1.000000" />
<rect x="293.19" y="511.87" width="3.12" height="5.22" style="stroke-width:1;stroke:#000000;fill:#BEBEBE;stroke-opacity:1.000000;fill-opacity:1.000000" />
<rect x="296.31" y="514.77" width="3.12" height="2.32" style="stroke-width:1;stroke:#000000;fill:#BEBEBE;stroke-opacity:1.000000;fill-opacity:1.000000" />
<rect x="299.43" y="514.77" width="3.12" height="2.32" style="stroke-width:1;stroke:#000000;fill:#BEBEBE;stroke-opacity:1.000000;fill-opacity:1.000000" />
<rect x="302.56" y="514.77" width="3.12" height="2.32" style="stroke-width:1;stroke:#000000;fill:#BEBEBE;stroke-opacity:1.000000;fill-opacity:1.000000" />
<rect x="305.68" y="515.35" width="3.12" height="1.74" style="stroke-width:1;stroke:#000000;fill:#BEBEBE;stroke-opacity:1.000000;fill-opacity:1.000000" />
<rect x="308.80" y="514.77" width="3.12" height="2.32" style="stroke-width:1;stroke:#000000;fill:#BEBEBE;stroke-opacity:1.000000;fill-opacity:1.000000" />
<rect x="311.92" y="510.71" width="3.12" height="6.38" style="stroke-width:1;stroke:#000000;fill:#BEBEBE;stroke-opacity:1.000000;fill-opacity:1.000000" />
<rect x="315.04" y="512.45" width="3.12" height="4.64" style="stroke-width:1;stroke:#000000;fill:#BEBEBE;stroke-opacity:1.000000;fill-opacity:1.000000" />
<rect x="318.17" y="509.55" width="3.12" height="7.54" style="stroke-width:1;stroke:#000000;fill:#BEBEBE;stroke-opacity:1.000000;fill-opacity:1.000000" />
<rect x="321.29" y="508.97" width="3.12" height="8.12" style="stroke-width:1;stroke:#000000;fill:#BEBEBE;stroke-opacity:1.000000;fill-opacity:1.000000" />
<rect x="324.41" y="513.61" width="3.12" height="3.48" style="stroke-width:1;stroke:#000000;fill:#BEBEBE;stroke-opacity:1.000000;fill-opacity:1.000000" />
<rect x="327.53" y="503.75" width="3.12" height="13.33" style="stroke-width:1;stroke:#000000;fill:#BEBEBE;stroke-opacity:1.000000;fill-opacity:1.000000" />
<rect x="330.66" y="504.91" width="3.12" height="12.17" style="stroke-width:1;stroke:#000000;fill:#BEBEBE;stroke-opacity:1.000000;fill-opacity:1.000000" />
<rect x="333.78" y="504.91" width="3.12" height="12.17" style="stroke-width:1;stroke:#000000;fill:#BEBEBE;stroke-opacity:1.000000;fill-opacity:1.000000" />
<rect x="336.90" y="495.64" width="3.12" height="21.45" style="stroke-width:1;stroke:#000000;fill:#BEBEBE;stroke-opacity:1.000000;fill-opacity:1.000000" />
<rect x="340.02" y="498.54" width="3.12" height="18.55" style="stroke-width:1;stroke:#000000;fill:#BEBEBE;stroke-opacity:1.000000;fill-opacity:1.000000" />
<rect x="343.14" y="498.54" width="3.12" height="18.55" style="stroke-width:1;stroke:#000000;fill:#BEBEBE;stroke-opacity:1.000000;fill-opacity:1.000000" />
<rect x="346.27" y="491.58" width="3.12" height="25.51" style="stroke-width:1;stroke:#000000;fill:#BEBEBE;stroke-opacity:1.000000;fill-opacity:1.000000" />
<rect x="349.39" y="480.56" width="3.12" height="36.52" style="stroke-width:1;stroke:#000000;fill:#BEBEBE;stroke-opacity:1.000000;fill-opacity:1.000000" />
<rect x="352.51" y="474.77" width="3.12" height="42.32" style="stroke-width:1;stroke:#000000;fill:#BEBEBE;stroke-opacity:1.000000;fill-opacity:1.000000" />
<rect x="355.63" y="470.71" width="3.12" height="46.38" style="stroke-width:1;stroke:#000000;fill:#BEBEBE;stroke-opacity:1.000000;fill-opacity:1.000000" />
<rect x="358.76" y="464.33" width="3.12" height="52.75" style="stroke-width:1;stroke:#000000;fill:#BEBEBE;stroke-opacity:1.000000;fill-opacity:1.000000" />
<rect x="361.88" y="459.70" width="3.12" height="57.39" style="stroke-width:1;stroke:#000000;fill:#BEBEBE;stroke-opacity:1.000000;fill-opacity:1.000000" />
<rect x="365.00" y="452.74" width="3.12" height="64.35" style="stroke-width:1;stroke:#000000;fill:#BEBEBE;stroke-opacity:1.000000;fill-opacity:1.000000" />
<rect x="368.12" y="440.56" width="3.12" height="76.52" style="stroke-width:1;stroke:#000000;fill:#BEBEBE;stroke-opacity:1.000000;fill-opacity:1.000000" />
<rect x="371.24" y="413.90" width="3.12" height="103.19" style="stroke-width:1;stroke:#000000;fill:#BEBEBE;stroke-opacity:1.000000;fill-opacity:1.000000" />
<rect x="374.37" y="406.94" width="3.12" height="110.14" style="stroke-width:1;stroke:#000000;fill:#BEBEBE;stroke-opacity:1.000000;fill-opacity:1.000000" />
<rect x="377.49" y="378.54" width="3.12" height="138.55" style="stroke-width:1;stroke:#000000;fill:#BEBEBE;stroke-opacity:1.000000;fill-opacity:1.000000" />
<rect x="380.61" y="373.90" width="3.12" height="143.19" style="stroke-width:1;stroke:#000000;fill:#BEBEBE;stroke-opacity:1.000000;fill-opacity:1.000000" />
<rect x="383.73" y="326.36" width="3.12" height="190.72" style="stroke-width:1;stroke:#000000;fill:#BEBEBE;stroke-opacity:1.000000;fill-opacity:1.000000" />
<rect x="386.86" y="282.30" width="3.12" height="234.78" style="stroke-width:1;stroke:#000000;fill:#BEBEBE;stroke-opacity:1.000000;fill-opacity:1.000000" />
<rect x="389.98" y="253.90" width="3.12" height="263.19" style="stroke-width:1;stroke:#000000;fill:#BEBEBE;stroke-opacity:1.000000;fill-opacity:1.000000" />
<rect x="393.10" y="206.94" width="3.12" height="310.14" style="stroke-width:1;stroke:#000000;fill:#BEBEBE;stroke-opacity:1.000000;fill-opacity:1.000000" />
<rect x="396.22" y="136.80" width="3.12" height="380.29" style="stroke-width:1;stroke:#000000;fill:#BEBEBE;stroke-opacity:1.000000;fill-opacity:1.000000" />
<rect x="399.34" y="79.41" width="3.12" height="437.68" style="stroke-width:1;stroke:#000000;fill:#BEBEBE;stroke-opacity:1.000000;fill-opacity:1.000000" />
<rect x="402.47" y="52.74" width="3.12" height="464.35" style="stroke-width:1;stroke:#000000;fill:#BEBEBE;stroke-opacity:1.000000;fill-opacity:1.000000" />
<rect x="405.59" y="84.04" width="3.12" height="433.04" style="stroke-width:1;stroke:#000000;fill:#BEBEBE;stroke-opacity:1.000000;fill-opacity:1.000000" />
<rect x="408.71" y="134.48" width="3.12" height="382.61" style="stroke-width:1;stroke:#000000;fill:#BEBEBE;stroke-opacity:1.000000;fill-opacity:1.000000" />
<rect x="411.83" y="183.17" width="3.12" height="333.91" style="stroke-width:1;stroke:#000000;fill:#BEBEBE;stroke-opacity:1.000000;fill-opacity:1.000000" />
<rect x="414.96" y="221.44" width="3.12" height="295.65" style="stroke-width:1;stroke:#000000;fill:#BEBEBE;stroke-opacity:1.000000;fill-opacity:1.000000" />
<rect x="418.08" y="278.25" width="3.12" height="238.84" style="stroke-width:1;stroke:#000000;fill:#BEBEBE;stroke-opacity:1.000000;fill-opacity:1.000000" />
<rect x="421.20" y="315.35" width="3.12" height="201.74" style="stroke-width:1;stroke:#000000;fill:#BEBEBE;stroke-opacity:1.000000;fill-opacity:1.000000" />
<rect x="424.32" y="365.78" width="3.12" height="151.30" style="stroke-width:1;stroke:#000000;fill:#BEBEBE;stroke-opacity:1.000000;fill-opacity:1.000000" />
<rect x="427.44" y="397.09" width="3.12" height="120.00" style="stroke-width:1;stroke:#000000;fill:#BEBEBE;stroke-opacity:1.000000;fill-opacity:1.000000" />
<rect x="430.57" y="404.04" width="3.12" height="113.04" style="stroke-width:1;stroke:#000000;fill:#BEBEBE;stroke-opacity:1.000000;fill-opacity:1.000000" />
<rect x="433.69" y="410.42" width="3.12" height="106.67" style="stroke-width:1;stroke:#000000;fill:#BEBEBE;stroke-opacity:1.000000;fill-opacity:1.000000" />
<rect x="436.81" y="441.72" width="3.12" height="75.36" style="stroke-width:1;stroke:#000000;fill:#BEBEBE;stroke-opacity:1.000000;fill-opacity:1.000000" />
<rect x="439.93" y="444.62" width="3.12" height="72.46" style="stroke-width:1;stroke:#000000;fill:#BEBEBE;stroke-opacity:1.000000;fill-opacity:1.000000" />
<rect x="443.06" y="466.07" width="3.12" height="51.01" style="stroke-width:1;stroke:#000000;fill:#BEBEBE;stroke-opacity:1.000000;fill-opacity:1.000000" />
<rect x="446.18" y="467.81" width="3.12" height="49.28" style="stroke-width:1;stroke:#000000;fill:#BEBEBE;stroke-opacity:1.000000;fill-opacity:1.000000" />
<rect x="449.30" y="482.88" width="3.12" height="34.20" style="stroke-width:1;stroke:#000000;fill:#BEBEBE;stroke-opacity:1.000000;fill-opacity:1.000000" />
<rect x="452.42" y="487.52" width="3.12" height="29.57" style="stroke-width:1;stroke:#000000;fill:#BEBEBE;stroke-opacity:1.000000;fill-opacity:1.000000" />
<rect x="455.55" y="494.48" width="3.12" height="22.61" style="stroke-width:1;stroke:#000000;fill:#BEBEBE;stroke-opacity:1.000000;fill-opacity:1.000000" />
<rect x="458.67" y="493.32" width="3.12" height="23.77" style="stroke-width:1;stroke:#000000;fill:#BEBEBE;stroke-opacity:1.000000;fill-opacity:1.000000" />
<rect x="461.79" y="495.64" width="3.12" height="21.45" style="stroke-width:1;stroke:#000000;fill:#BEBEBE;stroke-opacity:1.000000;fill-opacity:1.000000" />
<rect x="464.91" y="504.33" width="3.12" height="12.75" style="stroke-width:1;stroke:#000000;fill:#BEBEBE;stroke-opacity:1.000000;fill-opacity:1.000000" />
<rect x="468.03" y="503.17" width="3.12" height="13.91" style="stroke-width:1;stroke:#000000;fill:#BEBEBE;stroke-opacity:1.000000;fill-opacity:1.000000" />
<rect x="471.16" y="506.07" width="3.12" height="11.01" style="stroke-width:1;stroke:#000000;fill:#BEBEBE;stroke-opacity:1.000000;fill-opacity:1.000000" />
<rect x="474.28" y="505.49" width="3.12" height="11.59" style="stroke-width:1;stroke:#000000;fill:#BEBEBE;stroke-opacity:1.000000;fill-opacity:1.000000" />
<rect x="477.40" y="510.13" width="3.12" height="6.96" style="stroke-width:1;stroke:#000000;fill:#BEBEBE;stroke-opacity:1.000000;fill-opacity:1.000000" />
<rect x="480.52" y="511.29" width="3.12" height="5.80" style="stroke-width:1;stroke:#000000;fill:#BEBEBE;stroke-opacity:1.000000;fill-opacity:1.000000" />
<rect x="483.65" y="515.35" width="3.12" height="1.74" style="stroke-width:1;stroke:#000000;fill:#BEBEBE;stroke-opacity:1.000000;fill-opacity:1.000000" />
<rect x="486.77" y="512.45" width="3.12" height="4.64" style="stroke-width:1;stroke:#000000;fill:#BEBEBE;stroke-opacity:1.000000;fill-opacity:1.000000" />
<rect x="489.89" y="510.71" width="3.12" height="6.38" style="stroke-width:1;stroke:#000000;fill:#BEBEBE;stroke-opacity:1.000000;fill-opacity:1.000000" />
<rect x="493.01" y="514.19" width="3.12" height="2.90" style="stroke-width:1;stroke:#000000;fill:#BEBEBE;stroke-opacity:1.000000;fill-opacity:1.000000" />
<rect x="496.13" y="514.77" width="3.12" height="2.32" style="stroke-width:1;stroke:#000000;fill:#BEBEBE;stroke-opacity:1.000000;fill-opacity:1.000000" />
<rect x="499.26" y="514.77" width="3.12" height="2.32" style="stroke-width:1;stroke:#000000;fill:#BEBEBE;stroke-opacity:1.000000;fill-opacity:1.000000" />
<rect x="502.38" y="514.19" width="3.12" height="2.90" style="stroke-width:1;stroke:#000000;fill:#BEBEBE;stroke-opacity:1.000000;fill-opacity:1.000000" />
<rect x="505.50" y="515.35" width="3.12" height="1.74" style="stroke-width:1;stroke:#000000;fill:#BEBEBE;stroke-opacity:1.000000;fill-opacity:1.000000" />
<rect x="508.62" y="514.19" width="3.12" height="2.90" style="stroke-width:1;stroke:#000000;fill:#BEBEBE;stroke-opacity:1.000000;fill-opacity:1.000000" />
<rect x="511.75" y="516.51" width="3.12" height="0.58" style="stroke-width:1;stroke:#000000;fill:#BEBEBE;stroke-opacity:1.000000;fill-opacity:1.000000" />
<rect x="514.87" y="515.93" width="3.12" height="1.16" style="stroke-width:1;stroke:#000000;fill:#BEBEBE;stroke-opacity:1.000000;fill-opacity:1.000000" />
<rect x="517.99" y="516.51" width="3.12" height="0.58" style="stroke-width:1;stroke:#000000;fill:#BEBEBE;stroke-opacity:1.000000;fill-opacity:1.000000" />
<rect x="521.11" y="516.51" width="3.12" height="0.58" style="stroke-width:1;stroke:#000000;fill:#BEBEBE;stroke-opacity:1.000000;fill-opacity:1.000000" />
<rect x="524.23" y="515.35" width="3.12" height="1.74" style="stroke-width:1;stroke:#000000;fill:#BEBEBE;stroke-opacity:1.000000;fill-opacity:1.000000" />
<rect x="527.36" y="516.51" width="3.12" height="0.58" style="stroke-width:1;stroke:#000000;fill:#BEBEBE;stroke-opacity:1.000000;fill-opacity:1.000000" />
<rect x="530.48" y="515.93" width="3.12" height="1.16" style="stroke-width:1;stroke:#000000;fill:#BEBEBE;stroke-opacity:1.000000;fill-opacity:1.000000" />
<rect x="533.60" y="517.09" width="3.12" height="0.00" style="stroke-width:1;stroke:#000000;fill:#BEBEBE;stroke-opacity:1.000000;fill-opacity:1.000000" />
<rect x="536.72" y="516.51" width="3.12" height="0.58" style="stroke-width:1;stroke:#000000;fill:#BEBEBE;stroke-opacity:1.000000;fill-opacity:1.000000" />
<rect x="539.85" y="517.09" width="3.12" height="0.00" style="stroke-width:1;stroke:#000000;fill:#BEBEBE;stroke-opacity:1.000000;fill-opacity:1.000000" />
<rect x="542.97" y="516.51" width="3.12" height="0.58" style="stroke-width:1;stroke:#000000;fill:#BEBEBE;stroke-opacity:1.000000;fill-opacity:1.000000" />
<rect x="546.09" y="517.09" width="3.12" height="0.00" style="stroke-width:1;stroke:#000000;fill:#BEBEBE;stroke-opacity:1.000000;fill-opacity:1.000000" />
<rect x="549.21" y="517.09" width="3.12" height="0.00" style="stroke-width:1;stroke:#000000;fill:#BEBEBE;stroke-opacity:1.000000;fill-opacity:1.000000" />
<rect x="552.33" y="515.93" width="3.12" height="1.16" style="stroke-width:1;stroke:#000000;fill:#BEBEBE;stroke-opacity:1.000000;fill-opacity:1.000000" />
<rect x="555.46" y="516.51" width="3.12" height="0.58" style="stroke-width:1;stroke:#000000;fill:#BEBEBE;stroke-opacity:1.000000;fill-opacity:1.000000" />
<rect x="558.58" y="515.93" width="3.12" height="1.16" style="stroke-width:1;stroke:#000000;fill:#BEBEBE;stroke-opacity:1.000000;fill-opacity:1.000000" />
<rect x="561.70" y="516.51" width="3.12" height="0.58" style="stroke-width:1;stroke:#000000;fill:#BEBEBE;stroke-opacity:1.000000;fill-opacity:1.000000" />
<rect x="564.82" y="517.09" width="3.12" height="0.00" style="stroke-width:1;stroke:#000000;fill:#BEBEBE;stroke-opacity:1.000000;fill-opacity:1.000000" />
<rect x="567.95" y="517.09" width="3.12" height="0.00" style="stroke-width:1;stroke:#000000;fill:#BEBEBE;stroke-opacity:1.000000;fill-opacity:1.000000" />
<rect x="571.07" y="517.09" width="3.12" height="0.00" style="stroke-width:1;stroke:#000000;fill:#BEBEBE;stroke-opacity:1.000000;fill-opacity:1.000000" />
<rect x="574.19" y="517.09" width="3.12" height="0.00" style="stroke-width:1;stroke:#000000;fill:#BEBEBE;stroke-opacity:1.000000;fill-opacity:1.000000" />
<rect x="577.31" y="517.09" width="3.12" height="0.00" style="stroke-width:1;stroke:#000000;fill:#BEBEBE;stroke-opacity:1.000000;fill-opacity:1.000000" />
<rect x="580.44" y="517.09" width="3.12" height="0.00" style="stroke-width:1;stroke:#000000;fill:#BEBEBE;stroke-opacity:1.000000;fill-opacity:1.000000" />
<rect x="583.56" y="516.51" width="3.12" height="0.58" style="stroke-width:1;stroke:#000000;fill:#BEBEBE;stroke-opacity:1.000000;fill-opacity:1.000000" />
<rect x="586.68" y="517.09" width="3.12" height="0.00" style="stroke-width:1;stroke:#000000;fill:#BEBEBE;stroke-opacity:1.000000;fill-opacity:1.000000" />
<rect x="589.80" y="517.09" width="3.12" height="0.00" style="stroke-width:1;stroke:#000000;fill:#BEBEBE;stroke-opacity:1.000000;fill-opacity:1.000000" />
<rect x="592.92" y="517.09" width="3.12" height="0.00" style="stroke-width:1;stroke:#000000;fill:#BEBEBE;stroke-opacity:1.000000;fill-opacity:1.000000" />
<rect x="596.05" y="517.09" width="3.12" height="0.00" style="stroke-width:1;stroke:#000000;fill:#BEBEBE;stroke-opacity:1.000000;fill-opacity:1.000000" />
<rect x="599.17" y="517.09" width="3.12" height="0.00" style="stroke-width:1;stroke:#000000;fill:#BEBEBE;stroke-opacity:1.000000;fill-opacity:1.000000" />
<rect x="602.29" y="517.09" width="3.12" height="0.00" style="stroke-width:1;stroke:#000000;fill:#BEBEBE;stroke-opacity:1.000000;fill-opacity:1.000000" />
<rect x="605.41" y="516.51" width="3.12" height="0.58" style="stroke-width:1;stroke:#000000;fill:#BEBEBE;stroke-opacity:1.000000;fill-opacity:1.000000" />
<rect x="608.54" y="517.09" width="3.12" height="0.00" style="stroke-width:1;stroke:#000000;fill:#BEBEBE;stroke-opacity:1.000000;fill-opacity:1.000000" />
<rect x="611.66" y="517.09" width="3.12" height="0.00" style="stroke-width:1;stroke:#000000;fill:#BEBEBE;stroke-opacity:1.000000;fill-opacity:1.000000" />
<rect x="614.78" y="517.09" width="3.12" height="0.00" style="stroke-width:1;stroke:#000000;fill:#BEBEBE;stroke-opacity:1.000000;fill-opacity:1.000000" />
<rect x="617.90" y="517.09" width="3.12" height="0.00" style="stroke-width:1;stroke:#000000;fill:#BEBEBE;stroke-opacity:1.000000;fill-opacity:1.000000" />
<rect x="621.02" y="517.09" width="3.12" height="0.00" style="stroke-width:1;stroke:#000000;fill:#BEBEBE;stroke-opacity:1.000000;fill-opacity:1.000000" />
<rect x="624.15" y="517.09" width="3.12" height="0.00" style="stroke-width:1;stroke:#000000;fill:#BEBEBE;stroke-opacity:1.000000;fill-opacity:1.000000" />
<rect x="627.27" y="517.09" width="3.12" height="0.00" style="stroke-width:1;stroke:#000000;fill:#BEBEBE;stroke-opacity:1.000000;fill-opacity:1.000000" />
<rect x="630.39" y="517.09" width="3.12" height="0.00" style="stroke-width:1;stroke:#000000;fill:#BEBEBE;stroke-opacity:1.000000;fill-opacity:1.000000" />
<rect x="633.51" y="517.09" width="3.12" height="0.00" style="stroke-width:1;stroke:#000000;fill:#BEBEBE;stroke-opacity:1.000000;fill-opacity:1.000000" />
<rect x="636.64" y="517.09" width="3.12" height="0.00" style="stroke-width:1;stroke:#000000;fill:#BEBEBE;stroke-opacity:1.000000;fill-opacity:1.000000" />
<rect x="639.76" y="517.09" width="3.12" height="0.00" style="stroke-width:1;stroke:#000000;fill:#BEBEBE;stroke-opacity:1.000000;fill-opacity:1.000000" />
<rect x="642.88" y="517.09" width="3.12" height="0.00" style="stroke-width:1;stroke:#000000;fill:#BEBEBE;stroke-opacity:1.000000;fill-opacity:1.000000" />
<rect x="646.00" y="517.09" width="3.12" height="0.00" style="stroke-width:1;stroke:#000000;fill:#BEBEBE;stroke-opacity:1.000000;fill-opacity:1.000000" />
<rect x="649.12" y="517.09" width="3.12" height="0.00" style="stroke-width:1;stroke:#000000;fill:#BEBEBE;stroke-opacity:1.000000;fill-opacity:1.000000" />
<rect x="652.25" y="517.09" width="3.12" height="0.00" style="stroke-width:1;stroke:#000000;fill:#BEBEBE;stroke-opacity:1.000000;fill-opacity:1.000000" />
<rect x="655.37" y="517.09" width="3.12" height="0.00" style="stroke-width:1;stroke:#000000;fill:#BEBEBE;stroke-opacity:1.000000;fill-opacity:1.000000" />
<rect x="658.49" y="516.51" width="3.12" height="0.58" style="stroke-width:1;stroke:#000000;fill:#BEBEBE;stroke-opacity:1.000000;fill-opacity:1.000000" />
<rect x="661.61" y="517.09" width="3.12" height="0.00" style="stroke-width:1;stroke:#000000;fill:#BEBEBE;stroke-opacity:1.000000;fill-opacity:1.000000" />
<rect x="664.74" y="517.09" width="3.12" height="0.00" style="stroke-width:1;stroke:#000000;fill:#BEBEBE;stroke-opacity:1.000000;fill-opacity:1.000000" />
<rect x="667.86" y="517.09" width="3.12" height="0.00" style="stroke-width:1;stroke:#000000;fill:#BEBEBE;stroke-opacity:1.000000;fill-opacity:1.000000" />
<rect x="670.98" y="517.09" width="3.12" height="0.00" style="stroke-width:1;stroke:#000000;fill:#BEBEBE;stroke-opacity:1.000000;fill-opacity:1.000000" />
<rect x="674.10" y="517.09" width="3.12" height="0.00" style="stroke-width:1;stroke:#000000;fill:#BEBEBE;stroke-opacity:1.000000;fill-opacity:1.000000" />
<rect x="677.22" y="516.51" width="3.12" height="0.58" style="stroke-width:1;stroke:#000000;fill:#BEBEBE;stroke-opacity:1.000000;fill-opacity:1.000000" />
<polyline points="34.17 , 517.09 42.23 , 517.09 50.62 , 517.09 59.02 , 517.09 67.42 , 517.09 75.81 , 517.09 84.21 , 517.09 92.61 , 517.09 101.00 , 517.09 109.40 , 517.09 117.79 , 517.09 126.19 , 517.09 134.59 , 517.09 142.98 , 517.09 151.38 , 517.09 159.78 , 517.09 168.17 , 517.09 176.57 , 517.09 184.96 , 517.09 193.36 , 517.09 201.76 , 517.09 210.15 , 517.09 218.55 , 517.09 226.95 , 517.09 235.34 , 517.09 243.74 , 517.09 252.13 , 517.09 260.53 , 517.09 268.93 , 517.08 277.32 , 517.08 285.72 , 517.05 294.12 , 516.97 302.51 , 516.72 310.91 , 516.03 319.31 , 514.30 327.70 , 510.39 336.10 , 502.44 344.49 , 487.87 352.89 , 463.92 361.29 , 428.85 369.68 , 383.52 378.08 , 332.72 386.48 , 284.97 394.87 , 250.58 403.27 , 238.02 411.66 , 250.58 420.06 , 284.97 428.46 , 332.71 436.85 , 383.52 445.25 , 428.84 453.65 , 463.92 462.04 , 487.87 470.44 , 502.44 478.84 , 510.39 487.23 , 514.30 495.63 , 516.03 504.02 , 516.72 512.42 , 516.97 520.82 , 517.05 529.21 , 517.08 537.61 , 517.08 546.01 , 517.09 554.40 , 517.09 562.80 , 517.09 571.19 , 517.09 579.59 , 517.09 587.99 , 517.09 596.38 , 517.09 604.78 , 517.09 613.18 , 517.09 621.57 , 517.09 629.97 , 517.09 638.37 , 517.09 646.76 , 517.09 655.16 , 517.09 663.55 , 517.09 671.95 , 517.09 680.35 , 517.09 688.74 , 517.09 697.14 , 517.09 705.20 , 517.09 " style="stroke-width:1;stroke:#FF0000;fill:#000000;stroke-opacity:1.000000;fill-opacity:0.000000"/>
</svg>
