<?xml version="1.0" encoding="UTF-8"?>
<svg xmlns="http://www.w3.org/2000/svg" width="722.70" height="578.16" viewBox="0,0,722.70,578.16">
<desc>R SVG Plot!</desc>
<rect width="100%" height="100%" style="fill:#FFFFFF"/>
<text transform="translate(314.87,22.08)"  style="font-size:12" >Histogram of residuals</text>
<text transform="translate(350.44,568.99)"  style="font-size:10" >Residuals</text>
<text transform="translate(9.17,302.15) rotate(-90)"  style="font-size:10" >Density</text>
<line x1="118.19" y1="535.66" x2="562.00" y2="535.66" style="stroke-width:1;stroke:#000000;fill:#000000;stroke-opacity:1.000000;fill-opacity:0.000000"/>
<line x1="118.19" y1="535.66" x2="118.19" y2="539.83" style="stroke-width:1;stroke:#000000;fill:#000000;stroke-opacity:1.000000;fill-opacity:0.000000"/>
<line x1="266.13" y1="535.66" x2="266.13" y2="539.83" style="stroke-width:1;stroke:#000000;fill:#000000;stroke-opacity:1.000000;fill-opacity:0.000000"/>
<line x1="414.06" y1="535.66" x2="414.06" y2="539.83" style="stroke-width:1;stroke:#000000;fill:#000000;stroke-opacity:1.000000;fill-opacity:0.000000"/>
<line x1="562.00" y1="535.66" x2="562.00" y2="539.83" style="stroke-width:1;stroke:#000000;fill:#000000;stroke-opacity:1.000000;fill-opacity:0.000000"/>
<text transform="translate(109.33,552.33)"  style="font-size:10" >-0.2</text>
<text transform="translate(257.27,552.33)"  style="font-size:10" >-0.1</text>
<text transform="translate(407.04,552.33)"  style="font-size:10" >0.0</text>
<text transform="translate(554.97,552.33)"  style="font-size:10" >0.1</text>
<line x1="34.17" y1="517.09" x2="34.17" y2="98.63" style="stroke-width:1;stroke:#000000;fill:#000000;stroke-opacity:1.000000;fill-opacity:0.000000"/>
<line x1="34.17" y1="517.09" x2="30.00" y2="517.09" style="stroke-width:1;stroke:#000000;fill:#000000;stroke-opacity:1.000000;fill-opacity:0.000000"/>
<line x1="34.17" y1="412.47" x2="30.00" y2="412.47" style="stroke-width:1;stroke:#000000;fill:#000000;stroke-opacity:1.000000;fill-opacity:0.000000"/>
<line x1="34.17" y1="307.86" x2="30.00" y2="307.86" style="stroke-width:1;stroke:#000000;fill:#000000;stroke-opacity:1.000000;fill-opacity:0.000000"/>
<line x1="34.17" y1="203.25" x2="30.00" y2="203.25" style="stroke-width:1;stroke:#000000;fill:#000000;stroke-opacity:1.000000;fill-opacity:0.000000"/>
<line x1="34.17" y1="98.63" x2="30.00" y2="98.63" style="stroke-width:1;stroke:#000000;fill:#000000;stroke-opacity:1.000000;fill-opacity:0.000000"/>
<text transform="translate(25.83,519.84) rotate(-90)"  style="font-size:10" >0</text>
<text transform="translate(25.83,415.22) rotate(-90)"  style="font-size:10" >5</text>
<text transform="translate(25.83,313.36) rotate(-90)"  style="font-size:10" >10</text>
<text transform="translate(25.83,208.75) rotate(-90)"  style="font-size:10" >15</text>
<text transform="translate(25.83,104.13) rotate(-90)"  style="font-size:10" >20</text>
<rect x="59.02" y="512.71" width="3.12" height="4.38" style="stroke-width:1;stroke:#000000;fill:#BEBEBE;stroke-opacity:1.000000;fill-opacity:1.000000" />
<rect x="62.14" y="517.09" width="3.12" height="0.00" style="stroke-width:1;stroke:#000000;fill:#BEBEBE;stroke-opacity:1.000000;fill-opacity:1.000000" />
<rect x="65.26" y="517.09" width="3.12" height="0.00" style="stroke-width:1;stroke:#000000;fill:#BEBEBE;stroke-opacity:1.000000;fill-opacity:1.000000" />
<rect x="68.39" y="517.09" width="3.12" height="0.00" style="stroke-width:1;stroke:#000000;fill:#BEBEBE;stroke-opacity:1.000000;fill-opacity:1.000000" />
<rect x="71.51" y="517.09" width="3.12" height="0.00" style="stroke-width:1;stroke:#000000;fill:#BEBEBE;stroke-opacity:1.000000;fill-opacity:1.000000" />
<rect x="74.63" y="517.09" width="3.12" height="0.00" style="stroke-width:1;stroke:#000000;fill:#BEBEBE;stroke-opacity:1.000000;fill-opacity:1.000000" />
<rect x="77.75" y="517.09" width="3.12" height="0.00" style="stroke-width:1;stroke:#000000;fill:#BEBEBE;stroke-opacity:1.000000;fill-opacity:1.000000" />
<rect x="80.88" y="517.09" width="3.12" height="0.00" style="stroke-width:1;stroke:#000000;fill:#BEBEBE;stroke-opacity:1.000000;fill-opacity:1.000000" />
<rect x="84.00" y="517.09" width="3.12" height="0.00" style="stroke-width:1;stroke:#000000;fill:#BEBEBE;stroke-opacity:1.000000;fill-opacity:1.000000" />
<rect x="87.12" y="517.09" width="3.12" height="0.00" style="stroke-width:1;stroke:#000000;fill:#BEBEBE;stroke-opacity:1.000000;fill-opacity:1.000000" />
<rect x="90.24" y="517.09" width="3.12" height="0.00" style="stroke-width:1;stroke:#000000;fill:#BEBEBE;stroke-opacity:1.000000;fill-opacity:1.000000" />
<rect x="93.36" y="517.09" width="3.12" height="0.00" style="stroke-width:1;stroke:#000000;fill:#BEBEBE;stroke-opacity:1.000000;fill-opacity:1.000000" />
<rect x="96.49" y="517.09" width="3.12" height="0.00" style="stroke-width:1;stroke:#000000;fill:#BEBEBE;stroke-opacity:1.000000;fill-opacity:1.000000" />
<rect x="99.61" y="517.09" width="3.12" height="0.00" style="stroke-width:1;stroke:#000000;fill:#BEBEBE;stroke-opacity:1.000000;fill-opacity:1.000000" />
<rect x="102.73" y="517.09" width="3.12" height="0.00" style="stroke-width:1;stroke:#000000;fill:#BEBEBE;stroke-opacity:1.000000;fill-opacity:1.000000" />
<rect x="105.85" y="517.09" width="3.12" height="0.00" style="stroke-width:1;stroke:#000000;fill:#BEBEBE;stroke-opacity:1.000000;fill-opacity:1.000000" />
<rect x="108.98" y="517.09" width="3.12" height="0.00" style="stroke-width:1;stroke:#000000;fill:#BEBEBE;stroke-opacity:1.000000;fill-opacity:1.000000" />
<rect x="112.10" y="517.09" width="3.12" height="0.00" style="stroke-width:1;stroke:#000000;fill:#BEBEBE;stroke-opacity:1.000000;fill-opacity:1.000000" />
<rect x="115.22" y="517.09" width="3.12" height="0.00" style="stroke-width:1;stroke:#000000;fill:#BEBEBE;stroke-opacity:1.000000;fill-opacity:1.000000" />
<rect x="118.34" y="517.09" width="3.12" height="0.00" style="stroke-width:1;stroke:#000000;fill:#BEBEBE;stroke-opacity:1.000000;fill-opacity:1.000000" />
<rect x="121.46" y="517.09" width="3.12" height="0.00" style="stroke-width:1;stroke:#000000;fill:#BEBEBE;stroke-opacity:1.000000;fill-opacity:1.000000" />
<rect x="124.59" y="517.09" width="3.12" height="0.00" style="stroke-width:1;stroke:#000000;fill:#BEBEBE;stroke-opacity:1.000000;fill-opacity:1.000000" />
<rect x="127.71" y="517.09" width="3.12" height="0.00" style="stroke-width:1;stroke:#000000;fill:#BEBEBE;stroke-opacity:1.000000;fill-opacity:1.000000" />
<rect x="130.83" y="517.09" width="3.12" height="0.00" style="stroke-width:1;stroke:#000000;fill:#BEBEBE;stroke-opacity:1.000000;fill-opacity:1.000000" />
<rect x="133.95" y="517.09" width="3.12" height="0.00" style="stroke-width:1;stroke:#000000;fill:#BEBEBE;stroke-opacity:1.000000;fill-opacity:1.000000" />
<rect x="137.08" y="517.09" width="3.12" height="0.00" style="stroke-width:1;stroke:#000000;fill:#BEBEBE;stroke-opacity:1.000000;fill-opacity:1.000000" />
<rect x="140.20" y="517.09" width="3.12" height="0.00" style="stroke-width:1;stroke:#000000;fill:#BEBEBE;stroke-opacity:1.000000;fill-opacity:1.000000" />
<rect x="143.32" y="517.09" width="3.12" height="0.00" style="stroke-width:1;stroke:#000000;fill:#BEBEBE;stroke-opacity:1.000000;fill-opacity:1.000000" />
<rect x="146.44" y="517.09" width="3.12" height="0.00" style="stroke-width:1;stroke:#000000;fill:#BEBEBE;stroke-opacity:1.000000;fill-opacity:1.000000" />
<rect x="149.56" y="517.09" width="3.12" height="0.00" style="stroke-width:1;stroke:#000000;fill:#BEBEBE;stroke-opacity:1.000000;fill-opacity:1.000000" />
<rect x="152.69" y="517.09" width="3.12" height="0.00" style="stroke-width:1;stroke:#000000;fill:#BEBEBE;stroke-opacity:1.000000;fill-opacity:1.000000" />
<rect x="155.81" y="517.09" width="3.12" height="0.00" style="stroke-width:1;stroke:#000000;fill:#BEBEBE;stroke-opacity:1.000000;fill-opacity:1.000000" />
<rect x="158.93" y="517.09" width="3.12" height="0.00" style="stroke-width:1;stroke:#000000;fill:#BEBEBE;stroke-opacity:1.000000;fill-opacity:1.000000" />
<rect x="162.05" y="517.09" width="3.12" height="0.00" style="stroke-width:1;stroke:#000000;fill:#BEBEBE;stroke-opacity:1.000000;fill-opacity:1.000000" />
<rect x="165.18" y="517.09" width="3.12" height="0.00" style="stroke-width:1;stroke:#000000;fill:#BEBEBE;stroke-opacity:1.000000;fill-opacity:1.000000" />
<rect x="168.30" y="517.09" width="3.12" height="0.00" style="stroke-width:1;stroke:#000000;fill:#BEBEBE;stroke-opacity:1.000000;fill-opacity:1.000000" />
<rect x="171.42" y="517.09" width="3.12" height="0.00" style="stroke-width:1;stroke:#000000;fill:#BEBEBE;stroke-opacity:1.000000;fill-opacity:1.000000" />
<rect x="174.54" y="517.09" width="3.12" height="0.00" style="stroke-width:1;stroke:#000000;fill:#BEBEBE;stroke-opacity:1.000000;fill-opacity:1.000000" />
<rect x="177.67" y="517.09" width="3.12" height="0.00" style="stroke-width:1;stroke:#000000;fill:#BEBEBE;stroke-opacity:1.000000;fill-opacity:1.000000" />
<rect x="180.79" y="517.09" width="3.12" height="0.00" style="stroke-width:1;stroke:#000000;fill:#BEBEBE;stroke-opacity:1.000000;fill-opacity:1.000000" />
<rect x="183.91" y="517.09" width="3.12" height="0.00" style="stroke-width:1;stroke:#000000;fill:#BEBEBE;stroke-opacity:1.000000;fill-opacity:1.000000" />
<rect x="187.03" y="517.09" width="3.12" height="0.00" style="stroke-width:1;stroke:#000000;fill:#BEBEBE;stroke-opacity:1.000000;fill-opacity:1.000000" />
<rect x="190.15" y="512.71" width="3.12" height="4.38" style="stroke-width:1;stroke:#000000;fill:#BEBEBE;stroke-opacity:1.000000;fill-opacity:1.000000" />
<rect x="193.28" y="517.09" width="3.12" height="0.00" style="stroke-width:1;stroke:#000000;fill:#BEBEBE;stroke-opacity:1.000000;fill-opacity:1.000000" />
<rect x="196.40" y="517.09" width="3.12" height="0.00" style="stroke-width:1;stroke:#000000;fill:#BEBEBE;stroke-opacity:1.000000;fill-opacity:1.000000" />
<rect x="199.52" y="517.09" width="3.12" height="0.00" style="stroke-width:1;stroke:#000000;fill:#BEBEBE;stroke-opacity:1.000000;fill-opacity:1.000000" />
<rect x="202.64" y="517.09" width="3.12" height="0.00" style="stroke-width:1;stroke:#000000;fill:#BEBEBE;stroke-opacity:1.000000;fill-opacity:1.000000" />
<rect x="205.77" y="517.09" width="3.12" height="0.00" style="stroke-width:1;stroke:#000000;fill:#BEBEBE;stroke-opacity:1.000000;fill-opacity:1.000000" />
<rect x="208.89" y="517.09" width="3.12" height="0.00" style="stroke-width:1;stroke:#000000;fill:#BEBEBE;stroke-opacity:1.000000;fill-opacity:1.000000" />
<rect x="212.01" y="517.09" width="3.12" height="0.00" style="stroke-width:1;stroke:#000000;fill:#BEBEBE;stroke-opacity:1.000000;fill-opacity:1.000000" />
<rect x="215.13" y="512.71" width="3.12" height="4.38" style="stroke-width:1;stroke:#000000;fill:#BEBEBE;stroke-opacity:1.000000;fill-opacity:1.000000" />
<rect x="218.25" y="517.09" width="3.12" height="0.00" style="stroke-width:1;stroke:#000000;fill:#BEBEBE;stroke-opacity:1.000000;fill-opacity:1.000000" />
<rect x="221.38" y="517.09" width="3.12" height="0.00" style="stroke-width:1;stroke:#000000;fill:#BEBEBE;stroke-opacity:1.000000;fill-opacity:1.000000" />
<rect x="224.50" y="517.09" width="3.12" height="0.00" style="stroke-width:1;stroke:#000000;fill:#BEBEBE;stroke-opacity:1.000000;fill-opacity:1.000000" />
<rect x="227.62" y="512.71" width="3.12" height="4.38" style="stroke-width:1;stroke:#000000;fill:#BEBEBE;stroke-opacity:1.000000;fill-opacity:1.000000" />
<rect x="230.74" y="517.09" width="3.12" height="0.00" style="stroke-width:1;stroke:#000000;fill:#BEBEBE;stroke-opacity:1.000000;fill-opacity:1.000000" />
<rect x="233.87" y="517.09" width="3.12" height="0.00" style="stroke-width:1;stroke:#000000;fill:#BEBEBE;stroke-opacity:1.000000;fill-opacity:1.000000" />
<rect x="236.99" y="517.09" width="3.12" height="0.00" style="stroke-width:1;stroke:#000000;fill:#BEBEBE;stroke-opacity:1.000000;fill-opacity:1.000000" />
<rect x="240.11" y="512.71" width="3.12" height="4.38" style="stroke-width:1;stroke:#000000;fill:#BEBEBE;stroke-opacity:1.000000;fill-opacity:1.000000" />
<rect x="243.23" y="517.09" width="3.12" height="0.00" style="stroke-width:1;stroke:#000000;fill:#BEBEBE;stroke-opacity:1.000000;fill-opacity:1.000000" />
<rect x="246.35" y="517.09" width="3.12" height="0.00" style="stroke-width:1;stroke:#000000;fill:#BEBEBE;stroke-opacity:1.000000;fill-opacity:1.000000" />
<rect x="249.48" y="517.09" width="3.12" height="0.00" style="stroke-width:1;stroke:#000000;fill:#BEBEBE;stroke-opacity:1.000000;fill-opacity:1.000000" />
<rect x="252.60" y="517.09" width="3.12" height="0.00" style="stroke-width:1;stroke:#000000;fill:#BEBEBE;stroke-opacity:1.000000;fill-opacity:1.000000" />
<rect x="255.72" y="512.71" width="3.12" height="4.38" style="stroke-width:1;stroke:#000000;fill:#BEBEBE;stroke-opacity:1.000000;fill-opacity:1.000000" />
<rect x="258.84" y="517.09" width="3.12" height="0.00" style="stroke-width:1;stroke:#000000;fill:#BEBEBE;stroke-opacity:1.000000;fill-opacity:1.000000" />
<rect x="261.97" y="517.09" width="3.12" height="0.00" style="stroke-width:1;stroke:#000000;fill:#BEBEBE;stroke-opacity:1.000000;fill-opacity:1.000000" />
<rect x="265.09" y="512.71" width="3.12" height="4.38" style="stroke-width:1;stroke:#000000;fill:#BEBEBE;stroke-opacity:1.000000;fill-opacity:1.000000" />
<rect x="268.21" y="517.09" width="3.12" height="0.00" style="stroke-width:1;stroke:#000000;fill:#BEBEBE;stroke-opacity:1.000000;fill-opacity:1.000000" />
<rect x="271.33" y="512.71" width="3.12" height="4.38" style="stroke-width:1;stroke:#000000;fill:#BEBEBE;stroke-opacity:1.000000;fill-opacity:1.000000" />
<rect x="274.45" y="517.09" width="3.12" height="0.00" style="stroke-width:1;stroke:#000000;fill:#BEBEBE;stroke-opacity:1.000000;fill-opacity:1.000000" />
<rect x="277.58" y="517.09" width="3.12" height="0.00" style="stroke-width:1;stroke:#000000;fill:#BEBEBE;stroke-opacity:1.000000;fill-opacity:1.000000" />
<rect x="280.70" y="512.71" width="3.12" height="4.38" style="stroke-width:1;stroke:#000000;fill:#BEBEBE;stroke-opacity:1.000000;fill-opacity:1.000000" />
<rect x="283.82" y="517.09" width="3.12" height="0.00" style="stroke-width:1;stroke:#000000;fill:#BEBEBE;stroke-opacity:1.000000;fill-opacity:1.000000" />
<rect x="286.94" y="517.09" width="3.12" height="0.00" style="stroke-width:1;stroke:#000000;fill:#BEBEBE;stroke-opacity:1.000000;fill-opacity:1.000000" />
<rect x="290.07" y="517.09" width="3.12" height="0.00" style="stroke-width:1;stroke:#000000;fill:#BEBEBE;stroke-opacity:1.000000;fill-opacity:1.000000" />
<rect x="293.19" y="517.09" width="3.12" height="0.00" style="stroke-width:1;stroke:#000000;fill:#BEBEBE;stroke-opacity:1.000000;fill-opacity:1.000000" />
<rect x="296.31" y="512.71" width="3.12" height="4.38" style="stroke-width:1;stroke:#000000;fill:#BEBEBE;stroke-opacity:1.000000;fill-opacity:1.000000" />
<rect x="299.43" y="503.94" width="3.12" height="13.14" style="stroke-width:1;stroke:#000000;fill:#BEBEBE;stroke-opacity:1.000000;fill-opacity:1.000000" />
<rect x="302.56" y="517.09" width="3.12" height="0.00" style="stroke-width:1;stroke:#000000;fill:#BEBEBE;stroke-opacity:1.000000;fill-opacity:1.000000" />
<rect x="305.68" y="499.56" width="3.12" height="17.52" style="stroke-width:1;stroke:#000000;fill:#BEBEBE;stroke-opacity:1.000000;fill-opacity:1.000000" />
<rect x="308.80" y="512.71" width="3.12" height="4.38" style="stroke-width:1;stroke:#000000;fill:#BEBEBE;stroke-opacity:1.000000;fill-opacity:1.000000" />
<rect x="311.92" y="508.32" width="3.12" height="8.76" style="stroke-width:1;stroke:#000000;fill:#BEBEBE;stroke-opacity:1.000000;fill-opacity:1.000000" />
<rect x="315.04" y="508.32" width="3.12" height="8.76" style="stroke-width:1;stroke:#000000;fill:#BEBEBE;stroke-opacity:1.000000;fill-opacity:1.000000" />
<rect x="318.17" y="508.32" width="3.12" height="8.76" style="stroke-width:1;stroke:#000000;fill:#BEBEBE;stroke-opacity:1.000000;fill-opacity:1.000000" />
<rect x="321.29" y="495.18" width="3.12" height="21.90" style="stroke-width:1;stroke:#000000;fill:#BEBEBE;stroke-opacity:1.000000;fill-opacity:1.000000" />
<rect x="324.41" y="499.56" width="3.12" height="17.52" style="stroke-width:1;stroke:#000000;fill:#BEBEBE;stroke-opacity:1.000000;fill-opacity:1.000000" />
<rect x="327.53" y="490.80" width="3.12" height="26.28" style="stroke-width:1;stroke:#000000;fill:#BEBEBE;stroke-opacity:1.000000;fill-opacity:1.000000" />
<rect x="330.66" y="495.18" width="3.12" height="21.90" style="stroke-width:1;stroke:#000000;fill:#BEBEBE;stroke-opacity:1.000000;fill-opacity:1.000000" />
<rect x="333.78" y="495.18" width="3.12" height="21.90" style="stroke-width:1;stroke:#000000;fill:#BEBEBE;stroke-opacity:1.000000;fill-opacity:1.000000" />
<rect x="336.90" y="503.94" width="3.12" height="13.14" style="stroke-width:1;stroke:#000000;fill:#BEBEBE;stroke-opacity:1.000000;fill-opacity:1.000000" />
<rect x="340.02" y="486.42" width="3.12" height="30.66" style="stroke-width:1;stroke:#000000;fill:#BEBEBE;stroke-opacity:1.000000;fill-opacity:1.000000" />
<rect x="343.14" y="455.76" width="3.12" height="61.33" style="stroke-width:1;stroke:#000000;fill:#BEBEBE;stroke-opacity:1.000000;fill-opacity:1.000000" />
<rect x="346.27" y="477.66" width="3.12" height="39.43" style="stroke-width:1;stroke:#000000;fill:#BEBEBE;stroke-opacity:1.000000;fill-opacity:1.000000" />
<rect x="349.39" y="464.52" width="3.12" height="52.57" style="stroke-width:1;stroke:#000000;fill:#BEBEBE;stroke-opacity:1.000000;fill-opacity:1.000000" />
<rect x="352.51" y="438.24" width="3.12" height="78.85" style="stroke-width:1;stroke:#000000;fill:#BEBEBE;stroke-opacity:1.000000;fill-opacity:1.000000" />
<rect x="355.63" y="433.85" width="3.12" height="83.23" style="stroke-width:1;stroke:#000000;fill:#BEBEBE;stroke-opacity:1.000000;fill-opacity:1.000000" />
<rect x="358.76" y="468.90" width="3.12" height="48.19" style="stroke-width:1;stroke:#000000;fill:#BEBEBE;stroke-opacity:1.000000;fill-opacity:1.000000" />
<rect x="361.88" y="407.57" width="3.12" height="109.52" style="stroke-width:1;stroke:#000000;fill:#BEBEBE;stroke-opacity:1.000000;fill-opacity:1.000000" />
<rect x="365.00" y="385.67" width="3.12" height="131.42" style="stroke-width:1;stroke:#000000;fill:#BEBEBE;stroke-opacity:1.000000;fill-opacity:1.000000" />
<rect x="368.12" y="420.71" width="3.12" height="96.37" style="stroke-width:1;stroke:#000000;fill:#BEBEBE;stroke-opacity:1.000000;fill-opacity:1.000000" />
<rect x="371.24" y="438.24" width="3.12" height="78.85" style="stroke-width:1;stroke:#000000;fill:#BEBEBE;stroke-opacity:1.000000;fill-opacity:1.000000" />
<rect x="374.37" y="341.86" width="3.12" height="175.22" style="stroke-width:1;stroke:#000000;fill:#BEBEBE;stroke-opacity:1.000000;fill-opacity:1.000000" />
<rect x="377.49" y="368.15" width="3.12" height="148.94" style="stroke-width:1;stroke:#000000;fill:#BEBEBE;stroke-opacity:1.000000;fill-opacity:1.000000" />
<rect x="380.61" y="293.67" width="3.12" height="223.41" style="stroke-width:1;stroke:#000000;fill:#BEBEBE;stroke-opacity:1.000000;fill-opacity:1.000000" />
<rect x="383.73" y="355.00" width="3.12" height="162.08" style="stroke-width:1;stroke:#000000;fill:#BEBEBE;stroke-opacity:1.000000;fill-opacity:1.000000" />
<rect x="386.86" y="263.01" width="3.12" height="254.08" style="stroke-width:1;stroke:#000000;fill:#BEBEBE;stroke-opacity:1.000000;fill-opacity:1.000000" />
<rect x="389.98" y="206.06" width="3.12" height="311.02" style="stroke-width:1;stroke:#000000;fill:#BEBEBE;stroke-opacity:1.000000;fill-opacity:1.000000" />
<rect x="393.10" y="271.77" width="3.12" height="245.31" style="stroke-width:1;stroke:#000000;fill:#BEBEBE;stroke-opacity:1.000000;fill-opacity:1.000000" />
<rect x="396.22" y="135.97" width="3.12" height="381.11" style="stroke-width:1;stroke:#000000;fill:#BEBEBE;stroke-opacity:1.000000;fill-opacity:1.000000" />
<rect x="399.34" y="175.40" width="3.12" height="341.69" style="stroke-width:1;stroke:#000000;fill:#BEBEBE;stroke-opacity:1.000000;fill-opacity:1.000000" />
<rect x="402.47" y="135.97" width="3.12" height="381.11" style="stroke-width:1;stroke:#000000;fill:#BEBEBE;stroke-opacity:1.000000;fill-opacity:1.000000" />
<rect x="405.59" y="100.93" width="3.12" height="416.16" style="stroke-width:1;stroke:#000000;fill:#BEBEBE;stroke-opacity:1.000000;fill-opacity:1.000000" />
<rect x="408.71" y="114.07" width="3.12" height="403.02" style="stroke-width:1;stroke:#000000;fill:#BEBEBE;stroke-opacity:1.000000;fill-opacity:1.000000" />
<rect x="411.83" y="74.64" width="3.12" height="442.44" style="stroke-width:1;stroke:#000000;fill:#BEBEBE;stroke-opacity:1.000000;fill-opacity:1.000000" />
<rect x="414.96" y="52.74" width="3.12" height="464.35" style="stroke-width:1;stroke:#000000;fill:#BEBEBE;stroke-opacity:1.000000;fill-opacity:1.000000" />
<rect x="418.08" y="61.50" width="3.12" height="455.58" style="stroke-width:1;stroke:#000000;fill:#BEBEBE;stroke-opacity:1.000000;fill-opacity:1.000000" />
<rect x="421.20" y="83.40" width="3.12" height="433.68" style="stroke-width:1;stroke:#000000;fill:#BEBEBE;stroke-opacity:1.000000;fill-opacity:1.000000" />
<rect x="424.32" y="74.64" width="3.12" height="442.44" style="stroke-width:1;stroke:#000000;fill:#BEBEBE;stroke-opacity:1.000000;fill-opacity:1.000000" />
<rect x="427.44" y="153.49" width="3.12" height="363.59" style="stroke-width:1;stroke:#000000;fill:#BEBEBE;stroke-opacity:1.000000;fill-opacity:1.000000" />
<rect x="430.57" y="184.16" width="3.12" height="332.93" style="stroke-width:1;stroke:#000000;fill:#BEBEBE;stroke-opacity:1.000000;fill-opacity:1.000000" />
<rect x="433.69" y="293.67" width="3.12" height="223.41" style="stroke-width:1;stroke:#000000;fill:#BEBEBE;stroke-opacity:1.000000;fill-opacity:1.000000" />
<rect x="436.81" y="214.82" width="3.12" height="302.26" style="stroke-width:1;stroke:#000000;fill:#BEBEBE;stroke-opacity:1.000000;fill-opacity:1.000000" />
<rect x="439.93" y="227.97" width="3.12" height="289.12" style="stroke-width:1;stroke:#000000;fill:#BEBEBE;stroke-opacity:1.000000;fill-opacity:1.000000" />
<rect x="443.06" y="298.06" width="3.12" height="219.03" style="stroke-width:1;stroke:#000000;fill:#BEBEBE;stroke-opacity:1.000000;fill-opacity:1.000000" />
<rect x="446.18" y="333.10" width="3.12" height="183.99" style="stroke-width:1;stroke:#000000;fill:#BEBEBE;stroke-opacity:1.000000;fill-opacity:1.000000" />
<rect x="449.30" y="293.67" width="3.12" height="223.41" style="stroke-width:1;stroke:#000000;fill:#BEBEBE;stroke-opacity:1.000000;fill-opacity:1.000000" />
<rect x="452.42" y="363.76" width="3.12" height="153.32" style="stroke-width:1;stroke:#000000;fill:#BEBEBE;stroke-opacity:1.000000;fill-opacity:1.000000" />
<rect x="455.55" y="411.95" width="3.12" height="105.13" style="stroke-width:1;stroke:#000000;fill:#BEBEBE;stroke-opacity:1.000000;fill-opacity:1.000000" />
<rect x="458.67" y="390.05" width="3.12" height="127.04" style="stroke-width:1;stroke:#000000;fill:#BEBEBE;stroke-opacity:1.000000;fill-opacity:1.000000" />
<rect x="461.79" y="438.24" width="3.12" height="78.85" style="stroke-width:1;stroke:#000000;fill:#BEBEBE;stroke-opacity:1.000000;fill-opacity:1.000000" />
<rect x="464.91" y="451.38" width="3.12" height="65.71" style="stroke-width:1;stroke:#000000;fill:#BEBEBE;stroke-opacity:1.000000;fill-opacity:1.000000" />
<rect x="468.03" y="429.47" width="3.12" height="87.61" style="stroke-width:1;stroke:#000000;fill:#BEBEBE;stroke-opacity:1.000000;fill-opacity:1.000000" />
<rect x="471.16" y="451.38" width="3.12" height="65.71" style="stroke-width:1;stroke:#000000;fill:#BEBEBE;stroke-opacity:1.000000;fill-opacity:1.000000" />
<rect x="474.28" y="455.76" width="3.12" height="61.33" style="stroke-width:1;stroke:#000000;fill:#BEBEBE;stroke-opacity:1.000000;fill-opacity:1.000000" />
<rect x="477.40" y="468.90" width="3.12" height="48.19" style="stroke-width:1;stroke:#000000;fill:#BEBEBE;stroke-opacity:1.000000;fill-opacity:1.000000" />
<rect x="480.52" y="477.66" width="3.12" height="39.43" style="stroke-width:1;stroke:#000000;fill:#BEBEBE;stroke-opacity:1.000000;fill-opacity:1.000000" />
<rect x="483.65" y="495.18" width="3.12" height="21.90" style="stroke-width:1;stroke:#000000;fill:#BEBEBE;stroke-opacity:1.000000;fill-opacity:1.000000" />
<rect x="486.77" y="486.42" width="3.12" height="30.66" style="stroke-width:1;stroke:#000000;fill:#BEBEBE;stroke-opacity:1.000000;fill-opacity:1.000000" />
<rect x="489.89" y="499.56" width="3.12" height="17.52" style="stroke-width:1;stroke:#000000;fill:#BEBEBE;stroke-opacity:1.000000;fill-opacity:1.000000" />
<rect x="493.01" y="508.32" width="3.12" height="8.76" style="stroke-width:1;stroke:#000000;fill:#BEBEBE;stroke-opacity:1.000000;fill-opacity:1.000000" />
<rect x="496.13" y="503.94" width="3.12" height="13.14" style="stroke-width:1;stroke:#000000;fill:#BEBEBE;stroke-opacity:1.000000;fill-opacity:1.000000" />
<rect x="499.26" y="503.94" width="3.12" height="13.14" style="stroke-width:1;stroke:#000000;fill:#BEBEBE;stroke-opacity:1.000000;fill-opacity:1.000000" />
<rect x="502.38" y="490.80" width="3.12" height="26.28" style="stroke-width:1;stroke:#000000;fill:#BEBEBE;stroke-opacity:1.000000;fill-opacity:1.000000" />
<rect x="505.50" y="503.94" width="3.12" height="13.14" style="stroke-width:1;stroke:#000000;fill:#BEBEBE;stroke-opacity:1.000000;fill-opacity:1.000000" />
<rect x="508.62" y="508.32" width="3.12" height="8.76" style="stroke-width:1;stroke:#000000;fill:#BEBEBE;stroke-opacity:1.000000;fill-opacity:1.000000" />
<rect x="511.75" y="503.94" width="3.12" height="13.14" style="stroke-width:1;stroke:#000000;fill:#BEBEBE;stroke-opacity:1.000000;fill-opacity:1.000000" />
<rect x="514.87" y="517.09" width="3.12" height="0.00" style="stroke-width:1;stroke:#000000;fill:#BEBEBE;stroke-opacity:1.000000;fill-opacity:1.000000" />
<rect x="517.99" y="503.94" width="3.12" height="13.14" style="stroke-width:1;stroke:#000000;fill:#BEBEBE;stroke-opacity:1.000000;fill-opacity:1.000000" />
<rect x="521.11" y="517.09" width="3.12" height="0.00" style="stroke-width:1;stroke:#000000;fill:#BEBEBE;stroke-opacity:1.000000;fill-opacity:1.000000" />
<rect x="524.23" y="512.71" width="3.12" height="4.38" style="stroke-width:1;stroke:#000000;fill:#BEBEBE;stroke-opacity:1.000000;fill-opacity:1.000000" />
<rect x="527.36" y="517.09" width="3.12" height="0.00" style="stroke-width:1;stroke:#000000;fill:#BEBEBE;stroke-opacity:1.000000;fill-opacity:1.000000" />
<rect x="530.48" y="512.71" width="3.12" height="4.38" style="stroke-width:1;stroke:#000000;fill:#BEBEBE;stroke-opacity:1.000000;fill-opacity:1.000000" />
<rect x="533.60" y="503.94" width="3.12" height="13.14" style="stroke-width:1;stroke:#000000;fill:#BEBEBE;stroke-opacity:1.000000;fill-opacity:1.000000" />
<rect x="536.72" y="512.71" width="3.12" height="4.38" style="stroke-width:1;stroke:#000000;fill:#BEBEBE;stroke-opacity:1.000000;fill-opacity:1.000000" />
<rect x="539.85" y="517.09" width="3.12" height="0.00" style="stroke-width:1;stroke:#000000;fill:#BEBEBE;stroke-opacity:1.000000;fill-opacity:1.000000" />
<rect x="542.97" y="517.09" width="3.12" height="0.00" style="stroke-width:1;stroke:#000000;fill:#BEBEBE;stroke-opacity:1.000000;fill-opacity:1.000000" />
<rect x="546.09" y="512.71" width="3.12" height="4.38" style="stroke-width:1;stroke:#000000;fill:#BEBEBE;stroke-opacity:1.000000;fill-opacity:1.000000" />
<rect x="549.21" y="517.09" width="3.12" height="0.00" style="stroke-width:1;stroke:#000000;fill:#BEBEBE;stroke-opacity:1.000000;fill-opacity:1.000000" />
<rect x="552.33" y="517.09" width="3.12" height="0.00" style="stroke-width:1;stroke:#000000;fill:#BEBEBE;stroke-opacity:1.000000;fill-opacity:1.000000" />
<rect x="555.46" y="517.09" width="3.12" height="0.00" style="stroke-width:1;stroke:#000000;fill:#BEBEBE;stroke-opacity:1.000000;fill-opacity:1.000000" />
<rect x="558.58" y="517.09" width="3.12" height="0.00" style="stroke-width:1;stroke:#000000;fill:#BEBEBE;stroke-opacity:1.000000;fill-opacity:1.000000" />
<rect x="561.70" y="517.09" width="3.12" height="0.00" style="stroke-width:1;stroke:#000000;fill:#BEBEBE;stroke-opacity:1.000000;fill-opacity:1.000000" />
<rect x="564.82" y="517.09" width="3.12" height="0.00" style="stroke-width:1;stroke:#000000;fill:#BEBEBE;stroke-opacity:1.000000;fill-opacity:1.000000" />
<rect x="567.95" y="517.09" width="3.12" height="0.00" style="stroke-width:1;stroke:#000000;fill:#BEBEBE;stroke-opacity:1.000000;fill-opacity:1.000000" />
<rect x="571.07" y="517.09" width="3.12" height="0.00" style="stroke-width:1;stroke:#000000;fill:#BEBEBE;stroke-opacity:1.000000;fill-opacity:1.000000" />
<rect x="574.19" y="512.71" width="3.12" height="4.38" style="stroke-width:1;stroke:#000000;fill:#BEBEBE;stroke-opacity:1.000000;fill-opacity:1.000000" />
<rect x="577.31" y="517.09" width="3.12" height="0.00" style="stroke-width:1;stroke:#000000;fill:#BEBEBE;stroke-opacity:1.000000;fill-opacity:1.000000" />
<rect x="580.44" y="517.09" width="3.12" height="0.00" style="stroke-width:1;stroke:#000000;fill:#BEBEBE;stroke-opacity:1.000000;fill-opacity:1.000000" />
<rect x="583.56" y="512.71" width="3.12" height="4.38" style="stroke-width:1;stroke:#000000;fill:#BEBEBE;stroke-opacity:1.000000;fill-opacity:1.000000" />
<rect x="586.68" y="517.09" width="3.12" height="0.00" style="stroke-width:1;stroke:#000000;fill:#BEBEBE;stroke-opacity:1.000000;fill-opacity:1.000000" />
<rect x="589.80" y="517.09" width="3.12" height="0.00" style="stroke-width:1;stroke:#000000;fill:#BEBEBE;stroke-opacity:1.000000;fill-opacity:1.000000" />
<rect x="592.92" y="517.09" width="3.12" height="0.00" style="stroke-width:1;stroke:#000000;fill:#BEBEBE;stroke-opacity:1.000000;fill-opacity:1.000000" />
<rect x="596.05" y="517.09" width="3.12" height="0.00" style="stroke-width:1;stroke:#000000;fill:#BEBEBE;stroke-opacity:1.000000;fill-opacity:1.000000" />
<rect x="599.17" y="517.09" width="3.12" height="0.00" style="stroke-width:1;stroke:#000000;fill:#BEBEBE;stroke-opacity:1.000000;fill-opacity:1.000000" />
<rect x="602.29" y="517.09" width="3.12" height="0.00" style="stroke-width:1;stroke:#000000;fill:#BEBEBE;stroke-opacity:1.000000;fill-opacity:1.000000" />
<rect x="605.41" y="517.09" width="3.12" height="0.00" style="stroke-width:1;stroke:#000000;fill:#BEBEBE;stroke-opacity:1.000000;fill-opacity:1.000000" />
<rect x="608.54" y="517.09" width="3.12" height="0.00" style="stroke-width:1;stroke:#000000;fill:#BEBEBE;stroke-opacity:1.000000;fill-opacity:1.000000" />
<rect x="611.66" y="517.09" width="3.12" height="0.00" style="stroke-width:1;stroke:#000000;fill:#BEBEBE;stroke-opacity:1.000000;fill-opacity:1.000000" />
<rect x="614.78" y="517.09" width="3.12" height="0.00" style="stroke-width:1;stroke:#000000;fill:#BEBEBE;stroke-opacity:1.000000;fill-opacity:1.000000" />
<rect x="617.90" y="517.09" width="3.12" height="0.00" style="stroke-width:1;stroke:#000000;fill:#BEBEBE;stroke-opacity:1.000000;fill-opacity:1.000000" />
<rect x="621.02" y="517.09" width="3.12" height="0.00" style="stroke-width:1;stroke:#000000;fill:#BEBEBE;stroke-opacity:1.000000;fill-opacity:1.000000" />
<rect x="624.15" y="517.09" width="3.12" height="0.00" style="stroke-width:1;stroke:#000000;fill:#BEBEBE;stroke-opacity:1.000000;fill-opacity:1.000000" />
<rect x="627.27" y="517.09" width="3.12" height="0.00" style="stroke-width:1;stroke:#000000;fill:#BEBEBE;stroke-opacity:1.000000;fill-opacity:1.000000" />
<rect x="630.39" y="517.09" width="3.12" height="0.00" style="stroke-width:1;stroke:#000000;fill:#BEBEBE;stroke-opacity:1.000000;fill-opacity:1.000000" />
<rect x="633.51" y="517.09" width="3.12" height="0.00" style="stroke-width:1;stroke:#000000;fill:#BEBEBE;stroke-opacity:1.000000;fill-opacity:1.000000" />
<rect x="636.64" y="517.09" width="3.12" height="0.00" style="stroke-width:1;stroke:#000000;fill:#BEBEBE;stroke-opacity:1.000000;fill-opacity:1.000000" />
<rect x="639.76" y="517.09" width="3.12" height="0.00" style="stroke-width:1;stroke:#000000;fill:#BEBEBE;stroke-opacity:1.000000;fill-opacity:1.000000" />
<rect x="642.88" y="517.09" width="3.12" height="0.00" style="stroke-width:1;stroke:#000000;fill:#BEBEBE;stroke-opacity:1.000000;fill-opacity:1.000000" />
<rect x="646.00" y="517.09" width="3.12" height="0.00" style="stroke-width:1;stroke:#000000;fill:#BEBEBE;stroke-opacity:1.000000;fill-opacity:1.000000" />
<rect x="649.12" y="517.09" width="3.12" height="0.00" style="stroke-width:1;stroke:#000000;fill:#BEBEBE;stroke-opacity:1.000000;fill-opacity:1.000000" />
<rect x="652.25" y="517.09" width="3.12" height="0.00" style="stroke-width:1;stroke:#000000;fill:#BEBEBE;stroke-opacity:1.000000;fill-opacity:1.000000" />
<rect x="655.37" y="517.09" width="3.12" height="0.00" style="stroke-width:1;stroke:#000000;fill:#BEBEBE;stroke-opacity:1.000000;fill-opacity:1.000000" />
<rect x="658.49" y="517.09" width="3.12" height="0.00" style="stroke-width:1;stroke:#000000;fill:#BEBEBE;stroke-opacity:1.000000;fill-opacity:1.000000" />
<rect x="661.61" y="517.09" width="3.12" height="0.00" style="stroke-width:1;stroke:#000000;fill:#BEBEBE;stroke-opacity:1.000000;fill-opacity:1.000000" />
<rect x="664.74" y="517.09" width="3.12" height="0.00" style="stroke-width:1;stroke:#000000;fill:#BEBEBE;stroke-opacity:1.000000;fill-opacity:1.000000" />
<rect x="667.86" y="517.09" width="3.12" height="0.00" style="stroke-width:1;stroke:#000000;fill:#BEBEBE;stroke-opacity:1.000000;fill-opacity:1.000000" />
<rect x="670.98" y="512.71" width="3.12" height="4.38" style="stroke-width:1;stroke:#000000;fill:#BEBEBE;stroke-opacity:1.000000;fill-opacity:1.000000" />
<rect x="674.10" y="517.09" width="3.12" height="0.00" style="stroke-width:1;stroke:#000000;fill:#BEBEBE;stroke-opacity:1.000000;fill-opacity:1.000000" />
<rect x="677.22" y="517.09" width="3.12" height="0.00" style="stroke-width:1;stroke:#000000;fill:#BEBEBE;stroke-opacity:1.000000;fill-opacity:1.000000" />
<polyline points="118.19 , 517.09 124.11 , 517.09 130.03 , 517.09 135.95 , 517.09 141.86 , 517.09 147.78 , 517.09 153.70 , 517.09 159.62 , 517.09 165.53 , 517.09 171.45 , 517.09 177.37 , 517.09 183.29 , 517.09 189.20 , 517.09 195.12 , 517.09 201.04 , 517.09 206.95 , 517.09 212.87 , 517.09 218.79 , 517.09 224.71 , 517.09 230.62 , 517.09 236.54 , 517.08 242.46 , 517.08 248.38 , 517.08 254.29 , 517.06 260.21 , 517.04 266.13 , 517.00 272.05 , 516.92 277.96 , 516.78 283.88 , 516.54 289.80 , 516.11 295.72 , 515.41 301.63 , 514.26 307.55 , 512.48 313.47 , 509.75 319.39 , 505.71 325.30 , 499.92 331.22 , 491.86 337.14 , 480.99 343.06 , 466.78 348.97 , 448.81 354.89 , 426.86 360.81 , 400.98 366.72 , 371.59 372.64 , 339.54 378.56 , 306.11 384.48 , 272.95 390.39 , 241.98 396.31 , 215.22 402.23 , 194.53 408.15 , 181.45 414.06 , 177.01 419.98 , 181.53 425.90 , 194.67 431.82 , 215.42 437.73 , 242.23 443.65 , 273.22 449.57 , 306.39 455.49 , 339.82 461.40 , 371.85 467.32 , 401.21 473.24 , 427.06 479.16 , 448.98 485.07 , 466.91 490.99 , 481.09 496.91 , 491.94 502.82 , 499.98 508.74 , 505.75 514.66 , 509.78 520.58 , 512.49 526.49 , 514.28 532.41 , 515.41 538.33 , 516.12 544.25 , 516.54 550.16 , 516.78 556.08 , 516.92 562.00 , 517.00 567.92 , 517.04 573.83 , 517.06 579.75 , 517.08 585.67 , 517.08 591.59 , 517.08 597.50 , 517.09 603.42 , 517.09 609.34 , 517.09 615.26 , 517.09 621.17 , 517.09 627.09 , 517.09 633.01 , 517.09 638.93 , 517.09 644.84 , 517.09 650.76 , 517.09 656.68 , 517.09 662.59 , 517.09 668.51 , 517.09 674.43 , 517.09 680.35 , 517.09 686.26 , 517.09 692.18 , 517.09 698.10 , 517.09 704.02 , 517.09 705.20 , 517.09 " style="stroke-width:1;stroke:#FF0000;fill:#000000;stroke-opacity:1.000000;fill-opacity:0.000000"/>
</svg>
