<?xml version="1.0" encoding="UTF-8"?>
<svg xmlns="http://www.w3.org/2000/svg" width="722.70" height="578.16" viewBox="0,0,722.70,578.16">
<desc>R SVG Plot!</desc>
<rect width="100%" height="100%" style="fill:#FFFFFF"/>
<polygon points="0.00 , 289.08 722.70 , 289.08 722.70 , 0.00 0.00 , 0.00 " style="stroke-width:1;stroke:#FFFFFF;fill:#FFFFFF;stroke-opacity:0.000000;fill-opacity:1.000000" />
<polygon points="0.00 , 578.16 722.70 , 578.16 722.70 , 289.08 0.00 , 289.08 " style="stroke-width:1;stroke:#FFFFFF;fill:#FFFFFF;stroke-opacity:0.000000;fill-opacity:1.000000" />
<polygon points="0.00 , 289.08 361.35 , 289.08 361.35 , 0.00 0.00 , 0.00 " style="stroke-width:1;stroke:#FFFFFF;fill:#FFFFFF;stroke-opacity:0.000000;fill-opacity:1.000000" />
<polyline points="45.64 , 238.71 46.20 , 238.61 46.76 , 238.50 47.32 , 238.38 47.88 , 238.25 48.44 , 238.12 49.00 , 237.98 49.56 , 237.83 50.13 , 237.68 50.69 , 237.52 51.25 , 237.36 51.81 , 237.19 52.37 , 237.01 52.93 , 236.82 53.49 , 236.64 54.05 , 236.44 54.61 , 236.24 55.18 , 236.04 55.74 , 235.83 56.30 , 235.62 56.86 , 235.41 57.42 , 235.19 57.98 , 234.97 58.54 , 234.75 59.10 , 234.53 59.66 , 234.31 60.23 , 234.09 60.79 , 233.87 61.35 , 233.65 61.91 , 233.43 62.47 , 233.21 63.03 , 232.99 63.59 , 232.78 64.15 , 232.57 64.72 , 232.37 65.28 , 232.16 65.84 , 231.96 66.40 , 231.77 66.96 , 231.58 67.52 , 231.39 68.08 , 231.20 68.64 , 231.02 69.20 , 230.84 69.77 , 230.67 70.33 , 230.49 70.89 , 230.32 71.45 , 230.15 72.01 , 229.97 72.57 , 229.80 73.13 , 229.62 73.69 , 229.44 74.25 , 229.26 74.82 , 229.08 75.38 , 228.88 75.94 , 228.68 76.50 , 228.47 77.06 , 228.26 77.62 , 228.03 78.18 , 227.79 78.74 , 227.54 79.30 , 227.28 79.87 , 227.00 80.43 , 226.71 80.99 , 226.40 81.55 , 226.08 82.11 , 225.75 82.67 , 225.39 83.23 , 225.02 83.79 , 224.63 84.36 , 224.23 84.92 , 223.81 85.48 , 223.37 86.04 , 222.92 86.60 , 222.45 87.16 , 221.97 87.72 , 221.47 88.28 , 220.96 88.84 , 220.44 89.41 , 219.92 89.97 , 219.37 90.53 , 218.83 91.09 , 218.27 91.65 , 217.71 92.21 , 217.14 92.77 , 216.57 93.33 , 216.00 93.89 , 215.42 94.46 , 214.84 95.02 , 214.27 95.58 , 213.69 96.14 , 213.11 96.70 , 212.54 97.26 , 211.96 97.82 , 211.39 98.38 , 210.81 98.94 , 210.24 99.51 , 209.66 100.07 , 209.08 100.63 , 208.50 101.19 , 207.92 101.75 , 207.33 102.31 , 206.73 102.87 , 206.13 103.43 , 205.51 104.00 , 204.89 104.56 , 204.25 105.12 , 203.59 105.68 , 202.91 106.24 , 202.22 106.80 , 201.50 107.36 , 200.75 107.92 , 199.98 108.48 , 199.19 109.05 , 198.36 109.61 , 197.51 110.17 , 196.61 110.73 , 195.69 111.29 , 194.73 111.85 , 193.75 112.41 , 192.71 112.97 , 191.65 113.53 , 190.55 114.10 , 189.41 114.66 , 188.24 115.22 , 187.03 115.78 , 185.79 116.34 , 184.52 116.90 , 183.22 117.46 , 181.88 118.02 , 180.51 118.58 , 179.13 119.15 , 177.72 119.71 , 176.28 120.27 , 174.82 120.83 , 173.35 121.39 , 171.87 121.95 , 170.37 122.51 , 168.86 123.07 , 167.35 123.64 , 165.83 124.20 , 164.31 124.76 , 162.79 125.32 , 161.27 125.88 , 159.76 126.44 , 158.26 127.00 , 156.76 127.56 , 155.28 128.12 , 153.81 128.69 , 152.35 129.25 , 150.90 129.81 , 149.47 130.37 , 148.06 130.93 , 146.66 131.49 , 145.28 132.05 , 143.91 132.61 , 142.56 133.17 , 141.22 133.74 , 139.89 134.30 , 138.58 134.86 , 137.28 135.42 , 135.98 135.98 , 134.69 136.54 , 133.40 137.10 , 132.12 137.66 , 130.84 138.22 , 129.55 138.79 , 128.27 139.35 , 126.98 139.91 , 125.67 140.47 , 124.37 141.03 , 123.05 141.59 , 121.72 142.15 , 120.37 142.71 , 119.01 143.28 , 117.63 143.84 , 116.25 144.40 , 114.84 144.96 , 113.41 145.52 , 111.97 146.08 , 110.52 146.64 , 109.05 147.20 , 107.56 147.76 , 106.06 148.33 , 104.54 148.89 , 103.02 149.45 , 101.48 150.01 , 99.93 150.57 , 98.38 151.13 , 96.82 151.69 , 95.25 152.25 , 93.68 152.81 , 92.12 153.38 , 90.55 153.94 , 88.98 154.50 , 87.42 155.06 , 85.87 155.62 , 84.33 156.18 , 82.79 156.74 , 81.27 157.30 , 79.76 157.86 , 78.27 158.43 , 76.79 158.99 , 75.33 159.55 , 73.90 160.11 , 72.49 160.67 , 71.09 161.23 , 69.73 161.79 , 68.38 162.35 , 67.08 162.92 , 65.79 163.48 , 64.54 164.04 , 63.31 164.60 , 62.12 165.16 , 60.97 165.72 , 59.85 166.28 , 58.75 166.84 , 57.70 167.40 , 56.68 167.97 , 55.70 168.53 , 54.75 169.09 , 53.83 169.65 , 52.96 170.21 , 52.13 170.77 , 51.32 171.33 , 50.55 171.89 , 49.82 172.45 , 49.13 173.02 , 48.47 173.58 , 47.84 174.14 , 47.24 174.70 , 46.68 175.26 , 46.16 175.82 , 45.67 176.38 , 45.20 176.94 , 44.77 177.50 , 44.38 178.07 , 44.01 178.63 , 43.68 179.19 , 43.37 179.75 , 43.10 180.31 , 42.86 180.87 , 42.65 181.43 , 42.47 181.99 , 42.32 182.56 , 42.21 183.12 , 42.12 183.68 , 42.06 184.24 , 42.03 184.80 , 42.04 185.36 , 42.08 185.92 , 42.15 186.48 , 42.24 187.04 , 42.38 187.61 , 42.54 188.17 , 42.73 188.73 , 42.95 189.29 , 43.20 189.85 , 43.48 190.41 , 43.79 190.97 , 44.13 191.53 , 44.50 192.09 , 44.90 192.66 , 45.33 193.22 , 45.78 193.78 , 46.26 194.34 , 46.77 194.90 , 47.31 195.46 , 47.87 196.02 , 48.46 196.58 , 49.07 197.14 , 49.71 197.71 , 50.37 198.27 , 51.05 198.83 , 51.75 199.39 , 52.48 199.95 , 53.23 200.51 , 54.00 201.07 , 54.79 201.63 , 55.59 202.20 , 56.42 202.76 , 57.26 203.32 , 58.12 203.88 , 58.99 204.44 , 59.88 205.00 , 60.78 205.56 , 61.69 206.12 , 62.62 206.68 , 63.55 207.25 , 64.49 207.81 , 65.44 208.37 , 66.39 208.93 , 67.35 209.49 , 68.31 210.05 , 69.28 210.61 , 70.25 211.17 , 71.22 211.73 , 72.19 212.30 , 73.16 212.86 , 74.13 213.42 , 75.11 213.98 , 76.08 214.54 , 77.05 215.10 , 78.01 215.66 , 78.98 216.22 , 79.95 216.78 , 80.91 217.35 , 81.88 217.91 , 82.84 218.47 , 83.81 219.03 , 84.77 219.59 , 85.73 220.15 , 86.70 220.71 , 87.67 221.27 , 88.63 221.84 , 89.60 222.40 , 90.57 222.96 , 91.55 223.52 , 92.52 224.08 , 93.50 224.64 , 94.48 225.20 , 95.46 225.76 , 96.44 226.32 , 97.43 226.89 , 98.41 227.45 , 99.40 228.01 , 100.39 228.57 , 101.38 229.13 , 102.37 229.69 , 103.37 230.25 , 104.36 230.81 , 105.36 231.37 , 106.36 231.94 , 107.37 232.50 , 108.38 233.06 , 109.40 233.62 , 110.42 234.18 , 111.45 234.74 , 112.49 235.30 , 113.54 235.86 , 114.61 236.42 , 115.68 236.99 , 116.78 237.55 , 117.90 238.11 , 119.04 238.67 , 120.19 239.23 , 121.38 239.79 , 122.59 240.35 , 123.83 240.91 , 125.10 241.48 , 126.40 242.04 , 127.74 242.60 , 129.11 243.16 , 130.51 243.72 , 131.94 244.28 , 133.42 244.84 , 134.92 245.40 , 136.46 245.96 , 138.03 246.53 , 139.63 247.09 , 141.26 247.65 , 142.92 248.21 , 144.59 248.77 , 146.29 249.33 , 148.02 249.89 , 149.75 250.45 , 151.50 251.01 , 153.26 251.58 , 155.02 252.14 , 156.79 252.70 , 158.55 253.26 , 160.31 253.82 , 162.06 254.38 , 163.79 254.94 , 165.51 255.50 , 167.21 256.06 , 168.89 256.63 , 170.54 257.19 , 172.16 257.75 , 173.75 258.31 , 175.31 258.87 , 176.84 259.43 , 178.32 259.99 , 179.77 260.55 , 181.18 261.12 , 182.56 261.68 , 183.88 262.24 , 185.17 262.80 , 186.43 263.36 , 187.64 263.92 , 188.82 264.48 , 189.95 265.04 , 191.05 265.60 , 192.12 266.17 , 193.15 266.73 , 194.15 267.29 , 195.11 267.85 , 196.05 268.41 , 196.97 268.97 , 197.86 269.53 , 198.72 270.09 , 199.57 270.65 , 200.39 271.22 , 201.20 271.78 , 201.99 272.34 , 202.76 272.90 , 203.52 273.46 , 204.27 274.02 , 205.01 274.58 , 205.74 275.14 , 206.46 275.70 , 207.17 276.27 , 207.87 276.83 , 208.56 277.39 , 209.25 277.95 , 209.92 278.51 , 210.59 279.07 , 211.25 279.63 , 211.90 280.19 , 212.55 280.76 , 213.18 281.32 , 213.81 281.88 , 214.42 282.44 , 215.02 283.00 , 215.61 283.56 , 216.19 284.12 , 216.76 284.68 , 217.31 285.24 , 217.86 285.81 , 218.39 286.37 , 218.90 286.93 , 219.40 287.49 , 219.89 288.05 , 220.36 288.61 , 220.82 289.17 , 221.27 289.73 , 221.70 290.29 , 222.12 290.86 , 222.53 291.42 , 222.93 291.98 , 223.31 292.54 , 223.68 293.10 , 224.05 293.66 , 224.41 294.22 , 224.75 294.78 , 225.09 295.34 , 225.42 295.91 , 225.75 296.47 , 226.07 297.03 , 226.39 297.59 , 226.70 298.15 , 227.01 298.71 , 227.31 299.27 , 227.61 299.83 , 227.91 300.40 , 228.20 300.96 , 228.50 301.52 , 228.79 302.08 , 229.07 302.64 , 229.35 303.20 , 229.63 303.76 , 229.91 304.32 , 230.18 304.88 , 230.44 305.45 , 230.70 306.01 , 230.96 306.57 , 231.20 307.13 , 231.44 307.69 , 231.67 308.25 , 231.89 308.81 , 232.11 309.37 , 232.31 309.93 , 232.50 310.50 , 232.68 311.06 , 232.85 311.62 , 233.00 312.18 , 233.15 312.74 , 233.28 313.30 , 233.41 313.86 , 233.52 314.42 , 233.62 314.98 , 233.71 315.55 , 233.79 316.11 , 233.86 316.67 , 233.92 317.23 , 233.97 317.79 , 234.02 318.35 , 234.06 318.91 , 234.09 319.47 , 234.13 320.04 , 234.15 320.60 , 234.18 321.16 , 234.20 321.72 , 234.23 322.28 , 234.26 322.84 , 234.28 323.40 , 234.32 323.96 , 234.35 324.52 , 234.39 325.09 , 234.44 325.65 , 234.49 326.21 , 234.54 326.77 , 234.61 327.33 , 234.68 327.89 , 234.76 328.45 , 234.84 329.01 , 234.93 329.57 , 235.03 330.14 , 235.13 330.70 , 235.24 331.26 , 235.36 331.82 , 235.48 332.38 , 235.61 " style="stroke-width:2;stroke:#00FF00;fill:#000000;stroke-opacity:1.000000;fill-opacity:0.000000"/>
<line x1="102.29" y1="246.58" x2="282.80" y2="246.58" style="stroke-width:1;stroke:#000000;fill:#000000;stroke-opacity:1.000000;fill-opacity:0.000000"/>
<line x1="102.29" y1="246.58" x2="102.29" y2="250.75" style="stroke-width:1;stroke:#000000;fill:#000000;stroke-opacity:1.000000;fill-opacity:0.000000"/>
<line x1="192.54" y1="246.58" x2="192.54" y2="250.75" style="stroke-width:1;stroke:#000000;fill:#000000;stroke-opacity:1.000000;fill-opacity:0.000000"/>
<line x1="282.80" y1="246.58" x2="282.80" y2="250.75" style="stroke-width:1;stroke:#000000;fill:#000000;stroke-opacity:1.000000;fill-opacity:0.000000"/>
<text transform="translate(91.73,263.25)"  style="font-size:10" >-0.05</text>
<text transform="translate(182.77,263.25)"  style="font-size:10" >0.00</text>
<text transform="translate(273.02,263.25)"  style="font-size:10" >0.05</text>
<line x1="34.17" y1="240.00" x2="34.17" y2="45.93" style="stroke-width:1;stroke:#000000;fill:#000000;stroke-opacity:1.000000;fill-opacity:0.000000"/>
<line x1="34.17" y1="240.00" x2="30.00" y2="240.00" style="stroke-width:1;stroke:#000000;fill:#000000;stroke-opacity:1.000000;fill-opacity:0.000000"/>
<line x1="34.17" y1="175.31" x2="30.00" y2="175.31" style="stroke-width:1;stroke:#000000;fill:#000000;stroke-opacity:1.000000;fill-opacity:0.000000"/>
<line x1="34.17" y1="110.62" x2="30.00" y2="110.62" style="stroke-width:1;stroke:#000000;fill:#000000;stroke-opacity:1.000000;fill-opacity:0.000000"/>
<line x1="34.17" y1="45.93" x2="30.00" y2="45.93" style="stroke-width:1;stroke:#000000;fill:#000000;stroke-opacity:1.000000;fill-opacity:0.000000"/>
<text transform="translate(25.83,242.75) rotate(-90)"  style="font-size:10" >0</text>
<text transform="translate(25.83,178.06) rotate(-90)"  style="font-size:10" >5</text>
<text transform="translate(25.83,116.12) rotate(-90)"  style="font-size:10" >10</text>
<text transform="translate(25.83,51.43) rotate(-90)"  style="font-size:10" >15</text>
<polyline points="34.17 , 246.58 343.85 , 246.58 343.85 , 34.17 34.17 , 34.17 34.17 , 246.58 " style="stroke-width:1;stroke:#000000;fill:#000000;stroke-opacity:1.000000;fill-opacity:0.000000"/>
<text transform="translate(9.17,157.61) rotate(-90)"  style="font-size:10" >Density</text>
<polyline points="45.64 , 237.83 46.20 , 237.75 46.76 , 237.68 47.32 , 237.59 47.88 , 237.51 48.44 , 237.42 49.00 , 237.33 49.56 , 237.24 50.12 , 237.14 50.68 , 237.04 51.24 , 236.94 51.80 , 236.84 52.36 , 236.73 52.92 , 236.62 53.48 , 236.50 54.04 , 236.38 54.60 , 236.26 55.16 , 236.14 55.72 , 236.01 56.28 , 235.88 56.84 , 235.74 57.40 , 235.60 57.96 , 235.46 58.52 , 235.31 59.08 , 235.16 59.64 , 235.00 60.20 , 234.84 60.76 , 234.68 61.32 , 234.51 61.88 , 234.33 62.44 , 234.15 63.00 , 233.97 63.56 , 233.78 64.12 , 233.59 64.68 , 233.39 65.24 , 233.18 65.80 , 232.97 66.36 , 232.76 66.92 , 232.54 67.48 , 232.31 68.04 , 232.08 68.60 , 231.84 69.16 , 231.60 69.72 , 231.35 70.28 , 231.09 70.84 , 230.83 71.40 , 230.56 71.96 , 230.29 72.52 , 230.00 73.08 , 229.71 73.64 , 229.42 74.20 , 229.12 74.76 , 228.81 75.32 , 228.49 75.88 , 228.16 76.44 , 227.83 77.00 , 227.49 77.56 , 227.14 78.12 , 226.79 78.68 , 226.43 79.24 , 226.06 79.80 , 225.68 80.36 , 225.29 80.92 , 224.89 81.48 , 224.49 82.04 , 224.07 82.60 , 223.65 83.16 , 223.22 83.72 , 222.78 84.28 , 222.33 84.84 , 221.87 85.40 , 221.41 85.96 , 220.93 86.52 , 220.44 87.08 , 219.95 87.64 , 219.44 88.20 , 218.92 88.76 , 218.40 89.32 , 217.86 89.88 , 217.32 90.44 , 216.76 91.00 , 216.19 91.56 , 215.62 92.12 , 215.03 92.68 , 214.43 93.24 , 213.82 93.80 , 213.20 94.36 , 212.57 94.92 , 211.93 95.48 , 211.27 96.04 , 210.61 96.60 , 209.93 97.16 , 209.25 97.72 , 208.55 98.28 , 207.84 98.84 , 207.12 99.40 , 206.38 99.96 , 205.64 100.52 , 204.88 101.08 , 204.12 101.64 , 203.34 102.20 , 202.54 102.76 , 201.74 103.32 , 200.93 103.88 , 200.10 104.44 , 199.26 105.00 , 198.41 105.56 , 197.55 106.12 , 196.67 106.68 , 195.79 107.24 , 194.89 107.80 , 193.98 108.36 , 193.05 108.92 , 192.12 109.48 , 191.17 110.04 , 190.22 110.60 , 189.25 111.16 , 188.26 111.72 , 187.27 112.28 , 186.27 112.84 , 185.25 113.40 , 184.22 113.96 , 183.18 114.52 , 182.13 115.08 , 181.07 115.64 , 179.99 116.20 , 178.91 116.76 , 177.81 117.32 , 176.71 117.88 , 175.59 118.44 , 174.46 119.00 , 173.32 119.56 , 172.17 120.12 , 171.01 120.68 , 169.84 121.24 , 168.66 121.80 , 167.47 122.36 , 166.27 122.92 , 165.06 123.48 , 163.84 124.04 , 162.61 124.60 , 161.37 125.16 , 160.13 125.72 , 158.87 126.28 , 157.61 126.84 , 156.34 127.40 , 155.06 127.96 , 153.77 128.52 , 152.48 129.08 , 151.18 129.64 , 149.87 130.20 , 148.55 130.76 , 147.23 131.32 , 145.90 131.88 , 144.57 132.44 , 143.23 133.00 , 141.88 133.56 , 140.54 134.12 , 139.18 134.68 , 137.82 135.24 , 136.46 135.80 , 135.09 136.36 , 133.72 136.92 , 132.35 137.48 , 130.97 138.04 , 129.59 138.60 , 128.21 139.16 , 126.83 139.72 , 125.45 140.28 , 124.06 140.84 , 122.68 141.40 , 121.29 141.96 , 119.90 142.52 , 118.52 143.08 , 117.14 143.64 , 115.75 144.20 , 114.37 144.76 , 112.99 145.32 , 111.62 145.88 , 110.24 146.44 , 108.87 147.00 , 107.51 147.56 , 106.14 148.12 , 104.78 148.68 , 103.43 149.25 , 102.08 149.81 , 100.74 150.37 , 99.41 150.93 , 98.08 151.49 , 96.76 152.05 , 95.44 152.61 , 94.14 153.17 , 92.84 153.73 , 91.55 154.29 , 90.27 154.85 , 89.00 155.41 , 87.74 155.97 , 86.49 156.53 , 85.25 157.09 , 84.03 157.65 , 82.81 158.21 , 81.61 158.77 , 80.42 159.33 , 79.24 159.89 , 78.08 160.45 , 76.93 161.01 , 75.79 161.57 , 74.67 162.13 , 73.57 162.69 , 72.48 163.25 , 71.41 163.81 , 70.35 164.37 , 69.31 164.93 , 68.29 165.49 , 67.28 166.05 , 66.30 166.61 , 65.33 167.17 , 64.38 167.73 , 63.45 168.29 , 62.53 168.85 , 61.64 169.41 , 60.77 169.97 , 59.92 170.53 , 59.09 171.09 , 58.28 171.65 , 57.49 172.21 , 56.73 172.77 , 55.98 173.33 , 55.26 173.89 , 54.56 174.45 , 53.89 175.01 , 53.23 175.57 , 52.60 176.13 , 52.00 176.69 , 51.42 177.25 , 50.86 177.81 , 50.33 178.37 , 49.82 178.93 , 49.33 179.49 , 48.87 180.05 , 48.44 180.61 , 48.03 181.17 , 47.65 181.73 , 47.29 182.29 , 46.96 182.85 , 46.66 183.41 , 46.38 183.97 , 46.12 184.53 , 45.90 185.09 , 45.70 185.65 , 45.52 186.21 , 45.38 186.77 , 45.26 187.33 , 45.16 187.89 , 45.10 188.45 , 45.06 189.01 , 45.04 189.57 , 45.06 190.13 , 45.10 190.69 , 45.16 191.25 , 45.26 191.81 , 45.38 192.37 , 45.52 192.93 , 45.70 193.49 , 45.90 194.05 , 46.12 194.61 , 46.38 195.17 , 46.66 195.73 , 46.96 196.29 , 47.29 196.85 , 47.65 197.41 , 48.03 197.97 , 48.44 198.53 , 48.87 199.09 , 49.33 199.65 , 49.82 200.21 , 50.33 200.77 , 50.86 201.33 , 51.42 201.89 , 52.00 202.45 , 52.60 203.01 , 53.23 203.57 , 53.89 204.13 , 54.56 204.69 , 55.26 205.25 , 55.98 205.81 , 56.73 206.37 , 57.49 206.93 , 58.28 207.49 , 59.09 208.05 , 59.92 208.61 , 60.77 209.17 , 61.64 209.73 , 62.53 210.29 , 63.45 210.85 , 64.38 211.41 , 65.33 211.97 , 66.30 212.53 , 67.28 213.09 , 68.29 213.65 , 69.31 214.21 , 70.35 214.77 , 71.41 215.33 , 72.48 215.89 , 73.57 216.45 , 74.67 217.01 , 75.79 217.57 , 76.93 218.13 , 78.08 218.69 , 79.24 219.25 , 80.42 219.81 , 81.61 220.37 , 82.81 220.93 , 84.03 221.49 , 85.25 222.05 , 86.49 222.61 , 87.74 223.17 , 89.00 223.73 , 90.27 224.29 , 91.55 224.85 , 92.84 225.41 , 94.14 225.97 , 95.44 226.53 , 96.76 227.09 , 98.08 227.65 , 99.41 228.21 , 100.74 228.77 , 102.08 229.33 , 103.43 229.89 , 104.78 230.45 , 106.14 231.01 , 107.51 231.57 , 108.87 232.13 , 110.24 232.69 , 111.62 233.25 , 112.99 233.81 , 114.37 234.37 , 115.75 234.93 , 117.14 235.49 , 118.52 236.05 , 119.90 236.61 , 121.29 237.17 , 122.68 237.73 , 124.06 238.29 , 125.45 238.85 , 126.83 239.41 , 128.21 239.97 , 129.59 240.53 , 130.97 241.09 , 132.35 241.65 , 133.72 242.21 , 135.09 242.77 , 136.46 243.33 , 137.82 243.89 , 139.18 244.45 , 140.54 245.01 , 141.88 245.57 , 143.23 246.13 , 144.57 246.69 , 145.90 247.25 , 147.23 247.81 , 148.55 248.37 , 149.87 248.93 , 151.18 249.49 , 152.48 250.05 , 153.77 250.61 , 155.06 251.17 , 156.34 251.73 , 157.61 252.29 , 158.87 252.85 , 160.13 253.41 , 161.37 253.97 , 162.61 254.53 , 163.84 255.09 , 165.06 255.65 , 166.27 256.21 , 167.47 256.77 , 168.66 257.33 , 169.84 257.89 , 171.01 258.45 , 172.17 259.01 , 173.32 259.57 , 174.46 260.13 , 175.59 260.69 , 176.71 261.25 , 177.81 261.81 , 178.91 262.37 , 179.99 262.93 , 181.07 263.49 , 182.13 264.05 , 183.18 264.61 , 184.22 265.17 , 185.25 265.73 , 186.27 266.29 , 187.27 266.85 , 188.26 267.41 , 189.25 267.97 , 190.22 268.53 , 191.17 269.09 , 192.12 269.66 , 193.05 270.22 , 193.98 270.78 , 194.89 271.34 , 195.79 271.90 , 196.67 272.46 , 197.55 273.02 , 198.41 273.58 , 199.26 274.14 , 200.10 274.70 , 200.93 275.26 , 201.74 275.82 , 202.54 276.38 , 203.34 276.94 , 204.12 277.50 , 204.88 278.06 , 205.64 278.62 , 206.38 279.18 , 207.12 279.74 , 207.84 280.30 , 208.55 280.86 , 209.25 281.42 , 209.93 281.98 , 210.61 282.54 , 211.27 283.10 , 211.93 283.66 , 212.57 284.22 , 213.20 284.78 , 213.82 285.34 , 214.43 285.90 , 215.03 286.46 , 215.62 287.02 , 216.19 287.58 , 216.76 288.14 , 217.32 288.70 , 217.86 289.26 , 218.40 289.82 , 218.92 290.38 , 219.44 290.94 , 219.95 291.50 , 220.44 292.06 , 220.93 292.62 , 221.41 293.18 , 221.87 293.74 , 222.33 294.30 , 222.78 294.86 , 223.22 295.42 , 223.65 295.98 , 224.07 296.54 , 224.49 297.10 , 224.89 297.66 , 225.29 298.22 , 225.68 298.78 , 226.06 299.34 , 226.43 299.90 , 226.79 300.46 , 227.14 301.02 , 227.49 301.58 , 227.83 302.14 , 228.16 302.70 , 228.49 303.26 , 228.81 303.82 , 229.12 304.38 , 229.42 304.94 , 229.71 305.50 , 230.00 306.06 , 230.29 306.62 , 230.56 307.18 , 230.83 307.74 , 231.09 308.30 , 231.35 308.86 , 231.60 309.42 , 231.84 309.98 , 232.08 310.54 , 232.31 311.10 , 232.54 311.66 , 232.76 312.22 , 232.97 312.78 , 233.18 313.34 , 233.39 313.90 , 233.59 314.46 , 233.78 315.02 , 233.97 315.58 , 234.15 316.14 , 234.33 316.70 , 234.51 317.26 , 234.68 317.82 , 234.84 318.38 , 235.00 318.94 , 235.16 319.50 , 235.31 320.06 , 235.46 320.62 , 235.60 321.18 , 235.74 321.74 , 235.88 322.30 , 236.01 322.86 , 236.14 323.42 , 236.26 323.98 , 236.38 324.54 , 236.50 325.10 , 236.62 325.66 , 236.73 326.22 , 236.84 326.78 , 236.94 327.34 , 237.04 327.90 , 237.14 328.46 , 237.24 329.02 , 237.33 329.58 , 237.42 330.14 , 237.51 330.70 , 237.59 331.26 , 237.68 331.82 , 237.75 332.38 , 237.83 " style="stroke-width:1;stroke:#000000;fill:#000000;stroke-opacity:1.000000;fill-opacity:0.000000"/>
<text transform="translate(110.01,22.08)"  style="font-size:12" >Graphic diagnostic for state 1</text>
<text transform="translate(133.77,271.58)"  style="font-size:10" >Estimated Density (green) </text>
<text transform="translate(136.20,279.91)"  style="font-size:10" > Normal density (black)</text>
<text transform="translate(189.01,288.25)"  style="font-size:10" ></text>
<polygon points="361.35 , 289.08 722.70 , 289.08 722.70 , 0.00 361.35 , 0.00 " style="stroke-width:1;stroke:#FFFFFF;fill:#FFFFFF;stroke-opacity:0.000000;fill-opacity:1.000000" />
<polyline points="406.99 , 238.71 407.55 , 238.69 408.11 , 238.66 408.67 , 238.62 409.23 , 238.58 409.79 , 238.53 410.35 , 238.47 410.91 , 238.40 411.48 , 238.33 412.04 , 238.24 412.60 , 238.15 413.16 , 238.04 413.72 , 237.93 414.28 , 237.80 414.84 , 237.66 415.40 , 237.51 415.96 , 237.34 416.53 , 237.17 417.09 , 236.98 417.65 , 236.78 418.21 , 236.57 418.77 , 236.35 419.33 , 236.12 419.89 , 235.88 420.45 , 235.64 421.01 , 235.38 421.58 , 235.12 422.14 , 234.85 422.70 , 234.58 423.26 , 234.30 423.82 , 234.02 424.38 , 233.74 424.94 , 233.46 425.50 , 233.17 426.07 , 232.89 426.63 , 232.61 427.19 , 232.33 427.75 , 232.04 428.31 , 231.76 428.87 , 231.48 429.43 , 231.21 429.99 , 230.93 430.55 , 230.65 431.12 , 230.38 431.68 , 230.10 432.24 , 229.82 432.80 , 229.54 433.36 , 229.25 433.92 , 228.96 434.48 , 228.67 435.04 , 228.37 435.60 , 228.06 436.17 , 227.74 436.73 , 227.42 437.29 , 227.08 437.85 , 226.74 438.41 , 226.38 438.97 , 226.02 439.53 , 225.64 440.09 , 225.26 440.65 , 224.86 441.22 , 224.45 441.78 , 224.02 442.34 , 223.59 442.90 , 223.14 443.46 , 222.69 444.02 , 222.23 444.58 , 221.75 445.14 , 221.27 445.71 , 220.78 446.27 , 220.28 446.83 , 219.77 447.39 , 219.26 447.95 , 218.74 448.51 , 218.21 449.07 , 217.68 449.63 , 217.14 450.19 , 216.59 450.76 , 216.04 451.32 , 215.48 451.88 , 214.92 452.44 , 214.34 453.00 , 213.77 453.56 , 213.18 454.12 , 212.59 454.68 , 211.99 455.24 , 211.39 455.81 , 210.78 456.37 , 210.17 456.93 , 209.55 457.49 , 208.93 458.05 , 208.31 458.61 , 207.69 459.17 , 207.06 459.73 , 206.45 460.29 , 205.83 460.86 , 205.23 461.42 , 204.63 461.98 , 204.04 462.54 , 203.47 463.10 , 202.91 463.66 , 202.36 464.22 , 201.83 464.78 , 201.32 465.35 , 200.83 465.91 , 200.36 466.47 , 199.90 467.03 , 199.45 467.59 , 199.03 468.15 , 198.62 468.71 , 198.21 469.27 , 197.82 469.83 , 197.43 470.40 , 197.04 470.96 , 196.65 471.52 , 196.26 472.08 , 195.85 472.64 , 195.42 473.20 , 194.98 473.76 , 194.52 474.32 , 194.03 474.88 , 193.50 475.45 , 192.94 476.01 , 192.35 476.57 , 191.72 477.13 , 191.05 477.69 , 190.33 478.25 , 189.57 478.81 , 188.77 479.37 , 187.93 479.93 , 187.05 480.50 , 186.13 481.06 , 185.17 481.62 , 184.18 482.18 , 183.15 482.74 , 182.09 483.30 , 181.01 483.86 , 179.91 484.42 , 178.78 484.99 , 177.64 485.55 , 176.48 486.11 , 175.32 486.67 , 174.15 487.23 , 172.97 487.79 , 171.78 488.35 , 170.60 488.91 , 169.42 489.47 , 168.24 490.04 , 167.06 490.60 , 165.88 491.16 , 164.70 491.72 , 163.53 492.28 , 162.36 492.84 , 161.19 493.40 , 160.03 493.96 , 158.86 494.52 , 157.69 495.09 , 156.53 495.65 , 155.35 496.21 , 154.18 496.77 , 153.00 497.33 , 151.81 497.89 , 150.62 498.45 , 149.42 499.01 , 148.21 499.57 , 146.99 500.14 , 145.77 500.70 , 144.54 501.26 , 143.30 501.82 , 142.05 502.38 , 140.79 502.94 , 139.52 503.50 , 138.25 504.06 , 136.97 504.63 , 135.68 505.19 , 134.38 505.75 , 133.07 506.31 , 131.75 506.87 , 130.43 507.43 , 129.09 507.99 , 127.74 508.55 , 126.37 509.11 , 125.00 509.68 , 123.61 510.24 , 122.21 510.80 , 120.79 511.36 , 119.36 511.92 , 117.91 512.48 , 116.45 513.04 , 114.98 513.60 , 113.50 514.16 , 112.00 514.73 , 110.50 515.29 , 108.99 515.85 , 107.48 516.41 , 105.97 516.97 , 104.47 517.53 , 102.97 518.09 , 101.49 518.65 , 100.02 519.21 , 98.57 519.78 , 97.15 520.34 , 95.75 520.90 , 94.38 521.46 , 93.03 522.02 , 91.72 522.58 , 90.44 523.14 , 89.18 523.70 , 87.95 524.27 , 86.75 524.83 , 85.56 525.39 , 84.40 525.95 , 83.24 526.51 , 82.10 527.07 , 80.95 527.63 , 79.81 528.19 , 78.65 528.75 , 77.48 529.32 , 76.30 529.88 , 75.10 530.44 , 73.88 531.00 , 72.63 531.56 , 71.35 532.12 , 70.05 532.68 , 68.72 533.24 , 67.37 533.80 , 66.01 534.37 , 64.62 534.93 , 63.23 535.49 , 61.84 536.05 , 60.44 536.61 , 59.06 537.17 , 57.69 537.73 , 56.35 538.29 , 55.04 538.85 , 53.76 539.42 , 52.53 539.98 , 51.34 540.54 , 50.22 541.10 , 49.16 541.66 , 48.17 542.22 , 47.24 542.78 , 46.38 543.34 , 45.59 543.91 , 44.89 544.47 , 44.26 545.03 , 43.72 545.59 , 43.25 546.15 , 42.85 546.71 , 42.53 547.27 , 42.29 547.83 , 42.13 548.39 , 42.05 548.96 , 42.03 549.52 , 42.09 550.08 , 42.22 550.64 , 42.43 551.20 , 42.72 551.76 , 43.07 552.32 , 43.50 552.88 , 43.99 553.44 , 44.54 554.01 , 45.17 554.57 , 45.87 555.13 , 46.63 555.69 , 47.44 556.25 , 48.31 556.81 , 49.23 557.37 , 50.21 557.93 , 51.23 558.49 , 52.29 559.06 , 53.38 559.62 , 54.50 560.18 , 55.65 560.74 , 56.82 561.30 , 58.00 561.86 , 59.19 562.42 , 60.38 562.98 , 61.58 563.55 , 62.77 564.11 , 63.96 564.67 , 65.14 565.23 , 66.30 565.79 , 67.46 566.35 , 68.60 566.91 , 69.73 567.47 , 70.85 568.03 , 71.97 568.60 , 73.07 569.16 , 74.17 569.72 , 75.27 570.28 , 76.37 570.84 , 77.48 571.40 , 78.59 571.96 , 79.72 572.52 , 80.85 573.08 , 82.00 573.65 , 83.17 574.21 , 84.37 574.77 , 85.58 575.33 , 86.81 575.89 , 88.06 576.45 , 89.33 577.01 , 90.62 577.57 , 91.93 578.13 , 93.25 578.70 , 94.58 579.26 , 95.92 579.82 , 97.27 580.38 , 98.62 580.94 , 99.96 581.50 , 101.30 582.06 , 102.64 582.62 , 103.96 583.19 , 105.27 583.75 , 106.56 584.31 , 107.83 584.87 , 109.09 585.43 , 110.33 585.99 , 111.55 586.55 , 112.75 587.11 , 113.93 587.67 , 115.10 588.24 , 116.24 588.80 , 117.38 589.36 , 118.50 589.92 , 119.62 590.48 , 120.72 591.04 , 121.81 591.60 , 122.90 592.16 , 123.98 592.72 , 125.06 593.29 , 126.14 593.85 , 127.20 594.41 , 128.27 594.97 , 129.33 595.53 , 130.38 596.09 , 131.42 596.65 , 132.46 597.21 , 133.49 597.77 , 134.50 598.34 , 135.50 598.90 , 136.49 599.46 , 137.47 600.02 , 138.43 600.58 , 139.38 601.14 , 140.31 601.70 , 141.24 602.26 , 142.15 602.83 , 143.05 603.39 , 143.94 603.95 , 144.83 604.51 , 145.72 605.07 , 146.60 605.63 , 147.50 606.19 , 148.39 606.75 , 149.30 607.31 , 150.22 607.88 , 151.16 608.44 , 152.11 609.00 , 153.08 609.56 , 154.08 610.12 , 155.09 610.68 , 156.14 611.24 , 157.21 611.80 , 158.30 612.36 , 159.42 612.93 , 160.56 613.49 , 161.72 614.05 , 162.91 614.61 , 164.11 615.17 , 165.33 615.73 , 166.57 616.29 , 167.81 616.85 , 169.07 617.41 , 170.33 617.98 , 171.60 618.54 , 172.87 619.10 , 174.14 619.66 , 175.40 620.22 , 176.66 620.78 , 177.91 621.34 , 179.15 621.90 , 180.38 622.47 , 181.60 623.03 , 182.80 623.59 , 183.98 624.15 , 185.15 624.71 , 186.29 625.27 , 187.42 625.83 , 188.52 626.39 , 189.61 626.95 , 190.67 627.52 , 191.71 628.08 , 192.73 628.64 , 193.74 629.20 , 194.72 629.76 , 195.69 630.32 , 196.64 630.88 , 197.57 631.44 , 198.48 632.00 , 199.39 632.57 , 200.28 633.13 , 201.17 633.69 , 202.04 634.25 , 202.91 634.81 , 203.77 635.37 , 204.63 635.93 , 205.48 636.49 , 206.32 637.05 , 207.16 637.62 , 207.99 638.18 , 208.82 638.74 , 209.65 639.30 , 210.46 639.86 , 211.27 640.42 , 212.06 640.98 , 212.85 641.54 , 213.62 642.11 , 214.38 642.67 , 215.12 643.23 , 215.85 643.79 , 216.55 644.35 , 217.24 644.91 , 217.90 645.47 , 218.55 646.03 , 219.17 646.59 , 219.78 647.16 , 220.36 647.72 , 220.91 648.28 , 221.45 648.84 , 221.96 649.40 , 222.46 649.96 , 222.93 650.52 , 223.38 651.08 , 223.81 651.64 , 224.22 652.21 , 224.62 652.77 , 225.00 653.33 , 225.36 653.89 , 225.70 654.45 , 226.03 655.01 , 226.34 655.57 , 226.64 656.13 , 226.92 656.69 , 227.20 657.26 , 227.45 657.82 , 227.70 658.38 , 227.94 658.94 , 228.18 659.50 , 228.40 660.06 , 228.62 660.62 , 228.83 661.18 , 229.04 661.75 , 229.24 662.31 , 229.45 662.87 , 229.65 663.43 , 229.86 663.99 , 230.06 664.55 , 230.27 665.11 , 230.47 665.67 , 230.68 666.23 , 230.89 666.80 , 231.11 667.36 , 231.32 667.92 , 231.54 668.48 , 231.76 669.04 , 231.97 669.60 , 232.19 670.16 , 232.41 670.72 , 232.62 671.28 , 232.83 671.85 , 233.03 672.41 , 233.23 672.97 , 233.42 673.53 , 233.60 674.09 , 233.78 674.65 , 233.95 675.21 , 234.11 675.77 , 234.26 676.33 , 234.40 676.90 , 234.53 677.46 , 234.66 678.02 , 234.77 678.58 , 234.88 679.14 , 234.98 679.70 , 235.08 680.26 , 235.17 680.82 , 235.25 681.39 , 235.34 681.95 , 235.41 682.51 , 235.49 683.07 , 235.57 683.63 , 235.64 684.19 , 235.72 684.75 , 235.80 685.31 , 235.88 685.87 , 235.96 686.44 , 236.05 687.00 , 236.14 687.56 , 236.23 688.12 , 236.33 688.68 , 236.43 689.24 , 236.53 689.80 , 236.64 690.36 , 236.75 690.92 , 236.86 691.49 , 236.98 692.05 , 237.10 692.61 , 237.22 693.17 , 237.34 693.73 , 237.46 " style="stroke-width:2;stroke:#00FF00;fill:#000000;stroke-opacity:1.000000;fill-opacity:0.000000"/>
<line x1="472.12" y1="246.58" x2="627.57" y2="246.58" style="stroke-width:1;stroke:#000000;fill:#000000;stroke-opacity:1.000000;fill-opacity:0.000000"/>
<line x1="472.12" y1="246.58" x2="472.12" y2="250.75" style="stroke-width:1;stroke:#000000;fill:#000000;stroke-opacity:1.000000;fill-opacity:0.000000"/>
<line x1="549.84" y1="246.58" x2="549.84" y2="250.75" style="stroke-width:1;stroke:#000000;fill:#000000;stroke-opacity:1.000000;fill-opacity:0.000000"/>
<line x1="627.57" y1="246.58" x2="627.57" y2="250.75" style="stroke-width:1;stroke:#000000;fill:#000000;stroke-opacity:1.000000;fill-opacity:0.000000"/>
<text transform="translate(460.50,263.25)"  style="font-size:10" >-0.02</text>
<text transform="translate(540.06,263.25)"  style="font-size:10" >0.00</text>
<text transform="translate(617.79,263.25)"  style="font-size:10" >0.02</text>
<line x1="395.52" y1="240.89" x2="395.52" y2="45.24" style="stroke-width:1;stroke:#000000;fill:#000000;stroke-opacity:1.000000;fill-opacity:0.000000"/>
<line x1="395.52" y1="240.89" x2="391.35" y2="240.89" style="stroke-width:1;stroke:#000000;fill:#000000;stroke-opacity:1.000000;fill-opacity:0.000000"/>
<line x1="395.52" y1="212.94" x2="391.35" y2="212.94" style="stroke-width:1;stroke:#000000;fill:#000000;stroke-opacity:1.000000;fill-opacity:0.000000"/>
<line x1="395.52" y1="184.99" x2="391.35" y2="184.99" style="stroke-width:1;stroke:#000000;fill:#000000;stroke-opacity:1.000000;fill-opacity:0.000000"/>
<line x1="395.52" y1="157.04" x2="391.35" y2="157.04" style="stroke-width:1;stroke:#000000;fill:#000000;stroke-opacity:1.000000;fill-opacity:0.000000"/>
<line x1="395.52" y1="129.09" x2="391.35" y2="129.09" style="stroke-width:1;stroke:#000000;fill:#000000;stroke-opacity:1.000000;fill-opacity:0.000000"/>
<line x1="395.52" y1="101.14" x2="391.35" y2="101.14" style="stroke-width:1;stroke:#000000;fill:#000000;stroke-opacity:1.000000;fill-opacity:0.000000"/>
<line x1="395.52" y1="73.19" x2="391.35" y2="73.19" style="stroke-width:1;stroke:#000000;fill:#000000;stroke-opacity:1.000000;fill-opacity:0.000000"/>
<line x1="395.52" y1="45.24" x2="391.35" y2="45.24" style="stroke-width:1;stroke:#000000;fill:#000000;stroke-opacity:1.000000;fill-opacity:0.000000"/>
<text transform="translate(387.18,243.64) rotate(-90)"  style="font-size:10" >0</text>
<text transform="translate(387.18,215.69) rotate(-90)"  style="font-size:10" >5</text>
<text transform="translate(387.18,190.49) rotate(-90)"  style="font-size:10" >10</text>
<text transform="translate(387.18,162.54) rotate(-90)"  style="font-size:10" >15</text>
<text transform="translate(387.18,134.59) rotate(-90)"  style="font-size:10" >20</text>
<text transform="translate(387.18,106.64) rotate(-90)"  style="font-size:10" >25</text>
<text transform="translate(387.18,78.69) rotate(-90)"  style="font-size:10" >30</text>
<text transform="translate(387.18,50.74) rotate(-90)"  style="font-size:10" >35</text>
<polyline points="395.52 , 246.58 705.20 , 246.58 705.20 , 34.17 395.52 , 34.17 395.52 , 246.58 " style="stroke-width:1;stroke:#000000;fill:#000000;stroke-opacity:1.000000;fill-opacity:0.000000"/>
<text transform="translate(370.52,157.61) rotate(-90)"  style="font-size:10" >Density</text>
<polyline points="406.99 , 238.87 407.55 , 238.80 408.11 , 238.73 408.67 , 238.65 409.23 , 238.57 409.79 , 238.49 410.35 , 238.41 410.91 , 238.32 411.47 , 238.23 412.03 , 238.14 412.59 , 238.05 413.15 , 237.95 413.71 , 237.85 414.27 , 237.74 414.83 , 237.64 415.39 , 237.53 415.95 , 237.41 416.51 , 237.30 417.07 , 237.18 417.63 , 237.06 418.19 , 236.93 418.75 , 236.80 419.31 , 236.67 419.87 , 236.53 420.43 , 236.39 420.99 , 236.24 421.55 , 236.09 422.11 , 235.94 422.67 , 235.78 423.23 , 235.62 423.79 , 235.45 424.35 , 235.28 424.91 , 235.11 425.47 , 234.92 426.03 , 234.74 426.59 , 234.55 427.15 , 234.35 427.71 , 234.15 428.27 , 233.95 428.83 , 233.74 429.39 , 233.52 429.95 , 233.30 430.51 , 233.08 431.07 , 232.84 431.63 , 232.60 432.19 , 232.36 432.75 , 232.11 433.31 , 231.85 433.87 , 231.59 434.43 , 231.32 434.99 , 231.05 435.55 , 230.77 436.11 , 230.48 436.67 , 230.18 437.23 , 229.88 437.79 , 229.57 438.35 , 229.26 438.91 , 228.93 439.47 , 228.60 440.03 , 228.26 440.59 , 227.92 441.15 , 227.57 441.71 , 227.21 442.27 , 226.84 442.83 , 226.46 443.39 , 226.08 443.95 , 225.68 444.51 , 225.28 445.07 , 224.87 445.63 , 224.46 446.19 , 224.03 446.75 , 223.60 447.31 , 223.15 447.87 , 222.70 448.43 , 222.24 448.99 , 221.77 449.55 , 221.29 450.11 , 220.80 450.67 , 220.30 451.23 , 219.79 451.79 , 219.27 452.35 , 218.75 452.91 , 218.21 453.47 , 217.66 454.03 , 217.10 454.59 , 216.54 455.15 , 215.96 455.71 , 215.37 456.27 , 214.78 456.83 , 214.17 457.39 , 213.55 457.95 , 212.92 458.51 , 212.28 459.07 , 211.63 459.63 , 210.97 460.19 , 210.30 460.75 , 209.62 461.31 , 208.93 461.87 , 208.23 462.43 , 207.51 462.99 , 206.79 463.55 , 206.05 464.11 , 205.30 464.67 , 204.54 465.23 , 203.78 465.79 , 203.00 466.35 , 202.20 466.91 , 201.40 467.47 , 200.59 468.03 , 199.76 468.59 , 198.93 469.15 , 198.08 469.71 , 197.22 470.27 , 196.35 470.83 , 195.47 471.39 , 194.58 471.95 , 193.68 472.51 , 192.77 473.07 , 191.84 473.63 , 190.91 474.19 , 189.96 474.75 , 189.01 475.31 , 188.04 475.87 , 187.06 476.43 , 186.07 476.99 , 185.07 477.55 , 184.06 478.11 , 183.04 478.67 , 182.01 479.23 , 180.97 479.79 , 179.92 480.35 , 178.87 480.91 , 177.80 481.47 , 176.72 482.03 , 175.63 482.59 , 174.53 483.15 , 173.42 483.71 , 172.31 484.27 , 171.18 484.83 , 170.05 485.39 , 168.90 485.95 , 167.75 486.51 , 166.59 487.07 , 165.43 487.63 , 164.25 488.19 , 163.07 488.75 , 161.88 489.31 , 160.68 489.87 , 159.48 490.43 , 158.27 490.99 , 157.05 491.55 , 155.83 492.11 , 154.60 492.67 , 153.36 493.23 , 152.12 493.79 , 150.88 494.35 , 149.62 494.91 , 148.37 495.47 , 147.11 496.03 , 145.84 496.59 , 144.58 497.15 , 143.31 497.71 , 142.03 498.27 , 140.75 498.83 , 139.47 499.39 , 138.19 499.95 , 136.91 500.51 , 135.62 501.07 , 134.33 501.63 , 133.05 502.19 , 131.76 502.75 , 130.47 503.31 , 129.18 503.87 , 127.89 504.43 , 126.60 504.99 , 125.32 505.55 , 124.03 506.11 , 122.75 506.67 , 121.47 507.23 , 120.19 507.79 , 118.92 508.35 , 117.64 508.91 , 116.38 509.47 , 115.11 510.03 , 113.86 510.60 , 112.60 511.16 , 111.35 511.72 , 110.11 512.28 , 108.88 512.84 , 107.65 513.40 , 106.42 513.96 , 105.21 514.52 , 104.00 515.08 , 102.80 515.64 , 101.61 516.20 , 100.43 516.76 , 99.26 517.32 , 98.10 517.88 , 96.95 518.44 , 95.80 519.00 , 94.67 519.56 , 93.56 520.12 , 92.45 520.68 , 91.35 521.24 , 90.27 521.80 , 89.20 522.36 , 88.15 522.92 , 87.11 523.48 , 86.08 524.04 , 85.07 524.60 , 84.07 525.16 , 83.08 525.72 , 82.12 526.28 , 81.17 526.84 , 80.23 527.40 , 79.31 527.96 , 78.41 528.52 , 77.53 529.08 , 76.66 529.64 , 75.81 530.20 , 74.98 530.76 , 74.17 531.32 , 73.38 531.88 , 72.61 532.44 , 71.86 533.00 , 71.12 533.56 , 70.41 534.12 , 69.72 534.68 , 69.05 535.24 , 68.40 535.80 , 67.77 536.36 , 67.16 536.92 , 66.58 537.48 , 66.01 538.04 , 65.47 538.60 , 64.95 539.16 , 64.46 539.72 , 63.98 540.28 , 63.53 540.84 , 63.11 541.40 , 62.70 541.96 , 62.32 542.52 , 61.97 543.08 , 61.64 543.64 , 61.33 544.20 , 61.04 544.76 , 60.78 545.32 , 60.55 545.88 , 60.34 546.44 , 60.15 547.00 , 59.99 547.56 , 59.85 548.12 , 59.74 548.68 , 59.66 549.24 , 59.59 549.80 , 59.56 550.36 , 59.54 550.92 , 59.56 551.48 , 59.59 552.04 , 59.66 552.60 , 59.74 553.16 , 59.85 553.72 , 59.99 554.28 , 60.15 554.84 , 60.34 555.40 , 60.55 555.96 , 60.78 556.52 , 61.04 557.08 , 61.33 557.64 , 61.64 558.20 , 61.97 558.76 , 62.32 559.32 , 62.70 559.88 , 63.11 560.44 , 63.53 561.00 , 63.98 561.56 , 64.46 562.12 , 64.95 562.68 , 65.47 563.24 , 66.01 563.80 , 66.58 564.36 , 67.16 564.92 , 67.77 565.48 , 68.40 566.04 , 69.05 566.60 , 69.72 567.16 , 70.41 567.72 , 71.12 568.28 , 71.86 568.84 , 72.61 569.40 , 73.38 569.96 , 74.17 570.52 , 74.98 571.08 , 75.81 571.64 , 76.66 572.20 , 77.53 572.76 , 78.41 573.32 , 79.31 573.88 , 80.23 574.44 , 81.17 575.00 , 82.12 575.56 , 83.08 576.12 , 84.07 576.68 , 85.07 577.24 , 86.08 577.80 , 87.11 578.36 , 88.15 578.92 , 89.20 579.48 , 90.27 580.04 , 91.35 580.60 , 92.45 581.16 , 93.56 581.72 , 94.67 582.28 , 95.80 582.84 , 96.95 583.40 , 98.10 583.96 , 99.26 584.52 , 100.43 585.08 , 101.61 585.64 , 102.80 586.20 , 104.00 586.76 , 105.21 587.32 , 106.42 587.88 , 107.65 588.44 , 108.88 589.00 , 110.11 589.56 , 111.35 590.12 , 112.60 590.68 , 113.86 591.24 , 115.11 591.80 , 116.38 592.36 , 117.64 592.92 , 118.92 593.48 , 120.19 594.04 , 121.47 594.60 , 122.75 595.16 , 124.03 595.72 , 125.32 596.28 , 126.60 596.84 , 127.89 597.40 , 129.18 597.96 , 130.47 598.52 , 131.76 599.08 , 133.05 599.64 , 134.33 600.20 , 135.62 600.76 , 136.91 601.32 , 138.19 601.88 , 139.47 602.44 , 140.75 603.00 , 142.03 603.56 , 143.31 604.12 , 144.58 604.68 , 145.84 605.24 , 147.11 605.80 , 148.37 606.36 , 149.62 606.92 , 150.88 607.48 , 152.12 608.04 , 153.36 608.60 , 154.60 609.16 , 155.83 609.72 , 157.05 610.28 , 158.27 610.84 , 159.48 611.40 , 160.68 611.96 , 161.88 612.52 , 163.07 613.08 , 164.25 613.64 , 165.43 614.20 , 166.59 614.76 , 167.75 615.32 , 168.90 615.88 , 170.05 616.44 , 171.18 617.00 , 172.31 617.56 , 173.42 618.12 , 174.53 618.68 , 175.63 619.24 , 176.72 619.80 , 177.80 620.36 , 178.87 620.92 , 179.92 621.48 , 180.97 622.04 , 182.01 622.60 , 183.04 623.16 , 184.06 623.72 , 185.07 624.28 , 186.07 624.84 , 187.06 625.40 , 188.04 625.96 , 189.01 626.52 , 189.96 627.08 , 190.91 627.64 , 191.84 628.20 , 192.77 628.76 , 193.68 629.32 , 194.58 629.88 , 195.47 630.44 , 196.35 631.01 , 197.22 631.57 , 198.08 632.13 , 198.93 632.69 , 199.76 633.25 , 200.59 633.81 , 201.40 634.37 , 202.20 634.93 , 203.00 635.49 , 203.78 636.05 , 204.54 636.61 , 205.30 637.17 , 206.05 637.73 , 206.79 638.29 , 207.51 638.85 , 208.23 639.41 , 208.93 639.97 , 209.62 640.53 , 210.30 641.09 , 210.97 641.65 , 211.63 642.21 , 212.28 642.77 , 212.92 643.33 , 213.55 643.89 , 214.17 644.45 , 214.78 645.01 , 215.37 645.57 , 215.96 646.13 , 216.54 646.69 , 217.10 647.25 , 217.66 647.81 , 218.21 648.37 , 218.75 648.93 , 219.27 649.49 , 219.79 650.05 , 220.30 650.61 , 220.80 651.17 , 221.29 651.73 , 221.77 652.29 , 222.24 652.85 , 222.70 653.41 , 223.15 653.97 , 223.60 654.53 , 224.03 655.09 , 224.46 655.65 , 224.87 656.21 , 225.28 656.77 , 225.68 657.33 , 226.08 657.89 , 226.46 658.45 , 226.84 659.01 , 227.21 659.57 , 227.57 660.13 , 227.92 660.69 , 228.26 661.25 , 228.60 661.81 , 228.93 662.37 , 229.26 662.93 , 229.57 663.49 , 229.88 664.05 , 230.18 664.61 , 230.48 665.17 , 230.77 665.73 , 231.05 666.29 , 231.32 666.85 , 231.59 667.41 , 231.85 667.97 , 232.11 668.53 , 232.36 669.09 , 232.60 669.65 , 232.84 670.21 , 233.08 670.77 , 233.30 671.33 , 233.52 671.89 , 233.74 672.45 , 233.95 673.01 , 234.15 673.57 , 234.35 674.13 , 234.55 674.69 , 234.74 675.25 , 234.92 675.81 , 235.11 676.37 , 235.28 676.93 , 235.45 677.49 , 235.62 678.05 , 235.78 678.61 , 235.94 679.17 , 236.09 679.73 , 236.24 680.29 , 236.39 680.85 , 236.53 681.41 , 236.67 681.97 , 236.80 682.53 , 236.93 683.09 , 237.06 683.65 , 237.18 684.21 , 237.30 684.77 , 237.41 685.33 , 237.53 685.89 , 237.64 686.45 , 237.74 687.01 , 237.85 687.57 , 237.95 688.13 , 238.05 688.69 , 238.14 689.25 , 238.23 689.81 , 238.32 690.37 , 238.41 690.93 , 238.49 691.49 , 238.57 692.05 , 238.65 692.61 , 238.73 693.17 , 238.80 693.73 , 238.87 " style="stroke-width:1;stroke:#000000;fill:#000000;stroke-opacity:1.000000;fill-opacity:0.000000"/>
<text transform="translate(471.36,22.08)"  style="font-size:12" >Graphic diagnostic for state 2</text>
<text transform="translate(495.12,271.58)"  style="font-size:10" >Estimated Density (green) </text>
<text transform="translate(497.55,279.91)"  style="font-size:10" > Normal density (black)</text>
<text transform="translate(550.36,288.25)"  style="font-size:10" ></text>
<polygon points="0.00 , 578.16 361.35 , 578.16 361.35 , 289.08 0.00 , 289.08 " style="stroke-width:1;stroke:#FFFFFF;fill:#FFFFFF;stroke-opacity:0.000000;fill-opacity:1.000000" />
<polyline points="45.64 , 526.81 46.20 , 526.77 46.76 , 526.73 47.32 , 526.68 47.88 , 526.62 48.44 , 526.56 49.00 , 526.49 49.56 , 526.41 50.13 , 526.33 50.69 , 526.24 51.25 , 526.15 51.81 , 526.05 52.37 , 525.94 52.93 , 525.83 53.49 , 525.71 54.05 , 525.59 54.61 , 525.47 55.18 , 525.34 55.74 , 525.22 56.30 , 525.09 56.86 , 524.95 57.42 , 524.82 57.98 , 524.69 58.54 , 524.56 59.10 , 524.43 59.66 , 524.30 60.23 , 524.17 60.79 , 524.05 61.35 , 523.92 61.91 , 523.80 62.47 , 523.68 63.03 , 523.56 63.59 , 523.43 64.15 , 523.31 64.72 , 523.19 65.28 , 523.07 65.84 , 522.95 66.40 , 522.82 66.96 , 522.69 67.52 , 522.55 68.08 , 522.41 68.64 , 522.25 69.20 , 522.09 69.77 , 521.93 70.33 , 521.75 70.89 , 521.56 71.45 , 521.36 72.01 , 521.15 72.57 , 520.92 73.13 , 520.68 73.69 , 520.43 74.25 , 520.16 74.82 , 519.88 75.38 , 519.58 75.94 , 519.27 76.50 , 518.95 77.06 , 518.61 77.62 , 518.25 78.18 , 517.88 78.74 , 517.50 79.30 , 517.11 79.87 , 516.70 80.43 , 516.28 80.99 , 515.85 81.55 , 515.41 82.11 , 514.96 82.67 , 514.50 83.23 , 514.03 83.79 , 513.56 84.36 , 513.08 84.92 , 512.59 85.48 , 512.09 86.04 , 511.60 86.60 , 511.10 87.16 , 510.59 87.72 , 510.09 88.28 , 509.58 88.84 , 509.08 89.41 , 508.57 89.97 , 508.07 90.53 , 507.57 91.09 , 507.06 91.65 , 506.57 92.21 , 506.07 92.77 , 505.58 93.33 , 505.09 93.89 , 504.60 94.46 , 504.11 95.02 , 503.63 95.58 , 503.14 96.14 , 502.66 96.70 , 502.17 97.26 , 501.69 97.82 , 501.20 98.38 , 500.71 98.94 , 500.21 99.51 , 499.71 100.07 , 499.20 100.63 , 498.68 101.19 , 498.15 101.75 , 497.62 102.31 , 497.07 102.87 , 496.51 103.43 , 495.94 104.00 , 495.36 104.56 , 494.77 105.12 , 494.17 105.68 , 493.55 106.24 , 492.93 106.80 , 492.30 107.36 , 491.66 107.92 , 491.01 108.48 , 490.35 109.05 , 489.69 109.61 , 489.03 110.17 , 488.36 110.73 , 487.69 111.29 , 487.01 111.85 , 486.33 112.41 , 485.66 112.97 , 484.97 113.53 , 484.29 114.10 , 483.60 114.66 , 482.91 115.22 , 482.22 115.78 , 481.52 116.34 , 480.81 116.90 , 480.09 117.46 , 479.37 118.02 , 478.63 118.58 , 477.88 119.15 , 477.12 119.71 , 476.34 120.27 , 475.55 120.83 , 474.74 121.39 , 473.91 121.95 , 473.06 122.51 , 472.19 123.07 , 471.30 123.64 , 470.39 124.20 , 469.47 124.76 , 468.52 125.32 , 467.55 125.88 , 466.56 126.44 , 465.55 127.00 , 464.52 127.56 , 463.48 128.12 , 462.41 128.69 , 461.33 129.25 , 460.23 129.81 , 459.12 130.37 , 457.99 130.93 , 456.84 131.49 , 455.69 132.05 , 454.52 132.61 , 453.33 133.17 , 452.13 133.74 , 450.92 134.30 , 449.70 134.86 , 448.47 135.42 , 447.22 135.98 , 445.96 136.54 , 444.70 137.10 , 443.42 137.66 , 442.13 138.22 , 440.82 138.79 , 439.51 139.35 , 438.18 139.91 , 436.83 140.47 , 435.48 141.03 , 434.11 141.59 , 432.72 142.15 , 431.32 142.71 , 429.90 143.28 , 428.47 143.84 , 427.02 144.40 , 425.55 144.96 , 424.06 145.52 , 422.55 146.08 , 421.03 146.64 , 419.49 147.20 , 417.93 147.76 , 416.36 148.33 , 414.78 148.89 , 413.18 149.45 , 411.58 150.01 , 409.97 150.57 , 408.35 151.13 , 406.74 151.69 , 405.13 152.25 , 403.53 152.81 , 401.94 153.38 , 400.36 153.94 , 398.79 154.50 , 397.25 155.06 , 395.72 155.62 , 394.22 156.18 , 392.74 156.74 , 391.27 157.30 , 389.83 157.86 , 388.42 158.43 , 387.02 158.99 , 385.63 159.55 , 384.26 160.11 , 382.90 160.67 , 381.54 161.23 , 380.18 161.79 , 378.82 162.35 , 377.44 162.92 , 376.06 163.48 , 374.66 164.04 , 373.24 164.60 , 371.79 165.16 , 370.31 165.72 , 368.82 166.28 , 367.29 166.84 , 365.73 167.40 , 364.15 167.97 , 362.54 168.53 , 360.91 169.09 , 359.27 169.65 , 357.61 170.21 , 355.95 170.77 , 354.29 171.33 , 352.63 171.89 , 350.99 172.45 , 349.37 173.02 , 347.77 173.58 , 346.23 174.14 , 344.72 174.70 , 343.27 175.26 , 341.88 175.82 , 340.55 176.38 , 339.29 176.94 , 338.12 177.50 , 337.04 178.07 , 336.03 178.63 , 335.12 179.19 , 334.29 179.75 , 333.56 180.31 , 332.94 180.87 , 332.41 181.43 , 331.97 181.99 , 331.62 182.56 , 331.35 183.12 , 331.19 183.68 , 331.11 184.24 , 331.11 184.80 , 331.19 185.36 , 331.33 185.92 , 331.54 186.48 , 331.82 187.04 , 332.16 187.61 , 332.54 188.17 , 332.97 188.73 , 333.44 189.29 , 333.95 189.85 , 334.50 190.41 , 335.07 190.97 , 335.66 191.53 , 336.27 192.09 , 336.90 192.66 , 337.54 193.22 , 338.19 193.78 , 338.84 194.34 , 339.50 194.90 , 340.16 195.46 , 340.83 196.02 , 341.50 196.58 , 342.17 197.14 , 342.84 197.71 , 343.51 198.27 , 344.18 198.83 , 344.85 199.39 , 345.53 199.95 , 346.22 200.51 , 346.91 201.07 , 347.60 201.63 , 348.31 202.20 , 349.02 202.76 , 349.76 203.32 , 350.50 203.88 , 351.26 204.44 , 352.04 205.00 , 352.84 205.56 , 353.66 206.12 , 354.50 206.68 , 355.37 207.25 , 356.26 207.81 , 357.18 208.37 , 358.12 208.93 , 359.10 209.49 , 360.10 210.05 , 361.14 210.61 , 362.20 211.17 , 363.29 211.73 , 364.42 212.30 , 365.58 212.86 , 366.76 213.42 , 367.98 213.98 , 369.22 214.54 , 370.49 215.10 , 371.79 215.66 , 373.11 216.22 , 374.46 216.78 , 375.83 217.35 , 377.22 217.91 , 378.63 218.47 , 380.05 219.03 , 381.49 219.59 , 382.94 220.15 , 384.39 220.71 , 385.85 221.27 , 387.31 221.84 , 388.77 222.40 , 390.23 222.96 , 391.68 223.52 , 393.12 224.08 , 394.54 224.64 , 395.95 225.20 , 397.34 225.76 , 398.71 226.32 , 400.06 226.89 , 401.39 227.45 , 402.70 228.01 , 403.98 228.57 , 405.24 229.13 , 406.48 229.69 , 407.70 230.25 , 408.90 230.81 , 410.08 231.37 , 411.25 231.94 , 412.41 232.50 , 413.57 233.06 , 414.72 233.62 , 415.87 234.18 , 417.02 234.74 , 418.18 235.30 , 419.35 235.86 , 420.54 236.42 , 421.74 236.99 , 422.96 237.55 , 424.21 238.11 , 425.47 238.67 , 426.76 239.23 , 428.08 239.79 , 429.42 240.35 , 430.78 240.91 , 432.17 241.48 , 433.57 242.04 , 435.00 242.60 , 436.44 243.16 , 437.89 243.72 , 439.35 244.28 , 440.81 244.84 , 442.28 245.40 , 443.74 245.96 , 445.20 246.53 , 446.64 247.09 , 448.07 247.65 , 449.48 248.21 , 450.88 248.77 , 452.25 249.33 , 453.60 249.89 , 454.93 250.45 , 456.23 251.01 , 457.51 251.58 , 458.76 252.14 , 460.00 252.70 , 461.21 253.26 , 462.40 253.82 , 463.58 254.38 , 464.74 254.94 , 465.89 255.50 , 467.04 256.06 , 468.17 256.63 , 469.30 257.19 , 470.43 257.75 , 471.56 258.31 , 472.69 258.87 , 473.82 259.43 , 474.96 259.99 , 476.09 260.55 , 477.24 261.12 , 478.38 261.68 , 479.52 262.24 , 480.67 262.80 , 481.82 263.36 , 482.96 263.92 , 484.09 264.48 , 485.22 265.04 , 486.35 265.60 , 487.46 266.17 , 488.55 266.73 , 489.63 267.29 , 490.70 267.85 , 491.75 268.41 , 492.78 268.97 , 493.78 269.53 , 494.76 270.09 , 495.72 270.65 , 496.66 271.22 , 497.58 271.78 , 498.47 272.34 , 499.33 272.90 , 500.17 273.46 , 500.99 274.02 , 501.78 274.58 , 502.55 275.14 , 503.29 275.70 , 504.01 276.27 , 504.71 276.83 , 505.38 277.39 , 506.03 277.95 , 506.66 278.51 , 507.27 279.07 , 507.85 279.63 , 508.42 280.19 , 508.96 280.76 , 509.48 281.32 , 509.99 281.88 , 510.47 282.44 , 510.93 283.00 , 511.37 283.56 , 511.80 284.12 , 512.21 284.68 , 512.61 285.24 , 512.98 285.81 , 513.34 286.37 , 513.69 286.93 , 514.03 287.49 , 514.35 288.05 , 514.66 288.61 , 514.96 289.17 , 515.24 289.73 , 515.52 290.29 , 515.79 290.86 , 516.05 291.42 , 516.29 291.98 , 516.53 292.54 , 516.77 293.10 , 516.99 293.66 , 517.21 294.22 , 517.43 294.78 , 517.64 295.34 , 517.84 295.91 , 518.04 296.47 , 518.24 297.03 , 518.43 297.59 , 518.62 298.15 , 518.81 298.71 , 519.00 299.27 , 519.19 299.83 , 519.38 300.40 , 519.57 300.96 , 519.77 301.52 , 519.96 302.08 , 520.16 302.64 , 520.35 303.20 , 520.55 303.76 , 520.76 304.32 , 520.96 304.88 , 521.16 305.45 , 521.37 306.01 , 521.57 306.57 , 521.78 307.13 , 521.98 307.69 , 522.19 308.25 , 522.39 308.81 , 522.59 309.37 , 522.79 309.93 , 522.98 310.50 , 523.17 311.06 , 523.35 311.62 , 523.53 312.18 , 523.70 312.74 , 523.87 313.30 , 524.04 313.86 , 524.19 314.42 , 524.35 314.98 , 524.49 315.55 , 524.64 316.11 , 524.77 316.67 , 524.91 317.23 , 525.03 317.79 , 525.16 318.35 , 525.28 318.91 , 525.40 319.47 , 525.52 320.04 , 525.64 320.60 , 525.75 321.16 , 525.86 321.72 , 525.97 322.28 , 526.08 322.84 , 526.19 323.40 , 526.30 323.96 , 526.41 324.52 , 526.52 325.09 , 526.62 325.65 , 526.73 326.21 , 526.83 326.77 , 526.93 327.33 , 527.03 327.89 , 527.13 328.45 , 527.22 329.01 , 527.32 329.57 , 527.41 330.14 , 527.49 330.70 , 527.57 331.26 , 527.65 331.82 , 527.72 332.38 , 527.79 " style="stroke-width:2;stroke:#00FF00;fill:#000000;stroke-opacity:1.000000;fill-opacity:0.000000"/>
<line x1="57.62" y1="535.66" x2="307.89" y2="535.66" style="stroke-width:1;stroke:#000000;fill:#000000;stroke-opacity:1.000000;fill-opacity:0.000000"/>
<line x1="57.62" y1="535.66" x2="57.62" y2="539.83" style="stroke-width:1;stroke:#000000;fill:#000000;stroke-opacity:1.000000;fill-opacity:0.000000"/>
<line x1="99.33" y1="535.66" x2="99.33" y2="539.83" style="stroke-width:1;stroke:#000000;fill:#000000;stroke-opacity:1.000000;fill-opacity:0.000000"/>
<line x1="141.05" y1="535.66" x2="141.05" y2="539.83" style="stroke-width:1;stroke:#000000;fill:#000000;stroke-opacity:1.000000;fill-opacity:0.000000"/>
<line x1="182.76" y1="535.66" x2="182.76" y2="539.83" style="stroke-width:1;stroke:#000000;fill:#000000;stroke-opacity:1.000000;fill-opacity:0.000000"/>
<line x1="224.47" y1="535.66" x2="224.47" y2="539.83" style="stroke-width:1;stroke:#000000;fill:#000000;stroke-opacity:1.000000;fill-opacity:0.000000"/>
<line x1="266.18" y1="535.66" x2="266.18" y2="539.83" style="stroke-width:1;stroke:#000000;fill:#000000;stroke-opacity:1.000000;fill-opacity:0.000000"/>
<line x1="307.89" y1="535.66" x2="307.89" y2="539.83" style="stroke-width:1;stroke:#000000;fill:#000000;stroke-opacity:1.000000;fill-opacity:0.000000"/>
<text transform="translate(43.26,552.33)"  style="font-size:10" >-0.015</text>
<text transform="translate(84.97,552.33)"  style="font-size:10" >-0.010</text>
<text transform="translate(126.68,552.33)"  style="font-size:10" >-0.005</text>
<text transform="translate(170.23,552.33)"  style="font-size:10" >0.000</text>
<text transform="translate(211.94,552.33)"  style="font-size:10" >0.005</text>
<text transform="translate(253.65,552.33)"  style="font-size:10" >0.010</text>
<text transform="translate(295.37,552.33)"  style="font-size:10" >0.015</text>
<line x1="34.17" y1="530.50" x2="34.17" y2="324.50" style="stroke-width:1;stroke:#000000;fill:#000000;stroke-opacity:1.000000;fill-opacity:0.000000"/>
<line x1="34.17" y1="530.50" x2="30.00" y2="530.50" style="stroke-width:1;stroke:#000000;fill:#000000;stroke-opacity:1.000000;fill-opacity:0.000000"/>
<line x1="34.17" y1="479.00" x2="30.00" y2="479.00" style="stroke-width:1;stroke:#000000;fill:#000000;stroke-opacity:1.000000;fill-opacity:0.000000"/>
<line x1="34.17" y1="427.50" x2="30.00" y2="427.50" style="stroke-width:1;stroke:#000000;fill:#000000;stroke-opacity:1.000000;fill-opacity:0.000000"/>
<line x1="34.17" y1="376.00" x2="30.00" y2="376.00" style="stroke-width:1;stroke:#000000;fill:#000000;stroke-opacity:1.000000;fill-opacity:0.000000"/>
<line x1="34.17" y1="324.50" x2="30.00" y2="324.50" style="stroke-width:1;stroke:#000000;fill:#000000;stroke-opacity:1.000000;fill-opacity:0.000000"/>
<text transform="translate(25.83,533.25) rotate(-90)"  style="font-size:10" >0</text>
<text transform="translate(25.83,484.50) rotate(-90)"  style="font-size:10" >20</text>
<text transform="translate(25.83,433.00) rotate(-90)"  style="font-size:10" >40</text>
<text transform="translate(25.83,381.50) rotate(-90)"  style="font-size:10" >60</text>
<text transform="translate(25.83,330.00) rotate(-90)"  style="font-size:10" >80</text>
<polyline points="34.17 , 535.66 343.85 , 535.66 343.85 , 323.25 34.17 , 323.25 34.17 , 535.66 " style="stroke-width:1;stroke:#000000;fill:#000000;stroke-opacity:1.000000;fill-opacity:0.000000"/>
<text transform="translate(9.17,446.69) rotate(-90)"  style="font-size:10" >Density</text>
<polyline points="45.64 , 528.51 46.20 , 528.44 46.76 , 528.37 47.32 , 528.29 47.88 , 528.21 48.44 , 528.13 49.00 , 528.05 49.56 , 527.96 50.12 , 527.87 50.68 , 527.78 51.24 , 527.69 51.80 , 527.59 52.36 , 527.49 52.92 , 527.39 53.48 , 527.29 54.04 , 527.18 54.60 , 527.07 55.16 , 526.95 55.72 , 526.83 56.28 , 526.71 56.84 , 526.59 57.40 , 526.46 57.96 , 526.33 58.52 , 526.19 59.08 , 526.05 59.64 , 525.91 60.20 , 525.76 60.76 , 525.61 61.32 , 525.45 61.88 , 525.29 62.44 , 525.13 63.00 , 524.96 63.56 , 524.78 64.12 , 524.60 64.68 , 524.42 65.24 , 524.23 65.80 , 524.04 66.36 , 523.84 66.92 , 523.64 67.48 , 523.43 68.04 , 523.22 68.60 , 523.00 69.16 , 522.78 69.72 , 522.55 70.28 , 522.31 70.84 , 522.07 71.40 , 521.82 71.96 , 521.57 72.52 , 521.31 73.08 , 521.04 73.64 , 520.77 74.20 , 520.49 74.76 , 520.21 75.32 , 519.92 75.88 , 519.62 76.44 , 519.31 77.00 , 519.00 77.56 , 518.68 78.12 , 518.35 78.68 , 518.02 79.24 , 517.68 79.80 , 517.33 80.36 , 516.97 80.92 , 516.61 81.48 , 516.24 82.04 , 515.86 82.60 , 515.47 83.16 , 515.07 83.72 , 514.67 84.28 , 514.25 84.84 , 513.83 85.40 , 513.40 85.96 , 512.96 86.52 , 512.51 87.08 , 512.06 87.64 , 511.59 88.20 , 511.12 88.76 , 510.63 89.32 , 510.14 89.88 , 509.64 90.44 , 509.13 91.00 , 508.61 91.56 , 508.07 92.12 , 507.53 92.68 , 506.98 93.24 , 506.42 93.80 , 505.85 94.36 , 505.27 94.92 , 504.68 95.48 , 504.08 96.04 , 503.47 96.60 , 502.85 97.16 , 502.22 97.72 , 501.57 98.28 , 500.92 98.84 , 500.26 99.40 , 499.58 99.96 , 498.90 100.52 , 498.20 101.08 , 497.50 101.64 , 496.78 102.20 , 496.05 102.76 , 495.31 103.32 , 494.56 103.88 , 493.80 104.44 , 493.03 105.00 , 492.25 105.56 , 491.46 106.12 , 490.65 106.68 , 489.84 107.24 , 489.01 107.80 , 488.17 108.36 , 487.32 108.92 , 486.46 109.48 , 485.59 110.04 , 484.71 110.60 , 483.82 111.16 , 482.92 111.72 , 482.00 112.28 , 481.08 112.84 , 480.14 113.40 , 479.20 113.96 , 478.24 114.52 , 477.27 115.08 , 476.30 115.64 , 475.31 116.20 , 474.31 116.76 , 473.30 117.32 , 472.28 117.88 , 471.26 118.44 , 470.22 119.00 , 469.17 119.56 , 468.11 120.12 , 467.05 120.68 , 465.97 121.24 , 464.88 121.80 , 463.79 122.36 , 462.68 122.92 , 461.57 123.48 , 460.45 124.04 , 459.32 124.60 , 458.18 125.16 , 457.04 125.72 , 455.88 126.28 , 454.72 126.84 , 453.55 127.40 , 452.37 127.96 , 451.19 128.52 , 450.00 129.08 , 448.80 129.64 , 447.60 130.20 , 446.39 130.76 , 445.17 131.32 , 443.95 131.88 , 442.73 132.44 , 441.49 133.00 , 440.26 133.56 , 439.01 134.12 , 437.77 134.68 , 436.52 135.24 , 435.27 135.80 , 434.01 136.36 , 432.75 136.92 , 431.48 137.48 , 430.22 138.04 , 428.95 138.60 , 427.68 139.16 , 426.41 139.72 , 425.14 140.28 , 423.86 140.84 , 422.59 141.40 , 421.31 141.96 , 420.04 142.52 , 418.76 143.08 , 417.49 143.64 , 416.22 144.20 , 414.95 144.76 , 413.68 145.32 , 412.41 145.88 , 411.15 146.44 , 409.89 147.00 , 408.63 147.56 , 407.38 148.12 , 406.13 148.68 , 404.89 149.25 , 403.65 149.81 , 402.41 150.37 , 401.18 150.93 , 399.96 151.49 , 398.75 152.05 , 397.54 152.61 , 396.34 153.17 , 395.14 153.73 , 393.96 154.29 , 392.78 154.85 , 391.61 155.41 , 390.45 155.97 , 389.30 156.53 , 388.17 157.09 , 387.04 157.65 , 385.92 158.21 , 384.81 158.77 , 383.72 159.33 , 382.64 159.89 , 381.57 160.45 , 380.51 161.01 , 379.47 161.57 , 378.44 162.13 , 377.42 162.69 , 376.42 163.25 , 375.43 163.81 , 374.46 164.37 , 373.50 164.93 , 372.56 165.49 , 371.64 166.05 , 370.73 166.61 , 369.84 167.17 , 368.96 167.73 , 368.11 168.29 , 367.27 168.85 , 366.45 169.41 , 365.65 169.97 , 364.86 170.53 , 364.10 171.09 , 363.36 171.65 , 362.63 172.21 , 361.93 172.77 , 361.24 173.33 , 360.58 173.89 , 359.94 174.45 , 359.31 175.01 , 358.71 175.57 , 358.13 176.13 , 357.58 176.69 , 357.04 177.25 , 356.53 177.81 , 356.04 178.37 , 355.57 178.93 , 355.13 179.49 , 354.70 180.05 , 354.31 180.61 , 353.93 181.17 , 353.58 181.73 , 353.25 182.29 , 352.94 182.85 , 352.66 183.41 , 352.41 183.97 , 352.18 184.53 , 351.97 185.09 , 351.78 185.65 , 351.62 186.21 , 351.49 186.77 , 351.38 187.33 , 351.29 187.89 , 351.23 188.45 , 351.19 189.01 , 351.18 189.57 , 351.19 190.13 , 351.23 190.69 , 351.29 191.25 , 351.38 191.81 , 351.49 192.37 , 351.62 192.93 , 351.78 193.49 , 351.97 194.05 , 352.18 194.61 , 352.41 195.17 , 352.66 195.73 , 352.94 196.29 , 353.25 196.85 , 353.58 197.41 , 353.93 197.97 , 354.31 198.53 , 354.70 199.09 , 355.13 199.65 , 355.57 200.21 , 356.04 200.77 , 356.53 201.33 , 357.04 201.89 , 357.58 202.45 , 358.13 203.01 , 358.71 203.57 , 359.31 204.13 , 359.94 204.69 , 360.58 205.25 , 361.24 205.81 , 361.93 206.37 , 362.63 206.93 , 363.36 207.49 , 364.10 208.05 , 364.86 208.61 , 365.65 209.17 , 366.45 209.73 , 367.27 210.29 , 368.11 210.85 , 368.96 211.41 , 369.84 211.97 , 370.73 212.53 , 371.64 213.09 , 372.56 213.65 , 373.50 214.21 , 374.46 214.77 , 375.43 215.33 , 376.42 215.89 , 377.42 216.45 , 378.44 217.01 , 379.47 217.57 , 380.51 218.13 , 381.57 218.69 , 382.64 219.25 , 383.72 219.81 , 384.81 220.37 , 385.92 220.93 , 387.04 221.49 , 388.17 222.05 , 389.30 222.61 , 390.45 223.17 , 391.61 223.73 , 392.78 224.29 , 393.96 224.85 , 395.14 225.41 , 396.34 225.97 , 397.54 226.53 , 398.75 227.09 , 399.96 227.65 , 401.18 228.21 , 402.41 228.77 , 403.65 229.33 , 404.89 229.89 , 406.13 230.45 , 407.38 231.01 , 408.63 231.57 , 409.89 232.13 , 411.15 232.69 , 412.41 233.25 , 413.68 233.81 , 414.95 234.37 , 416.22 234.93 , 417.49 235.49 , 418.76 236.05 , 420.04 236.61 , 421.31 237.17 , 422.59 237.73 , 423.86 238.29 , 425.14 238.85 , 426.41 239.41 , 427.68 239.97 , 428.95 240.53 , 430.22 241.09 , 431.48 241.65 , 432.75 242.21 , 434.01 242.77 , 435.27 243.33 , 436.52 243.89 , 437.77 244.45 , 439.01 245.01 , 440.26 245.57 , 441.49 246.13 , 442.73 246.69 , 443.95 247.25 , 445.17 247.81 , 446.39 248.37 , 447.60 248.93 , 448.80 249.49 , 450.00 250.05 , 451.19 250.61 , 452.37 251.17 , 453.55 251.73 , 454.72 252.29 , 455.88 252.85 , 457.04 253.41 , 458.18 253.97 , 459.32 254.53 , 460.45 255.09 , 461.57 255.65 , 462.68 256.21 , 463.79 256.77 , 464.88 257.33 , 465.97 257.89 , 467.05 258.45 , 468.11 259.01 , 469.17 259.57 , 470.22 260.13 , 471.26 260.69 , 472.28 261.25 , 473.30 261.81 , 474.31 262.37 , 475.31 262.93 , 476.30 263.49 , 477.27 264.05 , 478.24 264.61 , 479.20 265.17 , 480.14 265.73 , 481.08 266.29 , 482.00 266.85 , 482.92 267.41 , 483.82 267.97 , 484.71 268.53 , 485.59 269.09 , 486.46 269.66 , 487.32 270.22 , 488.17 270.78 , 489.01 271.34 , 489.84 271.90 , 490.65 272.46 , 491.46 273.02 , 492.25 273.58 , 493.03 274.14 , 493.80 274.70 , 494.56 275.26 , 495.31 275.82 , 496.05 276.38 , 496.78 276.94 , 497.50 277.50 , 498.20 278.06 , 498.90 278.62 , 499.58 279.18 , 500.26 279.74 , 500.92 280.30 , 501.57 280.86 , 502.22 281.42 , 502.85 281.98 , 503.47 282.54 , 504.08 283.10 , 504.68 283.66 , 505.27 284.22 , 505.85 284.78 , 506.42 285.34 , 506.98 285.90 , 507.53 286.46 , 508.07 287.02 , 508.61 287.58 , 509.13 288.14 , 509.64 288.70 , 510.14 289.26 , 510.63 289.82 , 511.12 290.38 , 511.59 290.94 , 512.06 291.50 , 512.51 292.06 , 512.96 292.62 , 513.40 293.18 , 513.83 293.74 , 514.25 294.30 , 514.67 294.86 , 515.07 295.42 , 515.47 295.98 , 515.86 296.54 , 516.24 297.10 , 516.61 297.66 , 516.97 298.22 , 517.33 298.78 , 517.68 299.34 , 518.02 299.90 , 518.35 300.46 , 518.68 301.02 , 519.00 301.58 , 519.31 302.14 , 519.62 302.70 , 519.92 303.26 , 520.21 303.82 , 520.49 304.38 , 520.77 304.94 , 521.04 305.50 , 521.31 306.06 , 521.57 306.62 , 521.82 307.18 , 522.07 307.74 , 522.31 308.30 , 522.55 308.86 , 522.78 309.42 , 523.00 309.98 , 523.22 310.54 , 523.43 311.10 , 523.64 311.66 , 523.84 312.22 , 524.04 312.78 , 524.23 313.34 , 524.42 313.90 , 524.60 314.46 , 524.78 315.02 , 524.96 315.58 , 525.13 316.14 , 525.29 316.70 , 525.45 317.26 , 525.61 317.82 , 525.76 318.38 , 525.91 318.94 , 526.05 319.50 , 526.19 320.06 , 526.33 320.62 , 526.46 321.18 , 526.59 321.74 , 526.71 322.30 , 526.83 322.86 , 526.95 323.42 , 527.07 323.98 , 527.18 324.54 , 527.29 325.10 , 527.39 325.66 , 527.49 326.22 , 527.59 326.78 , 527.69 327.34 , 527.78 327.90 , 527.87 328.46 , 527.96 329.02 , 528.05 329.58 , 528.13 330.14 , 528.21 330.70 , 528.29 331.26 , 528.37 331.82 , 528.44 332.38 , 528.51 " style="stroke-width:1;stroke:#000000;fill:#000000;stroke-opacity:1.000000;fill-opacity:0.000000"/>
<text transform="translate(110.01,311.16)"  style="font-size:12" >Graphic diagnostic for state 3</text>
<text transform="translate(133.77,560.66)"  style="font-size:10" >Estimated Density (green) </text>
<text transform="translate(136.20,568.99)"  style="font-size:10" > Normal density (black)</text>
<text transform="translate(189.01,577.33)"  style="font-size:10" ></text>
</svg>
