<?xml version="1.0" encoding="UTF-8"?>
<svg xmlns="http://www.w3.org/2000/svg" width="722.70" height="578.16" viewBox="0,0,722.70,578.16">
<desc>R SVG Plot!</desc>
<rect width="100%" height="100%" style="fill:#FFFFFF"/>
<polygon points="0.00 , 289.08 722.70 , 289.08 722.70 , 0.00 0.00 , 0.00 " style="stroke-width:1;stroke:#FFFFFF;fill:#FFFFFF;stroke-opacity:0.000000;fill-opacity:1.000000" />
<polygon points="0.00 , 578.16 722.70 , 578.16 722.70 , 289.08 0.00 , 289.08 " style="stroke-width:1;stroke:#FFFFFF;fill:#FFFFFF;stroke-opacity:0.000000;fill-opacity:1.000000" />
<polygon points="0.00 , 289.08 361.35 , 289.08 361.35 , 0.00 0.00 , 0.00 " style="stroke-width:1;stroke:#FFFFFF;fill:#FFFFFF;stroke-opacity:0.000000;fill-opacity:1.000000" />
<polyline points="45.64 , 238.71 46.20 , 238.62 46.76 , 238.53 47.32 , 238.43 47.88 , 238.32 48.44 , 238.21 49.00 , 238.09 49.56 , 237.96 50.13 , 237.82 50.69 , 237.68 51.25 , 237.53 51.81 , 237.38 52.37 , 237.21 52.93 , 237.05 53.49 , 236.87 54.05 , 236.69 54.61 , 236.50 55.18 , 236.31 55.74 , 236.11 56.30 , 235.91 56.86 , 235.70 57.42 , 235.49 57.98 , 235.27 58.54 , 235.06 59.10 , 234.84 59.66 , 234.61 60.23 , 234.39 60.79 , 234.16 61.35 , 233.93 61.91 , 233.71 62.47 , 233.48 63.03 , 233.25 63.59 , 233.03 64.15 , 232.81 64.72 , 232.59 65.28 , 232.37 65.84 , 232.15 66.40 , 231.94 66.96 , 231.73 67.52 , 231.52 68.08 , 231.32 68.64 , 231.12 69.20 , 230.93 69.77 , 230.73 70.33 , 230.54 70.89 , 230.36 71.45 , 230.17 72.01 , 229.98 72.57 , 229.80 73.13 , 229.62 73.69 , 229.43 74.25 , 229.24 74.82 , 229.06 75.38 , 228.86 75.94 , 228.67 76.50 , 228.46 77.06 , 228.25 77.62 , 228.04 78.18 , 227.81 78.74 , 227.58 79.30 , 227.33 79.87 , 227.07 80.43 , 226.80 80.99 , 226.52 81.55 , 226.22 82.11 , 225.91 82.67 , 225.58 83.23 , 225.24 83.79 , 224.88 84.36 , 224.50 84.92 , 224.11 85.48 , 223.70 86.04 , 223.27 86.60 , 222.83 87.16 , 222.37 87.72 , 221.90 88.28 , 221.41 88.84 , 220.90 89.41 , 220.39 89.97 , 219.86 90.53 , 219.32 91.09 , 218.77 91.65 , 218.21 92.21 , 217.65 92.77 , 217.07 93.33 , 216.49 93.89 , 215.91 94.46 , 215.32 95.02 , 214.73 95.58 , 214.14 96.14 , 213.55 96.70 , 212.95 97.26 , 212.36 97.82 , 211.76 98.38 , 211.16 98.94 , 210.57 99.51 , 209.97 100.07 , 209.38 100.63 , 208.78 101.19 , 208.18 101.75 , 207.57 102.31 , 206.97 102.87 , 206.35 103.43 , 205.73 104.00 , 205.10 104.56 , 204.47 105.12 , 203.81 105.68 , 203.15 106.24 , 202.46 106.80 , 201.77 107.36 , 201.05 107.92 , 200.31 108.48 , 199.54 109.05 , 198.75 109.61 , 197.94 110.17 , 197.09 110.73 , 196.22 111.29 , 195.31 111.85 , 194.38 112.41 , 193.41 112.97 , 192.40 113.53 , 191.36 114.10 , 190.29 114.66 , 189.19 115.22 , 188.04 115.78 , 186.86 116.34 , 185.65 116.90 , 184.42 117.46 , 183.14 118.02 , 181.83 118.58 , 180.50 119.15 , 179.14 119.71 , 177.76 120.27 , 176.35 120.83 , 174.91 121.39 , 173.46 121.95 , 172.00 122.51 , 170.51 123.07 , 169.02 123.64 , 167.51 124.20 , 165.99 124.76 , 164.47 125.32 , 162.94 125.88 , 161.42 126.44 , 159.89 127.00 , 158.36 127.56 , 156.84 128.12 , 155.33 128.69 , 153.82 129.25 , 152.32 129.81 , 150.82 130.37 , 149.34 130.93 , 147.87 131.49 , 146.41 132.05 , 144.96 132.61 , 143.52 133.17 , 142.10 133.74 , 140.68 134.30 , 139.27 134.86 , 137.87 135.42 , 136.48 135.98 , 135.10 136.54 , 133.72 137.10 , 132.34 137.66 , 130.97 138.22 , 129.59 138.79 , 128.22 139.35 , 126.85 139.91 , 125.47 140.47 , 124.08 141.03 , 122.70 141.59 , 121.30 142.15 , 119.90 142.71 , 118.48 143.28 , 117.06 143.84 , 115.63 144.40 , 114.19 144.96 , 112.73 145.52 , 111.27 146.08 , 109.80 146.64 , 108.32 147.20 , 106.83 147.76 , 105.33 148.33 , 103.82 148.89 , 102.31 149.45 , 100.80 150.01 , 99.28 150.57 , 97.76 151.13 , 96.24 151.69 , 94.72 152.25 , 93.20 152.81 , 91.68 153.38 , 90.17 153.94 , 88.67 154.50 , 87.18 155.06 , 85.69 155.62 , 84.22 156.18 , 82.76 156.74 , 81.31 157.30 , 79.88 157.86 , 78.46 158.43 , 77.06 158.99 , 75.67 159.55 , 74.31 160.11 , 72.97 160.67 , 71.64 161.23 , 70.34 161.79 , 69.06 162.35 , 67.80 162.92 , 66.57 163.48 , 65.36 164.04 , 64.17 164.60 , 63.01 165.16 , 61.88 165.72 , 60.77 166.28 , 59.68 166.84 , 58.63 167.40 , 57.61 167.97 , 56.61 168.53 , 55.64 169.09 , 54.70 169.65 , 53.79 170.21 , 52.91 170.77 , 52.06 171.33 , 51.24 171.89 , 50.46 172.45 , 49.71 173.02 , 48.99 173.58 , 48.29 174.14 , 47.63 174.70 , 47.02 175.26 , 46.43 175.82 , 45.88 176.38 , 45.36 176.94 , 44.87 177.50 , 44.43 178.07 , 44.02 178.63 , 43.65 179.19 , 43.31 179.75 , 43.02 180.31 , 42.76 180.87 , 42.54 181.43 , 42.36 181.99 , 42.22 182.56 , 42.12 183.12 , 42.06 183.68 , 42.03 184.24 , 42.05 184.80 , 42.11 185.36 , 42.21 185.92 , 42.34 186.48 , 42.51 187.04 , 42.73 187.61 , 42.98 188.17 , 43.26 188.73 , 43.58 189.29 , 43.94 189.85 , 44.33 190.41 , 44.75 190.97 , 45.20 191.53 , 45.68 192.09 , 46.20 192.66 , 46.74 193.22 , 47.31 193.78 , 47.90 194.34 , 48.53 194.90 , 49.17 195.46 , 49.84 196.02 , 50.52 196.58 , 51.22 197.14 , 51.95 197.71 , 52.69 198.27 , 53.45 198.83 , 54.22 199.39 , 55.01 199.95 , 55.81 200.51 , 56.63 201.07 , 57.45 201.63 , 58.28 202.20 , 59.13 202.76 , 59.98 203.32 , 60.84 203.88 , 61.70 204.44 , 62.57 205.00 , 63.45 205.56 , 64.33 206.12 , 65.21 206.68 , 66.09 207.25 , 66.98 207.81 , 67.87 208.37 , 68.75 208.93 , 69.64 209.49 , 70.52 210.05 , 71.41 210.61 , 72.29 211.17 , 73.17 211.73 , 74.05 212.30 , 74.92 212.86 , 75.80 213.42 , 76.67 213.98 , 77.54 214.54 , 78.40 215.10 , 79.27 215.66 , 80.14 216.22 , 81.00 216.78 , 81.87 217.35 , 82.73 217.91 , 83.60 218.47 , 84.46 219.03 , 85.34 219.59 , 86.21 220.15 , 87.09 220.71 , 87.97 221.27 , 88.85 221.84 , 89.74 222.40 , 90.63 222.96 , 91.53 223.52 , 92.44 224.08 , 93.34 224.64 , 94.26 225.20 , 95.18 225.76 , 96.11 226.32 , 97.04 226.89 , 97.98 227.45 , 98.92 228.01 , 99.87 228.57 , 100.82 229.13 , 101.78 229.69 , 102.75 230.25 , 103.72 230.81 , 104.70 231.37 , 105.69 231.94 , 106.68 232.50 , 107.69 233.06 , 108.70 233.62 , 109.73 234.18 , 110.77 234.74 , 111.82 235.30 , 112.89 235.86 , 113.98 236.42 , 115.09 236.99 , 116.22 237.55 , 117.37 238.11 , 118.54 238.67 , 119.74 239.23 , 120.98 239.79 , 122.24 240.35 , 123.53 240.91 , 124.85 241.48 , 126.21 242.04 , 127.60 242.60 , 129.02 243.16 , 130.48 243.72 , 131.97 244.28 , 133.50 244.84 , 135.06 245.40 , 136.66 245.96 , 138.27 246.53 , 139.93 247.09 , 141.61 247.65 , 143.31 248.21 , 145.03 248.77 , 146.78 249.33 , 148.54 249.89 , 150.31 250.45 , 152.09 251.01 , 153.88 251.58 , 155.67 252.14 , 157.46 252.70 , 159.24 253.26 , 161.02 253.82 , 162.79 254.38 , 164.53 254.94 , 166.26 255.50 , 167.97 256.06 , 169.66 256.63 , 171.31 257.19 , 172.94 257.75 , 174.53 258.31 , 176.10 258.87 , 177.62 259.43 , 179.11 259.99 , 180.56 260.55 , 181.98 261.12 , 183.35 261.68 , 184.68 262.24 , 185.98 262.80 , 187.23 263.36 , 188.46 263.92 , 189.63 264.48 , 190.77 265.04 , 191.88 265.60 , 192.96 266.17 , 193.99 266.73 , 195.00 267.29 , 195.98 267.85 , 196.93 268.41 , 197.85 268.97 , 198.75 269.53 , 199.62 270.09 , 200.47 270.65 , 201.31 271.22 , 202.12 271.78 , 202.92 272.34 , 203.70 272.90 , 204.46 273.46 , 205.22 274.02 , 205.95 274.58 , 206.68 275.14 , 207.39 275.70 , 208.10 276.27 , 208.79 276.83 , 209.47 277.39 , 210.14 277.95 , 210.81 278.51 , 211.46 279.07 , 212.10 279.63 , 212.73 280.19 , 213.35 280.76 , 213.96 281.32 , 214.55 281.88 , 215.14 282.44 , 215.71 283.00 , 216.27 283.56 , 216.82 284.12 , 217.36 284.68 , 217.88 285.24 , 218.39 285.81 , 218.89 286.37 , 219.37 286.93 , 219.84 287.49 , 220.30 288.05 , 220.74 288.61 , 221.18 289.17 , 221.60 289.73 , 222.01 290.29 , 222.41 290.86 , 222.79 291.42 , 223.17 291.98 , 223.54 292.54 , 223.90 293.10 , 224.26 293.66 , 224.60 294.22 , 224.94 294.78 , 225.28 295.34 , 225.61 295.91 , 225.93 296.47 , 226.25 297.03 , 226.56 297.59 , 226.88 298.15 , 227.19 298.71 , 227.49 299.27 , 227.79 299.83 , 228.09 300.40 , 228.39 300.96 , 228.68 301.52 , 228.96 302.08 , 229.25 302.64 , 229.53 303.20 , 229.80 303.76 , 230.07 304.32 , 230.33 304.88 , 230.58 305.45 , 230.83 306.01 , 231.07 306.57 , 231.30 307.13 , 231.52 307.69 , 231.73 308.25 , 231.93 308.81 , 232.12 309.37 , 232.29 309.93 , 232.46 310.50 , 232.62 311.06 , 232.76 311.62 , 232.89 312.18 , 233.01 312.74 , 233.12 313.30 , 233.22 313.86 , 233.31 314.42 , 233.39 314.98 , 233.46 315.55 , 233.52 316.11 , 233.58 316.67 , 233.63 317.23 , 233.67 317.79 , 233.71 318.35 , 233.75 318.91 , 233.78 319.47 , 233.81 320.04 , 233.84 320.60 , 233.88 321.16 , 233.91 321.72 , 233.95 322.28 , 233.99 322.84 , 234.04 323.40 , 234.09 323.96 , 234.14 324.52 , 234.20 325.09 , 234.27 325.65 , 234.34 326.21 , 234.43 326.77 , 234.51 327.33 , 234.61 327.89 , 234.71 328.45 , 234.81 329.01 , 234.93 329.57 , 235.05 330.14 , 235.17 330.70 , 235.30 331.26 , 235.43 331.82 , 235.56 332.38 , 235.70 " style="stroke-width:2;stroke:#00FF00;fill:#000000;stroke-opacity:1.000000;fill-opacity:0.000000"/>
<line x1="103.45" y1="246.58" x2="281.68" y2="246.58" style="stroke-width:1;stroke:#000000;fill:#000000;stroke-opacity:1.000000;fill-opacity:0.000000"/>
<line x1="103.45" y1="246.58" x2="103.45" y2="250.75" style="stroke-width:1;stroke:#000000;fill:#000000;stroke-opacity:1.000000;fill-opacity:0.000000"/>
<line x1="192.56" y1="246.58" x2="192.56" y2="250.75" style="stroke-width:1;stroke:#000000;fill:#000000;stroke-opacity:1.000000;fill-opacity:0.000000"/>
<line x1="281.68" y1="246.58" x2="281.68" y2="250.75" style="stroke-width:1;stroke:#000000;fill:#000000;stroke-opacity:1.000000;fill-opacity:0.000000"/>
<text transform="translate(92.90,263.25)"  style="font-size:10" >-0.05</text>
<text transform="translate(182.79,263.25)"  style="font-size:10" >0.00</text>
<text transform="translate(271.90,263.25)"  style="font-size:10" >0.05</text>
<line x1="34.17" y1="239.75" x2="34.17" y2="44.95" style="stroke-width:1;stroke:#000000;fill:#000000;stroke-opacity:1.000000;fill-opacity:0.000000"/>
<line x1="34.17" y1="239.75" x2="30.00" y2="239.75" style="stroke-width:1;stroke:#000000;fill:#000000;stroke-opacity:1.000000;fill-opacity:0.000000"/>
<line x1="34.17" y1="174.82" x2="30.00" y2="174.82" style="stroke-width:1;stroke:#000000;fill:#000000;stroke-opacity:1.000000;fill-opacity:0.000000"/>
<line x1="34.17" y1="109.88" x2="30.00" y2="109.88" style="stroke-width:1;stroke:#000000;fill:#000000;stroke-opacity:1.000000;fill-opacity:0.000000"/>
<line x1="34.17" y1="44.95" x2="30.00" y2="44.95" style="stroke-width:1;stroke:#000000;fill:#000000;stroke-opacity:1.000000;fill-opacity:0.000000"/>
<text transform="translate(25.83,242.50) rotate(-90)"  style="font-size:10" >0</text>
<text transform="translate(25.83,177.57) rotate(-90)"  style="font-size:10" >5</text>
<text transform="translate(25.83,115.38) rotate(-90)"  style="font-size:10" >10</text>
<text transform="translate(25.83,50.45) rotate(-90)"  style="font-size:10" >15</text>
<polyline points="34.17 , 246.58 343.85 , 246.58 343.85 , 34.17 34.17 , 34.17 34.17 , 246.58 " style="stroke-width:1;stroke:#000000;fill:#000000;stroke-opacity:1.000000;fill-opacity:0.000000"/>
<text transform="translate(9.17,157.61) rotate(-90)"  style="font-size:10" >Density</text>
<polyline points="45.64 , 237.60 46.20 , 237.53 46.76 , 237.45 47.32 , 237.37 47.88 , 237.28 48.44 , 237.20 49.00 , 237.11 49.56 , 237.01 50.12 , 236.92 50.68 , 236.82 51.24 , 236.72 51.80 , 236.62 52.36 , 236.51 52.92 , 236.40 53.48 , 236.29 54.04 , 236.17 54.60 , 236.05 55.16 , 235.93 55.72 , 235.80 56.28 , 235.67 56.84 , 235.53 57.40 , 235.39 57.96 , 235.25 58.52 , 235.10 59.08 , 234.95 59.64 , 234.80 60.20 , 234.64 60.76 , 234.48 61.32 , 234.31 61.88 , 234.13 62.44 , 233.96 63.00 , 233.78 63.56 , 233.59 64.12 , 233.40 64.68 , 233.20 65.24 , 233.00 65.80 , 232.79 66.36 , 232.58 66.92 , 232.36 67.48 , 232.13 68.04 , 231.90 68.60 , 231.67 69.16 , 231.43 69.72 , 231.18 70.28 , 230.92 70.84 , 230.66 71.40 , 230.40 71.96 , 230.12 72.52 , 229.85 73.08 , 229.56 73.64 , 229.27 74.20 , 228.97 74.76 , 228.66 75.32 , 228.34 75.88 , 228.02 76.44 , 227.69 77.00 , 227.36 77.56 , 227.01 78.12 , 226.66 78.68 , 226.30 79.24 , 225.93 79.80 , 225.56 80.36 , 225.17 80.92 , 224.78 81.48 , 224.38 82.04 , 223.97 82.60 , 223.55 83.16 , 223.12 83.72 , 222.69 84.28 , 222.24 84.84 , 221.79 85.40 , 221.33 85.96 , 220.85 86.52 , 220.37 87.08 , 219.88 87.64 , 219.38 88.20 , 218.87 88.76 , 218.34 89.32 , 217.81 89.88 , 217.27 90.44 , 216.72 91.00 , 216.16 91.56 , 215.59 92.12 , 215.00 92.68 , 214.41 93.24 , 213.81 93.80 , 213.19 94.36 , 212.57 94.92 , 211.93 95.48 , 211.28 96.04 , 210.62 96.60 , 209.95 97.16 , 209.27 97.72 , 208.58 98.28 , 207.88 98.84 , 207.16 99.40 , 206.44 99.96 , 205.70 100.52 , 204.95 101.08 , 204.19 101.64 , 203.42 102.20 , 202.63 102.76 , 201.84 103.32 , 201.03 103.88 , 200.21 104.44 , 199.38 105.00 , 198.53 105.56 , 197.68 106.12 , 196.81 106.68 , 195.93 107.24 , 195.04 107.80 , 194.14 108.36 , 193.23 108.92 , 192.30 109.48 , 191.36 110.04 , 190.41 110.60 , 189.45 111.16 , 188.48 111.72 , 187.50 112.28 , 186.50 112.84 , 185.49 113.40 , 184.47 113.96 , 183.44 114.52 , 182.40 115.08 , 181.35 115.64 , 180.28 116.20 , 179.21 116.76 , 178.12 117.32 , 177.02 117.88 , 175.92 118.44 , 174.80 119.00 , 173.67 119.56 , 172.53 120.12 , 171.38 120.68 , 170.22 121.24 , 169.05 121.80 , 167.87 122.36 , 166.68 122.92 , 165.48 123.48 , 164.27 124.04 , 163.06 124.60 , 161.83 125.16 , 160.59 125.72 , 159.35 126.28 , 158.10 126.84 , 156.84 127.40 , 155.57 127.96 , 154.30 128.52 , 153.01 129.08 , 151.72 129.64 , 150.43 130.20 , 149.12 130.76 , 147.81 131.32 , 146.50 131.88 , 145.17 132.44 , 143.85 133.00 , 142.51 133.56 , 141.18 134.12 , 139.83 134.68 , 138.49 135.24 , 137.14 135.80 , 135.78 136.36 , 134.42 136.92 , 133.06 137.48 , 131.70 138.04 , 130.33 138.60 , 128.96 139.16 , 127.59 139.72 , 126.22 140.28 , 124.85 140.84 , 123.48 141.40 , 122.10 141.96 , 120.73 142.52 , 119.36 143.08 , 117.99 143.64 , 116.62 144.20 , 115.25 144.76 , 113.88 145.32 , 112.52 145.88 , 111.15 146.44 , 109.80 147.00 , 108.44 147.56 , 107.09 148.12 , 105.75 148.68 , 104.40 149.25 , 103.07 149.81 , 101.74 150.37 , 100.42 150.93 , 99.10 151.49 , 97.79 152.05 , 96.49 152.61 , 95.19 153.17 , 93.91 153.73 , 92.63 154.29 , 91.36 154.85 , 90.10 155.41 , 88.85 155.97 , 87.62 156.53 , 86.39 157.09 , 85.17 157.65 , 83.97 158.21 , 82.78 158.77 , 81.60 159.33 , 80.43 159.89 , 79.28 160.45 , 78.14 161.01 , 77.01 161.57 , 75.90 162.13 , 74.81 162.69 , 73.73 163.25 , 72.67 163.81 , 71.62 164.37 , 70.59 164.93 , 69.58 165.49 , 68.58 166.05 , 67.60 166.61 , 66.64 167.17 , 65.70 167.73 , 64.78 168.29 , 63.87 168.85 , 62.99 169.41 , 62.13 169.97 , 61.28 170.53 , 60.46 171.09 , 59.66 171.65 , 58.88 172.21 , 58.12 172.77 , 57.38 173.33 , 56.66 173.89 , 55.97 174.45 , 55.30 175.01 , 54.65 175.57 , 54.03 176.13 , 53.43 176.69 , 52.85 177.25 , 52.30 177.81 , 51.77 178.37 , 51.27 178.93 , 50.79 179.49 , 50.33 180.05 , 49.90 180.61 , 49.50 181.17 , 49.12 181.73 , 48.77 182.29 , 48.44 182.85 , 48.14 183.41 , 47.86 183.97 , 47.61 184.53 , 47.39 185.09 , 47.19 185.65 , 47.01 186.21 , 46.87 186.77 , 46.75 187.33 , 46.66 187.89 , 46.59 188.45 , 46.55 189.01 , 46.54 189.57 , 46.55 190.13 , 46.59 190.69 , 46.66 191.25 , 46.75 191.81 , 46.87 192.37 , 47.01 192.93 , 47.19 193.49 , 47.39 194.05 , 47.61 194.61 , 47.86 195.17 , 48.14 195.73 , 48.44 196.29 , 48.77 196.85 , 49.12 197.41 , 49.50 197.97 , 49.90 198.53 , 50.33 199.09 , 50.79 199.65 , 51.27 200.21 , 51.77 200.77 , 52.30 201.33 , 52.85 201.89 , 53.43 202.45 , 54.03 203.01 , 54.65 203.57 , 55.30 204.13 , 55.97 204.69 , 56.66 205.25 , 57.38 205.81 , 58.12 206.37 , 58.88 206.93 , 59.66 207.49 , 60.46 208.05 , 61.28 208.61 , 62.13 209.17 , 62.99 209.73 , 63.87 210.29 , 64.78 210.85 , 65.70 211.41 , 66.64 211.97 , 67.60 212.53 , 68.58 213.09 , 69.58 213.65 , 70.59 214.21 , 71.62 214.77 , 72.67 215.33 , 73.73 215.89 , 74.81 216.45 , 75.90 217.01 , 77.01 217.57 , 78.14 218.13 , 79.28 218.69 , 80.43 219.25 , 81.60 219.81 , 82.78 220.37 , 83.97 220.93 , 85.17 221.49 , 86.39 222.05 , 87.62 222.61 , 88.85 223.17 , 90.10 223.73 , 91.36 224.29 , 92.63 224.85 , 93.91 225.41 , 95.19 225.97 , 96.49 226.53 , 97.79 227.09 , 99.10 227.65 , 100.42 228.21 , 101.74 228.77 , 103.07 229.33 , 104.40 229.89 , 105.75 230.45 , 107.09 231.01 , 108.44 231.57 , 109.80 232.13 , 111.15 232.69 , 112.52 233.25 , 113.88 233.81 , 115.25 234.37 , 116.62 234.93 , 117.99 235.49 , 119.36 236.05 , 120.73 236.61 , 122.10 237.17 , 123.48 237.73 , 124.85 238.29 , 126.22 238.85 , 127.59 239.41 , 128.96 239.97 , 130.33 240.53 , 131.70 241.09 , 133.06 241.65 , 134.42 242.21 , 135.78 242.77 , 137.14 243.33 , 138.49 243.89 , 139.83 244.45 , 141.18 245.01 , 142.51 245.57 , 143.85 246.13 , 145.17 246.69 , 146.50 247.25 , 147.81 247.81 , 149.12 248.37 , 150.43 248.93 , 151.72 249.49 , 153.01 250.05 , 154.30 250.61 , 155.57 251.17 , 156.84 251.73 , 158.10 252.29 , 159.35 252.85 , 160.59 253.41 , 161.83 253.97 , 163.06 254.53 , 164.27 255.09 , 165.48 255.65 , 166.68 256.21 , 167.87 256.77 , 169.05 257.33 , 170.22 257.89 , 171.38 258.45 , 172.53 259.01 , 173.67 259.57 , 174.80 260.13 , 175.92 260.69 , 177.02 261.25 , 178.12 261.81 , 179.21 262.37 , 180.28 262.93 , 181.35 263.49 , 182.40 264.05 , 183.44 264.61 , 184.47 265.17 , 185.49 265.73 , 186.50 266.29 , 187.50 266.85 , 188.48 267.41 , 189.45 267.97 , 190.41 268.53 , 191.36 269.09 , 192.30 269.66 , 193.23 270.22 , 194.14 270.78 , 195.04 271.34 , 195.93 271.90 , 196.81 272.46 , 197.68 273.02 , 198.53 273.58 , 199.38 274.14 , 200.21 274.70 , 201.03 275.26 , 201.84 275.82 , 202.63 276.38 , 203.42 276.94 , 204.19 277.50 , 204.95 278.06 , 205.70 278.62 , 206.44 279.18 , 207.16 279.74 , 207.88 280.30 , 208.58 280.86 , 209.27 281.42 , 209.95 281.98 , 210.62 282.54 , 211.28 283.10 , 211.93 283.66 , 212.57 284.22 , 213.19 284.78 , 213.81 285.34 , 214.41 285.90 , 215.00 286.46 , 215.59 287.02 , 216.16 287.58 , 216.72 288.14 , 217.27 288.70 , 217.81 289.26 , 218.34 289.82 , 218.87 290.38 , 219.38 290.94 , 219.88 291.50 , 220.37 292.06 , 220.85 292.62 , 221.33 293.18 , 221.79 293.74 , 222.24 294.30 , 222.69 294.86 , 223.12 295.42 , 223.55 295.98 , 223.97 296.54 , 224.38 297.10 , 224.78 297.66 , 225.17 298.22 , 225.56 298.78 , 225.93 299.34 , 226.30 299.90 , 226.66 300.46 , 227.01 301.02 , 227.36 301.58 , 227.69 302.14 , 228.02 302.70 , 228.34 303.26 , 228.66 303.82 , 228.97 304.38 , 229.27 304.94 , 229.56 305.50 , 229.85 306.06 , 230.12 306.62 , 230.40 307.18 , 230.66 307.74 , 230.92 308.30 , 231.18 308.86 , 231.43 309.42 , 231.67 309.98 , 231.90 310.54 , 232.13 311.10 , 232.36 311.66 , 232.58 312.22 , 232.79 312.78 , 233.00 313.34 , 233.20 313.90 , 233.40 314.46 , 233.59 315.02 , 233.78 315.58 , 233.96 316.14 , 234.13 316.70 , 234.31 317.26 , 234.48 317.82 , 234.64 318.38 , 234.80 318.94 , 234.95 319.50 , 235.10 320.06 , 235.25 320.62 , 235.39 321.18 , 235.53 321.74 , 235.67 322.30 , 235.80 322.86 , 235.93 323.42 , 236.05 323.98 , 236.17 324.54 , 236.29 325.10 , 236.40 325.66 , 236.51 326.22 , 236.62 326.78 , 236.72 327.34 , 236.82 327.90 , 236.92 328.46 , 237.01 329.02 , 237.11 329.58 , 237.20 330.14 , 237.28 330.70 , 237.37 331.26 , 237.45 331.82 , 237.53 332.38 , 237.60 " style="stroke-width:1;stroke:#000000;fill:#000000;stroke-opacity:1.000000;fill-opacity:0.000000"/>
<text transform="translate(110.01,22.08)"  style="font-size:12" >Graphic diagnostic for state 1</text>
<text transform="translate(133.77,271.58)"  style="font-size:10" >Estimated Density (green) </text>
<text transform="translate(136.20,279.91)"  style="font-size:10" > Normal density (black)</text>
<text transform="translate(189.01,288.25)"  style="font-size:10" ></text>
<polygon points="361.35 , 289.08 722.70 , 289.08 722.70 , 0.00 361.35 , 0.00 " style="stroke-width:1;stroke:#FFFFFF;fill:#FFFFFF;stroke-opacity:0.000000;fill-opacity:1.000000" />
<polyline points="406.99 , 238.71 407.55 , 238.68 408.11 , 238.64 408.67 , 238.60 409.23 , 238.55 409.79 , 238.50 410.35 , 238.45 410.91 , 238.38 411.48 , 238.31 412.04 , 238.23 412.60 , 238.15 413.16 , 238.05 413.72 , 237.95 414.28 , 237.83 414.84 , 237.71 415.40 , 237.57 415.96 , 237.43 416.53 , 237.27 417.09 , 237.11 417.65 , 236.93 418.21 , 236.74 418.77 , 236.55 419.33 , 236.34 419.89 , 236.12 420.45 , 235.90 421.01 , 235.66 421.58 , 235.42 422.14 , 235.18 422.70 , 234.92 423.26 , 234.67 423.82 , 234.40 424.38 , 234.14 424.94 , 233.87 425.50 , 233.60 426.07 , 233.33 426.63 , 233.06 427.19 , 232.79 427.75 , 232.51 428.31 , 232.24 428.87 , 231.97 429.43 , 231.70 429.99 , 231.43 430.55 , 231.16 431.12 , 230.89 431.68 , 230.62 432.24 , 230.35 432.80 , 230.08 433.36 , 229.80 433.92 , 229.52 434.48 , 229.24 435.04 , 228.95 435.60 , 228.65 436.17 , 228.34 436.73 , 228.03 437.29 , 227.71 437.85 , 227.38 438.41 , 227.04 438.97 , 226.69 439.53 , 226.32 440.09 , 225.95 440.65 , 225.56 441.22 , 225.17 441.78 , 224.76 442.34 , 224.34 442.90 , 223.90 443.46 , 223.46 444.02 , 223.01 444.58 , 222.54 445.14 , 222.07 445.71 , 221.59 446.27 , 221.10 446.83 , 220.60 447.39 , 220.09 447.95 , 219.58 448.51 , 219.05 449.07 , 218.53 449.63 , 217.99 450.19 , 217.45 450.76 , 216.90 451.32 , 216.35 451.88 , 215.79 452.44 , 215.22 453.00 , 214.65 453.56 , 214.07 454.12 , 213.48 454.68 , 212.89 455.24 , 212.29 455.81 , 211.68 456.37 , 211.07 456.93 , 210.46 457.49 , 209.84 458.05 , 209.22 458.61 , 208.59 459.17 , 207.97 459.73 , 207.34 460.29 , 206.72 460.86 , 206.11 461.42 , 205.50 461.98 , 204.90 462.54 , 204.31 463.10 , 203.73 463.66 , 203.16 464.22 , 202.62 464.78 , 202.09 465.35 , 201.57 465.91 , 201.08 466.47 , 200.60 467.03 , 200.13 467.59 , 199.69 468.15 , 199.26 468.71 , 198.84 469.27 , 198.43 469.83 , 198.03 470.40 , 197.64 470.96 , 197.24 471.52 , 196.85 472.08 , 196.44 472.64 , 196.02 473.20 , 195.59 473.76 , 195.13 474.32 , 194.65 474.88 , 194.14 475.45 , 193.60 476.01 , 193.02 476.57 , 192.41 477.13 , 191.76 477.69 , 191.06 478.25 , 190.31 478.81 , 189.53 479.37 , 188.70 479.93 , 187.83 480.50 , 186.92 481.06 , 185.96 481.62 , 184.96 482.18 , 183.93 482.74 , 182.87 483.30 , 181.78 483.86 , 180.66 484.42 , 179.52 484.99 , 178.36 485.55 , 177.18 486.11 , 175.99 486.67 , 174.79 487.23 , 173.58 487.79 , 172.37 488.35 , 171.15 488.91 , 169.94 489.47 , 168.72 490.04 , 167.51 490.60 , 166.30 491.16 , 165.10 491.72 , 163.90 492.28 , 162.71 492.84 , 161.52 493.40 , 160.34 493.96 , 159.16 494.52 , 157.98 495.09 , 156.80 495.65 , 155.62 496.21 , 154.44 496.77 , 153.26 497.33 , 152.08 497.89 , 150.89 498.45 , 149.70 499.01 , 148.50 499.57 , 147.30 500.14 , 146.09 500.70 , 144.87 501.26 , 143.65 501.82 , 142.41 502.38 , 141.18 502.94 , 139.93 503.50 , 138.68 504.06 , 137.41 504.63 , 136.15 505.19 , 134.87 505.75 , 133.58 506.31 , 132.29 506.87 , 130.99 507.43 , 129.67 507.99 , 128.35 508.55 , 127.01 509.11 , 125.66 509.68 , 124.30 510.24 , 122.93 510.80 , 121.53 511.36 , 120.13 511.92 , 118.71 512.48 , 117.27 513.04 , 115.82 513.60 , 114.36 514.16 , 112.88 514.73 , 111.39 515.29 , 109.90 515.85 , 108.40 516.41 , 106.90 516.97 , 105.41 517.53 , 103.91 518.09 , 102.43 518.65 , 100.96 519.21 , 99.51 519.78 , 98.08 520.34 , 96.66 520.90 , 95.28 521.46 , 93.92 522.02 , 92.59 522.58 , 91.29 523.14 , 90.02 523.70 , 88.77 524.27 , 87.55 524.83 , 86.34 525.39 , 85.16 525.95 , 83.99 526.51 , 82.82 527.07 , 81.67 527.63 , 80.50 528.19 , 79.34 528.75 , 78.16 529.32 , 76.97 529.88 , 75.75 530.44 , 74.52 531.00 , 73.26 531.56 , 71.97 532.12 , 70.66 532.68 , 69.33 533.24 , 67.97 533.80 , 66.59 534.37 , 65.20 534.93 , 63.79 535.49 , 62.39 536.05 , 60.98 536.61 , 59.58 537.17 , 58.19 537.73 , 56.83 538.29 , 55.50 538.85 , 54.20 539.42 , 52.95 539.98 , 51.74 540.54 , 50.60 541.10 , 49.52 541.66 , 48.50 542.22 , 47.55 542.78 , 46.66 543.34 , 45.85 543.91 , 45.12 544.47 , 44.47 545.03 , 43.90 545.59 , 43.41 546.15 , 42.98 546.71 , 42.64 547.27 , 42.37 547.83 , 42.19 548.39 , 42.07 548.96 , 42.03 549.52 , 42.06 550.08 , 42.17 550.64 , 42.35 551.20 , 42.60 551.76 , 42.93 552.32 , 43.32 552.88 , 43.78 553.44 , 44.31 554.01 , 44.90 554.57 , 45.57 555.13 , 46.30 555.69 , 47.09 556.25 , 47.94 556.81 , 48.84 557.37 , 49.79 557.93 , 50.80 558.49 , 51.84 559.06 , 52.93 559.62 , 54.04 560.18 , 55.18 560.74 , 56.35 561.30 , 57.53 561.86 , 58.73 562.42 , 59.93 562.98 , 61.13 563.55 , 62.34 564.11 , 63.54 564.67 , 64.73 565.23 , 65.92 565.79 , 67.09 566.35 , 68.26 566.91 , 69.41 567.47 , 70.55 568.03 , 71.68 568.60 , 72.81 569.16 , 73.93 569.72 , 75.05 570.28 , 76.17 570.84 , 77.29 571.40 , 78.43 571.96 , 79.57 572.52 , 80.72 573.08 , 81.88 573.65 , 83.06 574.21 , 84.27 574.77 , 85.49 575.33 , 86.73 575.89 , 87.99 576.45 , 89.27 577.01 , 90.56 577.57 , 91.87 578.13 , 93.20 578.70 , 94.54 579.26 , 95.88 579.82 , 97.23 580.38 , 98.58 580.94 , 99.93 581.50 , 101.27 582.06 , 102.61 582.62 , 103.93 583.19 , 105.25 583.75 , 106.55 584.31 , 107.83 584.87 , 109.09 585.43 , 110.33 585.99 , 111.56 586.55 , 112.77 587.11 , 113.97 587.67 , 115.15 588.24 , 116.31 588.80 , 117.46 589.36 , 118.60 589.92 , 119.73 590.48 , 120.85 591.04 , 121.96 591.60 , 123.06 592.16 , 124.17 592.72 , 125.26 593.29 , 126.35 593.85 , 127.44 594.41 , 128.52 594.97 , 129.59 595.53 , 130.66 596.09 , 131.71 596.65 , 132.76 597.21 , 133.80 597.77 , 134.83 598.34 , 135.84 598.90 , 136.84 599.46 , 137.82 600.02 , 138.79 600.58 , 139.75 601.14 , 140.69 601.70 , 141.62 602.26 , 142.54 602.83 , 143.45 603.39 , 144.35 603.95 , 145.25 604.51 , 146.15 605.07 , 147.05 605.63 , 147.96 606.19 , 148.87 606.75 , 149.80 607.31 , 150.74 607.88 , 151.69 608.44 , 152.67 609.00 , 153.66 609.56 , 154.68 610.12 , 155.72 610.68 , 156.78 611.24 , 157.87 611.80 , 158.99 612.36 , 160.12 612.93 , 161.28 613.49 , 162.46 614.05 , 163.66 614.61 , 164.87 615.17 , 166.11 615.73 , 167.35 616.29 , 168.60 616.85 , 169.87 617.41 , 171.14 617.98 , 172.41 618.54 , 173.68 619.10 , 174.95 619.66 , 176.22 620.22 , 177.48 620.78 , 178.73 621.34 , 179.97 621.90 , 181.20 622.47 , 182.41 623.03 , 183.61 623.59 , 184.80 624.15 , 185.96 624.71 , 187.11 625.27 , 188.23 625.83 , 189.34 626.39 , 190.42 626.95 , 191.49 627.52 , 192.53 628.08 , 193.55 628.64 , 194.55 629.20 , 195.54 629.76 , 196.51 630.32 , 197.46 630.88 , 198.39 631.44 , 199.31 632.00 , 200.22 632.57 , 201.12 633.13 , 202.00 633.69 , 202.88 634.25 , 203.75 634.81 , 204.61 635.37 , 205.47 635.93 , 206.32 636.49 , 207.17 637.05 , 208.01 637.62 , 208.84 638.18 , 209.66 638.74 , 210.48 639.30 , 211.29 639.86 , 212.08 640.42 , 212.87 640.98 , 213.64 641.54 , 214.40 642.11 , 215.14 642.67 , 215.86 643.23 , 216.56 643.79 , 217.25 644.35 , 217.91 644.91 , 218.55 645.47 , 219.17 646.03 , 219.77 646.59 , 220.35 647.16 , 220.90 647.72 , 221.43 648.28 , 221.94 648.84 , 222.43 649.40 , 222.90 649.96 , 223.36 650.52 , 223.79 651.08 , 224.20 651.64 , 224.60 652.21 , 224.98 652.77 , 225.34 653.33 , 225.69 653.89 , 226.02 654.45 , 226.34 655.01 , 226.64 655.57 , 226.94 656.13 , 227.22 656.69 , 227.49 657.26 , 227.75 657.82 , 228.00 658.38 , 228.24 658.94 , 228.47 659.50 , 228.70 660.06 , 228.92 660.62 , 229.14 661.18 , 229.36 661.75 , 229.57 662.31 , 229.79 662.87 , 230.00 663.43 , 230.21 663.99 , 230.43 664.55 , 230.64 665.11 , 230.86 665.67 , 231.08 666.23 , 231.30 666.80 , 231.52 667.36 , 231.74 667.92 , 231.96 668.48 , 232.18 669.04 , 232.40 669.60 , 232.62 670.16 , 232.84 670.72 , 233.05 671.28 , 233.25 671.85 , 233.45 672.41 , 233.64 672.97 , 233.83 673.53 , 234.00 674.09 , 234.17 674.65 , 234.33 675.21 , 234.48 675.77 , 234.62 676.33 , 234.75 676.90 , 234.88 677.46 , 234.99 678.02 , 235.10 678.58 , 235.20 679.14 , 235.30 679.70 , 235.39 680.26 , 235.47 680.82 , 235.55 681.39 , 235.63 681.95 , 235.71 682.51 , 235.79 683.07 , 235.86 683.63 , 235.94 684.19 , 236.02 684.75 , 236.10 685.31 , 236.18 685.87 , 236.27 686.44 , 236.36 687.00 , 236.46 687.56 , 236.55 688.12 , 236.66 688.68 , 236.76 689.24 , 236.87 689.80 , 236.98 690.36 , 237.10 690.92 , 237.22 691.49 , 237.34 692.05 , 237.46 692.61 , 237.58 693.17 , 237.70 693.73 , 237.83 " style="stroke-width:2;stroke:#00FF00;fill:#000000;stroke-opacity:1.000000;fill-opacity:0.000000"/>
<line x1="472.63" y1="246.58" x2="704.47" y2="246.58" style="stroke-width:1;stroke:#000000;fill:#000000;stroke-opacity:1.000000;fill-opacity:0.000000"/>
<line x1="472.63" y1="246.58" x2="472.63" y2="250.75" style="stroke-width:1;stroke:#000000;fill:#000000;stroke-opacity:1.000000;fill-opacity:0.000000"/>
<line x1="549.91" y1="246.58" x2="549.91" y2="250.75" style="stroke-width:1;stroke:#000000;fill:#000000;stroke-opacity:1.000000;fill-opacity:0.000000"/>
<line x1="627.19" y1="246.58" x2="627.19" y2="250.75" style="stroke-width:1;stroke:#000000;fill:#000000;stroke-opacity:1.000000;fill-opacity:0.000000"/>
<line x1="704.47" y1="246.58" x2="704.47" y2="250.75" style="stroke-width:1;stroke:#000000;fill:#000000;stroke-opacity:1.000000;fill-opacity:0.000000"/>
<text transform="translate(461.02,263.25)"  style="font-size:10" >-0.02</text>
<text transform="translate(540.13,263.25)"  style="font-size:10" >0.00</text>
<text transform="translate(617.41,263.25)"  style="font-size:10" >0.02</text>
<text transform="translate(694.69,263.25)"  style="font-size:10" >0.04</text>
<line x1="395.52" y1="241.08" x2="395.52" y2="44.94" style="stroke-width:1;stroke:#000000;fill:#000000;stroke-opacity:1.000000;fill-opacity:0.000000"/>
<line x1="395.52" y1="241.08" x2="391.35" y2="241.08" style="stroke-width:1;stroke:#000000;fill:#000000;stroke-opacity:1.000000;fill-opacity:0.000000"/>
<line x1="395.52" y1="213.06" x2="391.35" y2="213.06" style="stroke-width:1;stroke:#000000;fill:#000000;stroke-opacity:1.000000;fill-opacity:0.000000"/>
<line x1="395.52" y1="185.04" x2="391.35" y2="185.04" style="stroke-width:1;stroke:#000000;fill:#000000;stroke-opacity:1.000000;fill-opacity:0.000000"/>
<line x1="395.52" y1="157.02" x2="391.35" y2="157.02" style="stroke-width:1;stroke:#000000;fill:#000000;stroke-opacity:1.000000;fill-opacity:0.000000"/>
<line x1="395.52" y1="129.00" x2="391.35" y2="129.00" style="stroke-width:1;stroke:#000000;fill:#000000;stroke-opacity:1.000000;fill-opacity:0.000000"/>
<line x1="395.52" y1="100.98" x2="391.35" y2="100.98" style="stroke-width:1;stroke:#000000;fill:#000000;stroke-opacity:1.000000;fill-opacity:0.000000"/>
<line x1="395.52" y1="72.96" x2="391.35" y2="72.96" style="stroke-width:1;stroke:#000000;fill:#000000;stroke-opacity:1.000000;fill-opacity:0.000000"/>
<line x1="395.52" y1="44.94" x2="391.35" y2="44.94" style="stroke-width:1;stroke:#000000;fill:#000000;stroke-opacity:1.000000;fill-opacity:0.000000"/>
<text transform="translate(387.18,243.83) rotate(-90)"  style="font-size:10" >0</text>
<text transform="translate(387.18,215.81) rotate(-90)"  style="font-size:10" >5</text>
<text transform="translate(387.18,190.54) rotate(-90)"  style="font-size:10" >10</text>
<text transform="translate(387.18,162.52) rotate(-90)"  style="font-size:10" >15</text>
<text transform="translate(387.18,134.50) rotate(-90)"  style="font-size:10" >20</text>
<text transform="translate(387.18,106.48) rotate(-90)"  style="font-size:10" >25</text>
<text transform="translate(387.18,78.46) rotate(-90)"  style="font-size:10" >30</text>
<text transform="translate(387.18,50.44) rotate(-90)"  style="font-size:10" >35</text>
<polyline points="395.52 , 246.58 705.20 , 246.58 705.20 , 34.17 395.52 , 34.17 395.52 , 246.58 " style="stroke-width:1;stroke:#000000;fill:#000000;stroke-opacity:1.000000;fill-opacity:0.000000"/>
<text transform="translate(370.52,157.61) rotate(-90)"  style="font-size:10" >Density</text>
<polyline points="406.99 , 239.07 407.55 , 239.00 408.11 , 238.93 408.67 , 238.85 409.23 , 238.77 409.79 , 238.69 410.35 , 238.61 410.91 , 238.52 411.47 , 238.43 412.03 , 238.34 412.59 , 238.25 413.15 , 238.15 413.71 , 238.05 414.27 , 237.95 414.83 , 237.84 415.39 , 237.73 415.95 , 237.62 416.51 , 237.50 417.07 , 237.38 417.63 , 237.26 418.19 , 237.13 418.75 , 237.00 419.31 , 236.87 419.87 , 236.73 420.43 , 236.59 420.99 , 236.45 421.55 , 236.30 422.11 , 236.15 422.67 , 235.99 423.23 , 235.83 423.79 , 235.66 424.35 , 235.49 424.91 , 235.31 425.47 , 235.14 426.03 , 234.95 426.59 , 234.76 427.15 , 234.57 427.71 , 234.37 428.27 , 234.16 428.83 , 233.95 429.39 , 233.74 429.95 , 233.52 430.51 , 233.29 431.07 , 233.06 431.63 , 232.82 432.19 , 232.58 432.75 , 232.33 433.31 , 232.07 433.87 , 231.81 434.43 , 231.55 434.99 , 231.27 435.55 , 230.99 436.11 , 230.70 436.67 , 230.41 437.23 , 230.11 437.79 , 229.80 438.35 , 229.49 438.91 , 229.16 439.47 , 228.83 440.03 , 228.50 440.59 , 228.15 441.15 , 227.80 441.71 , 227.44 442.27 , 227.07 442.83 , 226.70 443.39 , 226.32 443.95 , 225.92 444.51 , 225.53 445.07 , 225.12 445.63 , 224.70 446.19 , 224.28 446.75 , 223.84 447.31 , 223.40 447.87 , 222.95 448.43 , 222.49 448.99 , 222.02 449.55 , 221.54 450.11 , 221.05 450.67 , 220.56 451.23 , 220.05 451.79 , 219.53 452.35 , 219.01 452.91 , 218.47 453.47 , 217.93 454.03 , 217.37 454.59 , 216.81 455.15 , 216.23 455.71 , 215.65 456.27 , 215.05 456.83 , 214.45 457.39 , 213.83 457.95 , 213.20 458.51 , 212.57 459.07 , 211.92 459.63 , 211.26 460.19 , 210.59 460.75 , 209.91 461.31 , 209.22 461.87 , 208.52 462.43 , 207.81 462.99 , 207.09 463.55 , 206.35 464.11 , 205.61 464.67 , 204.85 465.23 , 204.09 465.79 , 203.31 466.35 , 202.52 466.91 , 201.72 467.47 , 200.91 468.03 , 200.09 468.59 , 199.25 469.15 , 198.41 469.71 , 197.56 470.27 , 196.69 470.83 , 195.81 471.39 , 194.92 471.95 , 194.02 472.51 , 193.11 473.07 , 192.19 473.63 , 191.26 474.19 , 190.32 474.75 , 189.37 475.31 , 188.40 475.87 , 187.43 476.43 , 186.44 476.99 , 185.45 477.55 , 184.44 478.11 , 183.42 478.67 , 182.40 479.23 , 181.36 479.79 , 180.31 480.35 , 179.26 480.91 , 178.19 481.47 , 177.12 482.03 , 176.03 482.59 , 174.94 483.15 , 173.83 483.71 , 172.72 484.27 , 171.60 484.83 , 170.47 485.39 , 169.33 485.95 , 168.18 486.51 , 167.03 487.07 , 165.86 487.63 , 164.69 488.19 , 163.51 488.75 , 162.33 489.31 , 161.13 489.87 , 159.93 490.43 , 158.73 490.99 , 157.51 491.55 , 156.29 492.11 , 155.07 492.67 , 153.84 493.23 , 152.60 493.79 , 151.36 494.35 , 150.11 494.91 , 148.86 495.47 , 147.60 496.03 , 146.34 496.59 , 145.08 497.15 , 143.81 497.71 , 142.54 498.27 , 141.27 498.83 , 139.99 499.39 , 138.72 499.95 , 137.44 500.51 , 136.15 501.07 , 134.87 501.63 , 133.59 502.19 , 132.30 502.75 , 131.02 503.31 , 129.73 503.87 , 128.45 504.43 , 127.17 504.99 , 125.88 505.55 , 124.60 506.11 , 123.32 506.67 , 122.05 507.23 , 120.77 507.79 , 119.50 508.35 , 118.24 508.91 , 116.97 509.47 , 115.71 510.03 , 114.46 510.60 , 113.21 511.16 , 111.97 511.72 , 110.73 512.28 , 109.50 512.84 , 108.27 513.40 , 107.05 513.96 , 105.84 514.52 , 104.64 515.08 , 103.44 515.64 , 102.26 516.20 , 101.08 516.76 , 99.91 517.32 , 98.75 517.88 , 97.60 518.44 , 96.47 519.00 , 95.34 519.56 , 94.23 520.12 , 93.12 520.68 , 92.03 521.24 , 90.95 521.80 , 89.89 522.36 , 88.84 522.92 , 87.80 523.48 , 86.77 524.04 , 85.76 524.60 , 84.77 525.16 , 83.79 525.72 , 82.82 526.28 , 81.88 526.84 , 80.94 527.40 , 80.03 527.96 , 79.13 528.52 , 78.25 529.08 , 77.39 529.64 , 76.54 530.20 , 75.71 530.76 , 74.91 531.32 , 74.12 531.88 , 73.35 532.44 , 72.60 533.00 , 71.87 533.56 , 71.16 534.12 , 70.47 534.68 , 69.80 535.24 , 69.15 535.80 , 68.52 536.36 , 67.92 536.92 , 67.33 537.48 , 66.77 538.04 , 66.23 538.60 , 65.71 539.16 , 65.22 539.72 , 64.75 540.28 , 64.30 540.84 , 63.88 541.40 , 63.47 541.96 , 63.09 542.52 , 62.74 543.08 , 62.41 543.64 , 62.10 544.20 , 61.82 544.76 , 61.56 545.32 , 61.33 545.88 , 61.12 546.44 , 60.93 547.00 , 60.77 547.56 , 60.63 548.12 , 60.52 548.68 , 60.44 549.24 , 60.37 549.80 , 60.34 550.36 , 60.32 550.92 , 60.34 551.48 , 60.37 552.04 , 60.44 552.60 , 60.52 553.16 , 60.63 553.72 , 60.77 554.28 , 60.93 554.84 , 61.12 555.40 , 61.33 555.96 , 61.56 556.52 , 61.82 557.08 , 62.10 557.64 , 62.41 558.20 , 62.74 558.76 , 63.09 559.32 , 63.47 559.88 , 63.88 560.44 , 64.30 561.00 , 64.75 561.56 , 65.22 562.12 , 65.71 562.68 , 66.23 563.24 , 66.77 563.80 , 67.33 564.36 , 67.92 564.92 , 68.52 565.48 , 69.15 566.04 , 69.80 566.60 , 70.47 567.16 , 71.16 567.72 , 71.87 568.28 , 72.60 568.84 , 73.35 569.40 , 74.12 569.96 , 74.91 570.52 , 75.71 571.08 , 76.54 571.64 , 77.39 572.20 , 78.25 572.76 , 79.13 573.32 , 80.03 573.88 , 80.94 574.44 , 81.88 575.00 , 82.82 575.56 , 83.79 576.12 , 84.77 576.68 , 85.76 577.24 , 86.77 577.80 , 87.80 578.36 , 88.84 578.92 , 89.89 579.48 , 90.95 580.04 , 92.03 580.60 , 93.12 581.16 , 94.23 581.72 , 95.34 582.28 , 96.47 582.84 , 97.60 583.40 , 98.75 583.96 , 99.91 584.52 , 101.08 585.08 , 102.26 585.64 , 103.44 586.20 , 104.64 586.76 , 105.84 587.32 , 107.05 587.88 , 108.27 588.44 , 109.50 589.00 , 110.73 589.56 , 111.97 590.12 , 113.21 590.68 , 114.46 591.24 , 115.71 591.80 , 116.97 592.36 , 118.24 592.92 , 119.50 593.48 , 120.77 594.04 , 122.05 594.60 , 123.32 595.16 , 124.60 595.72 , 125.88 596.28 , 127.17 596.84 , 128.45 597.40 , 129.73 597.96 , 131.02 598.52 , 132.30 599.08 , 133.59 599.64 , 134.87 600.20 , 136.15 600.76 , 137.44 601.32 , 138.72 601.88 , 139.99 602.44 , 141.27 603.00 , 142.54 603.56 , 143.81 604.12 , 145.08 604.68 , 146.34 605.24 , 147.60 605.80 , 148.86 606.36 , 150.11 606.92 , 151.36 607.48 , 152.60 608.04 , 153.84 608.60 , 155.07 609.16 , 156.29 609.72 , 157.51 610.28 , 158.73 610.84 , 159.93 611.40 , 161.13 611.96 , 162.33 612.52 , 163.51 613.08 , 164.69 613.64 , 165.86 614.20 , 167.03 614.76 , 168.18 615.32 , 169.33 615.88 , 170.47 616.44 , 171.60 617.00 , 172.72 617.56 , 173.83 618.12 , 174.94 618.68 , 176.03 619.24 , 177.12 619.80 , 178.19 620.36 , 179.26 620.92 , 180.31 621.48 , 181.36 622.04 , 182.40 622.60 , 183.42 623.16 , 184.44 623.72 , 185.45 624.28 , 186.44 624.84 , 187.43 625.40 , 188.40 625.96 , 189.37 626.52 , 190.32 627.08 , 191.26 627.64 , 192.19 628.20 , 193.11 628.76 , 194.02 629.32 , 194.92 629.88 , 195.81 630.44 , 196.69 631.01 , 197.56 631.57 , 198.41 632.13 , 199.25 632.69 , 200.09 633.25 , 200.91 633.81 , 201.72 634.37 , 202.52 634.93 , 203.31 635.49 , 204.09 636.05 , 204.85 636.61 , 205.61 637.17 , 206.35 637.73 , 207.09 638.29 , 207.81 638.85 , 208.52 639.41 , 209.22 639.97 , 209.91 640.53 , 210.59 641.09 , 211.26 641.65 , 211.92 642.21 , 212.57 642.77 , 213.20 643.33 , 213.83 643.89 , 214.45 644.45 , 215.05 645.01 , 215.65 645.57 , 216.23 646.13 , 216.81 646.69 , 217.37 647.25 , 217.93 647.81 , 218.47 648.37 , 219.01 648.93 , 219.53 649.49 , 220.05 650.05 , 220.56 650.61 , 221.05 651.17 , 221.54 651.73 , 222.02 652.29 , 222.49 652.85 , 222.95 653.41 , 223.40 653.97 , 223.84 654.53 , 224.28 655.09 , 224.70 655.65 , 225.12 656.21 , 225.53 656.77 , 225.92 657.33 , 226.32 657.89 , 226.70 658.45 , 227.07 659.01 , 227.44 659.57 , 227.80 660.13 , 228.15 660.69 , 228.50 661.25 , 228.83 661.81 , 229.16 662.37 , 229.49 662.93 , 229.80 663.49 , 230.11 664.05 , 230.41 664.61 , 230.70 665.17 , 230.99 665.73 , 231.27 666.29 , 231.55 666.85 , 231.81 667.41 , 232.07 667.97 , 232.33 668.53 , 232.58 669.09 , 232.82 669.65 , 233.06 670.21 , 233.29 670.77 , 233.52 671.33 , 233.74 671.89 , 233.95 672.45 , 234.16 673.01 , 234.37 673.57 , 234.57 674.13 , 234.76 674.69 , 234.95 675.25 , 235.14 675.81 , 235.31 676.37 , 235.49 676.93 , 235.66 677.49 , 235.83 678.05 , 235.99 678.61 , 236.15 679.17 , 236.30 679.73 , 236.45 680.29 , 236.59 680.85 , 236.73 681.41 , 236.87 681.97 , 237.00 682.53 , 237.13 683.09 , 237.26 683.65 , 237.38 684.21 , 237.50 684.77 , 237.62 685.33 , 237.73 685.89 , 237.84 686.45 , 237.95 687.01 , 238.05 687.57 , 238.15 688.13 , 238.25 688.69 , 238.34 689.25 , 238.43 689.81 , 238.52 690.37 , 238.61 690.93 , 238.69 691.49 , 238.77 692.05 , 238.85 692.61 , 238.93 693.17 , 239.00 693.73 , 239.07 " style="stroke-width:1;stroke:#000000;fill:#000000;stroke-opacity:1.000000;fill-opacity:0.000000"/>
<text transform="translate(471.36,22.08)"  style="font-size:12" >Graphic diagnostic for state 2</text>
<text transform="translate(495.12,271.58)"  style="font-size:10" >Estimated Density (green) </text>
<text transform="translate(497.55,279.91)"  style="font-size:10" > Normal density (black)</text>
<text transform="translate(550.36,288.25)"  style="font-size:10" ></text>
<polygon points="0.00 , 578.16 361.35 , 578.16 361.35 , 289.08 0.00 , 289.08 " style="stroke-width:1;stroke:#FFFFFF;fill:#FFFFFF;stroke-opacity:0.000000;fill-opacity:1.000000" />
<polyline points="45.64 , 526.78 46.20 , 526.75 46.76 , 526.71 47.32 , 526.66 47.88 , 526.61 48.44 , 526.55 49.00 , 526.49 49.56 , 526.42 50.13 , 526.34 50.69 , 526.26 51.25 , 526.17 51.81 , 526.07 52.37 , 525.97 52.93 , 525.86 53.49 , 525.75 54.05 , 525.63 54.61 , 525.51 55.18 , 525.39 55.74 , 525.26 56.30 , 525.13 56.86 , 525.00 57.42 , 524.87 57.98 , 524.73 58.54 , 524.60 59.10 , 524.47 59.66 , 524.34 60.23 , 524.21 60.79 , 524.08 61.35 , 523.96 61.91 , 523.83 62.47 , 523.71 63.03 , 523.59 63.59 , 523.47 64.15 , 523.35 64.72 , 523.23 65.28 , 523.10 65.84 , 522.98 66.40 , 522.85 66.96 , 522.73 67.52 , 522.59 68.08 , 522.45 68.64 , 522.31 69.20 , 522.15 69.77 , 521.99 70.33 , 521.82 70.89 , 521.64 71.45 , 521.45 72.01 , 521.24 72.57 , 521.02 73.13 , 520.79 73.69 , 520.55 74.25 , 520.29 74.82 , 520.02 75.38 , 519.73 75.94 , 519.43 76.50 , 519.11 77.06 , 518.78 77.62 , 518.43 78.18 , 518.07 78.74 , 517.70 79.30 , 517.31 79.87 , 516.91 80.43 , 516.50 80.99 , 516.07 81.55 , 515.64 82.11 , 515.19 82.67 , 514.73 83.23 , 514.27 83.79 , 513.80 84.36 , 513.32 84.92 , 512.83 85.48 , 512.34 86.04 , 511.85 86.60 , 511.35 87.16 , 510.84 87.72 , 510.34 88.28 , 509.83 88.84 , 509.32 89.41 , 508.82 89.97 , 508.31 90.53 , 507.81 91.09 , 507.30 91.65 , 506.80 92.21 , 506.30 92.77 , 505.80 93.33 , 505.31 93.89 , 504.82 94.46 , 504.33 95.02 , 503.84 95.58 , 503.36 96.14 , 502.87 96.70 , 502.39 97.26 , 501.90 97.82 , 501.41 98.38 , 500.92 98.94 , 500.43 99.51 , 499.93 100.07 , 499.42 100.63 , 498.90 101.19 , 498.38 101.75 , 497.84 102.31 , 497.30 102.87 , 496.75 103.43 , 496.18 104.00 , 495.60 104.56 , 495.02 105.12 , 494.42 105.68 , 493.81 106.24 , 493.19 106.80 , 492.55 107.36 , 491.92 107.92 , 491.27 108.48 , 490.61 109.05 , 489.95 109.61 , 489.29 110.17 , 488.62 110.73 , 487.95 111.29 , 487.27 111.85 , 486.59 112.41 , 485.91 112.97 , 485.23 113.53 , 484.54 114.10 , 483.85 114.66 , 483.16 115.22 , 482.47 115.78 , 481.77 116.34 , 481.06 116.90 , 480.34 117.46 , 479.62 118.02 , 478.89 118.58 , 478.14 119.15 , 477.38 119.71 , 476.61 120.27 , 475.82 120.83 , 475.01 121.39 , 474.19 121.95 , 473.35 122.51 , 472.48 123.07 , 471.60 123.64 , 470.70 124.20 , 469.77 124.76 , 468.83 125.32 , 467.87 125.88 , 466.88 126.44 , 465.87 127.00 , 464.85 127.56 , 463.81 128.12 , 462.75 128.69 , 461.67 129.25 , 460.57 129.81 , 459.46 130.37 , 458.33 130.93 , 457.19 131.49 , 456.03 132.05 , 454.86 132.61 , 453.67 133.17 , 452.48 133.74 , 451.27 134.30 , 450.05 134.86 , 448.81 135.42 , 447.57 135.98 , 446.31 136.54 , 445.04 137.10 , 443.76 137.66 , 442.47 138.22 , 441.16 138.79 , 439.84 139.35 , 438.51 139.91 , 437.17 140.47 , 435.82 141.03 , 434.45 141.59 , 433.06 142.15 , 431.66 142.71 , 430.24 143.28 , 428.80 143.84 , 427.35 144.40 , 425.88 144.96 , 424.39 145.52 , 422.88 146.08 , 421.36 146.64 , 419.82 147.20 , 418.26 147.76 , 416.69 148.33 , 415.10 148.89 , 413.50 149.45 , 411.89 150.01 , 410.28 150.57 , 408.66 151.13 , 407.04 151.69 , 405.43 152.25 , 403.82 152.81 , 402.22 153.38 , 400.63 153.94 , 399.06 154.50 , 397.51 155.06 , 395.97 155.62 , 394.46 156.18 , 392.97 156.74 , 391.50 157.30 , 390.05 157.86 , 388.63 158.43 , 387.22 158.99 , 385.83 159.55 , 384.45 160.11 , 383.08 160.67 , 381.72 161.23 , 380.36 161.79 , 378.99 162.35 , 377.61 162.92 , 376.23 163.48 , 374.83 164.04 , 373.40 164.60 , 371.95 165.16 , 370.47 165.72 , 368.97 166.28 , 367.45 166.84 , 365.89 167.40 , 364.30 167.97 , 362.69 168.53 , 361.06 169.09 , 359.41 169.65 , 357.75 170.21 , 356.08 170.77 , 354.41 171.33 , 352.75 171.89 , 351.10 172.45 , 349.48 173.02 , 347.87 173.58 , 346.32 174.14 , 344.81 174.70 , 343.35 175.26 , 341.95 175.82 , 340.61 176.38 , 339.34 176.94 , 338.17 177.50 , 337.07 178.07 , 336.07 178.63 , 335.14 179.19 , 334.31 179.75 , 333.58 180.31 , 332.95 180.87 , 332.42 181.43 , 331.97 181.99 , 331.62 182.56 , 331.35 183.12 , 331.19 183.68 , 331.11 184.24 , 331.11 184.80 , 331.19 185.36 , 331.33 185.92 , 331.54 186.48 , 331.83 187.04 , 332.17 187.61 , 332.55 188.17 , 332.99 188.73 , 333.46 189.29 , 333.97 189.85 , 334.52 190.41 , 335.09 190.97 , 335.69 191.53 , 336.30 192.09 , 336.93 192.66 , 337.57 193.22 , 338.22 193.78 , 338.88 194.34 , 339.54 194.90 , 340.21 195.46 , 340.88 196.02 , 341.55 196.58 , 342.22 197.14 , 342.89 197.71 , 343.56 198.27 , 344.23 198.83 , 344.91 199.39 , 345.59 199.95 , 346.28 200.51 , 346.97 201.07 , 347.67 201.63 , 348.38 202.20 , 349.10 202.76 , 349.84 203.32 , 350.59 203.88 , 351.35 204.44 , 352.13 205.00 , 352.93 205.56 , 353.76 206.12 , 354.61 206.68 , 355.49 207.25 , 356.38 207.81 , 357.31 208.37 , 358.26 208.93 , 359.25 209.49 , 360.26 210.05 , 361.30 210.61 , 362.37 211.17 , 363.47 211.73 , 364.61 212.30 , 365.78 212.86 , 366.97 213.42 , 368.19 213.98 , 369.44 214.54 , 370.72 215.10 , 372.03 215.66 , 373.37 216.22 , 374.72 216.78 , 376.10 217.35 , 377.50 217.91 , 378.91 218.47 , 380.35 219.03 , 381.79 219.59 , 383.25 220.15 , 384.71 220.71 , 386.17 221.27 , 387.64 221.84 , 389.10 222.40 , 390.56 222.96 , 392.01 223.52 , 393.45 224.08 , 394.88 224.64 , 396.29 225.20 , 397.68 225.76 , 399.05 226.32 , 400.40 226.89 , 401.73 227.45 , 403.03 228.01 , 404.31 228.57 , 405.57 229.13 , 406.81 229.69 , 408.02 230.25 , 409.23 230.81 , 410.41 231.37 , 411.58 231.94 , 412.74 232.50 , 413.90 233.06 , 415.05 233.62 , 416.20 234.18 , 417.36 234.74 , 418.53 235.30 , 419.71 235.86 , 420.91 236.42 , 422.12 236.99 , 423.35 237.55 , 424.60 238.11 , 425.88 238.67 , 427.19 239.23 , 428.51 239.79 , 429.86 240.35 , 431.24 240.91 , 432.64 241.48 , 434.06 242.04 , 435.49 242.60 , 436.94 243.16 , 438.40 243.72 , 439.86 244.28 , 441.33 244.84 , 442.80 245.40 , 444.27 245.96 , 445.72 246.53 , 447.17 247.09 , 448.60 247.65 , 450.01 248.21 , 451.40 248.77 , 452.77 249.33 , 454.11 249.89 , 455.43 250.45 , 456.73 251.01 , 458.00 251.58 , 459.25 252.14 , 460.48 252.70 , 461.69 253.26 , 462.88 253.82 , 464.05 254.38 , 465.21 254.94 , 466.36 255.50 , 467.51 256.06 , 468.64 256.63 , 469.78 257.19 , 470.91 257.75 , 472.04 258.31 , 473.18 258.87 , 474.31 259.43 , 475.45 259.99 , 476.60 260.55 , 477.74 261.12 , 478.89 261.68 , 480.04 262.24 , 481.19 262.80 , 482.34 263.36 , 483.48 263.92 , 484.62 264.48 , 485.75 265.04 , 486.87 265.60 , 487.97 266.17 , 489.07 266.73 , 490.14 267.29 , 491.20 267.85 , 492.24 268.41 , 493.26 268.97 , 494.26 269.53 , 495.23 270.09 , 496.18 270.65 , 497.11 271.22 , 498.01 271.78 , 498.89 272.34 , 499.75 272.90 , 500.58 273.46 , 501.38 274.02 , 502.16 274.58 , 502.92 275.14 , 503.65 275.70 , 504.36 276.27 , 505.05 276.83 , 505.71 277.39 , 506.35 277.95 , 506.97 278.51 , 507.57 279.07 , 508.14 279.63 , 508.69 280.19 , 509.22 280.76 , 509.73 281.32 , 510.23 281.88 , 510.70 282.44 , 511.15 283.00 , 511.59 283.56 , 512.00 284.12 , 512.40 284.68 , 512.79 285.24 , 513.16 285.81 , 513.51 286.37 , 513.85 286.93 , 514.18 287.49 , 514.50 288.05 , 514.80 288.61 , 515.09 289.17 , 515.37 289.73 , 515.64 290.29 , 515.90 290.86 , 516.16 291.42 , 516.40 291.98 , 516.64 292.54 , 516.87 293.10 , 517.09 293.66 , 517.30 294.22 , 517.52 294.78 , 517.72 295.34 , 517.92 295.91 , 518.12 296.47 , 518.32 297.03 , 518.51 297.59 , 518.70 298.15 , 518.89 298.71 , 519.08 299.27 , 519.27 299.83 , 519.46 300.40 , 519.66 300.96 , 519.85 301.52 , 520.05 302.08 , 520.25 302.64 , 520.44 303.20 , 520.65 303.76 , 520.85 304.32 , 521.05 304.88 , 521.26 305.45 , 521.47 306.01 , 521.67 306.57 , 521.88 307.13 , 522.08 307.69 , 522.29 308.25 , 522.49 308.81 , 522.69 309.37 , 522.88 309.93 , 523.07 310.50 , 523.26 311.06 , 523.44 311.62 , 523.61 312.18 , 523.78 312.74 , 523.95 313.30 , 524.11 313.86 , 524.26 314.42 , 524.41 314.98 , 524.55 315.55 , 524.69 316.11 , 524.83 316.67 , 524.96 317.23 , 525.08 317.79 , 525.21 318.35 , 525.33 318.91 , 525.44 319.47 , 525.56 320.04 , 525.67 320.60 , 525.79 321.16 , 525.90 321.72 , 526.01 322.28 , 526.12 322.84 , 526.23 323.40 , 526.34 323.96 , 526.44 324.52 , 526.55 325.09 , 526.66 325.65 , 526.76 326.21 , 526.86 326.77 , 526.96 327.33 , 527.06 327.89 , 527.16 328.45 , 527.25 329.01 , 527.34 329.57 , 527.42 330.14 , 527.51 330.70 , 527.58 331.26 , 527.66 331.82 , 527.73 332.38 , 527.79 " style="stroke-width:2;stroke:#00FF00;fill:#000000;stroke-opacity:1.000000;fill-opacity:0.000000"/>
<line x1="58.06" y1="535.66" x2="307.46" y2="535.66" style="stroke-width:1;stroke:#000000;fill:#000000;stroke-opacity:1.000000;fill-opacity:0.000000"/>
<line x1="58.06" y1="535.66" x2="58.06" y2="539.83" style="stroke-width:1;stroke:#000000;fill:#000000;stroke-opacity:1.000000;fill-opacity:0.000000"/>
<line x1="99.63" y1="535.66" x2="99.63" y2="539.83" style="stroke-width:1;stroke:#000000;fill:#000000;stroke-opacity:1.000000;fill-opacity:0.000000"/>
<line x1="141.19" y1="535.66" x2="141.19" y2="539.83" style="stroke-width:1;stroke:#000000;fill:#000000;stroke-opacity:1.000000;fill-opacity:0.000000"/>
<line x1="182.76" y1="535.66" x2="182.76" y2="539.83" style="stroke-width:1;stroke:#000000;fill:#000000;stroke-opacity:1.000000;fill-opacity:0.000000"/>
<line x1="224.33" y1="535.66" x2="224.33" y2="539.83" style="stroke-width:1;stroke:#000000;fill:#000000;stroke-opacity:1.000000;fill-opacity:0.000000"/>
<line x1="265.89" y1="535.66" x2="265.89" y2="539.83" style="stroke-width:1;stroke:#000000;fill:#000000;stroke-opacity:1.000000;fill-opacity:0.000000"/>
<line x1="307.46" y1="535.66" x2="307.46" y2="539.83" style="stroke-width:1;stroke:#000000;fill:#000000;stroke-opacity:1.000000;fill-opacity:0.000000"/>
<text transform="translate(43.70,552.33)"  style="font-size:10" >-0.015</text>
<text transform="translate(85.27,552.33)"  style="font-size:10" >-0.010</text>
<text transform="translate(126.83,552.33)"  style="font-size:10" >-0.005</text>
<text transform="translate(170.23,552.33)"  style="font-size:10" >0.000</text>
<text transform="translate(211.80,552.33)"  style="font-size:10" >0.005</text>
<text transform="translate(253.36,552.33)"  style="font-size:10" >0.010</text>
<text transform="translate(294.93,552.33)"  style="font-size:10" >0.015</text>
<line x1="34.17" y1="530.44" x2="34.17" y2="324.50" style="stroke-width:1;stroke:#000000;fill:#000000;stroke-opacity:1.000000;fill-opacity:0.000000"/>
<line x1="34.17" y1="530.44" x2="30.00" y2="530.44" style="stroke-width:1;stroke:#000000;fill:#000000;stroke-opacity:1.000000;fill-opacity:0.000000"/>
<line x1="34.17" y1="478.96" x2="30.00" y2="478.96" style="stroke-width:1;stroke:#000000;fill:#000000;stroke-opacity:1.000000;fill-opacity:0.000000"/>
<line x1="34.17" y1="427.47" x2="30.00" y2="427.47" style="stroke-width:1;stroke:#000000;fill:#000000;stroke-opacity:1.000000;fill-opacity:0.000000"/>
<line x1="34.17" y1="375.99" x2="30.00" y2="375.99" style="stroke-width:1;stroke:#000000;fill:#000000;stroke-opacity:1.000000;fill-opacity:0.000000"/>
<line x1="34.17" y1="324.50" x2="30.00" y2="324.50" style="stroke-width:1;stroke:#000000;fill:#000000;stroke-opacity:1.000000;fill-opacity:0.000000"/>
<text transform="translate(25.83,533.19) rotate(-90)"  style="font-size:10" >0</text>
<text transform="translate(25.83,484.46) rotate(-90)"  style="font-size:10" >20</text>
<text transform="translate(25.83,432.97) rotate(-90)"  style="font-size:10" >40</text>
<text transform="translate(25.83,381.49) rotate(-90)"  style="font-size:10" >60</text>
<text transform="translate(25.83,330.00) rotate(-90)"  style="font-size:10" >80</text>
<polyline points="34.17 , 535.66 343.85 , 535.66 343.85 , 323.25 34.17 , 323.25 34.17 , 535.66 " style="stroke-width:1;stroke:#000000;fill:#000000;stroke-opacity:1.000000;fill-opacity:0.000000"/>
<text transform="translate(9.17,446.69) rotate(-90)"  style="font-size:10" >Density</text>
<polyline points="45.64 , 528.46 46.20 , 528.39 46.76 , 528.31 47.32 , 528.24 47.88 , 528.16 48.44 , 528.08 49.00 , 528.00 49.56 , 527.91 50.12 , 527.82 50.68 , 527.73 51.24 , 527.64 51.80 , 527.54 52.36 , 527.45 52.92 , 527.34 53.48 , 527.24 54.04 , 527.13 54.60 , 527.02 55.16 , 526.91 55.72 , 526.79 56.28 , 526.67 56.84 , 526.54 57.40 , 526.41 57.96 , 526.28 58.52 , 526.15 59.08 , 526.01 59.64 , 525.86 60.20 , 525.72 60.76 , 525.56 61.32 , 525.41 61.88 , 525.25 62.44 , 525.09 63.00 , 524.92 63.56 , 524.74 64.12 , 524.57 64.68 , 524.38 65.24 , 524.20 65.80 , 524.01 66.36 , 523.81 66.92 , 523.61 67.48 , 523.40 68.04 , 523.19 68.60 , 522.97 69.16 , 522.74 69.72 , 522.52 70.28 , 522.28 70.84 , 522.04 71.40 , 521.79 71.96 , 521.54 72.52 , 521.28 73.08 , 521.02 73.64 , 520.75 74.20 , 520.47 74.76 , 520.19 75.32 , 519.90 75.88 , 519.60 76.44 , 519.29 77.00 , 518.98 77.56 , 518.66 78.12 , 518.34 78.68 , 518.01 79.24 , 517.67 79.80 , 517.32 80.36 , 516.96 80.92 , 516.60 81.48 , 516.23 82.04 , 515.85 82.60 , 515.46 83.16 , 515.07 83.72 , 514.67 84.28 , 514.25 84.84 , 513.83 85.40 , 513.41 85.96 , 512.97 86.52 , 512.52 87.08 , 512.07 87.64 , 511.60 88.20 , 511.13 88.76 , 510.65 89.32 , 510.16 89.88 , 509.66 90.44 , 509.15 91.00 , 508.63 91.56 , 508.10 92.12 , 507.56 92.68 , 507.01 93.24 , 506.45 93.80 , 505.89 94.36 , 505.31 94.92 , 504.72 95.48 , 504.12 96.04 , 503.51 96.60 , 502.89 97.16 , 502.26 97.72 , 501.62 98.28 , 500.97 98.84 , 500.31 99.40 , 499.64 99.96 , 498.96 100.52 , 498.27 101.08 , 497.56 101.64 , 496.85 102.20 , 496.12 102.76 , 495.39 103.32 , 494.64 103.88 , 493.88 104.44 , 493.11 105.00 , 492.33 105.56 , 491.54 106.12 , 490.74 106.68 , 489.93 107.24 , 489.11 107.80 , 488.27 108.36 , 487.43 108.92 , 486.57 109.48 , 485.70 110.04 , 484.83 110.60 , 483.94 111.16 , 483.04 111.72 , 482.13 112.28 , 481.21 112.84 , 480.27 113.40 , 479.33 113.96 , 478.38 114.52 , 477.42 115.08 , 476.44 115.64 , 475.46 116.20 , 474.46 116.76 , 473.46 117.32 , 472.45 117.88 , 471.42 118.44 , 470.39 119.00 , 469.34 119.56 , 468.29 120.12 , 467.23 120.68 , 466.15 121.24 , 465.07 121.80 , 463.98 122.36 , 462.88 122.92 , 461.77 123.48 , 460.66 124.04 , 459.53 124.60 , 458.40 125.16 , 457.26 125.72 , 456.11 126.28 , 454.95 126.84 , 453.78 127.40 , 452.61 127.96 , 451.43 128.52 , 450.25 129.08 , 449.05 129.64 , 447.85 130.20 , 446.65 130.76 , 445.44 131.32 , 444.22 131.88 , 443.00 132.44 , 441.77 133.00 , 440.54 133.56 , 439.30 134.12 , 438.06 134.68 , 436.82 135.24 , 435.57 135.80 , 434.31 136.36 , 433.06 136.92 , 431.80 137.48 , 430.54 138.04 , 429.28 138.60 , 428.01 139.16 , 426.74 139.72 , 425.48 140.28 , 424.21 140.84 , 422.94 141.40 , 421.67 141.96 , 420.40 142.52 , 419.13 143.08 , 417.86 143.64 , 416.59 144.20 , 415.33 144.76 , 414.06 145.32 , 412.80 145.88 , 411.54 146.44 , 410.29 147.00 , 409.04 147.56 , 407.79 148.12 , 406.54 148.68 , 405.30 149.25 , 404.07 149.81 , 402.84 150.37 , 401.62 150.93 , 400.40 151.49 , 399.19 152.05 , 397.98 152.61 , 396.79 153.17 , 395.60 153.73 , 394.42 154.29 , 393.24 154.85 , 392.08 155.41 , 390.93 155.97 , 389.78 156.53 , 388.65 157.09 , 387.52 157.65 , 386.41 158.21 , 385.31 158.77 , 384.22 159.33 , 383.14 159.89 , 382.07 160.45 , 381.02 161.01 , 379.98 161.57 , 378.95 162.13 , 377.94 162.69 , 376.94 163.25 , 375.96 163.81 , 374.99 164.37 , 374.04 164.93 , 373.10 165.49 , 372.18 166.05 , 371.28 166.61 , 370.39 167.17 , 369.52 167.73 , 368.66 168.29 , 367.83 168.85 , 367.01 169.41 , 366.21 169.97 , 365.43 170.53 , 364.67 171.09 , 363.93 171.65 , 363.21 172.21 , 362.51 172.77 , 361.82 173.33 , 361.16 173.89 , 360.52 174.45 , 359.90 175.01 , 359.31 175.57 , 358.73 176.13 , 358.17 176.69 , 357.64 177.25 , 357.13 177.81 , 356.64 178.37 , 356.17 178.93 , 355.73 179.49 , 355.31 180.05 , 354.91 180.61 , 354.54 181.17 , 354.19 181.73 , 353.86 182.29 , 353.56 182.85 , 353.28 183.41 , 353.02 183.97 , 352.79 184.53 , 352.58 185.09 , 352.40 185.65 , 352.24 186.21 , 352.11 186.77 , 352.00 187.33 , 351.91 187.89 , 351.85 188.45 , 351.81 189.01 , 351.80 189.57 , 351.81 190.13 , 351.85 190.69 , 351.91 191.25 , 352.00 191.81 , 352.11 192.37 , 352.24 192.93 , 352.40 193.49 , 352.58 194.05 , 352.79 194.61 , 353.02 195.17 , 353.28 195.73 , 353.56 196.29 , 353.86 196.85 , 354.19 197.41 , 354.54 197.97 , 354.91 198.53 , 355.31 199.09 , 355.73 199.65 , 356.17 200.21 , 356.64 200.77 , 357.13 201.33 , 357.64 201.89 , 358.17 202.45 , 358.73 203.01 , 359.31 203.57 , 359.90 204.13 , 360.52 204.69 , 361.16 205.25 , 361.82 205.81 , 362.51 206.37 , 363.21 206.93 , 363.93 207.49 , 364.67 208.05 , 365.43 208.61 , 366.21 209.17 , 367.01 209.73 , 367.83 210.29 , 368.66 210.85 , 369.52 211.41 , 370.39 211.97 , 371.28 212.53 , 372.18 213.09 , 373.10 213.65 , 374.04 214.21 , 374.99 214.77 , 375.96 215.33 , 376.94 215.89 , 377.94 216.45 , 378.95 217.01 , 379.98 217.57 , 381.02 218.13 , 382.07 218.69 , 383.14 219.25 , 384.22 219.81 , 385.31 220.37 , 386.41 220.93 , 387.52 221.49 , 388.65 222.05 , 389.78 222.61 , 390.93 223.17 , 392.08 223.73 , 393.24 224.29 , 394.42 224.85 , 395.60 225.41 , 396.79 225.97 , 397.98 226.53 , 399.19 227.09 , 400.40 227.65 , 401.62 228.21 , 402.84 228.77 , 404.07 229.33 , 405.30 229.89 , 406.54 230.45 , 407.79 231.01 , 409.04 231.57 , 410.29 232.13 , 411.54 232.69 , 412.80 233.25 , 414.06 233.81 , 415.33 234.37 , 416.59 234.93 , 417.86 235.49 , 419.13 236.05 , 420.40 236.61 , 421.67 237.17 , 422.94 237.73 , 424.21 238.29 , 425.48 238.85 , 426.74 239.41 , 428.01 239.97 , 429.28 240.53 , 430.54 241.09 , 431.80 241.65 , 433.06 242.21 , 434.31 242.77 , 435.57 243.33 , 436.82 243.89 , 438.06 244.45 , 439.30 245.01 , 440.54 245.57 , 441.77 246.13 , 443.00 246.69 , 444.22 247.25 , 445.44 247.81 , 446.65 248.37 , 447.85 248.93 , 449.05 249.49 , 450.25 250.05 , 451.43 250.61 , 452.61 251.17 , 453.78 251.73 , 454.95 252.29 , 456.11 252.85 , 457.26 253.41 , 458.40 253.97 , 459.53 254.53 , 460.66 255.09 , 461.77 255.65 , 462.88 256.21 , 463.98 256.77 , 465.07 257.33 , 466.15 257.89 , 467.23 258.45 , 468.29 259.01 , 469.34 259.57 , 470.39 260.13 , 471.42 260.69 , 472.45 261.25 , 473.46 261.81 , 474.46 262.37 , 475.46 262.93 , 476.44 263.49 , 477.42 264.05 , 478.38 264.61 , 479.33 265.17 , 480.27 265.73 , 481.21 266.29 , 482.13 266.85 , 483.04 267.41 , 483.94 267.97 , 484.83 268.53 , 485.70 269.09 , 486.57 269.66 , 487.43 270.22 , 488.27 270.78 , 489.11 271.34 , 489.93 271.90 , 490.74 272.46 , 491.54 273.02 , 492.33 273.58 , 493.11 274.14 , 493.88 274.70 , 494.64 275.26 , 495.39 275.82 , 496.12 276.38 , 496.85 276.94 , 497.56 277.50 , 498.27 278.06 , 498.96 278.62 , 499.64 279.18 , 500.31 279.74 , 500.97 280.30 , 501.62 280.86 , 502.26 281.42 , 502.89 281.98 , 503.51 282.54 , 504.12 283.10 , 504.72 283.66 , 505.31 284.22 , 505.89 284.78 , 506.45 285.34 , 507.01 285.90 , 507.56 286.46 , 508.10 287.02 , 508.63 287.58 , 509.15 288.14 , 509.66 288.70 , 510.16 289.26 , 510.65 289.82 , 511.13 290.38 , 511.60 290.94 , 512.07 291.50 , 512.52 292.06 , 512.97 292.62 , 513.41 293.18 , 513.83 293.74 , 514.25 294.30 , 514.67 294.86 , 515.07 295.42 , 515.46 295.98 , 515.85 296.54 , 516.23 297.10 , 516.60 297.66 , 516.96 298.22 , 517.32 298.78 , 517.67 299.34 , 518.01 299.90 , 518.34 300.46 , 518.66 301.02 , 518.98 301.58 , 519.29 302.14 , 519.60 302.70 , 519.90 303.26 , 520.19 303.82 , 520.47 304.38 , 520.75 304.94 , 521.02 305.50 , 521.28 306.06 , 521.54 306.62 , 521.79 307.18 , 522.04 307.74 , 522.28 308.30 , 522.52 308.86 , 522.74 309.42 , 522.97 309.98 , 523.19 310.54 , 523.40 311.10 , 523.61 311.66 , 523.81 312.22 , 524.01 312.78 , 524.20 313.34 , 524.38 313.90 , 524.57 314.46 , 524.74 315.02 , 524.92 315.58 , 525.09 316.14 , 525.25 316.70 , 525.41 317.26 , 525.56 317.82 , 525.72 318.38 , 525.86 318.94 , 526.01 319.50 , 526.15 320.06 , 526.28 320.62 , 526.41 321.18 , 526.54 321.74 , 526.67 322.30 , 526.79 322.86 , 526.91 323.42 , 527.02 323.98 , 527.13 324.54 , 527.24 325.10 , 527.34 325.66 , 527.45 326.22 , 527.54 326.78 , 527.64 327.34 , 527.73 327.90 , 527.82 328.46 , 527.91 329.02 , 528.00 329.58 , 528.08 330.14 , 528.16 330.70 , 528.24 331.26 , 528.31 331.82 , 528.39 332.38 , 528.46 " style="stroke-width:1;stroke:#000000;fill:#000000;stroke-opacity:1.000000;fill-opacity:0.000000"/>
<text transform="translate(110.01,311.16)"  style="font-size:12" >Graphic diagnostic for state 3</text>
<text transform="translate(133.77,560.66)"  style="font-size:10" >Estimated Density (green) </text>
<text transform="translate(136.20,568.99)"  style="font-size:10" > Normal density (black)</text>
<text transform="translate(189.01,577.33)"  style="font-size:10" ></text>
</svg>
