<?xml version="1.0" encoding="UTF-8"?>
<svg xmlns="http://www.w3.org/2000/svg" width="722.70" height="578.16" viewBox="0,0,722.70,578.16">
<desc>R SVG Plot!</desc>
<rect width="100%" height="100%" style="fill:#FFFFFF"/>
<polygon points="0.00 , 289.08 722.70 , 289.08 722.70 , 0.00 0.00 , 0.00 " style="stroke-width:1;stroke:#FFFFFF;fill:#FFFFFF;stroke-opacity:0.000000;fill-opacity:1.000000" />
<polygon points="0.00 , 578.16 722.70 , 578.16 722.70 , 289.08 0.00 , 289.08 " style="stroke-width:1;stroke:#FFFFFF;fill:#FFFFFF;stroke-opacity:0.000000;fill-opacity:1.000000" />
<polygon points="0.00 , 289.08 361.35 , 289.08 361.35 , 0.00 0.00 , 0.00 " style="stroke-width:1;stroke:#FFFFFF;fill:#FFFFFF;stroke-opacity:0.000000;fill-opacity:1.000000" />
<polyline points="45.64 , 238.71 46.20 , 238.61 46.76 , 238.50 47.32 , 238.38 47.88 , 238.25 48.44 , 238.12 49.00 , 237.98 49.56 , 237.83 50.13 , 237.68 50.69 , 237.52 51.25 , 237.35 51.81 , 237.18 52.37 , 237.01 52.93 , 236.82 53.49 , 236.63 54.05 , 236.44 54.61 , 236.24 55.18 , 236.04 55.74 , 235.83 56.30 , 235.62 56.86 , 235.41 57.42 , 235.19 57.98 , 234.97 58.54 , 234.75 59.10 , 234.53 59.66 , 234.31 60.23 , 234.09 60.79 , 233.86 61.35 , 233.64 61.91 , 233.42 62.47 , 233.21 63.03 , 232.99 63.59 , 232.78 64.15 , 232.57 64.72 , 232.36 65.28 , 232.16 65.84 , 231.96 66.40 , 231.77 66.96 , 231.57 67.52 , 231.39 68.08 , 231.20 68.64 , 231.02 69.20 , 230.84 69.77 , 230.67 70.33 , 230.49 70.89 , 230.32 71.45 , 230.14 72.01 , 229.97 72.57 , 229.80 73.13 , 229.62 73.69 , 229.44 74.25 , 229.26 74.82 , 229.07 75.38 , 228.88 75.94 , 228.68 76.50 , 228.47 77.06 , 228.26 77.62 , 228.03 78.18 , 227.79 78.74 , 227.54 79.30 , 227.28 79.87 , 227.00 80.43 , 226.71 80.99 , 226.40 81.55 , 226.08 82.11 , 225.74 82.67 , 225.38 83.23 , 225.01 83.79 , 224.62 84.36 , 224.22 84.92 , 223.80 85.48 , 223.36 86.04 , 222.91 86.60 , 222.44 87.16 , 221.96 87.72 , 221.46 88.28 , 220.96 88.84 , 220.44 89.41 , 219.91 89.97 , 219.37 90.53 , 218.82 91.09 , 218.26 91.65 , 217.70 92.21 , 217.13 92.77 , 216.56 93.33 , 215.99 93.89 , 215.41 94.46 , 214.84 95.02 , 214.26 95.58 , 213.68 96.14 , 213.10 96.70 , 212.53 97.26 , 211.95 97.82 , 211.38 98.38 , 210.80 98.94 , 210.23 99.51 , 209.65 100.07 , 209.07 100.63 , 208.49 101.19 , 207.91 101.75 , 207.32 102.31 , 206.73 102.87 , 206.12 103.43 , 205.51 104.00 , 204.88 104.56 , 204.24 105.12 , 203.58 105.68 , 202.90 106.24 , 202.21 106.80 , 201.49 107.36 , 200.74 107.92 , 199.97 108.48 , 199.18 109.05 , 198.35 109.61 , 197.49 110.17 , 196.60 110.73 , 195.68 111.29 , 194.72 111.85 , 193.73 112.41 , 192.70 112.97 , 191.63 113.53 , 190.53 114.10 , 189.40 114.66 , 188.22 115.22 , 187.01 115.78 , 185.77 116.34 , 184.50 116.90 , 183.20 117.46 , 181.86 118.02 , 180.50 118.58 , 179.11 119.15 , 177.70 119.71 , 176.26 120.27 , 174.81 120.83 , 173.33 121.39 , 171.85 121.95 , 170.35 122.51 , 168.84 123.07 , 167.33 123.64 , 165.81 124.20 , 164.29 124.76 , 162.77 125.32 , 161.25 125.88 , 159.74 126.44 , 158.24 127.00 , 156.74 127.56 , 155.26 128.12 , 153.79 128.69 , 152.33 129.25 , 150.88 129.81 , 149.46 130.37 , 148.04 130.93 , 146.65 131.49 , 145.26 132.05 , 143.90 132.61 , 142.55 133.17 , 141.21 133.74 , 139.88 134.30 , 138.57 134.86 , 137.26 135.42 , 135.97 135.98 , 134.68 136.54 , 133.39 137.10 , 132.11 137.66 , 130.83 138.22 , 129.54 138.79 , 128.25 139.35 , 126.96 139.91 , 125.66 140.47 , 124.35 141.03 , 123.03 141.59 , 121.70 142.15 , 120.36 142.71 , 119.00 143.28 , 117.62 143.84 , 116.23 144.40 , 114.83 144.96 , 113.40 145.52 , 111.96 146.08 , 110.50 146.64 , 109.03 147.20 , 107.55 147.76 , 106.04 148.33 , 104.53 148.89 , 103.00 149.45 , 101.47 150.01 , 99.92 150.57 , 98.36 151.13 , 96.80 151.69 , 95.24 152.25 , 93.67 152.81 , 92.10 153.38 , 90.54 153.94 , 88.97 154.50 , 87.41 155.06 , 85.86 155.62 , 84.32 156.18 , 82.78 156.74 , 81.26 157.30 , 79.75 157.86 , 78.26 158.43 , 76.78 158.99 , 75.32 159.55 , 73.89 160.11 , 72.48 160.67 , 71.09 161.23 , 69.72 161.79 , 68.38 162.35 , 67.07 162.92 , 65.79 163.48 , 64.53 164.04 , 63.31 164.60 , 62.12 165.16 , 60.96 165.72 , 59.84 166.28 , 58.75 166.84 , 57.69 167.40 , 56.68 167.97 , 55.70 168.53 , 54.75 169.09 , 53.83 169.65 , 52.96 170.21 , 52.12 170.77 , 51.32 171.33 , 50.55 171.89 , 49.82 172.45 , 49.13 173.02 , 48.46 173.58 , 47.83 174.14 , 47.24 174.70 , 46.68 175.26 , 46.16 175.82 , 45.66 176.38 , 45.20 176.94 , 44.77 177.50 , 44.38 178.07 , 44.01 178.63 , 43.68 179.19 , 43.37 179.75 , 43.10 180.31 , 42.86 180.87 , 42.65 181.43 , 42.47 181.99 , 42.32 182.56 , 42.21 183.12 , 42.12 183.68 , 42.06 184.24 , 42.03 184.80 , 42.04 185.36 , 42.08 185.92 , 42.15 186.48 , 42.24 187.04 , 42.38 187.61 , 42.54 188.17 , 42.73 188.73 , 42.95 189.29 , 43.20 189.85 , 43.48 190.41 , 43.79 190.97 , 44.13 191.53 , 44.50 192.09 , 44.90 192.66 , 45.33 193.22 , 45.78 193.78 , 46.26 194.34 , 46.77 194.90 , 47.31 195.46 , 47.87 196.02 , 48.46 196.58 , 49.07 197.14 , 49.70 197.71 , 50.37 198.27 , 51.05 198.83 , 51.75 199.39 , 52.48 199.95 , 53.23 200.51 , 54.00 201.07 , 54.79 201.63 , 55.59 202.20 , 56.42 202.76 , 57.26 203.32 , 58.12 203.88 , 58.99 204.44 , 59.88 205.00 , 60.78 205.56 , 61.69 206.12 , 62.61 206.68 , 63.55 207.25 , 64.49 207.81 , 65.43 208.37 , 66.39 208.93 , 67.35 209.49 , 68.31 210.05 , 69.28 210.61 , 70.24 211.17 , 71.22 211.73 , 72.19 212.30 , 73.16 212.86 , 74.13 213.42 , 75.10 213.98 , 76.07 214.54 , 77.04 215.10 , 78.01 215.66 , 78.98 216.22 , 79.94 216.78 , 80.91 217.35 , 81.87 217.91 , 82.84 218.47 , 83.80 219.03 , 84.76 219.59 , 85.73 220.15 , 86.69 220.71 , 87.66 221.27 , 88.63 221.84 , 89.60 222.40 , 90.57 222.96 , 91.54 223.52 , 92.52 224.08 , 93.49 224.64 , 94.47 225.20 , 95.45 225.76 , 96.44 226.32 , 97.42 226.89 , 98.41 227.45 , 99.39 228.01 , 100.38 228.57 , 101.37 229.13 , 102.37 229.69 , 103.36 230.25 , 104.36 230.81 , 105.36 231.37 , 106.36 231.94 , 107.36 232.50 , 108.37 233.06 , 109.39 233.62 , 110.41 234.18 , 111.44 234.74 , 112.48 235.30 , 113.53 235.86 , 114.60 236.42 , 115.67 236.99 , 116.77 237.55 , 117.89 238.11 , 119.03 238.67 , 120.18 239.23 , 121.37 239.79 , 122.58 240.35 , 123.82 240.91 , 125.09 241.48 , 126.39 242.04 , 127.73 242.60 , 129.10 243.16 , 130.50 243.72 , 131.93 244.28 , 133.40 244.84 , 134.91 245.40 , 136.45 245.96 , 138.01 246.53 , 139.61 247.09 , 141.24 247.65 , 142.90 248.21 , 144.58 248.77 , 146.27 249.33 , 148.00 249.89 , 149.73 250.45 , 151.48 251.01 , 153.24 251.58 , 155.00 252.14 , 156.77 252.70 , 158.53 253.26 , 160.29 253.82 , 162.04 254.38 , 163.77 254.94 , 165.49 255.50 , 167.19 256.06 , 168.87 256.63 , 170.52 257.19 , 172.14 257.75 , 173.73 258.31 , 175.29 258.87 , 176.82 259.43 , 178.30 259.99 , 179.75 260.55 , 181.16 261.12 , 182.54 261.68 , 183.87 262.24 , 185.16 262.80 , 186.41 263.36 , 187.63 263.92 , 188.80 264.48 , 189.94 265.04 , 191.04 265.60 , 192.10 266.17 , 193.14 266.73 , 194.13 267.29 , 195.10 267.85 , 196.04 268.41 , 196.96 268.97 , 197.85 269.53 , 198.71 270.09 , 199.55 270.65 , 200.38 271.22 , 201.19 271.78 , 201.98 272.34 , 202.75 272.90 , 203.51 273.46 , 204.26 274.02 , 205.00 274.58 , 205.73 275.14 , 206.45 275.70 , 207.16 276.27 , 207.86 276.83 , 208.55 277.39 , 209.24 277.95 , 209.91 278.51 , 210.58 279.07 , 211.24 279.63 , 211.89 280.19 , 212.54 280.76 , 213.17 281.32 , 213.80 281.88 , 214.41 282.44 , 215.01 283.00 , 215.60 283.56 , 216.19 284.12 , 216.75 284.68 , 217.31 285.24 , 217.85 285.81 , 218.38 286.37 , 218.89 286.93 , 219.39 287.49 , 219.88 288.05 , 220.35 288.61 , 220.82 289.17 , 221.26 289.73 , 221.69 290.29 , 222.11 290.86 , 222.52 291.42 , 222.92 291.98 , 223.30 292.54 , 223.68 293.10 , 224.04 293.66 , 224.40 294.22 , 224.75 294.78 , 225.09 295.34 , 225.42 295.91 , 225.75 296.47 , 226.07 297.03 , 226.38 297.59 , 226.70 298.15 , 227.00 298.71 , 227.31 299.27 , 227.61 299.83 , 227.91 300.40 , 228.20 300.96 , 228.49 301.52 , 228.78 302.08 , 229.07 302.64 , 229.35 303.20 , 229.63 303.76 , 229.91 304.32 , 230.18 304.88 , 230.44 305.45 , 230.70 306.01 , 230.96 306.57 , 231.20 307.13 , 231.44 307.69 , 231.67 308.25 , 231.89 308.81 , 232.10 309.37 , 232.30 309.93 , 232.50 310.50 , 232.68 311.06 , 232.85 311.62 , 233.00 312.18 , 233.15 312.74 , 233.28 313.30 , 233.41 313.86 , 233.52 314.42 , 233.62 314.98 , 233.71 315.55 , 233.79 316.11 , 233.86 316.67 , 233.92 317.23 , 233.97 317.79 , 234.02 318.35 , 234.06 318.91 , 234.10 319.47 , 234.13 320.04 , 234.16 320.60 , 234.18 321.16 , 234.21 321.72 , 234.23 322.28 , 234.26 322.84 , 234.29 323.40 , 234.32 323.96 , 234.35 324.52 , 234.39 325.09 , 234.44 325.65 , 234.49 326.21 , 234.54 326.77 , 234.61 327.33 , 234.68 327.89 , 234.76 328.45 , 234.84 329.01 , 234.93 329.57 , 235.03 330.14 , 235.13 330.70 , 235.24 331.26 , 235.36 331.82 , 235.48 332.38 , 235.61 " style="stroke-width:2;stroke:#00FF00;fill:#000000;stroke-opacity:1.000000;fill-opacity:0.000000"/>
<line x1="102.28" y1="246.58" x2="282.81" y2="246.58" style="stroke-width:1;stroke:#000000;fill:#000000;stroke-opacity:1.000000;fill-opacity:0.000000"/>
<line x1="102.28" y1="246.58" x2="102.28" y2="250.75" style="stroke-width:1;stroke:#000000;fill:#000000;stroke-opacity:1.000000;fill-opacity:0.000000"/>
<line x1="192.54" y1="246.58" x2="192.54" y2="250.75" style="stroke-width:1;stroke:#000000;fill:#000000;stroke-opacity:1.000000;fill-opacity:0.000000"/>
<line x1="282.81" y1="246.58" x2="282.81" y2="250.75" style="stroke-width:1;stroke:#000000;fill:#000000;stroke-opacity:1.000000;fill-opacity:0.000000"/>
<text transform="translate(91.72,263.25)"  style="font-size:10" >-0.05</text>
<text transform="translate(182.77,263.25)"  style="font-size:10" >0.00</text>
<text transform="translate(273.03,263.25)"  style="font-size:10" >0.05</text>
<line x1="34.17" y1="240.00" x2="34.17" y2="45.93" style="stroke-width:1;stroke:#000000;fill:#000000;stroke-opacity:1.000000;fill-opacity:0.000000"/>
<line x1="34.17" y1="240.00" x2="30.00" y2="240.00" style="stroke-width:1;stroke:#000000;fill:#000000;stroke-opacity:1.000000;fill-opacity:0.000000"/>
<line x1="34.17" y1="175.31" x2="30.00" y2="175.31" style="stroke-width:1;stroke:#000000;fill:#000000;stroke-opacity:1.000000;fill-opacity:0.000000"/>
<line x1="34.17" y1="110.62" x2="30.00" y2="110.62" style="stroke-width:1;stroke:#000000;fill:#000000;stroke-opacity:1.000000;fill-opacity:0.000000"/>
<line x1="34.17" y1="45.93" x2="30.00" y2="45.93" style="stroke-width:1;stroke:#000000;fill:#000000;stroke-opacity:1.000000;fill-opacity:0.000000"/>
<text transform="translate(25.83,242.75) rotate(-90)"  style="font-size:10" >0</text>
<text transform="translate(25.83,178.06) rotate(-90)"  style="font-size:10" >5</text>
<text transform="translate(25.83,116.12) rotate(-90)"  style="font-size:10" >10</text>
<text transform="translate(25.83,51.43) rotate(-90)"  style="font-size:10" >15</text>
<polyline points="34.17 , 246.58 343.85 , 246.58 343.85 , 34.17 34.17 , 34.17 34.17 , 246.58 " style="stroke-width:1;stroke:#000000;fill:#000000;stroke-opacity:1.000000;fill-opacity:0.000000"/>
<text transform="translate(9.17,157.61) rotate(-90)"  style="font-size:10" >Density</text>
<polyline points="45.64 , 237.83 46.20 , 237.76 46.76 , 237.68 47.32 , 237.60 47.88 , 237.51 48.44 , 237.42 49.00 , 237.33 49.56 , 237.24 50.12 , 237.14 50.68 , 237.05 51.24 , 236.94 51.80 , 236.84 52.36 , 236.73 52.92 , 236.62 53.48 , 236.50 54.04 , 236.39 54.60 , 236.27 55.16 , 236.14 55.72 , 236.01 56.28 , 235.88 56.84 , 235.74 57.40 , 235.60 57.96 , 235.46 58.52 , 235.31 59.08 , 235.16 59.64 , 235.00 60.20 , 234.84 60.76 , 234.68 61.32 , 234.51 61.88 , 234.33 62.44 , 234.15 63.00 , 233.97 63.56 , 233.78 64.12 , 233.59 64.68 , 233.39 65.24 , 233.19 65.80 , 232.98 66.36 , 232.76 66.92 , 232.54 67.48 , 232.31 68.04 , 232.08 68.60 , 231.84 69.16 , 231.60 69.72 , 231.35 70.28 , 231.09 70.84 , 230.83 71.40 , 230.56 71.96 , 230.29 72.52 , 230.00 73.08 , 229.72 73.64 , 229.42 74.20 , 229.12 74.76 , 228.81 75.32 , 228.49 75.88 , 228.17 76.44 , 227.83 77.00 , 227.49 77.56 , 227.15 78.12 , 226.79 78.68 , 226.43 79.24 , 226.06 79.80 , 225.68 80.36 , 225.29 80.92 , 224.89 81.48 , 224.49 82.04 , 224.08 82.60 , 223.65 83.16 , 223.22 83.72 , 222.78 84.28 , 222.33 84.84 , 221.87 85.40 , 221.41 85.96 , 220.93 86.52 , 220.44 87.08 , 219.95 87.64 , 219.44 88.20 , 218.92 88.76 , 218.40 89.32 , 217.86 89.88 , 217.32 90.44 , 216.76 91.00 , 216.19 91.56 , 215.61 92.12 , 215.03 92.68 , 214.43 93.24 , 213.82 93.80 , 213.20 94.36 , 212.57 94.92 , 211.93 95.48 , 211.27 96.04 , 210.61 96.60 , 209.93 97.16 , 209.24 97.72 , 208.55 98.28 , 207.84 98.84 , 207.12 99.40 , 206.38 99.96 , 205.64 100.52 , 204.88 101.08 , 204.11 101.64 , 203.33 102.20 , 202.54 102.76 , 201.74 103.32 , 200.92 103.88 , 200.10 104.44 , 199.26 105.00 , 198.41 105.56 , 197.54 106.12 , 196.67 106.68 , 195.78 107.24 , 194.88 107.80 , 193.97 108.36 , 193.05 108.92 , 192.12 109.48 , 191.17 110.04 , 190.21 110.60 , 189.24 111.16 , 188.26 111.72 , 187.27 112.28 , 186.26 112.84 , 185.25 113.40 , 184.22 113.96 , 183.18 114.52 , 182.13 115.08 , 181.06 115.64 , 179.99 116.20 , 178.90 116.76 , 177.81 117.32 , 176.70 117.88 , 175.58 118.44 , 174.45 119.00 , 173.31 119.56 , 172.16 120.12 , 171.00 120.68 , 169.83 121.24 , 168.65 121.80 , 167.46 122.36 , 166.26 122.92 , 165.05 123.48 , 163.83 124.04 , 162.60 124.60 , 161.37 125.16 , 160.12 125.72 , 158.87 126.28 , 157.60 126.84 , 156.33 127.40 , 155.05 127.96 , 153.76 128.52 , 152.47 129.08 , 151.17 129.64 , 149.86 130.20 , 148.54 130.76 , 147.22 131.32 , 145.89 131.88 , 144.56 132.44 , 143.22 133.00 , 141.88 133.56 , 140.53 134.12 , 139.17 134.68 , 137.81 135.24 , 136.45 135.80 , 135.08 136.36 , 133.71 136.92 , 132.34 137.48 , 130.96 138.04 , 129.58 138.60 , 128.20 139.16 , 126.82 139.72 , 125.43 140.28 , 124.05 140.84 , 122.66 141.40 , 121.28 141.96 , 119.89 142.52 , 118.51 143.08 , 117.12 143.64 , 115.74 144.20 , 114.36 144.76 , 112.98 145.32 , 111.60 145.88 , 110.23 146.44 , 108.86 147.00 , 107.49 147.56 , 106.13 148.12 , 104.77 148.68 , 103.42 149.25 , 102.07 149.81 , 100.73 150.37 , 99.39 150.93 , 98.06 151.49 , 96.74 152.05 , 95.43 152.61 , 94.12 153.17 , 92.82 153.73 , 91.53 154.29 , 90.25 154.85 , 88.98 155.41 , 87.72 155.97 , 86.47 156.53 , 85.24 157.09 , 84.01 157.65 , 82.79 158.21 , 81.59 158.77 , 80.40 159.33 , 79.22 159.89 , 78.06 160.45 , 76.91 161.01 , 75.78 161.57 , 74.66 162.13 , 73.55 162.69 , 72.46 163.25 , 71.39 163.81 , 70.33 164.37 , 69.29 164.93 , 68.27 165.49 , 67.26 166.05 , 66.28 166.61 , 65.31 167.17 , 64.36 167.73 , 63.43 168.29 , 62.51 168.85 , 61.62 169.41 , 60.75 169.97 , 59.90 170.53 , 59.07 171.09 , 58.26 171.65 , 57.47 172.21 , 56.71 172.77 , 55.96 173.33 , 55.24 173.89 , 54.54 174.45 , 53.86 175.01 , 53.21 175.57 , 52.58 176.13 , 51.98 176.69 , 51.39 177.25 , 50.84 177.81 , 50.30 178.37 , 49.79 178.93 , 49.31 179.49 , 48.85 180.05 , 48.42 180.61 , 48.01 181.17 , 47.63 181.73 , 47.27 182.29 , 46.94 182.85 , 46.63 183.41 , 46.36 183.97 , 46.10 184.53 , 45.88 185.09 , 45.68 185.65 , 45.50 186.21 , 45.36 186.77 , 45.24 187.33 , 45.14 187.89 , 45.07 188.45 , 45.03 189.01 , 45.02 189.57 , 45.03 190.13 , 45.07 190.69 , 45.14 191.25 , 45.24 191.81 , 45.36 192.37 , 45.50 192.93 , 45.68 193.49 , 45.88 194.05 , 46.10 194.61 , 46.36 195.17 , 46.63 195.73 , 46.94 196.29 , 47.27 196.85 , 47.63 197.41 , 48.01 197.97 , 48.42 198.53 , 48.85 199.09 , 49.31 199.65 , 49.79 200.21 , 50.30 200.77 , 50.84 201.33 , 51.39 201.89 , 51.98 202.45 , 52.58 203.01 , 53.21 203.57 , 53.86 204.13 , 54.54 204.69 , 55.24 205.25 , 55.96 205.81 , 56.71 206.37 , 57.47 206.93 , 58.26 207.49 , 59.07 208.05 , 59.90 208.61 , 60.75 209.17 , 61.62 209.73 , 62.51 210.29 , 63.43 210.85 , 64.36 211.41 , 65.31 211.97 , 66.28 212.53 , 67.26 213.09 , 68.27 213.65 , 69.29 214.21 , 70.33 214.77 , 71.39 215.33 , 72.46 215.89 , 73.55 216.45 , 74.66 217.01 , 75.78 217.57 , 76.91 218.13 , 78.06 218.69 , 79.22 219.25 , 80.40 219.81 , 81.59 220.37 , 82.79 220.93 , 84.01 221.49 , 85.24 222.05 , 86.47 222.61 , 87.72 223.17 , 88.98 223.73 , 90.25 224.29 , 91.53 224.85 , 92.82 225.41 , 94.12 225.97 , 95.43 226.53 , 96.74 227.09 , 98.06 227.65 , 99.39 228.21 , 100.73 228.77 , 102.07 229.33 , 103.42 229.89 , 104.77 230.45 , 106.13 231.01 , 107.49 231.57 , 108.86 232.13 , 110.23 232.69 , 111.60 233.25 , 112.98 233.81 , 114.36 234.37 , 115.74 234.93 , 117.12 235.49 , 118.51 236.05 , 119.89 236.61 , 121.28 237.17 , 122.66 237.73 , 124.05 238.29 , 125.43 238.85 , 126.82 239.41 , 128.20 239.97 , 129.58 240.53 , 130.96 241.09 , 132.34 241.65 , 133.71 242.21 , 135.08 242.77 , 136.45 243.33 , 137.81 243.89 , 139.17 244.45 , 140.53 245.01 , 141.88 245.57 , 143.22 246.13 , 144.56 246.69 , 145.89 247.25 , 147.22 247.81 , 148.54 248.37 , 149.86 248.93 , 151.17 249.49 , 152.47 250.05 , 153.76 250.61 , 155.05 251.17 , 156.33 251.73 , 157.60 252.29 , 158.87 252.85 , 160.12 253.41 , 161.37 253.97 , 162.60 254.53 , 163.83 255.09 , 165.05 255.65 , 166.26 256.21 , 167.46 256.77 , 168.65 257.33 , 169.83 257.89 , 171.00 258.45 , 172.16 259.01 , 173.31 259.57 , 174.45 260.13 , 175.58 260.69 , 176.70 261.25 , 177.81 261.81 , 178.90 262.37 , 179.99 262.93 , 181.06 263.49 , 182.13 264.05 , 183.18 264.61 , 184.22 265.17 , 185.25 265.73 , 186.26 266.29 , 187.27 266.85 , 188.26 267.41 , 189.24 267.97 , 190.21 268.53 , 191.17 269.09 , 192.12 269.66 , 193.05 270.22 , 193.97 270.78 , 194.88 271.34 , 195.78 271.90 , 196.67 272.46 , 197.54 273.02 , 198.41 273.58 , 199.26 274.14 , 200.10 274.70 , 200.92 275.26 , 201.74 275.82 , 202.54 276.38 , 203.33 276.94 , 204.11 277.50 , 204.88 278.06 , 205.64 278.62 , 206.38 279.18 , 207.12 279.74 , 207.84 280.30 , 208.55 280.86 , 209.24 281.42 , 209.93 281.98 , 210.61 282.54 , 211.27 283.10 , 211.93 283.66 , 212.57 284.22 , 213.20 284.78 , 213.82 285.34 , 214.43 285.90 , 215.03 286.46 , 215.61 287.02 , 216.19 287.58 , 216.76 288.14 , 217.32 288.70 , 217.86 289.26 , 218.40 289.82 , 218.92 290.38 , 219.44 290.94 , 219.95 291.50 , 220.44 292.06 , 220.93 292.62 , 221.41 293.18 , 221.87 293.74 , 222.33 294.30 , 222.78 294.86 , 223.22 295.42 , 223.65 295.98 , 224.08 296.54 , 224.49 297.10 , 224.89 297.66 , 225.29 298.22 , 225.68 298.78 , 226.06 299.34 , 226.43 299.90 , 226.79 300.46 , 227.15 301.02 , 227.49 301.58 , 227.83 302.14 , 228.17 302.70 , 228.49 303.26 , 228.81 303.82 , 229.12 304.38 , 229.42 304.94 , 229.72 305.50 , 230.00 306.06 , 230.29 306.62 , 230.56 307.18 , 230.83 307.74 , 231.09 308.30 , 231.35 308.86 , 231.60 309.42 , 231.84 309.98 , 232.08 310.54 , 232.31 311.10 , 232.54 311.66 , 232.76 312.22 , 232.98 312.78 , 233.19 313.34 , 233.39 313.90 , 233.59 314.46 , 233.78 315.02 , 233.97 315.58 , 234.15 316.14 , 234.33 316.70 , 234.51 317.26 , 234.68 317.82 , 234.84 318.38 , 235.00 318.94 , 235.16 319.50 , 235.31 320.06 , 235.46 320.62 , 235.60 321.18 , 235.74 321.74 , 235.88 322.30 , 236.01 322.86 , 236.14 323.42 , 236.27 323.98 , 236.39 324.54 , 236.50 325.10 , 236.62 325.66 , 236.73 326.22 , 236.84 326.78 , 236.94 327.34 , 237.05 327.90 , 237.14 328.46 , 237.24 329.02 , 237.33 329.58 , 237.42 330.14 , 237.51 330.70 , 237.60 331.26 , 237.68 331.82 , 237.76 332.38 , 237.83 " style="stroke-width:1;stroke:#000000;fill:#000000;stroke-opacity:1.000000;fill-opacity:0.000000"/>
<text transform="translate(110.01,22.08)"  style="font-size:12" >Graphic diagnostic for state 1</text>
<text transform="translate(133.77,271.58)"  style="font-size:10" >Estimated Density (green) </text>
<text transform="translate(136.20,279.91)"  style="font-size:10" > Normal density (black)</text>
<text transform="translate(189.01,288.25)"  style="font-size:10" ></text>
<polygon points="361.35 , 289.08 722.70 , 289.08 722.70 , 0.00 361.35 , 0.00 " style="stroke-width:1;stroke:#FFFFFF;fill:#FFFFFF;stroke-opacity:0.000000;fill-opacity:1.000000" />
<polyline points="406.99 , 238.71 407.55 , 238.69 408.11 , 238.65 408.67 , 238.62 409.23 , 238.57 409.79 , 238.52 410.35 , 238.46 410.91 , 238.40 411.48 , 238.32 412.04 , 238.24 412.60 , 238.14 413.16 , 238.03 413.72 , 237.92 414.28 , 237.79 414.84 , 237.65 415.40 , 237.49 415.96 , 237.33 416.53 , 237.15 417.09 , 236.96 417.65 , 236.76 418.21 , 236.55 418.77 , 236.33 419.33 , 236.10 419.89 , 235.86 420.45 , 235.61 421.01 , 235.36 421.58 , 235.09 422.14 , 234.82 422.70 , 234.55 423.26 , 234.27 423.82 , 234.00 424.38 , 233.71 424.94 , 233.43 425.50 , 233.15 426.07 , 232.86 426.63 , 232.58 427.19 , 232.30 427.75 , 232.02 428.31 , 231.74 428.87 , 231.46 429.43 , 231.18 429.99 , 230.90 430.55 , 230.63 431.12 , 230.35 431.68 , 230.07 432.24 , 229.79 432.80 , 229.51 433.36 , 229.22 433.92 , 228.94 434.48 , 228.64 435.04 , 228.34 435.60 , 228.03 436.17 , 227.71 436.73 , 227.39 437.29 , 227.05 437.85 , 226.71 438.41 , 226.35 438.97 , 225.99 439.53 , 225.61 440.09 , 225.22 440.65 , 224.82 441.22 , 224.41 441.78 , 223.98 442.34 , 223.55 442.90 , 223.11 443.46 , 222.65 444.02 , 222.19 444.58 , 221.71 445.14 , 221.23 445.71 , 220.74 446.27 , 220.24 446.83 , 219.73 447.39 , 219.22 447.95 , 218.70 448.51 , 218.17 449.07 , 217.64 449.63 , 217.10 450.19 , 216.55 450.76 , 216.00 451.32 , 215.44 451.88 , 214.87 452.44 , 214.30 453.00 , 213.72 453.56 , 213.14 454.12 , 212.54 454.68 , 211.95 455.24 , 211.34 455.81 , 210.73 456.37 , 210.12 456.93 , 209.50 457.49 , 208.88 458.05 , 208.26 458.61 , 207.64 459.17 , 207.02 459.73 , 206.40 460.29 , 205.79 460.86 , 205.18 461.42 , 204.59 461.98 , 204.00 462.54 , 203.43 463.10 , 202.87 463.66 , 202.32 464.22 , 201.80 464.78 , 201.29 465.35 , 200.80 465.91 , 200.32 466.47 , 199.87 467.03 , 199.43 467.59 , 199.00 468.15 , 198.59 468.71 , 198.19 469.27 , 197.80 469.83 , 197.41 470.40 , 197.02 470.96 , 196.63 471.52 , 196.23 472.08 , 195.82 472.64 , 195.40 473.20 , 194.95 473.76 , 194.49 474.32 , 194.00 474.88 , 193.47 475.45 , 192.91 476.01 , 192.31 476.57 , 191.68 477.13 , 191.01 477.69 , 190.29 478.25 , 189.53 478.81 , 188.72 479.37 , 187.88 479.93 , 187.00 480.50 , 186.08 481.06 , 185.11 481.62 , 184.12 482.18 , 183.09 482.74 , 182.03 483.30 , 180.95 483.86 , 179.85 484.42 , 178.72 484.99 , 177.58 485.55 , 176.42 486.11 , 175.25 486.67 , 174.08 487.23 , 172.90 487.79 , 171.72 488.35 , 170.54 488.91 , 169.35 489.47 , 168.17 490.04 , 166.99 490.60 , 165.82 491.16 , 164.64 491.72 , 163.47 492.28 , 162.30 492.84 , 161.14 493.40 , 159.97 493.96 , 158.80 494.52 , 157.64 495.09 , 156.47 495.65 , 155.30 496.21 , 154.12 496.77 , 152.94 497.33 , 151.75 497.89 , 150.56 498.45 , 149.36 499.01 , 148.15 499.57 , 146.94 500.14 , 145.71 500.70 , 144.48 501.26 , 143.24 501.82 , 141.99 502.38 , 140.73 502.94 , 139.47 503.50 , 138.20 504.06 , 136.91 504.63 , 135.62 505.19 , 134.32 505.75 , 133.02 506.31 , 131.70 506.87 , 130.37 507.43 , 129.03 507.99 , 127.68 508.55 , 126.32 509.11 , 124.95 509.68 , 123.56 510.24 , 122.16 510.80 , 120.74 511.36 , 119.31 511.92 , 117.86 512.48 , 116.40 513.04 , 114.93 513.60 , 113.44 514.16 , 111.95 514.73 , 110.45 515.29 , 108.94 515.85 , 107.43 516.41 , 105.92 516.97 , 104.42 517.53 , 102.92 518.09 , 101.44 518.65 , 99.98 519.21 , 98.53 519.78 , 97.11 520.34 , 95.71 520.90 , 94.34 521.46 , 93.00 522.02 , 91.69 522.58 , 90.40 523.14 , 89.15 523.70 , 87.92 524.27 , 86.72 524.83 , 85.53 525.39 , 84.37 525.95 , 83.21 526.51 , 82.07 527.07 , 80.93 527.63 , 79.78 528.19 , 78.63 528.75 , 77.46 529.32 , 76.28 529.88 , 75.08 530.44 , 73.85 531.00 , 72.60 531.56 , 71.32 532.12 , 70.02 532.68 , 68.70 533.24 , 67.35 533.80 , 65.98 534.37 , 64.60 534.93 , 63.21 535.49 , 61.81 536.05 , 60.42 536.61 , 59.04 537.17 , 57.67 537.73 , 56.33 538.29 , 55.02 538.85 , 53.74 539.42 , 52.51 539.98 , 51.33 540.54 , 50.20 541.10 , 49.15 541.66 , 48.15 542.22 , 47.23 542.78 , 46.37 543.34 , 45.59 543.91 , 44.88 544.47 , 44.26 545.03 , 43.71 545.59 , 43.24 546.15 , 42.85 546.71 , 42.52 547.27 , 42.28 547.83 , 42.13 548.39 , 42.05 548.96 , 42.03 549.52 , 42.09 550.08 , 42.22 550.64 , 42.43 551.20 , 42.72 551.76 , 43.08 552.32 , 43.50 552.88 , 43.99 553.44 , 44.54 554.01 , 45.17 554.57 , 45.87 555.13 , 46.63 555.69 , 47.44 556.25 , 48.31 556.81 , 49.23 557.37 , 50.21 557.93 , 51.23 558.49 , 52.29 559.06 , 53.38 559.62 , 54.50 560.18 , 55.65 560.74 , 56.81 561.30 , 57.99 561.86 , 59.18 562.42 , 60.38 562.98 , 61.57 563.55 , 62.77 564.11 , 63.95 564.67 , 65.13 565.23 , 66.29 565.79 , 67.45 566.35 , 68.59 566.91 , 69.72 567.47 , 70.84 568.03 , 71.96 568.60 , 73.06 569.16 , 74.16 569.72 , 75.26 570.28 , 76.36 570.84 , 77.47 571.40 , 78.58 571.96 , 79.70 572.52 , 80.84 573.08 , 81.99 573.65 , 83.16 574.21 , 84.35 574.77 , 85.56 575.33 , 86.79 575.89 , 88.04 576.45 , 89.31 577.01 , 90.60 577.57 , 91.91 578.13 , 93.23 578.70 , 94.56 579.26 , 95.90 579.82 , 97.25 580.38 , 98.59 580.94 , 99.94 581.50 , 101.28 582.06 , 102.61 582.62 , 103.93 583.19 , 105.24 583.75 , 106.53 584.31 , 107.81 584.87 , 109.06 585.43 , 110.30 585.99 , 111.52 586.55 , 112.72 587.11 , 113.90 587.67 , 115.07 588.24 , 116.22 588.80 , 117.35 589.36 , 118.47 589.92 , 119.59 590.48 , 120.69 591.04 , 121.78 591.60 , 122.87 592.16 , 123.95 592.72 , 125.03 593.29 , 126.11 593.85 , 127.17 594.41 , 128.24 594.97 , 129.29 595.53 , 130.35 596.09 , 131.39 596.65 , 132.43 597.21 , 133.45 597.77 , 134.47 598.34 , 135.47 598.90 , 136.46 599.46 , 137.44 600.02 , 138.40 600.58 , 139.35 601.14 , 140.28 601.70 , 141.20 602.26 , 142.12 602.83 , 143.02 603.39 , 143.91 603.95 , 144.80 604.51 , 145.68 605.07 , 146.57 605.63 , 147.46 606.19 , 148.36 606.75 , 149.26 607.31 , 150.18 607.88 , 151.12 608.44 , 152.07 609.00 , 153.04 609.56 , 154.04 610.12 , 155.05 610.68 , 156.09 611.24 , 157.16 611.80 , 158.26 612.36 , 159.37 612.93 , 160.51 613.49 , 161.67 614.05 , 162.85 614.61 , 164.06 615.17 , 165.28 615.73 , 166.51 616.29 , 167.75 616.85 , 169.01 617.41 , 170.27 617.98 , 171.54 618.54 , 172.81 619.10 , 174.08 619.66 , 175.34 620.22 , 176.60 620.78 , 177.85 621.34 , 179.09 621.90 , 180.32 622.47 , 181.54 623.03 , 182.74 623.59 , 183.92 624.15 , 185.08 624.71 , 186.23 625.27 , 187.36 625.83 , 188.46 626.39 , 189.55 626.95 , 190.61 627.52 , 191.66 628.08 , 192.68 628.64 , 193.68 629.20 , 194.67 629.76 , 195.63 630.32 , 196.58 630.88 , 197.51 631.44 , 198.43 632.00 , 199.34 632.57 , 200.23 633.13 , 201.12 633.69 , 201.99 634.25 , 202.86 634.81 , 203.72 635.37 , 204.57 635.93 , 205.42 636.49 , 206.27 637.05 , 207.11 637.62 , 207.94 638.18 , 208.77 638.74 , 209.59 639.30 , 210.41 639.86 , 211.22 640.42 , 212.01 640.98 , 212.80 641.54 , 213.57 642.11 , 214.33 642.67 , 215.07 643.23 , 215.80 643.79 , 216.50 644.35 , 217.19 644.91 , 217.86 645.47 , 218.51 646.03 , 219.13 646.59 , 219.74 647.16 , 220.32 647.72 , 220.88 648.28 , 221.41 648.84 , 221.93 649.40 , 222.42 649.96 , 222.90 650.52 , 223.35 651.08 , 223.78 651.64 , 224.20 652.21 , 224.59 652.77 , 224.97 653.33 , 225.33 653.89 , 225.68 654.45 , 226.00 655.01 , 226.32 655.57 , 226.62 656.13 , 226.90 656.69 , 227.18 657.26 , 227.44 657.82 , 227.69 658.38 , 227.93 658.94 , 228.16 659.50 , 228.38 660.06 , 228.60 660.62 , 228.81 661.18 , 229.02 661.75 , 229.23 662.31 , 229.43 662.87 , 229.64 663.43 , 229.84 663.99 , 230.05 664.55 , 230.25 665.11 , 230.46 665.67 , 230.67 666.23 , 230.88 666.80 , 231.09 667.36 , 231.31 667.92 , 231.52 668.48 , 231.74 669.04 , 231.96 669.60 , 232.17 670.16 , 232.39 670.72 , 232.60 671.28 , 232.81 671.85 , 233.01 672.41 , 233.21 672.97 , 233.40 673.53 , 233.59 674.09 , 233.77 674.65 , 233.93 675.21 , 234.09 675.77 , 234.25 676.33 , 234.39 676.90 , 234.52 677.46 , 234.65 678.02 , 234.76 678.58 , 234.87 679.14 , 234.98 679.70 , 235.07 680.26 , 235.16 680.82 , 235.25 681.39 , 235.33 681.95 , 235.41 682.51 , 235.49 683.07 , 235.56 683.63 , 235.64 684.19 , 235.72 684.75 , 235.79 685.31 , 235.87 685.87 , 235.96 686.44 , 236.04 687.00 , 236.13 687.56 , 236.22 688.12 , 236.32 688.68 , 236.42 689.24 , 236.52 689.80 , 236.63 690.36 , 236.74 690.92 , 236.85 691.49 , 236.97 692.05 , 237.09 692.61 , 237.21 693.17 , 237.33 693.73 , 237.45 " style="stroke-width:2;stroke:#00FF00;fill:#000000;stroke-opacity:1.000000;fill-opacity:0.000000"/>
<line x1="472.08" y1="246.58" x2="627.60" y2="246.58" style="stroke-width:1;stroke:#000000;fill:#000000;stroke-opacity:1.000000;fill-opacity:0.000000"/>
<line x1="472.08" y1="246.58" x2="472.08" y2="250.75" style="stroke-width:1;stroke:#000000;fill:#000000;stroke-opacity:1.000000;fill-opacity:0.000000"/>
<line x1="549.84" y1="246.58" x2="549.84" y2="250.75" style="stroke-width:1;stroke:#000000;fill:#000000;stroke-opacity:1.000000;fill-opacity:0.000000"/>
<line x1="627.60" y1="246.58" x2="627.60" y2="250.75" style="stroke-width:1;stroke:#000000;fill:#000000;stroke-opacity:1.000000;fill-opacity:0.000000"/>
<text transform="translate(460.47,263.25)"  style="font-size:10" >-0.02</text>
<text transform="translate(540.06,263.25)"  style="font-size:10" >0.00</text>
<text transform="translate(617.82,263.25)"  style="font-size:10" >0.02</text>
<line x1="395.52" y1="240.89" x2="395.52" y2="45.24" style="stroke-width:1;stroke:#000000;fill:#000000;stroke-opacity:1.000000;fill-opacity:0.000000"/>
<line x1="395.52" y1="240.89" x2="391.35" y2="240.89" style="stroke-width:1;stroke:#000000;fill:#000000;stroke-opacity:1.000000;fill-opacity:0.000000"/>
<line x1="395.52" y1="212.94" x2="391.35" y2="212.94" style="stroke-width:1;stroke:#000000;fill:#000000;stroke-opacity:1.000000;fill-opacity:0.000000"/>
<line x1="395.52" y1="184.99" x2="391.35" y2="184.99" style="stroke-width:1;stroke:#000000;fill:#000000;stroke-opacity:1.000000;fill-opacity:0.000000"/>
<line x1="395.52" y1="157.04" x2="391.35" y2="157.04" style="stroke-width:1;stroke:#000000;fill:#000000;stroke-opacity:1.000000;fill-opacity:0.000000"/>
<line x1="395.52" y1="129.09" x2="391.35" y2="129.09" style="stroke-width:1;stroke:#000000;fill:#000000;stroke-opacity:1.000000;fill-opacity:0.000000"/>
<line x1="395.52" y1="101.14" x2="391.35" y2="101.14" style="stroke-width:1;stroke:#000000;fill:#000000;stroke-opacity:1.000000;fill-opacity:0.000000"/>
<line x1="395.52" y1="73.19" x2="391.35" y2="73.19" style="stroke-width:1;stroke:#000000;fill:#000000;stroke-opacity:1.000000;fill-opacity:0.000000"/>
<line x1="395.52" y1="45.24" x2="391.35" y2="45.24" style="stroke-width:1;stroke:#000000;fill:#000000;stroke-opacity:1.000000;fill-opacity:0.000000"/>
<text transform="translate(387.18,243.64) rotate(-90)"  style="font-size:10" >0</text>
<text transform="translate(387.18,215.69) rotate(-90)"  style="font-size:10" >5</text>
<text transform="translate(387.18,190.49) rotate(-90)"  style="font-size:10" >10</text>
<text transform="translate(387.18,162.54) rotate(-90)"  style="font-size:10" >15</text>
<text transform="translate(387.18,134.59) rotate(-90)"  style="font-size:10" >20</text>
<text transform="translate(387.18,106.64) rotate(-90)"  style="font-size:10" >25</text>
<text transform="translate(387.18,78.69) rotate(-90)"  style="font-size:10" >30</text>
<text transform="translate(387.18,50.74) rotate(-90)"  style="font-size:10" >35</text>
<polyline points="395.52 , 246.58 705.20 , 246.58 705.20 , 34.17 395.52 , 34.17 395.52 , 246.58 " style="stroke-width:1;stroke:#000000;fill:#000000;stroke-opacity:1.000000;fill-opacity:0.000000"/>
<text transform="translate(370.52,157.61) rotate(-90)"  style="font-size:10" >Density</text>
<polyline points="406.99 , 238.88 407.55 , 238.80 408.11 , 238.73 408.67 , 238.65 409.23 , 238.57 409.79 , 238.49 410.35 , 238.41 410.91 , 238.32 411.47 , 238.23 412.03 , 238.14 412.59 , 238.05 413.15 , 237.95 413.71 , 237.85 414.27 , 237.75 414.83 , 237.64 415.39 , 237.53 415.95 , 237.42 416.51 , 237.30 417.07 , 237.18 417.63 , 237.06 418.19 , 236.93 418.75 , 236.80 419.31 , 236.67 419.87 , 236.53 420.43 , 236.39 420.99 , 236.24 421.55 , 236.09 422.11 , 235.94 422.67 , 235.78 423.23 , 235.62 423.79 , 235.45 424.35 , 235.28 424.91 , 235.11 425.47 , 234.92 426.03 , 234.74 426.59 , 234.55 427.15 , 234.35 427.71 , 234.15 428.27 , 233.95 428.83 , 233.74 429.39 , 233.52 429.95 , 233.30 430.51 , 233.07 431.07 , 232.84 431.63 , 232.60 432.19 , 232.36 432.75 , 232.11 433.31 , 231.85 433.87 , 231.59 434.43 , 231.32 434.99 , 231.05 435.55 , 230.76 436.11 , 230.48 436.67 , 230.18 437.23 , 229.88 437.79 , 229.57 438.35 , 229.25 438.91 , 228.93 439.47 , 228.60 440.03 , 228.26 440.59 , 227.92 441.15 , 227.56 441.71 , 227.20 442.27 , 226.83 442.83 , 226.46 443.39 , 226.07 443.95 , 225.68 444.51 , 225.28 445.07 , 224.87 445.63 , 224.45 446.19 , 224.03 446.75 , 223.59 447.31 , 223.15 447.87 , 222.69 448.43 , 222.23 448.99 , 221.76 449.55 , 221.28 450.11 , 220.79 450.67 , 220.29 451.23 , 219.78 451.79 , 219.27 452.35 , 218.74 452.91 , 218.20 453.47 , 217.65 454.03 , 217.10 454.59 , 216.53 455.15 , 215.95 455.71 , 215.36 456.27 , 214.77 456.83 , 214.16 457.39 , 213.54 457.95 , 212.91 458.51 , 212.27 459.07 , 211.62 459.63 , 210.96 460.19 , 210.29 460.75 , 209.61 461.31 , 208.92 461.87 , 208.21 462.43 , 207.50 462.99 , 206.77 463.55 , 206.04 464.11 , 205.29 464.67 , 204.53 465.23 , 203.76 465.79 , 202.98 466.35 , 202.19 466.91 , 201.39 467.47 , 200.57 468.03 , 199.75 468.59 , 198.91 469.15 , 198.06 469.71 , 197.21 470.27 , 196.34 470.83 , 195.46 471.39 , 194.56 471.95 , 193.66 472.51 , 192.75 473.07 , 191.82 473.63 , 190.89 474.19 , 189.94 474.75 , 188.98 475.31 , 188.02 475.87 , 187.04 476.43 , 186.05 476.99 , 185.05 477.55 , 184.04 478.11 , 183.02 478.67 , 181.99 479.23 , 180.95 479.79 , 179.90 480.35 , 178.84 480.91 , 177.77 481.47 , 176.69 482.03 , 175.60 482.59 , 174.50 483.15 , 173.39 483.71 , 172.28 484.27 , 171.15 484.83 , 170.02 485.39 , 168.87 485.95 , 167.72 486.51 , 166.56 487.07 , 165.39 487.63 , 164.22 488.19 , 163.04 488.75 , 161.85 489.31 , 160.65 489.87 , 159.44 490.43 , 158.23 490.99 , 157.01 491.55 , 155.79 492.11 , 154.56 492.67 , 153.32 493.23 , 152.08 493.79 , 150.84 494.35 , 149.58 494.91 , 148.33 495.47 , 147.07 496.03 , 145.80 496.59 , 144.53 497.15 , 143.26 497.71 , 141.99 498.27 , 140.71 498.83 , 139.43 499.39 , 138.15 499.95 , 136.86 500.51 , 135.57 501.07 , 134.29 501.63 , 133.00 502.19 , 131.71 502.75 , 130.42 503.31 , 129.13 503.87 , 127.84 504.43 , 126.55 504.99 , 125.26 505.55 , 123.98 506.11 , 122.70 506.67 , 121.42 507.23 , 120.14 507.79 , 118.86 508.35 , 117.59 508.91 , 116.32 509.47 , 115.06 510.03 , 113.80 510.60 , 112.54 511.16 , 111.30 511.72 , 110.05 512.28 , 108.82 512.84 , 107.59 513.40 , 106.36 513.96 , 105.15 514.52 , 103.94 515.08 , 102.74 515.64 , 101.55 516.20 , 100.37 516.76 , 99.20 517.32 , 98.03 517.88 , 96.88 518.44 , 95.74 519.00 , 94.61 519.56 , 93.49 520.12 , 92.38 520.68 , 91.29 521.24 , 90.20 521.80 , 89.13 522.36 , 88.08 522.92 , 87.04 523.48 , 86.01 524.04 , 84.99 524.60 , 84.00 525.16 , 83.01 525.72 , 82.04 526.28 , 81.09 526.84 , 80.16 527.40 , 79.24 527.96 , 78.34 528.52 , 77.45 529.08 , 76.59 529.64 , 75.74 530.20 , 74.91 530.76 , 74.10 531.32 , 73.31 531.88 , 72.53 532.44 , 71.78 533.00 , 71.05 533.56 , 70.33 534.12 , 69.64 534.68 , 68.97 535.24 , 68.32 535.80 , 67.69 536.36 , 67.08 536.92 , 66.50 537.48 , 65.93 538.04 , 65.39 538.60 , 64.87 539.16 , 64.38 539.72 , 63.90 540.28 , 63.45 540.84 , 63.03 541.40 , 62.62 541.96 , 62.24 542.52 , 61.89 543.08 , 61.55 543.64 , 61.25 544.20 , 60.96 544.76 , 60.70 545.32 , 60.47 545.88 , 60.26 546.44 , 60.07 547.00 , 59.91 547.56 , 59.77 548.12 , 59.66 548.68 , 59.57 549.24 , 59.51 549.80 , 59.47 550.36 , 59.46 550.92 , 59.47 551.48 , 59.51 552.04 , 59.57 552.60 , 59.66 553.16 , 59.77 553.72 , 59.91 554.28 , 60.07 554.84 , 60.26 555.40 , 60.47 555.96 , 60.70 556.52 , 60.96 557.08 , 61.25 557.64 , 61.55 558.20 , 61.89 558.76 , 62.24 559.32 , 62.62 559.88 , 63.03 560.44 , 63.45 561.00 , 63.90 561.56 , 64.38 562.12 , 64.87 562.68 , 65.39 563.24 , 65.93 563.80 , 66.50 564.36 , 67.08 564.92 , 67.69 565.48 , 68.32 566.04 , 68.97 566.60 , 69.64 567.16 , 70.33 567.72 , 71.05 568.28 , 71.78 568.84 , 72.53 569.40 , 73.31 569.96 , 74.10 570.52 , 74.91 571.08 , 75.74 571.64 , 76.59 572.20 , 77.45 572.76 , 78.34 573.32 , 79.24 573.88 , 80.16 574.44 , 81.09 575.00 , 82.04 575.56 , 83.01 576.12 , 84.00 576.68 , 84.99 577.24 , 86.01 577.80 , 87.04 578.36 , 88.08 578.92 , 89.13 579.48 , 90.20 580.04 , 91.29 580.60 , 92.38 581.16 , 93.49 581.72 , 94.61 582.28 , 95.74 582.84 , 96.88 583.40 , 98.03 583.96 , 99.20 584.52 , 100.37 585.08 , 101.55 585.64 , 102.74 586.20 , 103.94 586.76 , 105.15 587.32 , 106.36 587.88 , 107.59 588.44 , 108.82 589.00 , 110.05 589.56 , 111.30 590.12 , 112.54 590.68 , 113.80 591.24 , 115.06 591.80 , 116.32 592.36 , 117.59 592.92 , 118.86 593.48 , 120.14 594.04 , 121.42 594.60 , 122.70 595.16 , 123.98 595.72 , 125.26 596.28 , 126.55 596.84 , 127.84 597.40 , 129.13 597.96 , 130.42 598.52 , 131.71 599.08 , 133.00 599.64 , 134.29 600.20 , 135.57 600.76 , 136.86 601.32 , 138.15 601.88 , 139.43 602.44 , 140.71 603.00 , 141.99 603.56 , 143.26 604.12 , 144.53 604.68 , 145.80 605.24 , 147.07 605.80 , 148.33 606.36 , 149.58 606.92 , 150.84 607.48 , 152.08 608.04 , 153.32 608.60 , 154.56 609.16 , 155.79 609.72 , 157.01 610.28 , 158.23 610.84 , 159.44 611.40 , 160.65 611.96 , 161.85 612.52 , 163.04 613.08 , 164.22 613.64 , 165.39 614.20 , 166.56 614.76 , 167.72 615.32 , 168.87 615.88 , 170.02 616.44 , 171.15 617.00 , 172.28 617.56 , 173.39 618.12 , 174.50 618.68 , 175.60 619.24 , 176.69 619.80 , 177.77 620.36 , 178.84 620.92 , 179.90 621.48 , 180.95 622.04 , 181.99 622.60 , 183.02 623.16 , 184.04 623.72 , 185.05 624.28 , 186.05 624.84 , 187.04 625.40 , 188.02 625.96 , 188.98 626.52 , 189.94 627.08 , 190.89 627.64 , 191.82 628.20 , 192.75 628.76 , 193.66 629.32 , 194.56 629.88 , 195.46 630.44 , 196.34 631.01 , 197.21 631.57 , 198.06 632.13 , 198.91 632.69 , 199.75 633.25 , 200.57 633.81 , 201.39 634.37 , 202.19 634.93 , 202.98 635.49 , 203.76 636.05 , 204.53 636.61 , 205.29 637.17 , 206.04 637.73 , 206.77 638.29 , 207.50 638.85 , 208.21 639.41 , 208.92 639.97 , 209.61 640.53 , 210.29 641.09 , 210.96 641.65 , 211.62 642.21 , 212.27 642.77 , 212.91 643.33 , 213.54 643.89 , 214.16 644.45 , 214.77 645.01 , 215.36 645.57 , 215.95 646.13 , 216.53 646.69 , 217.10 647.25 , 217.65 647.81 , 218.20 648.37 , 218.74 648.93 , 219.27 649.49 , 219.78 650.05 , 220.29 650.61 , 220.79 651.17 , 221.28 651.73 , 221.76 652.29 , 222.23 652.85 , 222.69 653.41 , 223.15 653.97 , 223.59 654.53 , 224.03 655.09 , 224.45 655.65 , 224.87 656.21 , 225.28 656.77 , 225.68 657.33 , 226.07 657.89 , 226.46 658.45 , 226.83 659.01 , 227.20 659.57 , 227.56 660.13 , 227.92 660.69 , 228.26 661.25 , 228.60 661.81 , 228.93 662.37 , 229.25 662.93 , 229.57 663.49 , 229.88 664.05 , 230.18 664.61 , 230.48 665.17 , 230.76 665.73 , 231.05 666.29 , 231.32 666.85 , 231.59 667.41 , 231.85 667.97 , 232.11 668.53 , 232.36 669.09 , 232.60 669.65 , 232.84 670.21 , 233.07 670.77 , 233.30 671.33 , 233.52 671.89 , 233.74 672.45 , 233.95 673.01 , 234.15 673.57 , 234.35 674.13 , 234.55 674.69 , 234.74 675.25 , 234.92 675.81 , 235.11 676.37 , 235.28 676.93 , 235.45 677.49 , 235.62 678.05 , 235.78 678.61 , 235.94 679.17 , 236.09 679.73 , 236.24 680.29 , 236.39 680.85 , 236.53 681.41 , 236.67 681.97 , 236.80 682.53 , 236.93 683.09 , 237.06 683.65 , 237.18 684.21 , 237.30 684.77 , 237.42 685.33 , 237.53 685.89 , 237.64 686.45 , 237.75 687.01 , 237.85 687.57 , 237.95 688.13 , 238.05 688.69 , 238.14 689.25 , 238.23 689.81 , 238.32 690.37 , 238.41 690.93 , 238.49 691.49 , 238.57 692.05 , 238.65 692.61 , 238.73 693.17 , 238.80 693.73 , 238.88 " style="stroke-width:1;stroke:#000000;fill:#000000;stroke-opacity:1.000000;fill-opacity:0.000000"/>
<text transform="translate(471.36,22.08)"  style="font-size:12" >Graphic diagnostic for state 2</text>
<text transform="translate(495.12,271.58)"  style="font-size:10" >Estimated Density (green) </text>
<text transform="translate(497.55,279.91)"  style="font-size:10" > Normal density (black)</text>
<text transform="translate(550.36,288.25)"  style="font-size:10" ></text>
<polygon points="0.00 , 578.16 361.35 , 578.16 361.35 , 289.08 0.00 , 289.08 " style="stroke-width:1;stroke:#FFFFFF;fill:#FFFFFF;stroke-opacity:0.000000;fill-opacity:1.000000" />
<polyline points="45.64 , 526.81 46.20 , 526.77 46.76 , 526.73 47.32 , 526.68 47.88 , 526.62 48.44 , 526.56 49.00 , 526.49 49.56 , 526.41 50.13 , 526.33 50.69 , 526.24 51.25 , 526.15 51.81 , 526.04 52.37 , 525.94 52.93 , 525.83 53.49 , 525.71 54.05 , 525.59 54.61 , 525.47 55.18 , 525.34 55.74 , 525.21 56.30 , 525.08 56.86 , 524.95 57.42 , 524.82 57.98 , 524.69 58.54 , 524.55 59.10 , 524.42 59.66 , 524.29 60.23 , 524.17 60.79 , 524.04 61.35 , 523.92 61.91 , 523.79 62.47 , 523.67 63.03 , 523.55 63.59 , 523.43 64.15 , 523.31 64.72 , 523.19 65.28 , 523.07 65.84 , 522.94 66.40 , 522.81 66.96 , 522.68 67.52 , 522.54 68.08 , 522.40 68.64 , 522.25 69.20 , 522.09 69.77 , 521.92 70.33 , 521.74 70.89 , 521.55 71.45 , 521.35 72.01 , 521.14 72.57 , 520.91 73.13 , 520.67 73.69 , 520.42 74.25 , 520.15 74.82 , 519.87 75.38 , 519.57 75.94 , 519.25 76.50 , 518.93 77.06 , 518.59 77.62 , 518.23 78.18 , 517.86 78.74 , 517.48 79.30 , 517.08 79.87 , 516.68 80.43 , 516.26 80.99 , 515.83 81.55 , 515.39 82.11 , 514.93 82.67 , 514.47 83.23 , 514.01 83.79 , 513.53 84.36 , 513.05 84.92 , 512.56 85.48 , 512.07 86.04 , 511.57 86.60 , 511.07 87.16 , 510.57 87.72 , 510.06 88.28 , 509.56 88.84 , 509.05 89.41 , 508.55 89.97 , 508.04 90.53 , 507.54 91.09 , 507.04 91.65 , 506.54 92.21 , 506.05 92.77 , 505.55 93.33 , 505.06 93.89 , 504.57 94.46 , 504.09 95.02 , 503.60 95.58 , 503.12 96.14 , 502.64 96.70 , 502.15 97.26 , 501.67 97.82 , 501.18 98.38 , 500.68 98.94 , 500.19 99.51 , 499.69 100.07 , 499.18 100.63 , 498.66 101.19 , 498.13 101.75 , 497.59 102.31 , 497.05 102.87 , 496.49 103.43 , 495.92 104.00 , 495.34 104.56 , 494.74 105.12 , 494.14 105.68 , 493.53 106.24 , 492.90 106.80 , 492.27 107.36 , 491.63 107.92 , 490.98 108.48 , 490.33 109.05 , 489.67 109.61 , 489.00 110.17 , 488.33 110.73 , 487.66 111.29 , 486.98 111.85 , 486.31 112.41 , 485.63 112.97 , 484.95 113.53 , 484.26 114.10 , 483.57 114.66 , 482.88 115.22 , 482.19 115.78 , 481.49 116.34 , 480.78 116.90 , 480.06 117.46 , 479.34 118.02 , 478.60 118.58 , 477.85 119.15 , 477.09 119.71 , 476.31 120.27 , 475.52 120.83 , 474.71 121.39 , 473.88 121.95 , 473.03 122.51 , 472.16 123.07 , 471.27 123.64 , 470.36 124.20 , 469.43 124.76 , 468.48 125.32 , 467.52 125.88 , 466.52 126.44 , 465.51 127.00 , 464.48 127.56 , 463.44 128.12 , 462.38 128.69 , 461.29 129.25 , 460.19 129.81 , 459.08 130.37 , 457.95 130.93 , 456.81 131.49 , 455.65 132.05 , 454.48 132.61 , 453.29 133.17 , 452.09 133.74 , 450.88 134.30 , 449.66 134.86 , 448.43 135.42 , 447.18 135.98 , 445.93 136.54 , 444.66 137.10 , 443.38 137.66 , 442.09 138.22 , 440.78 138.79 , 439.47 139.35 , 438.14 139.91 , 436.80 140.47 , 435.44 141.03 , 434.07 141.59 , 432.69 142.15 , 431.28 142.71 , 429.87 143.28 , 428.43 143.84 , 426.98 144.40 , 425.51 144.96 , 424.02 145.52 , 422.51 146.08 , 420.99 146.64 , 419.45 147.20 , 417.89 147.76 , 416.32 148.33 , 414.74 148.89 , 413.14 149.45 , 411.54 150.01 , 409.93 150.57 , 408.32 151.13 , 406.70 151.69 , 405.10 152.25 , 403.49 152.81 , 401.90 153.38 , 400.32 153.94 , 398.76 154.50 , 397.21 155.06 , 395.69 155.62 , 394.19 156.18 , 392.71 156.74 , 391.25 157.30 , 389.81 157.86 , 388.39 158.43 , 386.99 158.99 , 385.61 159.55 , 384.24 160.11 , 382.87 160.67 , 381.52 161.23 , 380.16 161.79 , 378.79 162.35 , 377.42 162.92 , 376.04 163.48 , 374.64 164.04 , 373.21 164.60 , 371.77 165.16 , 370.29 165.72 , 368.79 166.28 , 367.27 166.84 , 365.71 167.40 , 364.13 167.97 , 362.52 168.53 , 360.89 169.09 , 359.25 169.65 , 357.59 170.21 , 355.93 170.77 , 354.27 171.33 , 352.61 171.89 , 350.97 172.45 , 349.35 173.02 , 347.76 173.58 , 346.21 174.14 , 344.71 174.70 , 343.26 175.26 , 341.87 175.82 , 340.54 176.38 , 339.28 176.94 , 338.11 177.50 , 337.03 178.07 , 336.03 178.63 , 335.11 179.19 , 334.28 179.75 , 333.56 180.31 , 332.94 180.87 , 332.41 181.43 , 331.97 181.99 , 331.62 182.56 , 331.35 183.12 , 331.19 183.68 , 331.11 184.24 , 331.11 184.80 , 331.19 185.36 , 331.33 185.92 , 331.54 186.48 , 331.82 187.04 , 332.16 187.61 , 332.54 188.17 , 332.97 188.73 , 333.44 189.29 , 333.95 189.85 , 334.50 190.41 , 335.07 190.97 , 335.66 191.53 , 336.27 192.09 , 336.90 192.66 , 337.54 193.22 , 338.18 193.78 , 338.84 194.34 , 339.50 194.90 , 340.16 195.46 , 340.83 196.02 , 341.50 196.58 , 342.16 197.14 , 342.83 197.71 , 343.50 198.27 , 344.18 198.83 , 344.85 199.39 , 345.53 199.95 , 346.21 200.51 , 346.90 201.07 , 347.60 201.63 , 348.30 202.20 , 349.02 202.76 , 349.75 203.32 , 350.49 203.88 , 351.26 204.44 , 352.03 205.00 , 352.83 205.56 , 353.65 206.12 , 354.49 206.68 , 355.36 207.25 , 356.25 207.81 , 357.17 208.37 , 358.11 208.93 , 359.09 209.49 , 360.09 210.05 , 361.13 210.61 , 362.19 211.17 , 363.28 211.73 , 364.40 212.30 , 365.56 212.86 , 366.75 213.42 , 367.96 213.98 , 369.20 214.54 , 370.47 215.10 , 371.77 215.66 , 373.09 216.22 , 374.44 216.78 , 375.81 217.35 , 377.19 217.91 , 378.60 218.47 , 380.03 219.03 , 381.46 219.59 , 382.91 220.15 , 384.37 220.71 , 385.83 221.27 , 387.29 221.84 , 388.75 222.40 , 390.20 222.96 , 391.65 223.52 , 393.09 224.08 , 394.52 224.64 , 395.92 225.20 , 397.31 225.76 , 398.68 226.32 , 400.04 226.89 , 401.37 227.45 , 402.67 228.01 , 403.95 228.57 , 405.21 229.13 , 406.45 229.69 , 407.67 230.25 , 408.87 230.81 , 410.06 231.37 , 411.23 231.94 , 412.39 232.50 , 413.54 233.06 , 414.69 233.62 , 415.84 234.18 , 416.99 234.74 , 418.15 235.30 , 419.32 235.86 , 420.51 236.42 , 421.71 236.99 , 422.93 237.55 , 424.17 238.11 , 425.44 238.67 , 426.73 239.23 , 428.04 239.79 , 429.38 240.35 , 430.74 240.91 , 432.13 241.48 , 433.53 242.04 , 434.96 242.60 , 436.39 243.16 , 437.84 243.72 , 439.30 244.28 , 440.77 244.84 , 442.23 245.40 , 443.69 245.96 , 445.15 246.53 , 446.59 247.09 , 448.02 247.65 , 449.44 248.21 , 450.83 248.77 , 452.21 249.33 , 453.56 249.89 , 454.89 250.45 , 456.19 251.01 , 457.46 251.58 , 458.72 252.14 , 459.95 252.70 , 461.17 253.26 , 462.36 253.82 , 463.54 254.38 , 464.70 254.94 , 465.85 255.50 , 466.99 256.06 , 468.13 256.63 , 469.26 257.19 , 470.39 257.75 , 471.52 258.31 , 472.65 258.87 , 473.78 259.43 , 474.91 259.99 , 476.05 260.55 , 477.19 261.12 , 478.33 261.68 , 479.48 262.24 , 480.62 262.80 , 481.77 263.36 , 482.91 263.92 , 484.05 264.48 , 485.18 265.04 , 486.30 265.60 , 487.41 266.17 , 488.51 266.73 , 489.59 267.29 , 490.65 267.85 , 491.70 268.41 , 492.73 268.97 , 493.74 269.53 , 494.72 270.09 , 495.68 270.65 , 496.62 271.22 , 497.54 271.78 , 498.43 272.34 , 499.29 272.90 , 500.13 273.46 , 500.95 274.02 , 501.74 274.58 , 502.51 275.14 , 503.26 275.70 , 503.98 276.27 , 504.67 276.83 , 505.35 277.39 , 506.00 277.95 , 506.64 278.51 , 507.24 279.07 , 507.83 279.63 , 508.39 280.19 , 508.93 280.76 , 509.46 281.32 , 509.96 281.88 , 510.44 282.44 , 510.91 283.00 , 511.35 283.56 , 511.78 284.12 , 512.19 284.68 , 512.59 285.24 , 512.96 285.81 , 513.33 286.37 , 513.68 286.93 , 514.01 287.49 , 514.34 288.05 , 514.65 288.61 , 514.94 289.17 , 515.23 289.73 , 515.51 290.29 , 515.78 290.86 , 516.03 291.42 , 516.28 291.98 , 516.52 292.54 , 516.76 293.10 , 516.98 293.66 , 517.21 294.22 , 517.42 294.78 , 517.63 295.34 , 517.83 295.91 , 518.03 296.47 , 518.23 297.03 , 518.42 297.59 , 518.62 298.15 , 518.81 298.71 , 519.00 299.27 , 519.19 299.83 , 519.38 300.40 , 519.57 300.96 , 519.76 301.52 , 519.95 302.08 , 520.15 302.64 , 520.35 303.20 , 520.55 303.76 , 520.75 304.32 , 520.95 304.88 , 521.15 305.45 , 521.36 306.01 , 521.57 306.57 , 521.77 307.13 , 521.98 307.69 , 522.18 308.25 , 522.38 308.81 , 522.58 309.37 , 522.78 309.93 , 522.97 310.50 , 523.16 311.06 , 523.34 311.62 , 523.52 312.18 , 523.70 312.74 , 523.87 313.30 , 524.03 313.86 , 524.19 314.42 , 524.34 314.98 , 524.49 315.55 , 524.63 316.11 , 524.77 316.67 , 524.90 317.23 , 525.03 317.79 , 525.16 318.35 , 525.28 318.91 , 525.40 319.47 , 525.52 320.04 , 525.63 320.60 , 525.75 321.16 , 525.86 321.72 , 525.97 322.28 , 526.08 322.84 , 526.19 323.40 , 526.30 323.96 , 526.41 324.52 , 526.51 325.09 , 526.62 325.65 , 526.72 326.21 , 526.83 326.77 , 526.93 327.33 , 527.03 327.89 , 527.13 328.45 , 527.22 329.01 , 527.32 329.57 , 527.40 330.14 , 527.49 330.70 , 527.57 331.26 , 527.65 331.82 , 527.72 332.38 , 527.79 " style="stroke-width:2;stroke:#00FF00;fill:#000000;stroke-opacity:1.000000;fill-opacity:0.000000"/>
<line x1="57.58" y1="535.66" x2="307.93" y2="535.66" style="stroke-width:1;stroke:#000000;fill:#000000;stroke-opacity:1.000000;fill-opacity:0.000000"/>
<line x1="57.58" y1="535.66" x2="57.58" y2="539.83" style="stroke-width:1;stroke:#000000;fill:#000000;stroke-opacity:1.000000;fill-opacity:0.000000"/>
<line x1="99.30" y1="535.66" x2="99.30" y2="539.83" style="stroke-width:1;stroke:#000000;fill:#000000;stroke-opacity:1.000000;fill-opacity:0.000000"/>
<line x1="141.03" y1="535.66" x2="141.03" y2="539.83" style="stroke-width:1;stroke:#000000;fill:#000000;stroke-opacity:1.000000;fill-opacity:0.000000"/>
<line x1="182.75" y1="535.66" x2="182.75" y2="539.83" style="stroke-width:1;stroke:#000000;fill:#000000;stroke-opacity:1.000000;fill-opacity:0.000000"/>
<line x1="224.48" y1="535.66" x2="224.48" y2="539.83" style="stroke-width:1;stroke:#000000;fill:#000000;stroke-opacity:1.000000;fill-opacity:0.000000"/>
<line x1="266.21" y1="535.66" x2="266.21" y2="539.83" style="stroke-width:1;stroke:#000000;fill:#000000;stroke-opacity:1.000000;fill-opacity:0.000000"/>
<line x1="307.93" y1="535.66" x2="307.93" y2="539.83" style="stroke-width:1;stroke:#000000;fill:#000000;stroke-opacity:1.000000;fill-opacity:0.000000"/>
<text transform="translate(43.21,552.33)"  style="font-size:10" >-0.015</text>
<text transform="translate(84.94,552.33)"  style="font-size:10" >-0.010</text>
<text transform="translate(126.67,552.33)"  style="font-size:10" >-0.005</text>
<text transform="translate(170.23,552.33)"  style="font-size:10" >0.000</text>
<text transform="translate(211.95,552.33)"  style="font-size:10" >0.005</text>
<text transform="translate(253.68,552.33)"  style="font-size:10" >0.010</text>
<text transform="translate(295.41,552.33)"  style="font-size:10" >0.015</text>
<line x1="34.17" y1="530.51" x2="34.17" y2="324.50" style="stroke-width:1;stroke:#000000;fill:#000000;stroke-opacity:1.000000;fill-opacity:0.000000"/>
<line x1="34.17" y1="530.51" x2="30.00" y2="530.51" style="stroke-width:1;stroke:#000000;fill:#000000;stroke-opacity:1.000000;fill-opacity:0.000000"/>
<line x1="34.17" y1="479.01" x2="30.00" y2="479.01" style="stroke-width:1;stroke:#000000;fill:#000000;stroke-opacity:1.000000;fill-opacity:0.000000"/>
<line x1="34.17" y1="427.51" x2="30.00" y2="427.51" style="stroke-width:1;stroke:#000000;fill:#000000;stroke-opacity:1.000000;fill-opacity:0.000000"/>
<line x1="34.17" y1="376.00" x2="30.00" y2="376.00" style="stroke-width:1;stroke:#000000;fill:#000000;stroke-opacity:1.000000;fill-opacity:0.000000"/>
<line x1="34.17" y1="324.50" x2="30.00" y2="324.50" style="stroke-width:1;stroke:#000000;fill:#000000;stroke-opacity:1.000000;fill-opacity:0.000000"/>
<text transform="translate(25.83,533.26) rotate(-90)"  style="font-size:10" >0</text>
<text transform="translate(25.83,484.51) rotate(-90)"  style="font-size:10" >20</text>
<text transform="translate(25.83,433.01) rotate(-90)"  style="font-size:10" >40</text>
<text transform="translate(25.83,381.50) rotate(-90)"  style="font-size:10" >60</text>
<text transform="translate(25.83,330.00) rotate(-90)"  style="font-size:10" >80</text>
<polyline points="34.17 , 535.66 343.85 , 535.66 343.85 , 323.25 34.17 , 323.25 34.17 , 535.66 " style="stroke-width:1;stroke:#000000;fill:#000000;stroke-opacity:1.000000;fill-opacity:0.000000"/>
<text transform="translate(9.17,446.69) rotate(-90)"  style="font-size:10" >Density</text>
<polyline points="45.64 , 528.52 46.20 , 528.44 46.76 , 528.37 47.32 , 528.30 47.88 , 528.22 48.44 , 528.14 49.00 , 528.05 49.56 , 527.97 50.12 , 527.88 50.68 , 527.79 51.24 , 527.70 51.80 , 527.60 52.36 , 527.50 52.92 , 527.40 53.48 , 527.29 54.04 , 527.18 54.60 , 527.07 55.16 , 526.96 55.72 , 526.84 56.28 , 526.72 56.84 , 526.59 57.40 , 526.46 57.96 , 526.33 58.52 , 526.19 59.08 , 526.05 59.64 , 525.91 60.20 , 525.76 60.76 , 525.61 61.32 , 525.45 61.88 , 525.29 62.44 , 525.13 63.00 , 524.96 63.56 , 524.79 64.12 , 524.61 64.68 , 524.43 65.24 , 524.24 65.80 , 524.04 66.36 , 523.85 66.92 , 523.64 67.48 , 523.44 68.04 , 523.22 68.60 , 523.00 69.16 , 522.78 69.72 , 522.55 70.28 , 522.31 70.84 , 522.07 71.40 , 521.82 71.96 , 521.57 72.52 , 521.31 73.08 , 521.05 73.64 , 520.77 74.20 , 520.49 74.76 , 520.21 75.32 , 519.92 75.88 , 519.62 76.44 , 519.31 77.00 , 519.00 77.56 , 518.68 78.12 , 518.35 78.68 , 518.02 79.24 , 517.68 79.80 , 517.33 80.36 , 516.97 80.92 , 516.61 81.48 , 516.24 82.04 , 515.86 82.60 , 515.47 83.16 , 515.07 83.72 , 514.67 84.28 , 514.25 84.84 , 513.83 85.40 , 513.40 85.96 , 512.96 86.52 , 512.51 87.08 , 512.06 87.64 , 511.59 88.20 , 511.12 88.76 , 510.63 89.32 , 510.14 89.88 , 509.64 90.44 , 509.12 91.00 , 508.60 91.56 , 508.07 92.12 , 507.53 92.68 , 506.98 93.24 , 506.42 93.80 , 505.85 94.36 , 505.27 94.92 , 504.68 95.48 , 504.08 96.04 , 503.46 96.60 , 502.84 97.16 , 502.21 97.72 , 501.57 98.28 , 500.92 98.84 , 500.25 99.40 , 499.58 99.96 , 498.89 100.52 , 498.20 101.08 , 497.49 101.64 , 496.77 102.20 , 496.04 102.76 , 495.31 103.32 , 494.56 103.88 , 493.80 104.44 , 493.02 105.00 , 492.24 105.56 , 491.45 106.12 , 490.64 106.68 , 489.83 107.24 , 489.00 107.80 , 488.16 108.36 , 487.31 108.92 , 486.45 109.48 , 485.58 110.04 , 484.70 110.60 , 483.81 111.16 , 482.91 111.72 , 481.99 112.28 , 481.07 112.84 , 480.13 113.40 , 479.18 113.96 , 478.23 114.52 , 477.26 115.08 , 476.28 115.64 , 475.29 116.20 , 474.30 116.76 , 473.29 117.32 , 472.27 117.88 , 471.24 118.44 , 470.20 119.00 , 469.15 119.56 , 468.10 120.12 , 467.03 120.68 , 465.95 121.24 , 464.86 121.80 , 463.77 122.36 , 462.66 122.92 , 461.55 123.48 , 460.43 124.04 , 459.30 124.60 , 458.16 125.16 , 457.01 125.72 , 455.86 126.28 , 454.70 126.84 , 453.53 127.40 , 452.35 127.96 , 451.17 128.52 , 449.98 129.08 , 448.78 129.64 , 447.57 130.20 , 446.36 130.76 , 445.15 131.32 , 443.93 131.88 , 442.70 132.44 , 441.47 133.00 , 440.23 133.56 , 438.99 134.12 , 437.74 134.68 , 436.49 135.24 , 435.24 135.80 , 433.98 136.36 , 432.72 136.92 , 431.45 137.48 , 430.19 138.04 , 428.92 138.60 , 427.65 139.16 , 426.38 139.72 , 425.10 140.28 , 423.83 140.84 , 422.55 141.40 , 421.28 141.96 , 420.00 142.52 , 418.73 143.08 , 417.46 143.64 , 416.18 144.20 , 414.91 144.76 , 413.64 145.32 , 412.38 145.88 , 411.11 146.44 , 409.85 147.00 , 408.59 147.56 , 407.34 148.12 , 406.09 148.68 , 404.85 149.25 , 403.61 149.81 , 402.37 150.37 , 401.14 150.93 , 399.92 151.49 , 398.70 152.05 , 397.49 152.61 , 396.29 153.17 , 395.10 153.73 , 393.91 154.29 , 392.73 154.85 , 391.57 155.41 , 390.41 155.97 , 389.26 156.53 , 388.12 157.09 , 386.99 157.65 , 385.87 158.21 , 384.76 158.77 , 383.67 159.33 , 382.59 159.89 , 381.52 160.45 , 380.46 161.01 , 379.41 161.57 , 378.38 162.13 , 377.37 162.69 , 376.37 163.25 , 375.38 163.81 , 374.41 164.37 , 373.45 164.93 , 372.51 165.49 , 371.58 166.05 , 370.67 166.61 , 369.78 167.17 , 368.91 167.73 , 368.05 168.29 , 367.21 168.85 , 366.39 169.41 , 365.59 169.97 , 364.81 170.53 , 364.04 171.09 , 363.30 171.65 , 362.57 172.21 , 361.87 172.77 , 361.18 173.33 , 360.52 173.89 , 359.88 174.45 , 359.26 175.01 , 358.65 175.57 , 358.08 176.13 , 357.52 176.69 , 356.98 177.25 , 356.47 177.81 , 355.98 178.37 , 355.51 178.93 , 355.07 179.49 , 354.64 180.05 , 354.24 180.61 , 353.87 181.17 , 353.52 181.73 , 353.19 182.29 , 352.88 182.85 , 352.60 183.41 , 352.35 183.97 , 352.11 184.53 , 351.91 185.09 , 351.72 185.65 , 351.56 186.21 , 351.43 186.77 , 351.32 187.33 , 351.23 187.89 , 351.17 188.45 , 351.13 189.01 , 351.12 189.57 , 351.13 190.13 , 351.17 190.69 , 351.23 191.25 , 351.32 191.81 , 351.43 192.37 , 351.56 192.93 , 351.72 193.49 , 351.91 194.05 , 352.11 194.61 , 352.35 195.17 , 352.60 195.73 , 352.88 196.29 , 353.19 196.85 , 353.52 197.41 , 353.87 197.97 , 354.24 198.53 , 354.64 199.09 , 355.07 199.65 , 355.51 200.21 , 355.98 200.77 , 356.47 201.33 , 356.98 201.89 , 357.52 202.45 , 358.08 203.01 , 358.65 203.57 , 359.26 204.13 , 359.88 204.69 , 360.52 205.25 , 361.18 205.81 , 361.87 206.37 , 362.57 206.93 , 363.30 207.49 , 364.04 208.05 , 364.81 208.61 , 365.59 209.17 , 366.39 209.73 , 367.21 210.29 , 368.05 210.85 , 368.91 211.41 , 369.78 211.97 , 370.67 212.53 , 371.58 213.09 , 372.51 213.65 , 373.45 214.21 , 374.41 214.77 , 375.38 215.33 , 376.37 215.89 , 377.37 216.45 , 378.38 217.01 , 379.41 217.57 , 380.46 218.13 , 381.52 218.69 , 382.59 219.25 , 383.67 219.81 , 384.76 220.37 , 385.87 220.93 , 386.99 221.49 , 388.12 222.05 , 389.26 222.61 , 390.41 223.17 , 391.57 223.73 , 392.73 224.29 , 393.91 224.85 , 395.10 225.41 , 396.29 225.97 , 397.49 226.53 , 398.70 227.09 , 399.92 227.65 , 401.14 228.21 , 402.37 228.77 , 403.61 229.33 , 404.85 229.89 , 406.09 230.45 , 407.34 231.01 , 408.59 231.57 , 409.85 232.13 , 411.11 232.69 , 412.38 233.25 , 413.64 233.81 , 414.91 234.37 , 416.18 234.93 , 417.46 235.49 , 418.73 236.05 , 420.00 236.61 , 421.28 237.17 , 422.55 237.73 , 423.83 238.29 , 425.10 238.85 , 426.38 239.41 , 427.65 239.97 , 428.92 240.53 , 430.19 241.09 , 431.45 241.65 , 432.72 242.21 , 433.98 242.77 , 435.24 243.33 , 436.49 243.89 , 437.74 244.45 , 438.99 245.01 , 440.23 245.57 , 441.47 246.13 , 442.70 246.69 , 443.93 247.25 , 445.15 247.81 , 446.36 248.37 , 447.57 248.93 , 448.78 249.49 , 449.98 250.05 , 451.17 250.61 , 452.35 251.17 , 453.53 251.73 , 454.70 252.29 , 455.86 252.85 , 457.01 253.41 , 458.16 253.97 , 459.30 254.53 , 460.43 255.09 , 461.55 255.65 , 462.66 256.21 , 463.77 256.77 , 464.86 257.33 , 465.95 257.89 , 467.03 258.45 , 468.10 259.01 , 469.15 259.57 , 470.20 260.13 , 471.24 260.69 , 472.27 261.25 , 473.29 261.81 , 474.30 262.37 , 475.29 262.93 , 476.28 263.49 , 477.26 264.05 , 478.23 264.61 , 479.18 265.17 , 480.13 265.73 , 481.07 266.29 , 481.99 266.85 , 482.91 267.41 , 483.81 267.97 , 484.70 268.53 , 485.58 269.09 , 486.45 269.66 , 487.31 270.22 , 488.16 270.78 , 489.00 271.34 , 489.83 271.90 , 490.64 272.46 , 491.45 273.02 , 492.24 273.58 , 493.02 274.14 , 493.80 274.70 , 494.56 275.26 , 495.31 275.82 , 496.04 276.38 , 496.77 276.94 , 497.49 277.50 , 498.20 278.06 , 498.89 278.62 , 499.58 279.18 , 500.25 279.74 , 500.92 280.30 , 501.57 280.86 , 502.21 281.42 , 502.84 281.98 , 503.46 282.54 , 504.08 283.10 , 504.68 283.66 , 505.27 284.22 , 505.85 284.78 , 506.42 285.34 , 506.98 285.90 , 507.53 286.46 , 508.07 287.02 , 508.60 287.58 , 509.12 288.14 , 509.64 288.70 , 510.14 289.26 , 510.63 289.82 , 511.12 290.38 , 511.59 290.94 , 512.06 291.50 , 512.51 292.06 , 512.96 292.62 , 513.40 293.18 , 513.83 293.74 , 514.25 294.30 , 514.67 294.86 , 515.07 295.42 , 515.47 295.98 , 515.86 296.54 , 516.24 297.10 , 516.61 297.66 , 516.97 298.22 , 517.33 298.78 , 517.68 299.34 , 518.02 299.90 , 518.35 300.46 , 518.68 301.02 , 519.00 301.58 , 519.31 302.14 , 519.62 302.70 , 519.92 303.26 , 520.21 303.82 , 520.49 304.38 , 520.77 304.94 , 521.05 305.50 , 521.31 306.06 , 521.57 306.62 , 521.82 307.18 , 522.07 307.74 , 522.31 308.30 , 522.55 308.86 , 522.78 309.42 , 523.00 309.98 , 523.22 310.54 , 523.44 311.10 , 523.64 311.66 , 523.85 312.22 , 524.04 312.78 , 524.24 313.34 , 524.43 313.90 , 524.61 314.46 , 524.79 315.02 , 524.96 315.58 , 525.13 316.14 , 525.29 316.70 , 525.45 317.26 , 525.61 317.82 , 525.76 318.38 , 525.91 318.94 , 526.05 319.50 , 526.19 320.06 , 526.33 320.62 , 526.46 321.18 , 526.59 321.74 , 526.72 322.30 , 526.84 322.86 , 526.96 323.42 , 527.07 323.98 , 527.18 324.54 , 527.29 325.10 , 527.40 325.66 , 527.50 326.22 , 527.60 326.78 , 527.70 327.34 , 527.79 327.90 , 527.88 328.46 , 527.97 329.02 , 528.05 329.58 , 528.14 330.14 , 528.22 330.70 , 528.30 331.26 , 528.37 331.82 , 528.44 332.38 , 528.52 " style="stroke-width:1;stroke:#000000;fill:#000000;stroke-opacity:1.000000;fill-opacity:0.000000"/>
<text transform="translate(110.01,311.16)"  style="font-size:12" >Graphic diagnostic for state 3</text>
<text transform="translate(133.77,560.66)"  style="font-size:10" >Estimated Density (green) </text>
<text transform="translate(136.20,568.99)"  style="font-size:10" > Normal density (black)</text>
<text transform="translate(189.01,577.33)"  style="font-size:10" ></text>
</svg>
