<?xml version="1.0" encoding="UTF-8"?>
<svg xmlns="http://www.w3.org/2000/svg" width="722.70" height="578.16" viewBox="0,0,722.70,578.16">
<desc>R SVG Plot!</desc>
<rect width="100%" height="100%" style="fill:#FFFFFF"/>
<polygon points="0.00 , 289.08 722.70 , 289.08 722.70 , 0.00 0.00 , 0.00 " style="stroke-width:1;stroke:#FFFFFF;fill:#FFFFFF;stroke-opacity:0.000000;fill-opacity:1.000000" />
<polygon points="0.00 , 578.16 722.70 , 578.16 722.70 , 289.08 0.00 , 289.08 " style="stroke-width:1;stroke:#FFFFFF;fill:#FFFFFF;stroke-opacity:0.000000;fill-opacity:1.000000" />
<polygon points="0.00 , 289.08 361.35 , 289.08 361.35 , 0.00 0.00 , 0.00 " style="stroke-width:1;stroke:#FFFFFF;fill:#FFFFFF;stroke-opacity:0.000000;fill-opacity:1.000000" />
<polyline points="45.64 , 238.71 46.20 , 238.61 46.76 , 238.49 47.32 , 238.37 47.88 , 238.25 48.44 , 238.11 49.00 , 237.97 49.56 , 237.83 50.13 , 237.67 50.69 , 237.51 51.25 , 237.35 51.81 , 237.17 52.37 , 237.00 52.93 , 236.81 53.49 , 236.62 54.05 , 236.43 54.61 , 236.23 55.18 , 236.02 55.74 , 235.82 56.30 , 235.61 56.86 , 235.39 57.42 , 235.18 57.98 , 234.96 58.54 , 234.74 59.10 , 234.52 59.66 , 234.29 60.23 , 234.07 60.79 , 233.85 61.35 , 233.63 61.91 , 233.41 62.47 , 233.19 63.03 , 232.98 63.59 , 232.77 64.15 , 232.56 64.72 , 232.35 65.28 , 232.15 65.84 , 231.95 66.40 , 231.76 66.96 , 231.57 67.52 , 231.38 68.08 , 231.19 68.64 , 231.01 69.20 , 230.83 69.77 , 230.66 70.33 , 230.48 70.89 , 230.31 71.45 , 230.14 72.01 , 229.97 72.57 , 229.79 73.13 , 229.62 73.69 , 229.44 74.25 , 229.25 74.82 , 229.07 75.38 , 228.87 75.94 , 228.67 76.50 , 228.46 77.06 , 228.25 77.62 , 228.02 78.18 , 227.78 78.74 , 227.52 79.30 , 227.26 79.87 , 226.98 80.43 , 226.69 80.99 , 226.38 81.55 , 226.06 82.11 , 225.72 82.67 , 225.36 83.23 , 224.99 83.79 , 224.60 84.36 , 224.19 84.92 , 223.77 85.48 , 223.33 86.04 , 222.88 86.60 , 222.41 87.16 , 221.93 87.72 , 221.43 88.28 , 220.92 88.84 , 220.40 89.41 , 219.87 89.97 , 219.33 90.53 , 218.78 91.09 , 218.22 91.65 , 217.66 92.21 , 217.09 92.77 , 216.52 93.33 , 215.95 93.89 , 215.37 94.46 , 214.80 95.02 , 214.22 95.58 , 213.64 96.14 , 213.06 96.70 , 212.49 97.26 , 211.91 97.82 , 211.34 98.38 , 210.76 98.94 , 210.19 99.51 , 209.61 100.07 , 209.04 100.63 , 208.46 101.19 , 207.87 101.75 , 207.28 102.31 , 206.69 102.87 , 206.08 103.43 , 205.46 104.00 , 204.84 104.56 , 204.20 105.12 , 203.54 105.68 , 202.86 106.24 , 202.16 106.80 , 201.44 107.36 , 200.70 107.92 , 199.92 108.48 , 199.12 109.05 , 198.30 109.61 , 197.44 110.17 , 196.54 110.73 , 195.62 111.29 , 194.66 111.85 , 193.67 112.41 , 192.63 112.97 , 191.56 113.53 , 190.46 114.10 , 189.32 114.66 , 188.15 115.22 , 186.94 115.78 , 185.69 116.34 , 184.42 116.90 , 183.12 117.46 , 181.78 118.02 , 180.41 118.58 , 179.02 119.15 , 177.61 119.71 , 176.17 120.27 , 174.72 120.83 , 173.24 121.39 , 171.76 121.95 , 170.26 122.51 , 168.75 123.07 , 167.24 123.64 , 165.72 124.20 , 164.20 124.76 , 162.68 125.32 , 161.17 125.88 , 159.66 126.44 , 158.15 127.00 , 156.66 127.56 , 155.18 128.12 , 153.71 128.69 , 152.25 129.25 , 150.81 129.81 , 149.38 130.37 , 147.97 130.93 , 146.57 131.49 , 145.19 132.05 , 143.83 132.61 , 142.48 133.17 , 141.14 133.74 , 139.81 134.30 , 138.50 134.86 , 137.20 135.42 , 135.90 135.98 , 134.61 136.54 , 133.33 137.10 , 132.05 137.66 , 130.77 138.22 , 129.48 138.79 , 128.20 139.35 , 126.90 139.91 , 125.60 140.47 , 124.29 141.03 , 122.97 141.59 , 121.64 142.15 , 120.30 142.71 , 118.94 143.28 , 117.56 143.84 , 116.17 144.40 , 114.77 144.96 , 113.34 145.52 , 111.90 146.08 , 110.44 146.64 , 108.97 147.20 , 107.49 147.76 , 105.98 148.33 , 104.47 148.89 , 102.94 149.45 , 101.41 150.01 , 99.86 150.57 , 98.30 151.13 , 96.75 151.69 , 95.18 152.25 , 93.61 152.81 , 92.05 153.38 , 90.48 153.94 , 88.92 154.50 , 87.36 155.06 , 85.81 155.62 , 84.26 156.18 , 82.73 156.74 , 81.21 157.30 , 79.70 157.86 , 78.21 158.43 , 76.74 158.99 , 75.28 159.55 , 73.85 160.11 , 72.43 160.67 , 71.05 161.23 , 69.68 161.79 , 68.34 162.35 , 67.03 162.92 , 65.75 163.48 , 64.50 164.04 , 63.27 164.60 , 62.09 165.16 , 60.93 165.72 , 59.81 166.28 , 58.72 166.84 , 57.67 167.40 , 56.65 167.97 , 55.67 168.53 , 54.73 169.09 , 53.81 169.65 , 52.94 170.21 , 52.11 170.77 , 51.30 171.33 , 50.53 171.89 , 49.80 172.45 , 49.11 173.02 , 48.45 173.58 , 47.82 174.14 , 47.23 174.70 , 46.67 175.26 , 46.15 175.82 , 45.66 176.38 , 45.19 176.94 , 44.77 177.50 , 44.37 178.07 , 44.01 178.63 , 43.67 179.19 , 43.37 179.75 , 43.10 180.31 , 42.86 180.87 , 42.65 181.43 , 42.47 181.99 , 42.32 182.56 , 42.20 183.12 , 42.12 183.68 , 42.06 184.24 , 42.03 184.80 , 42.04 185.36 , 42.08 185.92 , 42.15 186.48 , 42.24 187.04 , 42.38 187.61 , 42.54 188.17 , 42.73 188.73 , 42.95 189.29 , 43.20 189.85 , 43.48 190.41 , 43.80 190.97 , 44.13 191.53 , 44.50 192.09 , 44.90 192.66 , 45.33 193.22 , 45.78 193.78 , 46.26 194.34 , 46.77 194.90 , 47.31 195.46 , 47.87 196.02 , 48.46 196.58 , 49.07 197.14 , 49.70 197.71 , 50.36 198.27 , 51.05 198.83 , 51.75 199.39 , 52.48 199.95 , 53.23 200.51 , 54.00 201.07 , 54.78 201.63 , 55.59 202.20 , 56.42 202.76 , 57.26 203.32 , 58.12 203.88 , 58.99 204.44 , 59.87 205.00 , 60.77 205.56 , 61.69 206.12 , 62.61 206.68 , 63.54 207.25 , 64.48 207.81 , 65.43 208.37 , 66.38 208.93 , 67.34 209.49 , 68.30 210.05 , 69.27 210.61 , 70.23 211.17 , 71.20 211.73 , 72.17 212.30 , 73.15 212.86 , 74.12 213.42 , 75.09 213.98 , 76.06 214.54 , 77.03 215.10 , 78.00 215.66 , 78.96 216.22 , 79.93 216.78 , 80.89 217.35 , 81.86 217.91 , 82.82 218.47 , 83.78 219.03 , 84.75 219.59 , 85.71 220.15 , 86.68 220.71 , 87.64 221.27 , 88.61 221.84 , 89.58 222.40 , 90.55 222.96 , 91.52 223.52 , 92.49 224.08 , 93.47 224.64 , 94.45 225.20 , 95.43 225.76 , 96.41 226.32 , 97.40 226.89 , 98.38 227.45 , 99.37 228.01 , 100.36 228.57 , 101.35 229.13 , 102.34 229.69 , 103.33 230.25 , 104.33 230.81 , 105.33 231.37 , 106.33 231.94 , 107.33 232.50 , 108.34 233.06 , 109.36 233.62 , 110.38 234.18 , 111.41 234.74 , 112.45 235.30 , 113.50 235.86 , 114.56 236.42 , 115.64 236.99 , 116.74 237.55 , 117.85 238.11 , 118.99 238.67 , 120.14 239.23 , 121.33 239.79 , 122.54 240.35 , 123.78 240.91 , 125.04 241.48 , 126.34 242.04 , 127.68 242.60 , 129.04 243.16 , 130.44 243.72 , 131.87 244.28 , 133.34 244.84 , 134.85 245.40 , 136.38 245.96 , 137.95 246.53 , 139.54 247.09 , 141.17 247.65 , 142.83 248.21 , 144.50 248.77 , 146.20 249.33 , 147.92 249.89 , 149.66 250.45 , 151.40 251.01 , 153.16 251.58 , 154.92 252.14 , 156.68 252.70 , 158.45 253.26 , 160.20 253.82 , 161.95 254.38 , 163.69 254.94 , 165.40 255.50 , 167.10 256.06 , 168.78 256.63 , 170.43 257.19 , 172.06 257.75 , 173.65 258.31 , 175.21 258.87 , 176.74 259.43 , 178.23 259.99 , 179.68 260.55 , 181.09 261.12 , 182.47 261.68 , 183.80 262.24 , 185.09 262.80 , 186.35 263.36 , 187.56 263.92 , 188.74 264.48 , 189.88 265.04 , 190.98 265.60 , 192.05 266.17 , 193.09 266.73 , 194.08 267.29 , 195.05 267.85 , 195.99 268.41 , 196.91 268.97 , 197.80 269.53 , 198.66 270.09 , 199.51 270.65 , 200.34 271.22 , 201.15 271.78 , 201.93 272.34 , 202.71 272.90 , 203.47 273.46 , 204.22 274.02 , 204.96 274.58 , 205.69 275.14 , 206.41 275.70 , 207.12 276.27 , 207.82 276.83 , 208.51 277.39 , 209.20 277.95 , 209.88 278.51 , 210.55 279.07 , 211.21 279.63 , 211.86 280.19 , 212.50 280.76 , 213.14 281.32 , 213.76 281.88 , 214.37 282.44 , 214.98 283.00 , 215.57 283.56 , 216.15 284.12 , 216.72 284.68 , 217.27 285.24 , 217.82 285.81 , 218.35 286.37 , 218.86 286.93 , 219.36 287.49 , 219.85 288.05 , 220.33 288.61 , 220.79 289.17 , 221.24 289.73 , 221.67 290.29 , 222.09 290.86 , 222.50 291.42 , 222.90 291.98 , 223.28 292.54 , 223.66 293.10 , 224.03 293.66 , 224.38 294.22 , 224.73 294.78 , 225.07 295.34 , 225.40 295.91 , 225.73 296.47 , 226.05 297.03 , 226.37 297.59 , 226.68 298.15 , 226.99 298.71 , 227.29 299.27 , 227.59 299.83 , 227.89 300.40 , 228.19 300.96 , 228.48 301.52 , 228.77 302.08 , 229.05 302.64 , 229.34 303.20 , 229.62 303.76 , 229.89 304.32 , 230.16 304.88 , 230.43 305.45 , 230.69 306.01 , 230.94 306.57 , 231.19 307.13 , 231.43 307.69 , 231.66 308.25 , 231.88 308.81 , 232.10 309.37 , 232.30 309.93 , 232.49 310.50 , 232.67 311.06 , 232.84 311.62 , 233.00 312.18 , 233.15 312.74 , 233.28 313.30 , 233.41 313.86 , 233.52 314.42 , 233.62 314.98 , 233.71 315.55 , 233.79 316.11 , 233.87 316.67 , 233.93 317.23 , 233.98 317.79 , 234.03 318.35 , 234.07 318.91 , 234.11 319.47 , 234.14 320.04 , 234.17 320.60 , 234.19 321.16 , 234.22 321.72 , 234.24 322.28 , 234.27 322.84 , 234.30 323.40 , 234.33 323.96 , 234.36 324.52 , 234.40 325.09 , 234.45 325.65 , 234.49 326.21 , 234.55 326.77 , 234.61 327.33 , 234.68 327.89 , 234.76 328.45 , 234.84 329.01 , 234.93 329.57 , 235.03 330.14 , 235.13 330.70 , 235.24 331.26 , 235.36 331.82 , 235.48 332.38 , 235.61 " style="stroke-width:2;stroke:#00FF00;fill:#000000;stroke-opacity:1.000000;fill-opacity:0.000000"/>
<line x1="102.23" y1="246.58" x2="282.85" y2="246.58" style="stroke-width:1;stroke:#000000;fill:#000000;stroke-opacity:1.000000;fill-opacity:0.000000"/>
<line x1="102.23" y1="246.58" x2="102.23" y2="250.75" style="stroke-width:1;stroke:#000000;fill:#000000;stroke-opacity:1.000000;fill-opacity:0.000000"/>
<line x1="192.54" y1="246.58" x2="192.54" y2="250.75" style="stroke-width:1;stroke:#000000;fill:#000000;stroke-opacity:1.000000;fill-opacity:0.000000"/>
<line x1="282.85" y1="246.58" x2="282.85" y2="250.75" style="stroke-width:1;stroke:#000000;fill:#000000;stroke-opacity:1.000000;fill-opacity:0.000000"/>
<text transform="translate(91.67,263.25)"  style="font-size:10" >-0.05</text>
<text transform="translate(182.76,263.25)"  style="font-size:10" >0.00</text>
<text transform="translate(273.08,263.25)"  style="font-size:10" >0.05</text>
<line x1="34.17" y1="240.01" x2="34.17" y2="45.93" style="stroke-width:1;stroke:#000000;fill:#000000;stroke-opacity:1.000000;fill-opacity:0.000000"/>
<line x1="34.17" y1="240.01" x2="30.00" y2="240.01" style="stroke-width:1;stroke:#000000;fill:#000000;stroke-opacity:1.000000;fill-opacity:0.000000"/>
<line x1="34.17" y1="175.32" x2="30.00" y2="175.32" style="stroke-width:1;stroke:#000000;fill:#000000;stroke-opacity:1.000000;fill-opacity:0.000000"/>
<line x1="34.17" y1="110.63" x2="30.00" y2="110.63" style="stroke-width:1;stroke:#000000;fill:#000000;stroke-opacity:1.000000;fill-opacity:0.000000"/>
<line x1="34.17" y1="45.93" x2="30.00" y2="45.93" style="stroke-width:1;stroke:#000000;fill:#000000;stroke-opacity:1.000000;fill-opacity:0.000000"/>
<text transform="translate(25.83,242.76) rotate(-90)"  style="font-size:10" >0</text>
<text transform="translate(25.83,178.07) rotate(-90)"  style="font-size:10" >5</text>
<text transform="translate(25.83,116.13) rotate(-90)"  style="font-size:10" >10</text>
<text transform="translate(25.83,51.43) rotate(-90)"  style="font-size:10" >15</text>
<polyline points="34.17 , 246.58 343.85 , 246.58 343.85 , 34.17 34.17 , 34.17 34.17 , 246.58 " style="stroke-width:1;stroke:#000000;fill:#000000;stroke-opacity:1.000000;fill-opacity:0.000000"/>
<text transform="translate(9.17,157.61) rotate(-90)"  style="font-size:10" >Density</text>
<polyline points="45.64 , 237.85 46.20 , 237.77 46.76 , 237.69 47.32 , 237.61 47.88 , 237.52 48.44 , 237.44 49.00 , 237.35 49.56 , 237.25 50.12 , 237.16 50.68 , 237.06 51.24 , 236.96 51.80 , 236.85 52.36 , 236.74 52.92 , 236.63 53.48 , 236.52 54.04 , 236.40 54.60 , 236.28 55.16 , 236.15 55.72 , 236.02 56.28 , 235.89 56.84 , 235.76 57.40 , 235.62 57.96 , 235.47 58.52 , 235.32 59.08 , 235.17 59.64 , 235.01 60.20 , 234.85 60.76 , 234.69 61.32 , 234.52 61.88 , 234.34 62.44 , 234.17 63.00 , 233.98 63.56 , 233.79 64.12 , 233.60 64.68 , 233.40 65.24 , 233.20 65.80 , 232.99 66.36 , 232.77 66.92 , 232.55 67.48 , 232.32 68.04 , 232.09 68.60 , 231.85 69.16 , 231.61 69.72 , 231.36 70.28 , 231.10 70.84 , 230.84 71.40 , 230.57 71.96 , 230.30 72.52 , 230.01 73.08 , 229.72 73.64 , 229.43 74.20 , 229.12 74.76 , 228.81 75.32 , 228.50 75.88 , 228.17 76.44 , 227.84 77.00 , 227.50 77.56 , 227.15 78.12 , 226.80 78.68 , 226.43 79.24 , 226.06 79.80 , 225.68 80.36 , 225.29 80.92 , 224.90 81.48 , 224.49 82.04 , 224.08 82.60 , 223.66 83.16 , 223.23 83.72 , 222.79 84.28 , 222.34 84.84 , 221.88 85.40 , 221.41 85.96 , 220.93 86.52 , 220.45 87.08 , 219.95 87.64 , 219.44 88.20 , 218.93 88.76 , 218.40 89.32 , 217.86 89.88 , 217.32 90.44 , 216.76 91.00 , 216.19 91.56 , 215.61 92.12 , 215.03 92.68 , 214.43 93.24 , 213.82 93.80 , 213.20 94.36 , 212.57 94.92 , 211.92 95.48 , 211.27 96.04 , 210.60 96.60 , 209.93 97.16 , 209.24 97.72 , 208.54 98.28 , 207.83 98.84 , 207.11 99.40 , 206.38 99.96 , 205.63 100.52 , 204.88 101.08 , 204.11 101.64 , 203.33 102.20 , 202.53 102.76 , 201.73 103.32 , 200.92 103.88 , 200.09 104.44 , 199.25 105.00 , 198.40 105.56 , 197.53 106.12 , 196.66 106.68 , 195.77 107.24 , 194.87 107.80 , 193.96 108.36 , 193.04 108.92 , 192.10 109.48 , 191.16 110.04 , 190.20 110.60 , 189.23 111.16 , 188.25 111.72 , 187.25 112.28 , 186.25 112.84 , 185.23 113.40 , 184.20 113.96 , 183.16 114.52 , 182.11 115.08 , 181.04 115.64 , 179.97 116.20 , 178.88 116.76 , 177.79 117.32 , 176.68 117.88 , 175.56 118.44 , 174.43 119.00 , 173.29 119.56 , 172.14 120.12 , 170.98 120.68 , 169.81 121.24 , 168.63 121.80 , 167.43 122.36 , 166.23 122.92 , 165.02 123.48 , 163.80 124.04 , 162.57 124.60 , 161.34 125.16 , 160.09 125.72 , 158.83 126.28 , 157.57 126.84 , 156.30 127.40 , 155.02 127.96 , 153.73 128.52 , 152.43 129.08 , 151.13 129.64 , 149.82 130.20 , 148.51 130.76 , 147.18 131.32 , 145.85 131.88 , 144.52 132.44 , 143.18 133.00 , 141.83 133.56 , 140.48 134.12 , 139.13 134.68 , 137.77 135.24 , 136.40 135.80 , 135.03 136.36 , 133.66 136.92 , 132.29 137.48 , 130.91 138.04 , 129.53 138.60 , 128.15 139.16 , 126.77 139.72 , 125.38 140.28 , 124.00 140.84 , 122.61 141.40 , 121.22 141.96 , 119.84 142.52 , 118.45 143.08 , 117.07 143.64 , 115.68 144.20 , 114.30 144.76 , 112.92 145.32 , 111.54 145.88 , 110.17 146.44 , 108.80 147.00 , 107.43 147.56 , 106.07 148.12 , 104.71 148.68 , 103.35 149.25 , 102.00 149.81 , 100.66 150.37 , 99.32 150.93 , 98.00 151.49 , 96.67 152.05 , 95.36 152.61 , 94.05 153.17 , 92.75 153.73 , 91.46 154.29 , 90.18 154.85 , 88.91 155.41 , 87.65 155.97 , 86.40 156.53 , 85.16 157.09 , 83.93 157.65 , 82.72 158.21 , 81.51 158.77 , 80.32 159.33 , 79.15 159.89 , 77.98 160.45 , 76.83 161.01 , 75.70 161.57 , 74.58 162.13 , 73.47 162.69 , 72.38 163.25 , 71.31 163.81 , 70.25 164.37 , 69.21 164.93 , 68.18 165.49 , 67.18 166.05 , 66.19 166.61 , 65.22 167.17 , 64.27 167.73 , 63.34 168.29 , 62.43 168.85 , 61.53 169.41 , 60.66 169.97 , 59.81 170.53 , 58.98 171.09 , 58.17 171.65 , 57.38 172.21 , 56.61 172.77 , 55.87 173.33 , 55.15 173.89 , 54.45 174.45 , 53.77 175.01 , 53.12 175.57 , 52.49 176.13 , 51.88 176.69 , 51.30 177.25 , 50.74 177.81 , 50.21 178.37 , 49.70 178.93 , 49.22 179.49 , 48.76 180.05 , 48.32 180.61 , 47.91 181.17 , 47.53 181.73 , 47.17 182.29 , 46.84 182.85 , 46.54 183.41 , 46.26 183.97 , 46.01 184.53 , 45.78 185.09 , 45.58 185.65 , 45.40 186.21 , 45.26 186.77 , 45.14 187.33 , 45.04 187.89 , 44.98 188.45 , 44.94 189.01 , 44.92 189.57 , 44.94 190.13 , 44.98 190.69 , 45.04 191.25 , 45.14 191.81 , 45.26 192.37 , 45.40 192.93 , 45.58 193.49 , 45.78 194.05 , 46.01 194.61 , 46.26 195.17 , 46.54 195.73 , 46.84 196.29 , 47.17 196.85 , 47.53 197.41 , 47.91 197.97 , 48.32 198.53 , 48.76 199.09 , 49.22 199.65 , 49.70 200.21 , 50.21 200.77 , 50.74 201.33 , 51.30 201.89 , 51.88 202.45 , 52.49 203.01 , 53.12 203.57 , 53.77 204.13 , 54.45 204.69 , 55.15 205.25 , 55.87 205.81 , 56.61 206.37 , 57.38 206.93 , 58.17 207.49 , 58.98 208.05 , 59.81 208.61 , 60.66 209.17 , 61.53 209.73 , 62.43 210.29 , 63.34 210.85 , 64.27 211.41 , 65.22 211.97 , 66.19 212.53 , 67.18 213.09 , 68.18 213.65 , 69.21 214.21 , 70.25 214.77 , 71.31 215.33 , 72.38 215.89 , 73.47 216.45 , 74.58 217.01 , 75.70 217.57 , 76.83 218.13 , 77.98 218.69 , 79.15 219.25 , 80.32 219.81 , 81.51 220.37 , 82.72 220.93 , 83.93 221.49 , 85.16 222.05 , 86.40 222.61 , 87.65 223.17 , 88.91 223.73 , 90.18 224.29 , 91.46 224.85 , 92.75 225.41 , 94.05 225.97 , 95.36 226.53 , 96.67 227.09 , 98.00 227.65 , 99.32 228.21 , 100.66 228.77 , 102.00 229.33 , 103.35 229.89 , 104.71 230.45 , 106.07 231.01 , 107.43 231.57 , 108.80 232.13 , 110.17 232.69 , 111.54 233.25 , 112.92 233.81 , 114.30 234.37 , 115.68 234.93 , 117.07 235.49 , 118.45 236.05 , 119.84 236.61 , 121.22 237.17 , 122.61 237.73 , 124.00 238.29 , 125.38 238.85 , 126.77 239.41 , 128.15 239.97 , 129.53 240.53 , 130.91 241.09 , 132.29 241.65 , 133.66 242.21 , 135.03 242.77 , 136.40 243.33 , 137.77 243.89 , 139.13 244.45 , 140.48 245.01 , 141.83 245.57 , 143.18 246.13 , 144.52 246.69 , 145.85 247.25 , 147.18 247.81 , 148.51 248.37 , 149.82 248.93 , 151.13 249.49 , 152.43 250.05 , 153.73 250.61 , 155.02 251.17 , 156.30 251.73 , 157.57 252.29 , 158.83 252.85 , 160.09 253.41 , 161.34 253.97 , 162.57 254.53 , 163.80 255.09 , 165.02 255.65 , 166.23 256.21 , 167.43 256.77 , 168.63 257.33 , 169.81 257.89 , 170.98 258.45 , 172.14 259.01 , 173.29 259.57 , 174.43 260.13 , 175.56 260.69 , 176.68 261.25 , 177.79 261.81 , 178.88 262.37 , 179.97 262.93 , 181.04 263.49 , 182.11 264.05 , 183.16 264.61 , 184.20 265.17 , 185.23 265.73 , 186.25 266.29 , 187.25 266.85 , 188.25 267.41 , 189.23 267.97 , 190.20 268.53 , 191.16 269.09 , 192.10 269.66 , 193.04 270.22 , 193.96 270.78 , 194.87 271.34 , 195.77 271.90 , 196.66 272.46 , 197.53 273.02 , 198.40 273.58 , 199.25 274.14 , 200.09 274.70 , 200.92 275.26 , 201.73 275.82 , 202.53 276.38 , 203.33 276.94 , 204.11 277.50 , 204.88 278.06 , 205.63 278.62 , 206.38 279.18 , 207.11 279.74 , 207.83 280.30 , 208.54 280.86 , 209.24 281.42 , 209.93 281.98 , 210.60 282.54 , 211.27 283.10 , 211.92 283.66 , 212.57 284.22 , 213.20 284.78 , 213.82 285.34 , 214.43 285.90 , 215.03 286.46 , 215.61 287.02 , 216.19 287.58 , 216.76 288.14 , 217.32 288.70 , 217.86 289.26 , 218.40 289.82 , 218.93 290.38 , 219.44 290.94 , 219.95 291.50 , 220.45 292.06 , 220.93 292.62 , 221.41 293.18 , 221.88 293.74 , 222.34 294.30 , 222.79 294.86 , 223.23 295.42 , 223.66 295.98 , 224.08 296.54 , 224.49 297.10 , 224.90 297.66 , 225.29 298.22 , 225.68 298.78 , 226.06 299.34 , 226.43 299.90 , 226.80 300.46 , 227.15 301.02 , 227.50 301.58 , 227.84 302.14 , 228.17 302.70 , 228.50 303.26 , 228.81 303.82 , 229.12 304.38 , 229.43 304.94 , 229.72 305.50 , 230.01 306.06 , 230.30 306.62 , 230.57 307.18 , 230.84 307.74 , 231.10 308.30 , 231.36 308.86 , 231.61 309.42 , 231.85 309.98 , 232.09 310.54 , 232.32 311.10 , 232.55 311.66 , 232.77 312.22 , 232.99 312.78 , 233.20 313.34 , 233.40 313.90 , 233.60 314.46 , 233.79 315.02 , 233.98 315.58 , 234.17 316.14 , 234.34 316.70 , 234.52 317.26 , 234.69 317.82 , 234.85 318.38 , 235.01 318.94 , 235.17 319.50 , 235.32 320.06 , 235.47 320.62 , 235.62 321.18 , 235.76 321.74 , 235.89 322.30 , 236.02 322.86 , 236.15 323.42 , 236.28 323.98 , 236.40 324.54 , 236.52 325.10 , 236.63 325.66 , 236.74 326.22 , 236.85 326.78 , 236.96 327.34 , 237.06 327.90 , 237.16 328.46 , 237.25 329.02 , 237.35 329.58 , 237.44 330.14 , 237.52 330.70 , 237.61 331.26 , 237.69 331.82 , 237.77 332.38 , 237.85 " style="stroke-width:1;stroke:#000000;fill:#000000;stroke-opacity:1.000000;fill-opacity:0.000000"/>
<text transform="translate(110.01,22.08)"  style="font-size:12" >Graphic diagnostic for state 1</text>
<text transform="translate(133.77,271.58)"  style="font-size:10" >Estimated Density (green) </text>
<text transform="translate(136.20,279.91)"  style="font-size:10" > Normal density (black)</text>
<text transform="translate(189.01,288.25)"  style="font-size:10" ></text>
<polygon points="361.35 , 289.08 722.70 , 289.08 722.70 , 0.00 361.35 , 0.00 " style="stroke-width:1;stroke:#FFFFFF;fill:#FFFFFF;stroke-opacity:0.000000;fill-opacity:1.000000" />
<polyline points="406.99 , 238.71 407.55 , 238.69 408.11 , 238.65 408.67 , 238.62 409.23 , 238.57 409.79 , 238.52 410.35 , 238.47 410.91 , 238.40 411.48 , 238.32 412.04 , 238.24 412.60 , 238.14 413.16 , 238.04 413.72 , 237.92 414.28 , 237.79 414.84 , 237.65 415.40 , 237.50 415.96 , 237.33 416.53 , 237.16 417.09 , 236.97 417.65 , 236.77 418.21 , 236.56 418.77 , 236.34 419.33 , 236.11 419.89 , 235.87 420.45 , 235.62 421.01 , 235.37 421.58 , 235.10 422.14 , 234.83 422.70 , 234.56 423.26 , 234.29 423.82 , 234.01 424.38 , 233.72 424.94 , 233.44 425.50 , 233.16 426.07 , 232.87 426.63 , 232.59 427.19 , 232.31 427.75 , 232.03 428.31 , 231.75 428.87 , 231.47 429.43 , 231.19 429.99 , 230.91 430.55 , 230.64 431.12 , 230.36 431.68 , 230.08 432.24 , 229.80 432.80 , 229.52 433.36 , 229.24 433.92 , 228.95 434.48 , 228.65 435.04 , 228.35 435.60 , 228.04 436.17 , 227.72 436.73 , 227.40 437.29 , 227.07 437.85 , 226.72 438.41 , 226.37 438.97 , 226.00 439.53 , 225.62 440.09 , 225.23 440.65 , 224.84 441.22 , 224.42 441.78 , 224.00 442.34 , 223.57 442.90 , 223.12 443.46 , 222.67 444.02 , 222.20 444.58 , 221.73 445.14 , 221.25 445.71 , 220.75 446.27 , 220.25 446.83 , 219.75 447.39 , 219.24 447.95 , 218.71 448.51 , 218.19 449.07 , 217.65 449.63 , 217.11 450.19 , 216.57 450.76 , 216.02 451.32 , 215.46 451.88 , 214.89 452.44 , 214.32 453.00 , 213.74 453.56 , 213.15 454.12 , 212.56 454.68 , 211.97 455.24 , 211.36 455.81 , 210.75 456.37 , 210.14 456.93 , 209.52 457.49 , 208.90 458.05 , 208.28 458.61 , 207.66 459.17 , 207.04 459.73 , 206.42 460.29 , 205.81 460.86 , 205.20 461.42 , 204.60 461.98 , 204.02 462.54 , 203.44 463.10 , 202.88 463.66 , 202.34 464.22 , 201.81 464.78 , 201.30 465.35 , 200.81 465.91 , 200.34 466.47 , 199.88 467.03 , 199.44 467.59 , 199.01 468.15 , 198.60 468.71 , 198.20 469.27 , 197.81 469.83 , 197.42 470.40 , 197.03 470.96 , 196.64 471.52 , 196.24 472.08 , 195.83 472.64 , 195.41 473.20 , 194.97 473.76 , 194.50 474.32 , 194.01 474.88 , 193.48 475.45 , 192.92 476.01 , 192.33 476.57 , 191.70 477.13 , 191.02 477.69 , 190.31 478.25 , 189.55 478.81 , 188.74 479.37 , 187.90 479.93 , 187.02 480.50 , 186.10 481.06 , 185.14 481.62 , 184.14 482.18 , 183.11 482.74 , 182.06 483.30 , 180.97 483.86 , 179.87 484.42 , 178.74 484.99 , 177.60 485.55 , 176.45 486.11 , 175.28 486.67 , 174.11 487.23 , 172.93 487.79 , 171.75 488.35 , 170.56 488.91 , 169.38 489.47 , 168.20 490.04 , 167.02 490.60 , 165.84 491.16 , 164.67 491.72 , 163.50 492.28 , 162.33 492.84 , 161.16 493.40 , 159.99 493.96 , 158.83 494.52 , 157.66 495.09 , 156.49 495.65 , 155.32 496.21 , 154.14 496.77 , 152.96 497.33 , 151.78 497.89 , 150.58 498.45 , 149.38 499.01 , 148.17 499.57 , 146.96 500.14 , 145.74 500.70 , 144.50 501.26 , 143.26 501.82 , 142.01 502.38 , 140.76 502.94 , 139.49 503.50 , 138.22 504.06 , 136.93 504.63 , 135.64 505.19 , 134.34 505.75 , 133.04 506.31 , 131.72 506.87 , 130.39 507.43 , 129.05 507.99 , 127.70 508.55 , 126.34 509.11 , 124.97 509.68 , 123.58 510.24 , 122.18 510.80 , 120.76 511.36 , 119.33 511.92 , 117.88 512.48 , 116.42 513.04 , 114.95 513.60 , 113.46 514.16 , 111.97 514.73 , 110.46 515.29 , 108.96 515.85 , 107.45 516.41 , 105.94 516.97 , 104.43 517.53 , 102.94 518.09 , 101.46 518.65 , 99.99 519.21 , 98.55 519.78 , 97.12 520.34 , 95.72 520.90 , 94.35 521.46 , 93.01 522.02 , 91.70 522.58 , 90.42 523.14 , 89.16 523.70 , 87.93 524.27 , 86.73 524.83 , 85.54 525.39 , 84.38 525.95 , 83.22 526.51 , 82.08 527.07 , 80.93 527.63 , 79.79 528.19 , 78.63 528.75 , 77.47 529.32 , 76.29 529.88 , 75.08 530.44 , 73.86 531.00 , 72.61 531.56 , 71.33 532.12 , 70.03 532.68 , 68.70 533.24 , 67.36 533.80 , 65.99 534.37 , 64.61 534.93 , 63.21 535.49 , 61.82 536.05 , 60.43 536.61 , 59.04 537.17 , 57.67 537.73 , 56.33 538.29 , 55.02 538.85 , 53.75 539.42 , 52.52 539.98 , 51.33 540.54 , 50.21 541.10 , 49.15 541.66 , 48.16 542.22 , 47.23 542.78 , 46.37 543.34 , 45.59 543.91 , 44.88 544.47 , 44.26 545.03 , 43.71 545.59 , 43.24 546.15 , 42.85 546.71 , 42.52 547.27 , 42.28 547.83 , 42.13 548.39 , 42.05 548.96 , 42.03 549.52 , 42.09 550.08 , 42.22 550.64 , 42.43 551.20 , 42.72 551.76 , 43.08 552.32 , 43.50 552.88 , 43.99 553.44 , 44.55 554.01 , 45.17 554.57 , 45.87 555.13 , 46.63 555.69 , 47.44 556.25 , 48.31 556.81 , 49.23 557.37 , 50.21 557.93 , 51.23 558.49 , 52.29 559.06 , 53.38 559.62 , 54.50 560.18 , 55.65 560.74 , 56.82 561.30 , 58.00 561.86 , 59.19 562.42 , 60.38 562.98 , 61.58 563.55 , 62.77 564.11 , 63.96 564.67 , 65.13 565.23 , 66.30 565.79 , 67.45 566.35 , 68.60 566.91 , 69.73 567.47 , 70.85 568.03 , 71.96 568.60 , 73.07 569.16 , 74.17 569.72 , 75.27 570.28 , 76.37 570.84 , 77.47 571.40 , 78.59 571.96 , 79.71 572.52 , 80.85 573.08 , 82.00 573.65 , 83.17 574.21 , 84.36 574.77 , 85.57 575.33 , 86.80 575.89 , 88.05 576.45 , 89.32 577.01 , 90.61 577.57 , 91.92 578.13 , 93.24 578.70 , 94.57 579.26 , 95.91 579.82 , 97.26 580.38 , 98.61 580.94 , 99.95 581.50 , 101.29 582.06 , 102.62 582.62 , 103.95 583.19 , 105.25 583.75 , 106.55 584.31 , 107.82 584.87 , 109.08 585.43 , 110.31 585.99 , 111.53 586.55 , 112.74 587.11 , 113.92 587.67 , 115.08 588.24 , 116.23 588.80 , 117.37 589.36 , 118.49 589.92 , 119.60 590.48 , 120.70 591.04 , 121.80 591.60 , 122.89 592.16 , 123.97 592.72 , 125.05 593.29 , 126.12 593.85 , 127.19 594.41 , 128.25 594.97 , 129.31 595.53 , 130.36 596.09 , 131.41 596.65 , 132.44 597.21 , 133.47 597.77 , 134.48 598.34 , 135.49 598.90 , 136.48 599.46 , 137.45 600.02 , 138.42 600.58 , 139.36 601.14 , 140.30 601.70 , 141.22 602.26 , 142.13 602.83 , 143.03 603.39 , 143.93 603.95 , 144.81 604.51 , 145.70 605.07 , 146.59 605.63 , 147.48 606.19 , 148.37 606.75 , 149.28 607.31 , 150.20 607.88 , 151.14 608.44 , 152.09 609.00 , 153.06 609.56 , 154.06 610.12 , 155.07 610.68 , 156.12 611.24 , 157.19 611.80 , 158.28 612.36 , 159.39 612.93 , 160.53 613.49 , 161.69 614.05 , 162.88 614.61 , 164.08 615.17 , 165.30 615.73 , 166.54 616.29 , 167.78 616.85 , 169.04 617.41 , 170.30 617.98 , 171.57 618.54 , 172.84 619.10 , 174.11 619.66 , 175.37 620.22 , 176.63 620.78 , 177.88 621.34 , 179.12 621.90 , 180.35 622.47 , 181.56 623.03 , 182.77 623.59 , 183.95 624.15 , 185.11 624.71 , 186.26 625.27 , 187.38 625.83 , 188.49 626.39 , 189.58 626.95 , 190.64 627.52 , 191.68 628.08 , 192.70 628.64 , 193.71 629.20 , 194.69 629.76 , 195.66 630.32 , 196.61 630.88 , 197.54 631.44 , 198.46 632.00 , 199.36 632.57 , 200.26 633.13 , 201.14 633.69 , 202.02 634.25 , 202.88 634.81 , 203.74 635.37 , 204.60 635.93 , 205.45 636.49 , 206.29 637.05 , 207.13 637.62 , 207.97 638.18 , 208.79 638.74 , 209.62 639.30 , 210.43 639.86 , 211.24 640.42 , 212.04 640.98 , 212.82 641.54 , 213.59 642.11 , 214.35 642.67 , 215.09 643.23 , 215.82 643.79 , 216.53 644.35 , 217.21 644.91 , 217.88 645.47 , 218.53 646.03 , 219.15 646.59 , 219.76 647.16 , 220.34 647.72 , 220.89 648.28 , 221.43 648.84 , 221.94 649.40 , 222.44 649.96 , 222.91 650.52 , 223.36 651.08 , 223.80 651.64 , 224.21 652.21 , 224.61 652.77 , 224.98 653.33 , 225.35 653.89 , 225.69 654.45 , 226.01 655.01 , 226.33 655.57 , 226.63 656.13 , 226.91 656.69 , 227.19 657.26 , 227.45 657.82 , 227.69 658.38 , 227.93 658.94 , 228.17 659.50 , 228.39 660.06 , 228.61 660.62 , 228.82 661.18 , 229.03 661.75 , 229.24 662.31 , 229.44 662.87 , 229.64 663.43 , 229.85 663.99 , 230.05 664.55 , 230.26 665.11 , 230.47 665.67 , 230.67 666.23 , 230.89 666.80 , 231.10 667.36 , 231.31 667.92 , 231.53 668.48 , 231.75 669.04 , 231.97 669.60 , 232.18 670.16 , 232.40 670.72 , 232.61 671.28 , 232.82 671.85 , 233.02 672.41 , 233.22 672.97 , 233.41 673.53 , 233.60 674.09 , 233.77 674.65 , 233.94 675.21 , 234.10 675.77 , 234.25 676.33 , 234.39 676.90 , 234.53 677.46 , 234.65 678.02 , 234.77 678.58 , 234.88 679.14 , 234.98 679.70 , 235.08 680.26 , 235.17 680.82 , 235.25 681.39 , 235.33 681.95 , 235.41 682.51 , 235.49 683.07 , 235.57 683.63 , 235.64 684.19 , 235.72 684.75 , 235.80 685.31 , 235.88 685.87 , 235.96 686.44 , 236.04 687.00 , 236.13 687.56 , 236.23 688.12 , 236.32 688.68 , 236.42 689.24 , 236.53 689.80 , 236.63 690.36 , 236.74 690.92 , 236.86 691.49 , 236.98 692.05 , 237.09 692.61 , 237.21 693.17 , 237.34 693.73 , 237.46 " style="stroke-width:2;stroke:#00FF00;fill:#000000;stroke-opacity:1.000000;fill-opacity:0.000000"/>
<line x1="472.09" y1="246.58" x2="627.58" y2="246.58" style="stroke-width:1;stroke:#000000;fill:#000000;stroke-opacity:1.000000;fill-opacity:0.000000"/>
<line x1="472.09" y1="246.58" x2="472.09" y2="250.75" style="stroke-width:1;stroke:#000000;fill:#000000;stroke-opacity:1.000000;fill-opacity:0.000000"/>
<line x1="549.84" y1="246.58" x2="549.84" y2="250.75" style="stroke-width:1;stroke:#000000;fill:#000000;stroke-opacity:1.000000;fill-opacity:0.000000"/>
<line x1="627.58" y1="246.58" x2="627.58" y2="250.75" style="stroke-width:1;stroke:#000000;fill:#000000;stroke-opacity:1.000000;fill-opacity:0.000000"/>
<text transform="translate(460.48,263.25)"  style="font-size:10" >-0.02</text>
<text transform="translate(540.06,263.25)"  style="font-size:10" >0.00</text>
<text transform="translate(617.81,263.25)"  style="font-size:10" >0.02</text>
<line x1="395.52" y1="240.89" x2="395.52" y2="45.24" style="stroke-width:1;stroke:#000000;fill:#000000;stroke-opacity:1.000000;fill-opacity:0.000000"/>
<line x1="395.52" y1="240.89" x2="391.35" y2="240.89" style="stroke-width:1;stroke:#000000;fill:#000000;stroke-opacity:1.000000;fill-opacity:0.000000"/>
<line x1="395.52" y1="212.94" x2="391.35" y2="212.94" style="stroke-width:1;stroke:#000000;fill:#000000;stroke-opacity:1.000000;fill-opacity:0.000000"/>
<line x1="395.52" y1="184.99" x2="391.35" y2="184.99" style="stroke-width:1;stroke:#000000;fill:#000000;stroke-opacity:1.000000;fill-opacity:0.000000"/>
<line x1="395.52" y1="157.04" x2="391.35" y2="157.04" style="stroke-width:1;stroke:#000000;fill:#000000;stroke-opacity:1.000000;fill-opacity:0.000000"/>
<line x1="395.52" y1="129.09" x2="391.35" y2="129.09" style="stroke-width:1;stroke:#000000;fill:#000000;stroke-opacity:1.000000;fill-opacity:0.000000"/>
<line x1="395.52" y1="101.14" x2="391.35" y2="101.14" style="stroke-width:1;stroke:#000000;fill:#000000;stroke-opacity:1.000000;fill-opacity:0.000000"/>
<line x1="395.52" y1="73.19" x2="391.35" y2="73.19" style="stroke-width:1;stroke:#000000;fill:#000000;stroke-opacity:1.000000;fill-opacity:0.000000"/>
<line x1="395.52" y1="45.24" x2="391.35" y2="45.24" style="stroke-width:1;stroke:#000000;fill:#000000;stroke-opacity:1.000000;fill-opacity:0.000000"/>
<text transform="translate(387.18,243.64) rotate(-90)"  style="font-size:10" >0</text>
<text transform="translate(387.18,215.69) rotate(-90)"  style="font-size:10" >5</text>
<text transform="translate(387.18,190.49) rotate(-90)"  style="font-size:10" >10</text>
<text transform="translate(387.18,162.54) rotate(-90)"  style="font-size:10" >15</text>
<text transform="translate(387.18,134.59) rotate(-90)"  style="font-size:10" >20</text>
<text transform="translate(387.18,106.64) rotate(-90)"  style="font-size:10" >25</text>
<text transform="translate(387.18,78.69) rotate(-90)"  style="font-size:10" >30</text>
<text transform="translate(387.18,50.74) rotate(-90)"  style="font-size:10" >35</text>
<polyline points="395.52 , 246.58 705.20 , 246.58 705.20 , 34.17 395.52 , 34.17 395.52 , 246.58 " style="stroke-width:1;stroke:#000000;fill:#000000;stroke-opacity:1.000000;fill-opacity:0.000000"/>
<text transform="translate(370.52,157.61) rotate(-90)"  style="font-size:10" >Density</text>
<polyline points="406.99 , 238.88 407.55 , 238.80 408.11 , 238.73 408.67 , 238.65 409.23 , 238.57 409.79 , 238.49 410.35 , 238.41 410.91 , 238.32 411.47 , 238.23 412.03 , 238.14 412.59 , 238.05 413.15 , 237.95 413.71 , 237.85 414.27 , 237.74 414.83 , 237.64 415.39 , 237.53 415.95 , 237.42 416.51 , 237.30 417.07 , 237.18 417.63 , 237.06 418.19 , 236.93 418.75 , 236.80 419.31 , 236.67 419.87 , 236.53 420.43 , 236.39 420.99 , 236.24 421.55 , 236.09 422.11 , 235.94 422.67 , 235.78 423.23 , 235.62 423.79 , 235.45 424.35 , 235.28 424.91 , 235.11 425.47 , 234.92 426.03 , 234.74 426.59 , 234.55 427.15 , 234.35 427.71 , 234.15 428.27 , 233.95 428.83 , 233.74 429.39 , 233.52 429.95 , 233.30 430.51 , 233.08 431.07 , 232.84 431.63 , 232.60 432.19 , 232.36 432.75 , 232.11 433.31 , 231.85 433.87 , 231.59 434.43 , 231.32 434.99 , 231.05 435.55 , 230.77 436.11 , 230.48 436.67 , 230.18 437.23 , 229.88 437.79 , 229.57 438.35 , 229.25 438.91 , 228.93 439.47 , 228.60 440.03 , 228.26 440.59 , 227.92 441.15 , 227.56 441.71 , 227.20 442.27 , 226.84 442.83 , 226.46 443.39 , 226.07 443.95 , 225.68 444.51 , 225.28 445.07 , 224.87 445.63 , 224.45 446.19 , 224.03 446.75 , 223.59 447.31 , 223.15 447.87 , 222.70 448.43 , 222.23 448.99 , 221.76 449.55 , 221.28 450.11 , 220.79 450.67 , 220.29 451.23 , 219.79 451.79 , 219.27 452.35 , 218.74 452.91 , 218.20 453.47 , 217.66 454.03 , 217.10 454.59 , 216.53 455.15 , 215.96 455.71 , 215.37 456.27 , 214.77 456.83 , 214.16 457.39 , 213.55 457.95 , 212.92 458.51 , 212.28 459.07 , 211.63 459.63 , 210.97 460.19 , 210.30 460.75 , 209.61 461.31 , 208.92 461.87 , 208.22 462.43 , 207.50 462.99 , 206.78 463.55 , 206.04 464.11 , 205.29 464.67 , 204.54 465.23 , 203.77 465.79 , 202.99 466.35 , 202.20 466.91 , 201.39 467.47 , 200.58 468.03 , 199.75 468.59 , 198.92 469.15 , 198.07 469.71 , 197.21 470.27 , 196.34 470.83 , 195.46 471.39 , 194.57 471.95 , 193.67 472.51 , 192.76 473.07 , 191.83 473.63 , 190.90 474.19 , 189.95 474.75 , 188.99 475.31 , 188.03 475.87 , 187.05 476.43 , 186.06 476.99 , 185.06 477.55 , 184.05 478.11 , 183.03 478.67 , 182.00 479.23 , 180.96 479.79 , 179.91 480.35 , 178.85 480.91 , 177.78 481.47 , 176.70 482.03 , 175.61 482.59 , 174.51 483.15 , 173.41 483.71 , 172.29 484.27 , 171.16 484.83 , 170.03 485.39 , 168.89 485.95 , 167.74 486.51 , 166.58 487.07 , 165.41 487.63 , 164.23 488.19 , 163.05 488.75 , 161.86 489.31 , 160.66 489.87 , 159.46 490.43 , 158.25 490.99 , 157.03 491.55 , 155.81 492.11 , 154.58 492.67 , 153.34 493.23 , 152.10 493.79 , 150.85 494.35 , 149.60 494.91 , 148.35 495.47 , 147.09 496.03 , 145.82 496.59 , 144.55 497.15 , 143.28 497.71 , 142.01 498.27 , 140.73 498.83 , 139.45 499.39 , 138.16 499.95 , 136.88 500.51 , 135.59 501.07 , 134.31 501.63 , 133.02 502.19 , 131.73 502.75 , 130.44 503.31 , 129.15 503.87 , 127.86 504.43 , 126.57 504.99 , 125.29 505.55 , 124.00 506.11 , 122.72 506.67 , 121.44 507.23 , 120.16 507.79 , 118.88 508.35 , 117.61 508.91 , 116.35 509.47 , 115.08 510.03 , 113.82 510.60 , 112.57 511.16 , 111.32 511.72 , 110.08 512.28 , 108.84 512.84 , 107.61 513.40 , 106.39 513.96 , 105.17 514.52 , 103.97 515.08 , 102.77 515.64 , 101.58 516.20 , 100.40 516.76 , 99.22 517.32 , 98.06 517.88 , 96.91 518.44 , 95.77 519.00 , 94.64 519.56 , 93.52 520.12 , 92.41 520.68 , 91.32 521.24 , 90.23 521.80 , 89.16 522.36 , 88.11 522.92 , 87.07 523.48 , 86.04 524.04 , 85.02 524.60 , 84.03 525.16 , 83.04 525.72 , 82.08 526.28 , 81.12 526.84 , 80.19 527.40 , 79.27 527.96 , 78.37 528.52 , 77.48 529.08 , 76.62 529.64 , 75.77 530.20 , 74.94 530.76 , 74.13 531.32 , 73.34 531.88 , 72.57 532.44 , 71.81 533.00 , 71.08 533.56 , 70.37 534.12 , 69.67 534.68 , 69.00 535.24 , 68.35 535.80 , 67.72 536.36 , 67.12 536.92 , 66.53 537.48 , 65.97 538.04 , 65.43 538.60 , 64.91 539.16 , 64.41 539.72 , 63.94 540.28 , 63.49 540.84 , 63.06 541.40 , 62.66 541.96 , 62.28 542.52 , 61.92 543.08 , 61.59 543.64 , 61.28 544.20 , 61.00 544.76 , 60.74 545.32 , 60.50 545.88 , 60.29 546.44 , 60.11 547.00 , 59.94 547.56 , 59.81 548.12 , 59.70 548.68 , 59.61 549.24 , 59.55 549.80 , 59.51 550.36 , 59.50 550.92 , 59.51 551.48 , 59.55 552.04 , 59.61 552.60 , 59.70 553.16 , 59.81 553.72 , 59.94 554.28 , 60.11 554.84 , 60.29 555.40 , 60.50 555.96 , 60.74 556.52 , 61.00 557.08 , 61.28 557.64 , 61.59 558.20 , 61.92 558.76 , 62.28 559.32 , 62.66 559.88 , 63.06 560.44 , 63.49 561.00 , 63.94 561.56 , 64.41 562.12 , 64.91 562.68 , 65.43 563.24 , 65.97 563.80 , 66.53 564.36 , 67.12 564.92 , 67.72 565.48 , 68.35 566.04 , 69.00 566.60 , 69.67 567.16 , 70.37 567.72 , 71.08 568.28 , 71.81 568.84 , 72.57 569.40 , 73.34 569.96 , 74.13 570.52 , 74.94 571.08 , 75.77 571.64 , 76.62 572.20 , 77.48 572.76 , 78.37 573.32 , 79.27 573.88 , 80.19 574.44 , 81.12 575.00 , 82.08 575.56 , 83.04 576.12 , 84.03 576.68 , 85.02 577.24 , 86.04 577.80 , 87.07 578.36 , 88.11 578.92 , 89.16 579.48 , 90.23 580.04 , 91.32 580.60 , 92.41 581.16 , 93.52 581.72 , 94.64 582.28 , 95.77 582.84 , 96.91 583.40 , 98.06 583.96 , 99.22 584.52 , 100.40 585.08 , 101.58 585.64 , 102.77 586.20 , 103.97 586.76 , 105.17 587.32 , 106.39 587.88 , 107.61 588.44 , 108.84 589.00 , 110.08 589.56 , 111.32 590.12 , 112.57 590.68 , 113.82 591.24 , 115.08 591.80 , 116.35 592.36 , 117.61 592.92 , 118.88 593.48 , 120.16 594.04 , 121.44 594.60 , 122.72 595.16 , 124.00 595.72 , 125.29 596.28 , 126.57 596.84 , 127.86 597.40 , 129.15 597.96 , 130.44 598.52 , 131.73 599.08 , 133.02 599.64 , 134.31 600.20 , 135.59 600.76 , 136.88 601.32 , 138.16 601.88 , 139.45 602.44 , 140.73 603.00 , 142.01 603.56 , 143.28 604.12 , 144.55 604.68 , 145.82 605.24 , 147.09 605.80 , 148.35 606.36 , 149.60 606.92 , 150.85 607.48 , 152.10 608.04 , 153.34 608.60 , 154.58 609.16 , 155.81 609.72 , 157.03 610.28 , 158.25 610.84 , 159.46 611.40 , 160.66 611.96 , 161.86 612.52 , 163.05 613.08 , 164.23 613.64 , 165.41 614.20 , 166.58 614.76 , 167.74 615.32 , 168.89 615.88 , 170.03 616.44 , 171.16 617.00 , 172.29 617.56 , 173.41 618.12 , 174.51 618.68 , 175.61 619.24 , 176.70 619.80 , 177.78 620.36 , 178.85 620.92 , 179.91 621.48 , 180.96 622.04 , 182.00 622.60 , 183.03 623.16 , 184.05 623.72 , 185.06 624.28 , 186.06 624.84 , 187.05 625.40 , 188.03 625.96 , 188.99 626.52 , 189.95 627.08 , 190.90 627.64 , 191.83 628.20 , 192.76 628.76 , 193.67 629.32 , 194.57 629.88 , 195.46 630.44 , 196.34 631.01 , 197.21 631.57 , 198.07 632.13 , 198.92 632.69 , 199.75 633.25 , 200.58 633.81 , 201.39 634.37 , 202.20 634.93 , 202.99 635.49 , 203.77 636.05 , 204.54 636.61 , 205.29 637.17 , 206.04 637.73 , 206.78 638.29 , 207.50 638.85 , 208.22 639.41 , 208.92 639.97 , 209.61 640.53 , 210.30 641.09 , 210.97 641.65 , 211.63 642.21 , 212.28 642.77 , 212.92 643.33 , 213.55 643.89 , 214.16 644.45 , 214.77 645.01 , 215.37 645.57 , 215.96 646.13 , 216.53 646.69 , 217.10 647.25 , 217.66 647.81 , 218.20 648.37 , 218.74 648.93 , 219.27 649.49 , 219.79 650.05 , 220.29 650.61 , 220.79 651.17 , 221.28 651.73 , 221.76 652.29 , 222.23 652.85 , 222.70 653.41 , 223.15 653.97 , 223.59 654.53 , 224.03 655.09 , 224.45 655.65 , 224.87 656.21 , 225.28 656.77 , 225.68 657.33 , 226.07 657.89 , 226.46 658.45 , 226.84 659.01 , 227.20 659.57 , 227.56 660.13 , 227.92 660.69 , 228.26 661.25 , 228.60 661.81 , 228.93 662.37 , 229.25 662.93 , 229.57 663.49 , 229.88 664.05 , 230.18 664.61 , 230.48 665.17 , 230.77 665.73 , 231.05 666.29 , 231.32 666.85 , 231.59 667.41 , 231.85 667.97 , 232.11 668.53 , 232.36 669.09 , 232.60 669.65 , 232.84 670.21 , 233.08 670.77 , 233.30 671.33 , 233.52 671.89 , 233.74 672.45 , 233.95 673.01 , 234.15 673.57 , 234.35 674.13 , 234.55 674.69 , 234.74 675.25 , 234.92 675.81 , 235.11 676.37 , 235.28 676.93 , 235.45 677.49 , 235.62 678.05 , 235.78 678.61 , 235.94 679.17 , 236.09 679.73 , 236.24 680.29 , 236.39 680.85 , 236.53 681.41 , 236.67 681.97 , 236.80 682.53 , 236.93 683.09 , 237.06 683.65 , 237.18 684.21 , 237.30 684.77 , 237.42 685.33 , 237.53 685.89 , 237.64 686.45 , 237.74 687.01 , 237.85 687.57 , 237.95 688.13 , 238.05 688.69 , 238.14 689.25 , 238.23 689.81 , 238.32 690.37 , 238.41 690.93 , 238.49 691.49 , 238.57 692.05 , 238.65 692.61 , 238.73 693.17 , 238.80 693.73 , 238.88 " style="stroke-width:1;stroke:#000000;fill:#000000;stroke-opacity:1.000000;fill-opacity:0.000000"/>
<text transform="translate(471.36,22.08)"  style="font-size:12" >Graphic diagnostic for state 2</text>
<text transform="translate(495.12,271.58)"  style="font-size:10" >Estimated Density (green) </text>
<text transform="translate(497.55,279.91)"  style="font-size:10" > Normal density (black)</text>
<text transform="translate(550.36,288.25)"  style="font-size:10" ></text>
<polygon points="0.00 , 578.16 361.35 , 578.16 361.35 , 289.08 0.00 , 289.08 " style="stroke-width:1;stroke:#FFFFFF;fill:#FFFFFF;stroke-opacity:0.000000;fill-opacity:1.000000" />
<polyline points="45.64 , 526.81 46.20 , 526.77 46.76 , 526.73 47.32 , 526.68 47.88 , 526.62 48.44 , 526.56 49.00 , 526.49 49.56 , 526.41 50.13 , 526.33 50.69 , 526.24 51.25 , 526.15 51.81 , 526.04 52.37 , 525.94 52.93 , 525.83 53.49 , 525.71 54.05 , 525.59 54.61 , 525.47 55.18 , 525.34 55.74 , 525.21 56.30 , 525.08 56.86 , 524.95 57.42 , 524.82 57.98 , 524.69 58.54 , 524.55 59.10 , 524.42 59.66 , 524.29 60.23 , 524.17 60.79 , 524.04 61.35 , 523.92 61.91 , 523.79 62.47 , 523.67 63.03 , 523.55 63.59 , 523.43 64.15 , 523.31 64.72 , 523.19 65.28 , 523.07 65.84 , 522.94 66.40 , 522.81 66.96 , 522.68 67.52 , 522.54 68.08 , 522.40 68.64 , 522.25 69.20 , 522.09 69.77 , 521.92 70.33 , 521.74 70.89 , 521.55 71.45 , 521.35 72.01 , 521.14 72.57 , 520.91 73.13 , 520.67 73.69 , 520.42 74.25 , 520.15 74.82 , 519.86 75.38 , 519.57 75.94 , 519.25 76.50 , 518.93 77.06 , 518.59 77.62 , 518.23 78.18 , 517.86 78.74 , 517.48 79.30 , 517.08 79.87 , 516.68 80.43 , 516.26 80.99 , 515.83 81.55 , 515.38 82.11 , 514.93 82.67 , 514.47 83.23 , 514.00 83.79 , 513.53 84.36 , 513.05 84.92 , 512.56 85.48 , 512.07 86.04 , 511.57 86.60 , 511.07 87.16 , 510.57 87.72 , 510.06 88.28 , 509.56 88.84 , 509.05 89.41 , 508.54 89.97 , 508.04 90.53 , 507.54 91.09 , 507.04 91.65 , 506.54 92.21 , 506.04 92.77 , 505.55 93.33 , 505.06 93.89 , 504.57 94.46 , 504.09 95.02 , 503.60 95.58 , 503.12 96.14 , 502.63 96.70 , 502.15 97.26 , 501.66 97.82 , 501.18 98.38 , 500.68 98.94 , 500.19 99.51 , 499.68 100.07 , 499.17 100.63 , 498.65 101.19 , 498.13 101.75 , 497.59 102.31 , 497.04 102.87 , 496.49 103.43 , 495.92 104.00 , 495.33 104.56 , 494.74 105.12 , 494.14 105.68 , 493.53 106.24 , 492.90 106.80 , 492.27 107.36 , 491.63 107.92 , 490.98 108.48 , 490.32 109.05 , 489.66 109.61 , 489.00 110.17 , 488.33 110.73 , 487.66 111.29 , 486.98 111.85 , 486.30 112.41 , 485.63 112.97 , 484.94 113.53 , 484.26 114.10 , 483.57 114.66 , 482.88 115.22 , 482.19 115.78 , 481.49 116.34 , 480.78 116.90 , 480.06 117.46 , 479.33 118.02 , 478.60 118.58 , 477.85 119.15 , 477.09 119.71 , 476.31 120.27 , 475.51 120.83 , 474.70 121.39 , 473.87 121.95 , 473.03 122.51 , 472.16 123.07 , 471.27 123.64 , 470.36 124.20 , 469.43 124.76 , 468.48 125.32 , 467.51 125.88 , 466.52 126.44 , 465.51 127.00 , 464.48 127.56 , 463.44 128.12 , 462.37 128.69 , 461.29 129.25 , 460.19 129.81 , 459.08 130.37 , 457.95 130.93 , 456.80 131.49 , 455.65 132.05 , 454.47 132.61 , 453.29 133.17 , 452.09 133.74 , 450.88 134.30 , 449.66 134.86 , 448.43 135.42 , 447.18 135.98 , 445.92 136.54 , 444.65 137.10 , 443.38 137.66 , 442.08 138.22 , 440.78 138.79 , 439.46 139.35 , 438.13 139.91 , 436.79 140.47 , 435.44 141.03 , 434.07 141.59 , 432.68 142.15 , 431.28 142.71 , 429.86 143.28 , 428.43 143.84 , 426.98 144.40 , 425.51 144.96 , 424.02 145.52 , 422.51 146.08 , 420.99 146.64 , 419.45 147.20 , 417.89 147.76 , 416.32 148.33 , 414.73 148.89 , 413.14 149.45 , 411.53 150.01 , 409.92 150.57 , 408.31 151.13 , 406.70 151.69 , 405.09 152.25 , 403.49 152.81 , 401.90 153.38 , 400.32 153.94 , 398.75 154.50 , 397.21 155.06 , 395.69 155.62 , 394.19 156.18 , 392.70 156.74 , 391.24 157.30 , 389.80 157.86 , 388.39 158.43 , 386.99 158.99 , 385.61 159.55 , 384.23 160.11 , 382.87 160.67 , 381.51 161.23 , 380.15 161.79 , 378.79 162.35 , 377.42 162.92 , 376.04 163.48 , 374.64 164.04 , 373.21 164.60 , 371.76 165.16 , 370.29 165.72 , 368.79 166.28 , 367.27 166.84 , 365.71 167.40 , 364.13 167.97 , 362.52 168.53 , 360.89 169.09 , 359.25 169.65 , 357.59 170.21 , 355.93 170.77 , 354.27 171.33 , 352.61 171.89 , 350.97 172.45 , 349.35 173.02 , 347.76 173.58 , 346.21 174.14 , 344.71 174.70 , 343.26 175.26 , 341.86 175.82 , 340.53 176.38 , 339.28 176.94 , 338.11 177.50 , 337.03 178.07 , 336.03 178.63 , 335.11 179.19 , 334.28 179.75 , 333.56 180.31 , 332.94 180.87 , 332.41 181.43 , 331.97 181.99 , 331.62 182.56 , 331.35 183.12 , 331.19 183.68 , 331.11 184.24 , 331.11 184.80 , 331.19 185.36 , 331.33 185.92 , 331.54 186.48 , 331.82 187.04 , 332.16 187.61 , 332.54 188.17 , 332.97 188.73 , 333.44 189.29 , 333.96 189.85 , 334.50 190.41 , 335.07 190.97 , 335.66 191.53 , 336.27 192.09 , 336.90 192.66 , 337.54 193.22 , 338.18 193.78 , 338.84 194.34 , 339.50 194.90 , 340.16 195.46 , 340.83 196.02 , 341.50 196.58 , 342.16 197.14 , 342.83 197.71 , 343.50 198.27 , 344.18 198.83 , 344.85 199.39 , 345.53 199.95 , 346.21 200.51 , 346.90 201.07 , 347.60 201.63 , 348.30 202.20 , 349.02 202.76 , 349.75 203.32 , 350.49 203.88 , 351.25 204.44 , 352.03 205.00 , 352.83 205.56 , 353.65 206.12 , 354.49 206.68 , 355.36 207.25 , 356.25 207.81 , 357.17 208.37 , 358.11 208.93 , 359.09 209.49 , 360.09 210.05 , 361.13 210.61 , 362.19 211.17 , 363.28 211.73 , 364.40 212.30 , 365.56 212.86 , 366.74 213.42 , 367.96 213.98 , 369.20 214.54 , 370.47 215.10 , 371.77 215.66 , 373.09 216.22 , 374.44 216.78 , 375.80 217.35 , 377.19 217.91 , 378.60 218.47 , 380.03 219.03 , 381.46 219.59 , 382.91 220.15 , 384.36 220.71 , 385.82 221.27 , 387.29 221.84 , 388.75 222.40 , 390.20 222.96 , 391.65 223.52 , 393.09 224.08 , 394.51 224.64 , 395.92 225.20 , 397.31 225.76 , 398.68 226.32 , 400.03 226.89 , 401.36 227.45 , 402.67 228.01 , 403.95 228.57 , 405.21 229.13 , 406.45 229.69 , 407.67 230.25 , 408.87 230.81 , 410.06 231.37 , 411.23 231.94 , 412.39 232.50 , 413.54 233.06 , 414.69 233.62 , 415.84 234.18 , 416.99 234.74 , 418.15 235.30 , 419.32 235.86 , 420.51 236.42 , 421.71 236.99 , 422.93 237.55 , 424.17 238.11 , 425.44 238.67 , 426.73 239.23 , 428.04 239.79 , 429.37 240.35 , 430.74 240.91 , 432.12 241.48 , 433.53 242.04 , 434.95 242.60 , 436.39 243.16 , 437.84 243.72 , 439.30 244.28 , 440.76 244.84 , 442.23 245.40 , 443.69 245.96 , 445.15 246.53 , 446.59 247.09 , 448.02 247.65 , 449.43 248.21 , 450.83 248.77 , 452.20 249.33 , 453.56 249.89 , 454.88 250.45 , 456.18 251.01 , 457.46 251.58 , 458.72 252.14 , 459.95 252.70 , 461.17 253.26 , 462.36 253.82 , 463.53 254.38 , 464.70 254.94 , 465.85 255.50 , 466.99 256.06 , 468.13 256.63 , 469.26 257.19 , 470.39 257.75 , 471.51 258.31 , 472.64 258.87 , 473.77 259.43 , 474.91 259.99 , 476.05 260.55 , 477.19 261.12 , 478.33 261.68 , 479.47 262.24 , 480.62 262.80 , 481.76 263.36 , 482.91 263.92 , 484.04 264.48 , 485.17 265.04 , 486.30 265.60 , 487.41 266.17 , 488.50 266.73 , 489.58 267.29 , 490.65 267.85 , 491.70 268.41 , 492.73 268.97 , 493.73 269.53 , 494.72 270.09 , 495.68 270.65 , 496.62 271.22 , 497.53 271.78 , 498.43 272.34 , 499.29 272.90 , 500.13 273.46 , 500.95 274.02 , 501.74 274.58 , 502.51 275.14 , 503.26 275.70 , 503.98 276.27 , 504.67 276.83 , 505.35 277.39 , 506.00 277.95 , 506.63 278.51 , 507.24 279.07 , 507.82 279.63 , 508.39 280.19 , 508.93 280.76 , 509.46 281.32 , 509.96 281.88 , 510.44 282.44 , 510.91 283.00 , 511.35 283.56 , 511.78 284.12 , 512.19 284.68 , 512.59 285.24 , 512.96 285.81 , 513.33 286.37 , 513.68 286.93 , 514.01 287.49 , 514.33 288.05 , 514.64 288.61 , 514.94 289.17 , 515.23 289.73 , 515.51 290.29 , 515.77 290.86 , 516.03 291.42 , 516.28 291.98 , 516.52 292.54 , 516.76 293.10 , 516.98 293.66 , 517.20 294.22 , 517.42 294.78 , 517.63 295.34 , 517.83 295.91 , 518.03 296.47 , 518.23 297.03 , 518.42 297.59 , 518.62 298.15 , 518.81 298.71 , 519.00 299.27 , 519.19 299.83 , 519.38 300.40 , 519.57 300.96 , 519.76 301.52 , 519.95 302.08 , 520.15 302.64 , 520.35 303.20 , 520.55 303.76 , 520.75 304.32 , 520.95 304.88 , 521.15 305.45 , 521.36 306.01 , 521.56 306.57 , 521.77 307.13 , 521.98 307.69 , 522.18 308.25 , 522.38 308.81 , 522.58 309.37 , 522.78 309.93 , 522.97 310.50 , 523.16 311.06 , 523.34 311.62 , 523.52 312.18 , 523.70 312.74 , 523.87 313.30 , 524.03 313.86 , 524.19 314.42 , 524.34 314.98 , 524.49 315.55 , 524.63 316.11 , 524.77 316.67 , 524.90 317.23 , 525.03 317.79 , 525.16 318.35 , 525.28 318.91 , 525.40 319.47 , 525.52 320.04 , 525.63 320.60 , 525.75 321.16 , 525.86 321.72 , 525.97 322.28 , 526.08 322.84 , 526.19 323.40 , 526.30 323.96 , 526.41 324.52 , 526.51 325.09 , 526.62 325.65 , 526.72 326.21 , 526.83 326.77 , 526.93 327.33 , 527.03 327.89 , 527.13 328.45 , 527.22 329.01 , 527.32 329.57 , 527.40 330.14 , 527.49 330.70 , 527.57 331.26 , 527.65 331.82 , 527.72 332.38 , 527.79 " style="stroke-width:2;stroke:#00FF00;fill:#000000;stroke-opacity:1.000000;fill-opacity:0.000000"/>
<line x1="57.57" y1="535.66" x2="307.94" y2="535.66" style="stroke-width:1;stroke:#000000;fill:#000000;stroke-opacity:1.000000;fill-opacity:0.000000"/>
<line x1="57.57" y1="535.66" x2="57.57" y2="539.83" style="stroke-width:1;stroke:#000000;fill:#000000;stroke-opacity:1.000000;fill-opacity:0.000000"/>
<line x1="99.30" y1="535.66" x2="99.30" y2="539.83" style="stroke-width:1;stroke:#000000;fill:#000000;stroke-opacity:1.000000;fill-opacity:0.000000"/>
<line x1="141.03" y1="535.66" x2="141.03" y2="539.83" style="stroke-width:1;stroke:#000000;fill:#000000;stroke-opacity:1.000000;fill-opacity:0.000000"/>
<line x1="182.75" y1="535.66" x2="182.75" y2="539.83" style="stroke-width:1;stroke:#000000;fill:#000000;stroke-opacity:1.000000;fill-opacity:0.000000"/>
<line x1="224.48" y1="535.66" x2="224.48" y2="539.83" style="stroke-width:1;stroke:#000000;fill:#000000;stroke-opacity:1.000000;fill-opacity:0.000000"/>
<line x1="266.21" y1="535.66" x2="266.21" y2="539.83" style="stroke-width:1;stroke:#000000;fill:#000000;stroke-opacity:1.000000;fill-opacity:0.000000"/>
<line x1="307.94" y1="535.66" x2="307.94" y2="539.83" style="stroke-width:1;stroke:#000000;fill:#000000;stroke-opacity:1.000000;fill-opacity:0.000000"/>
<text transform="translate(43.21,552.33)"  style="font-size:10" >-0.015</text>
<text transform="translate(84.94,552.33)"  style="font-size:10" >-0.010</text>
<text transform="translate(126.67,552.33)"  style="font-size:10" >-0.005</text>
<text transform="translate(170.23,552.33)"  style="font-size:10" >0.000</text>
<text transform="translate(211.95,552.33)"  style="font-size:10" >0.005</text>
<text transform="translate(253.68,552.33)"  style="font-size:10" >0.010</text>
<text transform="translate(295.41,552.33)"  style="font-size:10" >0.015</text>
<line x1="34.17" y1="530.51" x2="34.17" y2="324.50" style="stroke-width:1;stroke:#000000;fill:#000000;stroke-opacity:1.000000;fill-opacity:0.000000"/>
<line x1="34.17" y1="530.51" x2="30.00" y2="530.51" style="stroke-width:1;stroke:#000000;fill:#000000;stroke-opacity:1.000000;fill-opacity:0.000000"/>
<line x1="34.17" y1="479.01" x2="30.00" y2="479.01" style="stroke-width:1;stroke:#000000;fill:#000000;stroke-opacity:1.000000;fill-opacity:0.000000"/>
<line x1="34.17" y1="427.51" x2="30.00" y2="427.51" style="stroke-width:1;stroke:#000000;fill:#000000;stroke-opacity:1.000000;fill-opacity:0.000000"/>
<line x1="34.17" y1="376.00" x2="30.00" y2="376.00" style="stroke-width:1;stroke:#000000;fill:#000000;stroke-opacity:1.000000;fill-opacity:0.000000"/>
<line x1="34.17" y1="324.50" x2="30.00" y2="324.50" style="stroke-width:1;stroke:#000000;fill:#000000;stroke-opacity:1.000000;fill-opacity:0.000000"/>
<text transform="translate(25.83,533.26) rotate(-90)"  style="font-size:10" >0</text>
<text transform="translate(25.83,484.51) rotate(-90)"  style="font-size:10" >20</text>
<text transform="translate(25.83,433.01) rotate(-90)"  style="font-size:10" >40</text>
<text transform="translate(25.83,381.50) rotate(-90)"  style="font-size:10" >60</text>
<text transform="translate(25.83,330.00) rotate(-90)"  style="font-size:10" >80</text>
<polyline points="34.17 , 535.66 343.85 , 535.66 343.85 , 323.25 34.17 , 323.25 34.17 , 535.66 " style="stroke-width:1;stroke:#000000;fill:#000000;stroke-opacity:1.000000;fill-opacity:0.000000"/>
<text transform="translate(9.17,446.69) rotate(-90)"  style="font-size:10" >Density</text>
<polyline points="45.64 , 528.52 46.20 , 528.44 46.76 , 528.37 47.32 , 528.30 47.88 , 528.22 48.44 , 528.14 49.00 , 528.05 49.56 , 527.97 50.12 , 527.88 50.68 , 527.79 51.24 , 527.70 51.80 , 527.60 52.36 , 527.50 52.92 , 527.40 53.48 , 527.29 54.04 , 527.18 54.60 , 527.07 55.16 , 526.96 55.72 , 526.84 56.28 , 526.72 56.84 , 526.59 57.40 , 526.46 57.96 , 526.33 58.52 , 526.19 59.08 , 526.05 59.64 , 525.91 60.20 , 525.76 60.76 , 525.61 61.32 , 525.45 61.88 , 525.29 62.44 , 525.13 63.00 , 524.96 63.56 , 524.79 64.12 , 524.61 64.68 , 524.43 65.24 , 524.24 65.80 , 524.04 66.36 , 523.85 66.92 , 523.64 67.48 , 523.44 68.04 , 523.22 68.60 , 523.00 69.16 , 522.78 69.72 , 522.55 70.28 , 522.31 70.84 , 522.07 71.40 , 521.82 71.96 , 521.57 72.52 , 521.31 73.08 , 521.05 73.64 , 520.77 74.20 , 520.49 74.76 , 520.21 75.32 , 519.92 75.88 , 519.62 76.44 , 519.31 77.00 , 519.00 77.56 , 518.68 78.12 , 518.35 78.68 , 518.02 79.24 , 517.68 79.80 , 517.33 80.36 , 516.97 80.92 , 516.61 81.48 , 516.24 82.04 , 515.86 82.60 , 515.47 83.16 , 515.07 83.72 , 514.67 84.28 , 514.25 84.84 , 513.83 85.40 , 513.40 85.96 , 512.96 86.52 , 512.51 87.08 , 512.06 87.64 , 511.59 88.20 , 511.12 88.76 , 510.63 89.32 , 510.14 89.88 , 509.64 90.44 , 509.12 91.00 , 508.60 91.56 , 508.07 92.12 , 507.53 92.68 , 506.98 93.24 , 506.42 93.80 , 505.85 94.36 , 505.27 94.92 , 504.68 95.48 , 504.08 96.04 , 503.46 96.60 , 502.84 97.16 , 502.21 97.72 , 501.57 98.28 , 500.92 98.84 , 500.25 99.40 , 499.58 99.96 , 498.89 100.52 , 498.20 101.08 , 497.49 101.64 , 496.77 102.20 , 496.04 102.76 , 495.31 103.32 , 494.56 103.88 , 493.79 104.44 , 493.02 105.00 , 492.24 105.56 , 491.45 106.12 , 490.64 106.68 , 489.83 107.24 , 489.00 107.80 , 488.16 108.36 , 487.31 108.92 , 486.45 109.48 , 485.58 110.04 , 484.70 110.60 , 483.81 111.16 , 482.90 111.72 , 481.99 112.28 , 481.07 112.84 , 480.13 113.40 , 479.18 113.96 , 478.23 114.52 , 477.26 115.08 , 476.28 115.64 , 475.29 116.20 , 474.30 116.76 , 473.29 117.32 , 472.27 117.88 , 471.24 118.44 , 470.20 119.00 , 469.15 119.56 , 468.09 120.12 , 467.03 120.68 , 465.95 121.24 , 464.86 121.80 , 463.77 122.36 , 462.66 122.92 , 461.55 123.48 , 460.43 124.04 , 459.30 124.60 , 458.16 125.16 , 457.01 125.72 , 455.86 126.28 , 454.70 126.84 , 453.53 127.40 , 452.35 127.96 , 451.17 128.52 , 449.97 129.08 , 448.78 129.64 , 447.57 130.20 , 446.36 130.76 , 445.15 131.32 , 443.92 131.88 , 442.70 132.44 , 441.46 133.00 , 440.23 133.56 , 438.98 134.12 , 437.74 134.68 , 436.49 135.24 , 435.23 135.80 , 433.98 136.36 , 432.71 136.92 , 431.45 137.48 , 430.18 138.04 , 428.92 138.60 , 427.65 139.16 , 426.37 139.72 , 425.10 140.28 , 423.83 140.84 , 422.55 141.40 , 421.28 141.96 , 420.00 142.52 , 418.73 143.08 , 417.45 143.64 , 416.18 144.20 , 414.91 144.76 , 413.64 145.32 , 412.37 145.88 , 411.11 146.44 , 409.85 147.00 , 408.59 147.56 , 407.34 148.12 , 406.09 148.68 , 404.84 149.25 , 403.60 149.81 , 402.37 150.37 , 401.14 150.93 , 399.92 151.49 , 398.70 152.05 , 397.49 152.61 , 396.29 153.17 , 395.09 153.73 , 393.91 154.29 , 392.73 154.85 , 391.56 155.41 , 390.40 155.97 , 389.25 156.53 , 388.11 157.09 , 386.99 157.65 , 385.87 158.21 , 384.76 158.77 , 383.67 159.33 , 382.58 159.89 , 381.51 160.45 , 380.46 161.01 , 379.41 161.57 , 378.38 162.13 , 377.36 162.69 , 376.36 163.25 , 375.37 163.81 , 374.40 164.37 , 373.44 164.93 , 372.50 165.49 , 371.58 166.05 , 370.67 166.61 , 369.78 167.17 , 368.90 167.73 , 368.05 168.29 , 367.21 168.85 , 366.39 169.41 , 365.59 169.97 , 364.80 170.53 , 364.04 171.09 , 363.29 171.65 , 362.57 172.21 , 361.86 172.77 , 361.18 173.33 , 360.52 173.89 , 359.87 174.45 , 359.25 175.01 , 358.65 175.57 , 358.07 176.13 , 357.51 176.69 , 356.98 177.25 , 356.47 177.81 , 355.97 178.37 , 355.51 178.93 , 355.06 179.49 , 354.64 180.05 , 354.24 180.61 , 353.86 181.17 , 353.51 181.73 , 353.18 182.29 , 352.88 182.85 , 352.60 183.41 , 352.34 183.97 , 352.11 184.53 , 351.90 185.09 , 351.72 185.65 , 351.56 186.21 , 351.42 186.77 , 351.31 187.33 , 351.23 187.89 , 351.16 188.45 , 351.13 189.01 , 351.11 189.57 , 351.13 190.13 , 351.16 190.69 , 351.23 191.25 , 351.31 191.81 , 351.42 192.37 , 351.56 192.93 , 351.72 193.49 , 351.90 194.05 , 352.11 194.61 , 352.34 195.17 , 352.60 195.73 , 352.88 196.29 , 353.18 196.85 , 353.51 197.41 , 353.86 197.97 , 354.24 198.53 , 354.64 199.09 , 355.06 199.65 , 355.51 200.21 , 355.97 200.77 , 356.47 201.33 , 356.98 201.89 , 357.51 202.45 , 358.07 203.01 , 358.65 203.57 , 359.25 204.13 , 359.87 204.69 , 360.52 205.25 , 361.18 205.81 , 361.86 206.37 , 362.57 206.93 , 363.29 207.49 , 364.04 208.05 , 364.80 208.61 , 365.59 209.17 , 366.39 209.73 , 367.21 210.29 , 368.05 210.85 , 368.90 211.41 , 369.78 211.97 , 370.67 212.53 , 371.58 213.09 , 372.50 213.65 , 373.44 214.21 , 374.40 214.77 , 375.37 215.33 , 376.36 215.89 , 377.36 216.45 , 378.38 217.01 , 379.41 217.57 , 380.46 218.13 , 381.51 218.69 , 382.58 219.25 , 383.67 219.81 , 384.76 220.37 , 385.87 220.93 , 386.99 221.49 , 388.11 222.05 , 389.25 222.61 , 390.40 223.17 , 391.56 223.73 , 392.73 224.29 , 393.91 224.85 , 395.09 225.41 , 396.29 225.97 , 397.49 226.53 , 398.70 227.09 , 399.92 227.65 , 401.14 228.21 , 402.37 228.77 , 403.60 229.33 , 404.84 229.89 , 406.09 230.45 , 407.34 231.01 , 408.59 231.57 , 409.85 232.13 , 411.11 232.69 , 412.37 233.25 , 413.64 233.81 , 414.91 234.37 , 416.18 234.93 , 417.45 235.49 , 418.73 236.05 , 420.00 236.61 , 421.28 237.17 , 422.55 237.73 , 423.83 238.29 , 425.10 238.85 , 426.37 239.41 , 427.65 239.97 , 428.92 240.53 , 430.18 241.09 , 431.45 241.65 , 432.71 242.21 , 433.98 242.77 , 435.23 243.33 , 436.49 243.89 , 437.74 244.45 , 438.98 245.01 , 440.23 245.57 , 441.46 246.13 , 442.70 246.69 , 443.92 247.25 , 445.15 247.81 , 446.36 248.37 , 447.57 248.93 , 448.78 249.49 , 449.97 250.05 , 451.17 250.61 , 452.35 251.17 , 453.53 251.73 , 454.70 252.29 , 455.86 252.85 , 457.01 253.41 , 458.16 253.97 , 459.30 254.53 , 460.43 255.09 , 461.55 255.65 , 462.66 256.21 , 463.77 256.77 , 464.86 257.33 , 465.95 257.89 , 467.03 258.45 , 468.09 259.01 , 469.15 259.57 , 470.20 260.13 , 471.24 260.69 , 472.27 261.25 , 473.29 261.81 , 474.30 262.37 , 475.29 262.93 , 476.28 263.49 , 477.26 264.05 , 478.23 264.61 , 479.18 265.17 , 480.13 265.73 , 481.07 266.29 , 481.99 266.85 , 482.90 267.41 , 483.81 267.97 , 484.70 268.53 , 485.58 269.09 , 486.45 269.66 , 487.31 270.22 , 488.16 270.78 , 489.00 271.34 , 489.83 271.90 , 490.64 272.46 , 491.45 273.02 , 492.24 273.58 , 493.02 274.14 , 493.79 274.70 , 494.56 275.26 , 495.31 275.82 , 496.04 276.38 , 496.77 276.94 , 497.49 277.50 , 498.20 278.06 , 498.89 278.62 , 499.58 279.18 , 500.25 279.74 , 500.92 280.30 , 501.57 280.86 , 502.21 281.42 , 502.84 281.98 , 503.46 282.54 , 504.08 283.10 , 504.68 283.66 , 505.27 284.22 , 505.85 284.78 , 506.42 285.34 , 506.98 285.90 , 507.53 286.46 , 508.07 287.02 , 508.60 287.58 , 509.12 288.14 , 509.64 288.70 , 510.14 289.26 , 510.63 289.82 , 511.12 290.38 , 511.59 290.94 , 512.06 291.50 , 512.51 292.06 , 512.96 292.62 , 513.40 293.18 , 513.83 293.74 , 514.25 294.30 , 514.67 294.86 , 515.07 295.42 , 515.47 295.98 , 515.86 296.54 , 516.24 297.10 , 516.61 297.66 , 516.97 298.22 , 517.33 298.78 , 517.68 299.34 , 518.02 299.90 , 518.35 300.46 , 518.68 301.02 , 519.00 301.58 , 519.31 302.14 , 519.62 302.70 , 519.92 303.26 , 520.21 303.82 , 520.49 304.38 , 520.77 304.94 , 521.05 305.50 , 521.31 306.06 , 521.57 306.62 , 521.82 307.18 , 522.07 307.74 , 522.31 308.30 , 522.55 308.86 , 522.78 309.42 , 523.00 309.98 , 523.22 310.54 , 523.44 311.10 , 523.64 311.66 , 523.85 312.22 , 524.04 312.78 , 524.24 313.34 , 524.43 313.90 , 524.61 314.46 , 524.79 315.02 , 524.96 315.58 , 525.13 316.14 , 525.29 316.70 , 525.45 317.26 , 525.61 317.82 , 525.76 318.38 , 525.91 318.94 , 526.05 319.50 , 526.19 320.06 , 526.33 320.62 , 526.46 321.18 , 526.59 321.74 , 526.72 322.30 , 526.84 322.86 , 526.96 323.42 , 527.07 323.98 , 527.18 324.54 , 527.29 325.10 , 527.40 325.66 , 527.50 326.22 , 527.60 326.78 , 527.70 327.34 , 527.79 327.90 , 527.88 328.46 , 527.97 329.02 , 528.05 329.58 , 528.14 330.14 , 528.22 330.70 , 528.30 331.26 , 528.37 331.82 , 528.44 332.38 , 528.52 " style="stroke-width:1;stroke:#000000;fill:#000000;stroke-opacity:1.000000;fill-opacity:0.000000"/>
<text transform="translate(110.01,311.16)"  style="font-size:12" >Graphic diagnostic for state 3</text>
<text transform="translate(133.77,560.66)"  style="font-size:10" >Estimated Density (green) </text>
<text transform="translate(136.20,568.99)"  style="font-size:10" > Normal density (black)</text>
<text transform="translate(189.01,577.33)"  style="font-size:10" ></text>
</svg>
