<?xml version="1.0" encoding="UTF-8"?>
<svg xmlns="http://www.w3.org/2000/svg" width="722.70" height="578.16" viewBox="0,0,722.70,578.16">
<desc>R SVG Plot!</desc>
<rect width="100%" height="100%" style="fill:#FFFFFF"/>
<polyline points="59.02 , 517.08 60.24 , 517.07 61.45 , 517.05 62.67 , 517.03 63.88 , 516.99 65.10 , 516.93 66.32 , 516.86 67.53 , 516.77 68.75 , 516.66 69.96 , 516.56 71.18 , 516.47 72.39 , 516.41 73.61 , 516.38 74.83 , 516.39 76.04 , 516.44 77.26 , 516.52 78.47 , 516.62 79.69 , 516.72 80.91 , 516.82 82.12 , 516.89 83.34 , 516.94 84.55 , 516.97 85.77 , 516.97 86.99 , 516.94 88.20 , 516.88 89.42 , 516.80 90.63 , 516.70 91.85 , 516.60 93.07 , 516.50 94.28 , 516.42 95.50 , 516.38 96.71 , 516.38 97.93 , 516.41 99.14 , 516.49 100.36 , 516.58 101.58 , 516.69 102.79 , 516.79 104.01 , 516.87 105.22 , 516.94 106.44 , 516.98 107.66 , 516.99 108.87 , 516.97 110.09 , 516.92 111.30 , 516.83 112.52 , 516.70 113.74 , 516.52 114.95 , 516.31 116.17 , 516.07 117.38 , 515.83 118.60 , 515.60 119.81 , 515.41 121.03 , 515.29 122.25 , 515.25 123.46 , 515.28 124.68 , 515.38 125.89 , 515.54 127.11 , 515.74 128.33 , 515.96 129.54 , 516.18 130.76 , 516.38 131.97 , 516.56 133.19 , 516.72 134.41 , 516.83 135.62 , 516.92 136.84 , 516.99 138.05 , 517.03 139.27 , 517.05 140.49 , 517.07 141.70 , 517.08 142.92 , 517.08 144.13 , 517.08 145.35 , 517.09 146.56 , 517.09 147.78 , 517.09 149.00 , 517.09 150.21 , 517.09 151.43 , 517.09 152.64 , 517.09 153.86 , 517.09 155.08 , 517.09 156.29 , 517.09 157.51 , 517.09 158.72 , 517.09 159.94 , 517.09 161.16 , 517.09 162.37 , 517.08 163.59 , 517.08 164.80 , 517.08 166.02 , 517.06 167.24 , 517.05 168.45 , 517.02 169.67 , 516.97 170.88 , 516.91 172.10 , 516.83 173.31 , 516.73 174.53 , 516.62 175.75 , 516.51 176.96 , 516.41 178.18 , 516.33 179.39 , 516.27 180.61 , 516.23 181.83 , 516.19 183.04 , 516.15 184.26 , 516.08 185.47 , 515.99 186.69 , 515.87 187.91 , 515.72 189.12 , 515.57 190.34 , 515.43 191.55 , 515.30 192.77 , 515.18 193.99 , 515.06 195.20 , 514.92 196.42 , 514.75 197.63 , 514.55 198.85 , 514.33 200.06 , 514.13 201.28 , 513.97 202.50 , 513.88 203.71 , 513.91 204.93 , 514.05 206.14 , 514.29 207.36 , 514.62 208.58 , 514.99 209.79 , 515.36 211.01 , 515.67 212.22 , 515.91 213.44 , 516.04 214.66 , 516.06 215.87 , 515.97 217.09 , 515.78 218.30 , 515.52 219.52 , 515.20 220.74 , 514.86 221.95 , 514.52 223.17 , 514.21 224.38 , 513.92 225.60 , 513.68 226.81 , 513.46 228.03 , 513.26 229.25 , 513.05 230.46 , 512.82 231.68 , 512.57 232.89 , 512.28 234.11 , 511.99 235.33 , 511.70 236.54 , 511.46 237.76 , 511.27 238.97 , 511.17 240.19 , 511.16 241.41 , 511.25 242.62 , 511.42 243.84 , 511.64 245.05 , 511.90 246.27 , 512.14 247.48 , 512.34 248.70 , 512.43 249.92 , 512.40 251.13 , 512.19 252.35 , 511.80 253.56 , 511.22 254.78 , 510.47 256.00 , 509.55 257.21 , 508.53 258.43 , 507.44 259.64 , 506.32 260.86 , 505.26 262.08 , 504.29 263.29 , 503.48 264.51 , 502.89 265.72 , 502.54 266.94 , 502.43 268.16 , 502.52 269.37 , 502.71 270.59 , 502.87 271.80 , 502.84 273.02 , 502.52 274.23 , 501.80 275.45 , 500.65 276.67 , 499.08 277.88 , 497.16 279.10 , 494.99 280.31 , 492.68 281.53 , 490.37 282.75 , 488.17 283.96 , 486.15 285.18 , 484.37 286.39 , 482.81 287.61 , 481.40 288.83 , 480.03 290.04 , 478.53 291.26 , 476.73 292.47 , 474.50 293.69 , 471.74 294.91 , 468.42 296.12 , 464.61 297.34 , 460.42 298.55 , 456.01 299.77 , 451.58 300.98 , 447.28 302.20 , 443.26 303.42 , 439.62 304.63 , 436.38 305.85 , 433.54 307.06 , 431.03 308.28 , 428.71 309.50 , 426.38 310.71 , 423.74 311.93 , 420.53 313.14 , 416.51 314.36 , 411.55 315.58 , 405.64 316.79 , 398.89 318.01 , 391.53 319.22 , 383.80 320.44 , 375.95 321.66 , 368.15 322.87 , 360.49 324.09 , 352.94 325.30 , 345.38 326.52 , 337.67 327.73 , 329.64 328.95 , 321.12 330.17 , 311.97 331.38 , 302.14 332.60 , 291.60 333.81 , 280.42 335.03 , 268.71 336.25 , 256.66 337.46 , 244.51 338.68 , 232.45 339.89 , 220.57 341.11 , 208.78 342.33 , 196.84 343.54 , 184.38 344.76 , 171.04 345.97 , 156.58 347.19 , 141.04 348.41 , 124.76 349.62 , 108.41 350.84 , 92.94 352.05 , 79.22 353.27 , 67.96 354.48 , 59.66 355.70 , 54.58 356.92 , 52.74 358.13 , 54.04 359.35 , 58.24 360.56 , 65.04 361.78 , 74.06 363.00 , 84.90 364.21 , 97.09 365.43 , 110.16 366.64 , 123.65 367.86 , 137.17 369.08 , 150.41 370.29 , 163.17 371.51 , 175.40 372.72 , 187.13 373.94 , 198.46 375.15 , 209.45 376.37 , 220.17 377.59 , 230.65 378.80 , 240.88 380.02 , 250.82 381.23 , 260.41 382.45 , 269.53 383.67 , 278.09 384.88 , 285.99 386.10 , 293.18 387.31 , 299.70 388.53 , 305.69 389.75 , 311.39 390.96 , 317.10 392.18 , 323.12 393.39 , 329.64 394.61 , 336.76 395.83 , 344.46 397.04 , 352.66 398.26 , 361.28 399.47 , 370.23 400.69 , 379.43 401.90 , 388.81 403.12 , 398.30 404.34 , 407.77 405.55 , 417.07 406.77 , 425.97 407.98 , 434.27 409.20 , 441.72 410.42 , 448.13 411.63 , 453.32 412.85 , 457.32 414.06 , 460.25 415.28 , 462.30 416.50 , 463.76 417.71 , 464.97 418.93 , 466.25 420.14 , 467.85 421.36 , 469.93 422.58 , 472.54 423.79 , 475.62 425.01 , 479.04 426.22 , 482.62 427.44 , 486.18 428.65 , 489.58 429.87 , 492.69 431.09 , 495.46 432.30 , 497.85 433.52 , 499.91 434.73 , 501.65 435.95 , 503.13 437.17 , 504.37 438.38 , 505.43 439.60 , 506.33 440.81 , 507.13 442.03 , 507.84 443.25 , 508.49 444.46 , 509.08 445.68 , 509.61 446.89 , 510.06 448.11 , 510.44 449.33 , 510.73 450.54 , 510.94 451.76 , 511.09 452.97 , 511.20 454.19 , 511.31 455.40 , 511.43 456.62 , 511.61 457.84 , 511.83 459.05 , 512.09 460.27 , 512.39 461.48 , 512.68 462.70 , 512.94 463.92 , 513.13 465.13 , 513.24 466.35 , 513.26 467.56 , 513.21 468.78 , 513.11 470.00 , 512.99 471.21 , 512.92 472.43 , 512.91 473.64 , 513.01 474.86 , 513.21 476.07 , 513.50 477.29 , 513.85 478.51 , 514.21 479.72 , 514.53 480.94 , 514.78 482.15 , 514.93 483.37 , 514.99 484.59 , 514.98 485.80 , 514.94 487.02 , 514.90 488.23 , 514.90 489.45 , 514.95 490.67 , 515.04 491.88 , 515.15 493.10 , 515.26 494.31 , 515.36 495.53 , 515.42 496.75 , 515.46 497.96 , 515.49 499.18 , 515.54 500.39 , 515.61 501.61 , 515.72 502.82 , 515.87 504.04 , 516.04 505.26 , 516.22 506.47 , 516.39 507.69 , 516.53 508.90 , 516.62 510.12 , 516.66 511.34 , 516.66 512.55 , 516.61 513.77 , 516.53 514.98 , 516.45 516.20 , 516.37 517.42 , 516.32 518.63 , 516.28 519.85 , 516.26 521.06 , 516.24 522.28 , 516.20 523.50 , 516.13 524.71 , 516.04 525.93 , 515.91 527.14 , 515.79 528.36 , 515.69 529.57 , 515.63 530.79 , 515.64 532.01 , 515.73 533.22 , 515.88 534.44 , 516.08 535.65 , 516.29 536.87 , 516.49 538.09 , 516.66 539.30 , 516.80 540.52 , 516.91 541.73 , 516.98 542.95 , 517.03 544.17 , 517.06 545.38 , 517.07 546.60 , 517.08 547.81 , 517.08 549.03 , 517.08 550.25 , 517.09 551.46 , 517.09 552.68 , 517.09 553.89 , 517.09 555.11 , 517.09 556.32 , 517.09 557.54 , 517.09 558.76 , 517.09 559.97 , 517.09 561.19 , 517.08 562.40 , 517.08 563.62 , 517.08 564.84 , 517.07 566.05 , 517.05 567.27 , 517.02 568.48 , 516.98 569.70 , 516.92 570.92 , 516.84 572.13 , 516.75 573.35 , 516.64 574.56 , 516.54 575.78 , 516.45 577.00 , 516.40 578.21 , 516.38 579.43 , 516.40 580.64 , 516.46 581.86 , 516.54 583.07 , 516.64 584.29 , 516.75 585.51 , 516.84 586.72 , 516.92 587.94 , 516.98 589.15 , 517.02 590.37 , 517.05 591.59 , 517.07 592.80 , 517.08 594.02 , 517.08 595.23 , 517.08 596.45 , 517.09 597.67 , 517.09 598.88 , 517.09 600.10 , 517.09 601.31 , 517.09 602.53 , 517.09 603.74 , 517.09 604.96 , 517.09 606.18 , 517.09 607.39 , 517.09 608.61 , 517.09 609.82 , 517.09 611.04 , 517.09 612.26 , 517.09 613.47 , 517.09 614.69 , 517.09 615.90 , 517.09 617.12 , 517.09 618.34 , 517.09 619.55 , 517.09 620.77 , 517.09 621.98 , 517.09 623.20 , 517.09 624.42 , 517.09 625.63 , 517.09 626.85 , 517.09 628.06 , 517.09 629.28 , 517.09 630.49 , 517.09 631.71 , 517.09 632.93 , 517.09 634.14 , 517.09 635.36 , 517.09 636.57 , 517.09 637.79 , 517.09 639.01 , 517.09 640.22 , 517.09 641.44 , 517.09 642.65 , 517.09 643.87 , 517.09 645.09 , 517.09 646.30 , 517.09 647.52 , 517.09 648.73 , 517.08 649.95 , 517.08 651.17 , 517.07 652.38 , 517.06 653.60 , 517.05 654.81 , 517.02 656.03 , 516.97 657.24 , 516.90 658.46 , 516.82 659.68 , 516.73 660.89 , 516.62 662.11 , 516.52 663.32 , 516.44 664.54 , 516.39 665.76 , 516.38 666.97 , 516.41 668.19 , 516.47 669.40 , 516.56 670.62 , 516.66 671.84 , 516.77 673.05 , 516.86 674.27 , 516.93 675.48 , 516.99 676.70 , 517.03 677.92 , 517.05 679.13 , 517.07 680.35 , 517.08 " style="stroke-width:1;stroke:#FF0000;fill:#000000;stroke-opacity:1.000000;fill-opacity:0.000000"/>
<line x1="123.13" y1="535.66" x2="590.01" y2="535.66" style="stroke-width:1;stroke:#000000;fill:#000000;stroke-opacity:1.000000;fill-opacity:0.000000"/>
<line x1="123.13" y1="535.66" x2="123.13" y2="539.83" style="stroke-width:1;stroke:#000000;fill:#000000;stroke-opacity:1.000000;fill-opacity:0.000000"/>
<line x1="239.85" y1="535.66" x2="239.85" y2="539.83" style="stroke-width:1;stroke:#000000;fill:#000000;stroke-opacity:1.000000;fill-opacity:0.000000"/>
<line x1="356.57" y1="535.66" x2="356.57" y2="539.83" style="stroke-width:1;stroke:#000000;fill:#000000;stroke-opacity:1.000000;fill-opacity:0.000000"/>
<line x1="473.29" y1="535.66" x2="473.29" y2="539.83" style="stroke-width:1;stroke:#000000;fill:#000000;stroke-opacity:1.000000;fill-opacity:0.000000"/>
<line x1="590.01" y1="535.66" x2="590.01" y2="539.83" style="stroke-width:1;stroke:#000000;fill:#000000;stroke-opacity:1.000000;fill-opacity:0.000000"/>
<text transform="translate(112.57,552.33)"  style="font-size:10" >-0.10</text>
<text transform="translate(228.24,552.33)"  style="font-size:10" >-0.05</text>
<text transform="translate(346.79,552.33)"  style="font-size:10" >0.00</text>
<text transform="translate(463.51,552.33)"  style="font-size:10" >0.05</text>
<text transform="translate(580.23,552.33)"  style="font-size:10" >0.10</text>
<line x1="34.17" y1="517.09" x2="34.17" y2="140.39" style="stroke-width:1;stroke:#000000;fill:#000000;stroke-opacity:1.000000;fill-opacity:0.000000"/>
<line x1="34.17" y1="517.09" x2="30.00" y2="517.09" style="stroke-width:1;stroke:#000000;fill:#000000;stroke-opacity:1.000000;fill-opacity:0.000000"/>
<line x1="34.17" y1="391.52" x2="30.00" y2="391.52" style="stroke-width:1;stroke:#000000;fill:#000000;stroke-opacity:1.000000;fill-opacity:0.000000"/>
<line x1="34.17" y1="265.95" x2="30.00" y2="265.95" style="stroke-width:1;stroke:#000000;fill:#000000;stroke-opacity:1.000000;fill-opacity:0.000000"/>
<line x1="34.17" y1="140.39" x2="30.00" y2="140.39" style="stroke-width:1;stroke:#000000;fill:#000000;stroke-opacity:1.000000;fill-opacity:0.000000"/>
<text transform="translate(25.83,519.84) rotate(-90)"  style="font-size:10" >0</text>
<text transform="translate(25.83,397.02) rotate(-90)"  style="font-size:10" >10</text>
<text transform="translate(25.83,271.45) rotate(-90)"  style="font-size:10" >20</text>
<text transform="translate(25.83,145.89) rotate(-90)"  style="font-size:10" >30</text>
<polyline points="34.17 , 535.66 705.20 , 535.66 705.20 , 34.17 34.17 , 34.17 34.17 , 535.66 " style="stroke-width:1;stroke:#000000;fill:#000000;stroke-opacity:1.000000;fill-opacity:0.000000"/>
<text transform="translate(201.01,22.08)"  style="font-size:12" >Densité des périodes 1990-2002 (bleu) et 2003-2016 (rouge)</text>
<text transform="translate(298.63,568.99)"  style="font-size:10" >N = 3289   Bandwidth = 0.002118</text>
<text transform="translate(9.17,302.15) rotate(-90)"  style="font-size:10" >Density</text>
<line x1="34.17" y1="517.09" x2="705.20" y2="517.09" style="stroke-width:0;stroke:#BEBEBE;fill:#000000;stroke-opacity:1.000000;fill-opacity:0.000000"/>
<polyline points="171.96 , 517.08 172.92 , 517.07 173.88 , 517.06 174.84 , 517.05 175.80 , 517.03 176.76 , 517.00 177.72 , 516.97 178.68 , 516.92 179.64 , 516.86 180.60 , 516.79 181.56 , 516.71 182.52 , 516.62 183.48 , 516.52 184.44 , 516.42 185.40 , 516.32 186.36 , 516.22 187.32 , 516.11 188.28 , 516.02 189.24 , 515.92 190.20 , 515.83 191.16 , 515.74 192.12 , 515.66 193.08 , 515.59 194.04 , 515.54 195.00 , 515.52 195.96 , 515.52 196.92 , 515.55 197.88 , 515.62 198.84 , 515.71 199.80 , 515.83 200.76 , 515.96 201.72 , 516.09 202.68 , 516.20 203.64 , 516.29 204.60 , 516.34 205.56 , 516.34 206.52 , 516.30 207.48 , 516.22 208.44 , 516.08 209.40 , 515.92 210.36 , 515.72 211.32 , 515.51 212.28 , 515.30 213.24 , 515.10 214.20 , 514.94 215.16 , 514.81 216.12 , 514.72 217.08 , 514.67 218.04 , 514.66 219.00 , 514.69 219.96 , 514.73 220.92 , 514.78 221.88 , 514.82 222.84 , 514.84 223.80 , 514.80 224.76 , 514.72 225.72 , 514.58 226.68 , 514.38 227.64 , 514.14 228.60 , 513.85 229.56 , 513.55 230.52 , 513.25 231.48 , 512.96 232.44 , 512.71 233.40 , 512.51 234.36 , 512.38 235.31 , 512.32 236.27 , 512.32 237.23 , 512.38 238.19 , 512.48 239.15 , 512.60 240.11 , 512.73 241.07 , 512.86 242.03 , 512.97 242.99 , 513.06 243.95 , 513.11 244.91 , 513.11 245.87 , 513.05 246.83 , 512.93 247.79 , 512.73 248.75 , 512.43 249.71 , 512.04 250.67 , 511.56 251.63 , 511.00 252.59 , 510.38 253.55 , 509.71 254.51 , 509.02 255.47 , 508.35 256.43 , 507.70 257.39 , 507.10 258.35 , 506.56 259.31 , 506.08 260.27 , 505.64 261.23 , 505.21 262.19 , 504.77 263.15 , 504.29 264.11 , 503.72 265.07 , 503.05 266.03 , 502.23 266.99 , 501.27 267.95 , 500.14 268.91 , 498.85 269.87 , 497.42 270.83 , 495.88 271.79 , 494.25 272.75 , 492.60 273.71 , 490.97 274.67 , 489.40 275.63 , 487.93 276.59 , 486.58 277.55 , 485.36 278.51 , 484.28 279.47 , 483.31 280.43 , 482.45 281.39 , 481.66 282.35 , 480.90 283.31 , 480.13 284.27 , 479.31 285.23 , 478.38 286.19 , 477.30 287.15 , 476.03 288.11 , 474.53 289.07 , 472.79 290.03 , 470.79 290.99 , 468.53 291.95 , 466.02 292.91 , 463.29 293.87 , 460.35 294.83 , 457.23 295.79 , 453.96 296.75 , 450.54 297.71 , 446.99 298.67 , 443.31 299.63 , 439.52 300.59 , 435.62 301.55 , 431.65 302.51 , 427.65 303.47 , 423.66 304.43 , 419.74 305.39 , 415.94 306.35 , 412.29 307.31 , 408.80 308.27 , 405.46 309.23 , 402.23 310.19 , 399.01 311.15 , 395.72 312.11 , 392.28 313.07 , 388.61 314.03 , 384.66 314.99 , 380.37 315.95 , 375.75 316.91 , 370.79 317.87 , 365.52 318.83 , 359.97 319.79 , 354.18 320.75 , 348.16 321.71 , 341.95 322.67 , 335.58 323.63 , 329.04 324.59 , 322.34 325.55 , 315.48 326.51 , 308.42 327.47 , 301.16 328.43 , 293.64 329.39 , 285.85 330.35 , 277.75 331.31 , 269.31 332.27 , 260.52 333.23 , 251.40 334.19 , 242.03 335.15 , 232.48 336.11 , 222.85 337.07 , 213.26 338.03 , 203.81 338.99 , 194.60 339.95 , 185.71 340.91 , 177.19 341.87 , 169.10 342.83 , 161.46 343.79 , 154.28 344.75 , 147.61 345.71 , 141.46 346.67 , 135.82 347.63 , 130.73 348.59 , 126.23 349.55 , 122.35 350.51 , 119.12 351.47 , 116.56 352.43 , 114.68 353.39 , 113.49 354.35 , 112.97 355.31 , 113.12 356.27 , 113.94 357.23 , 115.47 358.19 , 117.65 359.15 , 120.47 360.11 , 123.88 361.07 , 127.85 362.03 , 132.29 362.98 , 137.10 363.94 , 142.19 364.90 , 147.45 365.86 , 152.81 366.82 , 158.22 367.78 , 163.70 368.74 , 169.30 369.70 , 175.13 370.66 , 181.29 371.62 , 187.90 372.58 , 195.03 373.54 , 202.72 374.50 , 210.99 375.46 , 219.79 376.42 , 229.06 377.38 , 238.71 378.34 , 248.64 379.30 , 258.75 380.26 , 268.94 381.22 , 279.11 382.18 , 289.15 383.14 , 298.98 384.10 , 308.49 385.06 , 317.59 386.02 , 326.20 386.98 , 334.23 387.94 , 341.62 388.90 , 348.33 389.86 , 354.38 390.82 , 359.78 391.78 , 364.61 392.74 , 368.98 393.70 , 372.99 394.66 , 376.84 395.62 , 380.65 396.58 , 384.54 397.54 , 388.58 398.50 , 392.82 399.46 , 397.25 400.42 , 401.84 401.38 , 406.52 402.34 , 411.20 403.30 , 415.82 404.26 , 420.31 405.22 , 424.60 406.18 , 428.67 407.14 , 432.54 408.10 , 436.22 409.06 , 439.75 410.02 , 443.16 410.98 , 446.47 411.94 , 449.69 412.90 , 452.84 413.86 , 455.91 414.82 , 458.89 415.78 , 461.76 416.74 , 464.50 417.70 , 467.07 418.66 , 469.46 419.62 , 471.66 420.58 , 473.67 421.54 , 475.49 422.50 , 477.13 423.46 , 478.62 424.42 , 479.96 425.38 , 481.16 426.34 , 482.24 427.30 , 483.20 428.26 , 484.03 429.22 , 484.74 430.18 , 485.32 431.14 , 485.79 432.10 , 486.18 433.06 , 486.54 434.02 , 486.92 434.98 , 487.37 435.94 , 487.96 436.90 , 488.72 437.86 , 489.69 438.82 , 490.87 439.78 , 492.26 440.74 , 493.83 441.70 , 495.51 442.66 , 497.23 443.62 , 498.93 444.58 , 500.53 445.54 , 501.99 446.50 , 503.26 447.46 , 504.32 448.42 , 505.16 449.38 , 505.81 450.34 , 506.27 451.30 , 506.59 452.26 , 506.79 453.22 , 506.92 454.18 , 507.00 455.14 , 507.08 456.10 , 507.17 457.06 , 507.29 458.02 , 507.45 458.98 , 507.65 459.94 , 507.87 460.90 , 508.13 461.86 , 508.41 462.82 , 508.71 463.78 , 509.03 464.74 , 509.35 465.70 , 509.68 466.66 , 510.03 467.62 , 510.37 468.58 , 510.72 469.54 , 511.07 470.50 , 511.40 471.46 , 511.73 472.42 , 512.05 473.38 , 512.35 474.34 , 512.65 475.30 , 512.95 476.26 , 513.25 477.22 , 513.55 478.18 , 513.85 479.14 , 514.16 480.10 , 514.46 481.06 , 514.74 482.02 , 514.99 482.98 , 515.19 483.94 , 515.34 484.90 , 515.41 485.86 , 515.41 486.82 , 515.33 487.78 , 515.18 488.74 , 514.96 489.70 , 514.70 490.65 , 514.40 491.61 , 514.10 492.57 , 513.82 493.53 , 513.59 494.49 , 513.43 495.45 , 513.35 496.41 , 513.37 497.37 , 513.48 498.33 , 513.68 499.29 , 513.97 500.25 , 514.31 501.21 , 514.68 502.17 , 515.07 503.13 , 515.44 504.09 , 515.78 505.05 , 516.08 506.01 , 516.34 506.97 , 516.54 507.93 , 516.70 508.89 , 516.82 509.85 , 516.90 510.81 , 516.95 511.77 , 516.98 512.73 , 516.98 513.69 , 516.96 514.65 , 516.92 515.61 , 516.85 516.57 , 516.77 517.53 , 516.66 518.49 , 516.52 519.45 , 516.37 520.41 , 516.20 521.37 , 516.02 522.33 , 515.84 523.29 , 515.67 524.25 , 515.51 525.21 , 515.37 526.17 , 515.25 527.13 , 515.17 528.09 , 515.11 529.05 , 515.08 530.01 , 515.08 530.97 , 515.10 531.93 , 515.15 532.89 , 515.22 533.85 , 515.31 534.81 , 515.43 535.77 , 515.57 536.73 , 515.72 537.69 , 515.89 538.65 , 516.06 539.61 , 516.23 540.57 , 516.39 541.53 , 516.54 542.49 , 516.66 543.45 , 516.77 544.41 , 516.86 545.37 , 516.93 546.33 , 516.98 547.29 , 517.01 548.25 , 517.04 549.21 , 517.06 550.17 , 517.07 551.13 , 517.08 552.09 , 517.08 553.05 , 517.08 554.01 , 517.08 554.97 , 517.09 555.93 , 517.09 556.89 , 517.09 557.85 , 517.09 558.81 , 517.09 559.77 , 517.09 560.73 , 517.09 561.69 , 517.09 562.65 , 517.09 563.61 , 517.09 564.57 , 517.09 565.53 , 517.09 566.49 , 517.09 567.45 , 517.09 568.41 , 517.09 569.37 , 517.09 570.33 , 517.09 571.29 , 517.09 572.25 , 517.09 573.21 , 517.09 574.17 , 517.09 575.13 , 517.09 576.09 , 517.09 577.05 , 517.09 578.01 , 517.09 578.97 , 517.09 579.93 , 517.09 580.89 , 517.09 581.85 , 517.09 582.81 , 517.09 583.77 , 517.09 584.73 , 517.09 585.69 , 517.09 586.65 , 517.09 587.61 , 517.09 588.57 , 517.09 589.53 , 517.09 590.49 , 517.09 591.45 , 517.09 592.41 , 517.09 593.37 , 517.09 594.33 , 517.09 595.29 , 517.09 596.25 , 517.09 597.21 , 517.09 598.17 , 517.09 599.13 , 517.09 600.09 , 517.09 601.05 , 517.09 602.01 , 517.09 602.97 , 517.09 603.93 , 517.09 604.89 , 517.09 605.85 , 517.09 606.81 , 517.09 607.77 , 517.09 608.73 , 517.09 609.69 , 517.09 610.65 , 517.09 611.61 , 517.09 612.57 , 517.09 613.53 , 517.09 614.49 , 517.09 615.45 , 517.09 616.41 , 517.09 617.37 , 517.09 618.32 , 517.09 619.28 , 517.09 620.24 , 517.09 621.20 , 517.09 622.16 , 517.09 623.12 , 517.09 624.08 , 517.09 625.04 , 517.09 626.00 , 517.09 626.96 , 517.09 627.92 , 517.08 628.88 , 517.08 629.84 , 517.08 630.80 , 517.08 631.76 , 517.07 632.72 , 517.07 633.68 , 517.05 634.64 , 517.04 635.60 , 517.01 636.56 , 516.98 637.52 , 516.94 638.48 , 516.88 639.44 , 516.82 640.40 , 516.75 641.36 , 516.67 642.32 , 516.60 643.28 , 516.53 644.24 , 516.47 645.20 , 516.42 646.16 , 516.40 647.12 , 516.40 648.08 , 516.42 649.04 , 516.46 650.00 , 516.51 650.96 , 516.58 651.92 , 516.66 652.88 , 516.73 653.84 , 516.81 654.80 , 516.87 655.76 , 516.92 656.72 , 516.97 657.68 , 517.00 658.64 , 517.03 659.60 , 517.05 660.56 , 517.06 661.52 , 517.07 662.48 , 517.08 " style="stroke-width:1;stroke:#0000FF;fill:#000000;stroke-opacity:1.000000;fill-opacity:0.000000"/>
</svg>
