<?xml version="1.0" encoding="UTF-8"?>
<svg xmlns="http://www.w3.org/2000/svg" width="722.70" height="578.16" viewBox="0,0,722.70,578.16">
<desc>R SVG Plot!</desc>
<rect width="100%" height="100%" style="fill:#FFFFFF"/>
<line x1="59.02" y1="486.78" x2="59.02" y2="52.74" style="stroke-width:1;stroke:#000000;fill:#000000;stroke-opacity:1.000000;fill-opacity:0.000000"/>
<line x1="74.95" y1="486.78" x2="74.95" y2="100.71" style="stroke-width:1;stroke:#000000;fill:#000000;stroke-opacity:1.000000;fill-opacity:0.000000"/>
<line x1="90.88" y1="486.78" x2="90.88" y2="188.71" style="stroke-width:1;stroke:#000000;fill:#000000;stroke-opacity:1.000000;fill-opacity:0.000000"/>
<line x1="106.81" y1="486.78" x2="106.81" y2="300.27" style="stroke-width:1;stroke:#000000;fill:#000000;stroke-opacity:1.000000;fill-opacity:0.000000"/>
<line x1="122.75" y1="486.78" x2="122.75" y2="305.93" style="stroke-width:1;stroke:#000000;fill:#000000;stroke-opacity:1.000000;fill-opacity:0.000000"/>
<line x1="138.68" y1="486.78" x2="138.68" y2="357.72" style="stroke-width:1;stroke:#000000;fill:#000000;stroke-opacity:1.000000;fill-opacity:0.000000"/>
<line x1="154.61" y1="486.78" x2="154.61" y2="352.71" style="stroke-width:1;stroke:#000000;fill:#000000;stroke-opacity:1.000000;fill-opacity:0.000000"/>
<line x1="170.54" y1="486.78" x2="170.54" y2="393.91" style="stroke-width:1;stroke:#000000;fill:#000000;stroke-opacity:1.000000;fill-opacity:0.000000"/>
<line x1="186.47" y1="486.78" x2="186.47" y2="375.25" style="stroke-width:1;stroke:#000000;fill:#000000;stroke-opacity:1.000000;fill-opacity:0.000000"/>
<line x1="202.40" y1="486.78" x2="202.40" y2="421.78" style="stroke-width:1;stroke:#000000;fill:#000000;stroke-opacity:1.000000;fill-opacity:0.000000"/>
<line x1="218.33" y1="486.78" x2="218.33" y2="434.96" style="stroke-width:1;stroke:#000000;fill:#000000;stroke-opacity:1.000000;fill-opacity:0.000000"/>
<line x1="234.27" y1="486.78" x2="234.27" y2="379.38" style="stroke-width:1;stroke:#000000;fill:#000000;stroke-opacity:1.000000;fill-opacity:0.000000"/>
<line x1="250.20" y1="486.78" x2="250.20" y2="408.57" style="stroke-width:1;stroke:#000000;fill:#000000;stroke-opacity:1.000000;fill-opacity:0.000000"/>
<line x1="266.13" y1="486.78" x2="266.13" y2="456.68" style="stroke-width:1;stroke:#000000;fill:#000000;stroke-opacity:1.000000;fill-opacity:0.000000"/>
<line x1="282.06" y1="486.78" x2="282.06" y2="399.00" style="stroke-width:1;stroke:#000000;fill:#000000;stroke-opacity:1.000000;fill-opacity:0.000000"/>
<line x1="297.99" y1="486.78" x2="297.99" y2="474.88" style="stroke-width:1;stroke:#000000;fill:#000000;stroke-opacity:1.000000;fill-opacity:0.000000"/>
<line x1="313.92" y1="486.78" x2="313.92" y2="468.52" style="stroke-width:1;stroke:#000000;fill:#000000;stroke-opacity:1.000000;fill-opacity:0.000000"/>
<line x1="329.85" y1="486.78" x2="329.85" y2="472.28" style="stroke-width:1;stroke:#000000;fill:#000000;stroke-opacity:1.000000;fill-opacity:0.000000"/>
<line x1="345.79" y1="486.78" x2="345.79" y2="460.80" style="stroke-width:1;stroke:#000000;fill:#000000;stroke-opacity:1.000000;fill-opacity:0.000000"/>
<line x1="361.72" y1="486.78" x2="361.72" y2="470.73" style="stroke-width:1;stroke:#000000;fill:#000000;stroke-opacity:1.000000;fill-opacity:0.000000"/>
<line x1="377.65" y1="486.78" x2="377.65" y2="454.59" style="stroke-width:1;stroke:#000000;fill:#000000;stroke-opacity:1.000000;fill-opacity:0.000000"/>
<line x1="393.58" y1="486.78" x2="393.58" y2="481.16" style="stroke-width:1;stroke:#000000;fill:#000000;stroke-opacity:1.000000;fill-opacity:0.000000"/>
<line x1="409.51" y1="486.78" x2="409.51" y2="501.48" style="stroke-width:1;stroke:#000000;fill:#000000;stroke-opacity:1.000000;fill-opacity:0.000000"/>
<line x1="425.44" y1="486.78" x2="425.44" y2="464.60" style="stroke-width:1;stroke:#000000;fill:#000000;stroke-opacity:1.000000;fill-opacity:0.000000"/>
<line x1="441.37" y1="486.78" x2="441.37" y2="485.98" style="stroke-width:1;stroke:#000000;fill:#000000;stroke-opacity:1.000000;fill-opacity:0.000000"/>
<line x1="457.31" y1="486.78" x2="457.31" y2="474.26" style="stroke-width:1;stroke:#000000;fill:#000000;stroke-opacity:1.000000;fill-opacity:0.000000"/>
<line x1="473.24" y1="486.78" x2="473.24" y2="427.53" style="stroke-width:1;stroke:#000000;fill:#000000;stroke-opacity:1.000000;fill-opacity:0.000000"/>
<line x1="489.17" y1="486.78" x2="489.17" y2="471.09" style="stroke-width:1;stroke:#000000;fill:#000000;stroke-opacity:1.000000;fill-opacity:0.000000"/>
<line x1="505.10" y1="486.78" x2="505.10" y2="473.98" style="stroke-width:1;stroke:#000000;fill:#000000;stroke-opacity:1.000000;fill-opacity:0.000000"/>
<line x1="521.03" y1="486.78" x2="521.03" y2="497.95" style="stroke-width:1;stroke:#000000;fill:#000000;stroke-opacity:1.000000;fill-opacity:0.000000"/>
<line x1="536.96" y1="486.78" x2="536.96" y2="467.46" style="stroke-width:1;stroke:#000000;fill:#000000;stroke-opacity:1.000000;fill-opacity:0.000000"/>
<line x1="552.90" y1="486.78" x2="552.90" y2="493.42" style="stroke-width:1;stroke:#000000;fill:#000000;stroke-opacity:1.000000;fill-opacity:0.000000"/>
<line x1="568.83" y1="486.78" x2="568.83" y2="444.17" style="stroke-width:1;stroke:#000000;fill:#000000;stroke-opacity:1.000000;fill-opacity:0.000000"/>
<line x1="584.76" y1="486.78" x2="584.76" y2="473.99" style="stroke-width:1;stroke:#000000;fill:#000000;stroke-opacity:1.000000;fill-opacity:0.000000"/>
<line x1="600.69" y1="486.78" x2="600.69" y2="468.19" style="stroke-width:1;stroke:#000000;fill:#000000;stroke-opacity:1.000000;fill-opacity:0.000000"/>
<line x1="616.62" y1="486.78" x2="616.62" y2="489.04" style="stroke-width:1;stroke:#000000;fill:#000000;stroke-opacity:1.000000;fill-opacity:0.000000"/>
<line x1="632.55" y1="486.78" x2="632.55" y2="459.93" style="stroke-width:1;stroke:#000000;fill:#000000;stroke-opacity:1.000000;fill-opacity:0.000000"/>
<line x1="648.48" y1="486.78" x2="648.48" y2="489.01" style="stroke-width:1;stroke:#000000;fill:#000000;stroke-opacity:1.000000;fill-opacity:0.000000"/>
<line x1="664.42" y1="486.78" x2="664.42" y2="488.13" style="stroke-width:1;stroke:#000000;fill:#000000;stroke-opacity:1.000000;fill-opacity:0.000000"/>
<line x1="680.35" y1="486.78" x2="680.35" y2="471.24" style="stroke-width:1;stroke:#000000;fill:#000000;stroke-opacity:1.000000;fill-opacity:0.000000"/>
<line x1="43.09" y1="535.66" x2="680.35" y2="535.66" style="stroke-width:1;stroke:#000000;fill:#000000;stroke-opacity:1.000000;fill-opacity:0.000000"/>
<line x1="43.09" y1="535.66" x2="43.09" y2="539.83" style="stroke-width:1;stroke:#000000;fill:#000000;stroke-opacity:1.000000;fill-opacity:0.000000"/>
<line x1="202.40" y1="535.66" x2="202.40" y2="539.83" style="stroke-width:1;stroke:#000000;fill:#000000;stroke-opacity:1.000000;fill-opacity:0.000000"/>
<line x1="361.72" y1="535.66" x2="361.72" y2="539.83" style="stroke-width:1;stroke:#000000;fill:#000000;stroke-opacity:1.000000;fill-opacity:0.000000"/>
<line x1="521.03" y1="535.66" x2="521.03" y2="539.83" style="stroke-width:1;stroke:#000000;fill:#000000;stroke-opacity:1.000000;fill-opacity:0.000000"/>
<line x1="680.35" y1="535.66" x2="680.35" y2="539.83" style="stroke-width:1;stroke:#000000;fill:#000000;stroke-opacity:1.000000;fill-opacity:0.000000"/>
<text transform="translate(40.59,552.33)"  style="font-size:10" >0</text>
<text transform="translate(196.90,552.33)"  style="font-size:10" >10</text>
<text transform="translate(356.22,552.33)"  style="font-size:10" >20</text>
<text transform="translate(515.53,552.33)"  style="font-size:10" >30</text>
<text transform="translate(674.85,552.33)"  style="font-size:10" >40</text>
<line x1="34.17" y1="486.78" x2="34.17" y2="86.99" style="stroke-width:1;stroke:#000000;fill:#000000;stroke-opacity:1.000000;fill-opacity:0.000000"/>
<line x1="34.17" y1="486.78" x2="30.00" y2="486.78" style="stroke-width:1;stroke:#000000;fill:#000000;stroke-opacity:1.000000;fill-opacity:0.000000"/>
<line x1="34.17" y1="406.82" x2="30.00" y2="406.82" style="stroke-width:1;stroke:#000000;fill:#000000;stroke-opacity:1.000000;fill-opacity:0.000000"/>
<line x1="34.17" y1="326.86" x2="30.00" y2="326.86" style="stroke-width:1;stroke:#000000;fill:#000000;stroke-opacity:1.000000;fill-opacity:0.000000"/>
<line x1="34.17" y1="246.91" x2="30.00" y2="246.91" style="stroke-width:1;stroke:#000000;fill:#000000;stroke-opacity:1.000000;fill-opacity:0.000000"/>
<line x1="34.17" y1="166.95" x2="30.00" y2="166.95" style="stroke-width:1;stroke:#000000;fill:#000000;stroke-opacity:1.000000;fill-opacity:0.000000"/>
<line x1="34.17" y1="86.99" x2="30.00" y2="86.99" style="stroke-width:1;stroke:#000000;fill:#000000;stroke-opacity:1.000000;fill-opacity:0.000000"/>
<text transform="translate(25.83,496.56) rotate(-90)"  style="font-size:10" >0.00</text>
<text transform="translate(25.83,416.60) rotate(-90)"  style="font-size:10" >0.05</text>
<text transform="translate(25.83,336.64) rotate(-90)"  style="font-size:10" >0.10</text>
<text transform="translate(25.83,256.68) rotate(-90)"  style="font-size:10" >0.15</text>
<text transform="translate(25.83,176.73) rotate(-90)"  style="font-size:10" >0.20</text>
<text transform="translate(25.83,96.77) rotate(-90)"  style="font-size:10" >0.25</text>
<polyline points="34.17 , 535.66 705.20 , 535.66 705.20 , 34.17 34.17 , 34.17 34.17 , 535.66 " style="stroke-width:1;stroke:#000000;fill:#000000;stroke-opacity:1.000000;fill-opacity:0.000000"/>
<text transform="translate(361.41,568.99)"  style="font-size:10" >Lag</text>
<text transform="translate(9.17,311.63) rotate(-90)"  style="font-size:10" >Partial ACF</text>
<line x1="34.17" y1="486.78" x2="705.20" y2="486.78" style="stroke-width:1;stroke:#000000;fill:#000000;stroke-opacity:1.000000;fill-opacity:0.000000"/>
<line x1="34.17" y1="456.47" x2="705.20" y2="456.47" style="stroke-width:1;stroke:#0000FF;fill:#000000;stroke-opacity:1.000000;fill-opacity:0.000000;stroke-dasharray:4, 4"/>
<line x1="34.17" y1="517.09" x2="705.20" y2="517.09" style="stroke-width:1;stroke:#0000FF;fill:#000000;stroke-opacity:1.000000;fill-opacity:0.000000;stroke-dasharray:4, 4"/>
<text transform="translate(310.21,17.50)"  style="font-size:12" >Series  abs(RentJ$Rt)</text>
</svg>
