<?xml version="1.0" encoding="UTF-8"?>
<svg xmlns="http://www.w3.org/2000/svg" width="722.70" height="578.16" viewBox="0,0,722.70,578.16">
<desc>R SVG Plot!</desc>
<rect width="100%" height="100%" style="fill:#FFFFFF"/>
<polyline points="59.02 , 244.39 59.29 , 265.81 59.57 , 258.49 59.84 , 256.97 60.12 , 370.40 60.39 , 278.30 60.67 , 209.71 60.94 , 267.41 61.22 , 277.21 61.49 , 204.63 61.76 , 233.75 62.04 , 267.96 62.31 , 217.65 62.59 , 288.79 62.86 , 312.22 63.14 , 225.99 63.41 , 235.53 63.69 , 233.43 63.96 , 248.54 64.23 , 252.39 64.51 , 263.70 64.78 , 273.75 65.06 , 223.39 65.33 , 259.93 65.61 , 223.52 65.88 , 256.95 66.16 , 238.57 66.43 , 216.01 66.70 , 242.75 66.98 , 226.89 67.25 , 281.63 67.53 , 258.58 67.80 , 270.99 68.08 , 254.21 68.35 , 242.00 68.63 , 291.78 68.90 , 266.59 69.17 , 311.16 69.45 , 198.51 69.72 , 259.10 70.00 , 268.19 70.27 , 233.29 70.55 , 234.80 70.82 , 245.50 71.10 , 260.76 71.37 , 284.75 71.64 , 294.28 71.92 , 231.25 72.19 , 311.74 72.47 , 288.72 72.74 , 222.54 73.02 , 179.40 73.29 , 266.47 73.56 , 256.62 73.84 , 229.52 74.11 , 223.33 74.39 , 265.67 74.66 , 248.00 74.94 , 260.02 75.21 , 275.49 75.49 , 232.78 75.76 , 274.51 76.03 , 261.03 76.31 , 264.91 76.58 , 234.81 76.86 , 264.66 77.13 , 231.50 77.41 , 244.32 77.68 , 261.81 77.96 , 227.94 78.23 , 251.95 78.50 , 254.18 78.78 , 247.15 79.05 , 247.17 79.33 , 264.10 79.60 , 243.35 79.88 , 258.67 80.15 , 267.82 80.43 , 252.96 80.70 , 262.62 80.97 , 244.89 81.25 , 250.15 81.52 , 279.72 81.80 , 248.25 82.07 , 264.53 82.35 , 290.78 82.62 , 233.36 82.90 , 268.62 83.17 , 269.54 83.44 , 250.47 83.72 , 278.35 83.99 , 336.76 84.27 , 283.14 84.54 , 209.41 84.82 , 289.76 85.09 , 207.76 85.37 , 222.62 85.64 , 244.06 85.91 , 247.71 86.19 , 223.95 86.46 , 289.63 86.74 , 278.09 87.01 , 258.55 87.29 , 263.00 87.56 , 254.06 87.84 , 281.61 88.11 , 202.84 88.38 , 276.58 88.66 , 203.10 88.93 , 243.54 89.21 , 249.88 89.48 , 263.40 89.76 , 230.13 90.03 , 259.52 90.31 , 272.16 90.58 , 260.96 90.85 , 211.08 91.13 , 264.58 91.40 , 237.28 91.68 , 267.06 91.95 , 255.74 92.23 , 235.84 92.50 , 257.30 92.78 , 258.85 93.05 , 263.44 93.32 , 266.57 93.60 , 214.90 93.87 , 259.10 94.15 , 258.44 94.42 , 254.59 94.70 , 275.67 94.97 , 249.83 95.25 , 266.79 95.52 , 248.99 95.79 , 253.64 96.07 , 269.79 96.34 , 256.95 96.62 , 281.71 96.89 , 264.47 97.17 , 298.59 97.44 , 238.69 97.72 , 269.17 97.99 , 265.23 98.26 , 206.03 98.54 , 227.16 98.81 , 233.61 99.09 , 248.36 99.36 , 249.10 99.64 , 261.58 99.91 , 264.68 100.19 , 260.33 100.46 , 243.21 100.73 , 253.21 101.01 , 263.86 101.28 , 255.33 101.56 , 226.16 101.83 , 254.06 102.11 , 233.69 102.38 , 242.22 102.66 , 260.54 102.93 , 249.91 103.20 , 273.98 103.48 , 241.98 103.75 , 266.50 104.03 , 221.63 104.30 , 258.39 104.58 , 252.53 104.85 , 253.23 105.13 , 258.40 105.40 , 252.18 105.67 , 265.91 105.95 , 241.00 106.22 , 230.38 106.50 , 232.03 106.77 , 264.21 107.05 , 253.57 107.32 , 265.93 107.60 , 249.43 107.87 , 240.26 108.14 , 264.83 108.42 , 256.61 108.69 , 257.32 108.97 , 240.39 109.24 , 255.79 109.52 , 277.43 109.79 , 246.22 110.07 , 260.12 110.34 , 235.67 110.61 , 248.13 110.89 , 255.47 111.16 , 255.73 111.44 , 238.00 111.71 , 261.54 111.99 , 255.67 112.26 , 253.09 112.54 , 232.15 112.81 , 267.19 113.08 , 273.32 113.36 , 269.81 113.63 , 246.63 113.91 , 284.14 114.18 , 245.02 114.46 , 279.26 114.73 , 231.05 115.01 , 253.73 115.28 , 211.19 115.55 , 244.14 115.83 , 235.65 116.10 , 250.21 116.38 , 260.94 116.65 , 257.06 116.93 , 247.59 117.20 , 256.96 117.48 , 231.14 117.75 , 259.53 118.02 , 240.92 118.30 , 247.99 118.57 , 258.30 118.85 , 259.37 119.12 , 242.61 119.40 , 262.58 119.67 , 248.91 119.94 , 272.29 120.22 , 229.12 120.49 , 230.22 120.77 , 254.90 121.04 , 252.44 121.32 , 270.52 121.59 , 257.80 121.87 , 261.39 122.14 , 252.86 122.41 , 273.06 122.69 , 239.29 122.96 , 253.31 123.24 , 258.78 123.51 , 240.52 123.79 , 266.03 124.06 , 265.44 124.34 , 262.75 124.61 , 230.90 124.88 , 235.68 125.16 , 250.18 125.43 , 248.48 125.71 , 251.42 125.98 , 272.79 126.26 , 253.13 126.53 , 258.47 126.81 , 231.63 127.08 , 260.58 127.35 , 277.01 127.63 , 247.71 127.90 , 268.24 128.18 , 267.22 128.45 , 270.52 128.73 , 286.49 129.00 , 296.85 129.28 , 225.87 129.55 , 270.36 129.82 , 237.57 130.10 , 262.90 130.37 , 258.45 130.65 , 229.29 130.92 , 245.98 131.20 , 246.72 131.47 , 258.01 131.75 , 242.79 132.02 , 251.55 132.29 , 269.76 132.57 , 246.28 132.84 , 250.67 133.12 , 251.08 133.39 , 250.86 133.67 , 255.59 133.94 , 226.93 134.22 , 242.82 134.49 , 246.17 134.76 , 262.62 135.04 , 250.13 135.31 , 252.21 135.59 , 259.87 135.86 , 273.59 136.14 , 247.63 136.41 , 245.75 136.69 , 252.96 136.96 , 258.22 137.23 , 253.23 137.51 , 241.51 137.78 , 243.28 138.06 , 254.49 138.33 , 258.55 138.61 , 254.05 138.88 , 259.00 139.16 , 265.24 139.43 , 256.61 139.70 , 254.64 139.98 , 235.25 140.25 , 259.49 140.53 , 250.09 140.80 , 261.01 141.08 , 232.50 141.35 , 251.80 141.63 , 260.09 141.90 , 239.43 142.17 , 248.90 142.45 , 259.91 142.72 , 248.03 143.00 , 261.47 143.27 , 246.67 143.55 , 249.71 143.82 , 250.68 144.10 , 266.34 144.37 , 271.80 144.64 , 232.72 144.92 , 241.02 145.19 , 247.35 145.47 , 255.40 145.74 , 244.50 146.02 , 254.96 146.29 , 274.65 146.57 , 237.10 146.84 , 262.12 147.11 , 275.58 147.39 , 248.74 147.66 , 260.87 147.94 , 244.83 148.21 , 248.14 148.49 , 261.24 148.76 , 234.76 149.04 , 255.35 149.31 , 235.48 149.58 , 242.81 149.86 , 250.39 150.13 , 250.77 150.41 , 252.80 150.68 , 281.92 150.96 , 258.06 151.23 , 239.64 151.51 , 243.39 151.78 , 252.73 152.05 , 254.60 152.33 , 281.05 152.60 , 255.65 152.88 , 238.93 153.15 , 239.83 153.43 , 253.57 153.70 , 243.98 153.98 , 265.24 154.25 , 249.18 154.52 , 253.16 154.80 , 246.31 155.07 , 245.03 155.35 , 240.66 155.62 , 255.60 155.90 , 263.72 156.17 , 273.05 156.45 , 277.89 156.72 , 235.54 156.99 , 257.49 157.27 , 258.89 157.54 , 262.22 157.82 , 243.14 158.09 , 256.51 158.37 , 244.12 158.64 , 246.39 158.92 , 246.10 159.19 , 255.64 159.46 , 243.39 159.74 , 255.78 160.01 , 237.18 160.29 , 251.74 160.56 , 250.47 160.84 , 252.14 161.11 , 249.66 161.39 , 251.81 161.66 , 282.10 161.93 , 239.34 162.21 , 252.51 162.48 , 269.70 162.76 , 231.71 163.03 , 251.59 163.31 , 253.53 163.58 , 238.72 163.85 , 252.92 164.13 , 266.18 164.40 , 257.69 164.68 , 219.96 164.95 , 250.17 165.23 , 261.93 165.50 , 254.26 165.78 , 260.39 166.05 , 259.91 166.32 , 258.07 166.60 , 240.90 166.87 , 247.41 167.15 , 259.29 167.42 , 258.72 167.70 , 251.06 167.97 , 244.49 168.25 , 245.85 168.52 , 255.50 168.79 , 245.31 169.07 , 244.18 169.34 , 247.43 169.62 , 261.69 169.89 , 241.23 170.17 , 258.07 170.44 , 252.65 170.72 , 263.17 170.99 , 244.40 171.26 , 254.12 171.54 , 255.18 171.81 , 255.35 172.09 , 253.16 172.36 , 257.76 172.64 , 268.49 172.91 , 251.23 173.19 , 252.10 173.46 , 254.06 173.73 , 238.97 174.01 , 253.44 174.28 , 258.44 174.56 , 253.35 174.83 , 262.94 175.11 , 259.11 175.38 , 264.19 175.66 , 246.01 175.93 , 265.73 176.20 , 271.94 176.48 , 239.01 176.75 , 252.61 177.03 , 236.38 177.30 , 243.67 177.58 , 268.70 177.85 , 246.66 178.13 , 255.89 178.40 , 265.97 178.67 , 263.62 178.95 , 240.77 179.22 , 257.18 179.50 , 277.80 179.77 , 209.28 180.05 , 253.65 180.32 , 245.76 180.60 , 243.63 180.87 , 256.09 181.14 , 260.70 181.42 , 267.98 181.69 , 252.41 181.97 , 232.40 182.24 , 254.35 182.52 , 257.39 182.79 , 281.33 183.07 , 276.17 183.34 , 263.01 183.61 , 253.20 183.89 , 278.01 184.16 , 201.33 184.44 , 251.61 184.71 , 307.81 184.99 , 225.14 185.26 , 225.55 185.54 , 254.52 185.81 , 246.18 186.08 , 258.07 186.36 , 267.61 186.63 , 229.64 186.91 , 262.45 187.18 , 251.76 187.46 , 254.62 187.73 , 254.06 188.01 , 262.28 188.28 , 255.26 188.55 , 230.38 188.83 , 252.28 189.10 , 269.41 189.38 , 267.72 189.65 , 251.28 189.93 , 284.70 190.20 , 260.46 190.48 , 276.77 190.75 , 256.16 191.02 , 232.37 191.30 , 233.48 191.57 , 274.81 191.85 , 277.49 192.12 , 223.36 192.40 , 256.10 192.67 , 234.86 192.95 , 252.40 193.22 , 272.14 193.49 , 275.69 193.77 , 257.89 194.04 , 261.32 194.32 , 271.92 194.59 , 236.65 194.87 , 272.72 195.14 , 268.28 195.42 , 249.50 195.69 , 256.73 195.96 , 266.83 196.24 , 275.97 196.51 , 261.85 196.79 , 249.39 197.06 , 233.40 197.34 , 245.19 197.61 , 271.89 197.89 , 255.86 198.16 , 250.35 198.43 , 274.38 198.71 , 188.52 198.98 , 252.25 199.26 , 261.08 199.53 , 261.08 199.81 , 224.84 200.08 , 233.86 200.36 , 240.79 200.63 , 255.64 200.90 , 246.28 201.18 , 275.11 201.45 , 256.85 201.73 , 247.40 202.00 , 253.83 202.28 , 232.98 202.55 , 265.62 202.83 , 267.03 203.10 , 228.59 203.37 , 266.65 203.65 , 253.13 203.92 , 265.62 204.20 , 244.48 204.47 , 263.89 204.75 , 248.47 205.02 , 234.09 205.30 , 244.89 205.57 , 243.31 205.84 , 260.72 206.12 , 243.95 206.39 , 256.59 206.67 , 248.81 206.94 , 258.40 207.22 , 265.70 207.49 , 258.01 207.77 , 242.42 208.04 , 268.58 208.31 , 254.77 208.59 , 240.62 208.86 , 237.04 209.14 , 249.59 209.41 , 248.98 209.69 , 262.65 209.96 , 240.52 210.23 , 243.32 210.51 , 262.63 210.78 , 258.95 211.06 , 239.36 211.33 , 261.15 211.61 , 252.77 211.88 , 247.82 212.16 , 273.27 212.43 , 237.19 212.70 , 247.28 212.98 , 240.85 213.25 , 282.32 213.53 , 260.08 213.80 , 246.69 214.08 , 255.86 214.35 , 255.33 214.63 , 249.50 214.90 , 262.27 215.17 , 243.87 215.45 , 253.61 215.72 , 243.62 216.00 , 230.74 216.27 , 248.71 216.55 , 246.47 216.82 , 243.31 217.10 , 259.23 217.37 , 241.92 217.64 , 265.20 217.92 , 271.99 218.19 , 258.34 218.47 , 251.24 218.74 , 267.79 219.02 , 264.26 219.29 , 213.61 219.57 , 251.24 219.84 , 207.56 220.11 , 267.84 220.39 , 241.35 220.66 , 276.15 220.94 , 235.50 221.21 , 233.04 221.49 , 287.09 221.76 , 301.21 222.04 , 256.57 222.31 , 276.69 222.58 , 230.13 222.86 , 289.03 223.13 , 246.31 223.41 , 231.71 223.68 , 248.59 223.96 , 277.91 224.23 , 279.86 224.51 , 216.37 224.78 , 229.77 225.05 , 259.98 225.33 , 247.64 225.60 , 251.86 225.88 , 252.42 226.15 , 267.74 226.43 , 238.16 226.70 , 267.93 226.98 , 238.83 227.25 , 245.30 227.52 , 253.26 227.80 , 247.34 228.07 , 246.30 228.35 , 246.78 228.62 , 267.38 228.90 , 250.45 229.17 , 261.66 229.45 , 227.75 229.72 , 258.59 229.99 , 244.00 230.27 , 252.24 230.54 , 244.07 230.82 , 252.56 231.09 , 231.44 231.37 , 245.94 231.64 , 270.94 231.92 , 240.12 232.19 , 243.03 232.46 , 241.17 232.74 , 254.25 233.01 , 234.89 233.29 , 268.57 233.56 , 235.61 233.84 , 250.85 234.11 , 246.26 234.39 , 265.83 234.66 , 258.30 234.93 , 293.74 235.21 , 233.59 235.48 , 249.86 235.76 , 247.30 236.03 , 264.94 236.31 , 250.97 236.58 , 243.87 236.86 , 232.48 237.13 , 253.89 237.40 , 265.89 237.68 , 243.94 237.95 , 250.23 238.23 , 270.48 238.50 , 237.35 238.78 , 264.92 239.05 , 259.88 239.33 , 258.50 239.60 , 235.23 239.87 , 249.53 240.15 , 248.65 240.42 , 278.27 240.70 , 242.46 240.97 , 246.87 241.25 , 265.43 241.52 , 252.85 241.80 , 240.35 242.07 , 257.85 242.34 , 268.58 242.62 , 265.25 242.89 , 250.32 243.17 , 270.19 243.44 , 248.88 243.72 , 255.82 243.99 , 254.35 244.27 , 227.33 244.54 , 263.19 244.81 , 250.62 245.09 , 254.06 245.36 , 258.82 245.64 , 251.25 245.91 , 258.19 246.19 , 250.52 246.46 , 243.38 246.74 , 244.24 247.01 , 258.52 247.28 , 242.75 247.56 , 234.97 247.83 , 218.06 248.11 , 246.63 248.38 , 225.39 248.66 , 314.86 248.93 , 234.61 249.21 , 228.10 249.48 , 263.80 249.75 , 246.25 250.03 , 231.30 250.30 , 279.76 250.58 , 218.51 250.85 , 236.41 251.13 , 248.82 251.40 , 241.15 251.68 , 240.00 251.95 , 251.34 252.22 , 257.64 252.50 , 256.79 252.77 , 252.91 253.05 , 220.86 253.32 , 299.38 253.60 , 242.95 253.87 , 198.12 254.15 , 263.48 254.42 , 255.98 254.69 , 256.77 254.97 , 281.60 255.24 , 290.26 255.52 , 238.10 255.79 , 308.83 256.07 , 240.37 256.34 , 295.91 256.61 , 270.36 256.89 , 203.17 257.16 , 249.90 257.44 , 232.17 257.71 , 235.93 257.99 , 216.77 258.26 , 234.13 258.54 , 246.92 258.81 , 245.70 259.08 , 254.34 259.36 , 254.06 259.63 , 254.66 259.91 , 225.65 260.18 , 238.56 260.46 , 226.20 260.73 , 276.73 261.01 , 256.92 261.28 , 223.09 261.55 , 227.41 261.83 , 244.91 262.10 , 236.69 262.38 , 241.49 262.65 , 231.59 262.93 , 214.30 263.20 , 223.29 263.48 , 205.46 263.75 , 248.87 264.02 , 224.97 264.30 , 212.00 264.57 , 248.58 264.85 , 260.62 265.12 , 245.47 265.40 , 241.67 265.67 , 237.96 265.95 , 274.56 266.22 , 235.64 266.49 , 256.06 266.77 , 243.24 267.04 , 260.31 267.32 , 225.01 267.59 , 236.44 267.87 , 239.68 268.14 , 237.53 268.42 , 246.15 268.69 , 244.52 268.96 , 266.37 269.24 , 261.94 269.51 , 258.96 269.79 , 245.86 270.06 , 252.97 270.34 , 240.38 270.61 , 250.57 270.89 , 370.37 271.16 , 226.10 271.43 , 281.35 271.71 , 252.57 271.98 , 249.61 272.26 , 226.69 272.53 , 258.20 272.81 , 232.05 273.08 , 258.91 273.36 , 295.50 273.63 , 254.06 273.90 , 170.10 274.18 , 252.81 274.45 , 255.70 274.73 , 239.59 275.00 , 257.90 275.28 , 244.21 275.55 , 228.23 275.83 , 239.83 276.10 , 237.67 276.37 , 257.24 276.65 , 230.89 276.92 , 268.76 277.20 , 233.25 277.47 , 236.64 277.75 , 255.36 278.02 , 247.14 278.30 , 245.03 278.57 , 259.53 278.84 , 245.73 279.12 , 268.89 279.39 , 252.39 279.67 , 229.76 279.94 , 257.09 280.22 , 241.93 280.49 , 269.60 280.77 , 251.27 281.04 , 231.55 281.31 , 256.94 281.59 , 269.39 281.86 , 224.52 282.14 , 250.23 282.41 , 270.78 282.69 , 241.78 282.96 , 274.69 283.24 , 264.83 283.51 , 241.64 283.78 , 249.65 284.06 , 273.15 284.33 , 230.20 284.61 , 265.77 284.88 , 252.08 285.16 , 248.63 285.43 , 235.38 285.71 , 255.23 285.98 , 229.34 286.25 , 228.52 286.53 , 249.40 286.80 , 233.09 287.08 , 247.33 287.35 , 259.17 287.63 , 245.89 287.90 , 243.22 288.18 , 252.19 288.45 , 231.70 288.72 , 258.64 289.00 , 242.94 289.27 , 249.88 289.55 , 243.46 289.82 , 247.51 290.10 , 244.53 290.37 , 263.99 290.65 , 260.21 290.92 , 237.60 291.19 , 257.11 291.47 , 207.99 291.74 , 249.23 292.02 , 248.94 292.29 , 263.44 292.57 , 223.57 292.84 , 248.72 293.12 , 262.89 293.39 , 244.63 293.66 , 250.00 293.94 , 270.31 294.21 , 247.96 294.49 , 265.59 294.76 , 236.68 295.04 , 276.79 295.31 , 238.45 295.59 , 257.42 295.86 , 239.35 296.13 , 234.17 296.41 , 260.85 296.68 , 251.40 296.96 , 241.51 297.23 , 266.88 297.51 , 262.46 297.78 , 266.04 298.06 , 244.66 298.33 , 244.40 298.60 , 232.66 298.88 , 267.11 299.15 , 262.31 299.43 , 221.54 299.70 , 255.89 299.98 , 251.62 300.25 , 246.85 300.53 , 247.40 300.80 , 235.81 301.07 , 246.47 301.35 , 241.54 301.62 , 238.82 301.90 , 269.97 302.17 , 239.83 302.45 , 272.62 302.72 , 277.00 302.99 , 274.50 303.27 , 265.60 303.54 , 239.83 303.82 , 264.30 304.09 , 248.91 304.37 , 326.34 304.64 , 229.65 304.92 , 249.18 305.19 , 279.52 305.46 , 286.37 305.74 , 321.32 306.01 , 204.24 306.29 , 298.45 306.56 , 201.44 306.84 , 257.61 307.11 , 232.04 307.39 , 234.17 307.66 , 255.07 307.93 , 218.44 308.21 , 264.22 308.48 , 251.75 308.76 , 254.12 309.03 , 277.85 309.31 , 225.14 309.58 , 244.20 309.86 , 250.42 310.13 , 274.55 310.40 , 290.78 310.68 , 288.62 310.95 , 304.81 311.23 , 228.30 311.50 , 356.69 311.78 , 217.48 312.05 , 320.07 312.33 , 262.26 312.60 , 281.34 312.87 , 393.75 313.15 , 118.62 313.42 , 314.28 313.70 , 189.60 313.97 , 256.97 314.25 , 305.25 314.52 , 322.73 314.80 , 242.43 315.07 , 259.67 315.34 , 317.33 315.62 , 215.57 315.89 , 227.83 316.17 , 252.59 316.44 , 266.68 316.72 , 243.77 316.99 , 277.63 317.27 , 225.77 317.54 , 243.53 317.81 , 273.80 318.09 , 206.67 318.36 , 206.88 318.64 , 268.08 318.91 , 278.87 319.19 , 227.22 319.46 , 246.80 319.74 , 276.24 320.01 , 268.99 320.28 , 221.87 320.56 , 255.11 320.83 , 260.50 321.11 , 258.89 321.38 , 239.01 321.66 , 262.68 321.93 , 270.94 322.21 , 253.79 322.48 , 238.18 322.75 , 292.55 323.03 , 231.77 323.30 , 284.39 323.58 , 276.59 323.85 , 311.61 324.13 , 206.63 324.40 , 282.65 324.68 , 214.71 324.95 , 226.54 325.22 , 272.90 325.50 , 262.41 325.77 , 222.81 326.05 , 216.22 326.32 , 242.99 326.60 , 226.65 326.87 , 251.24 327.15 , 217.25 327.42 , 222.71 327.69 , 262.03 327.97 , 206.65 328.24 , 259.00 328.52 , 247.68 328.79 , 279.22 329.07 , 260.24 329.34 , 267.64 329.62 , 262.95 329.89 , 231.29 330.16 , 234.14 330.44 , 307.14 330.71 , 220.68 330.99 , 254.06 331.26 , 322.76 331.54 , 273.56 331.81 , 245.63 332.09 , 201.28 332.36 , 255.70 332.63 , 303.03 332.91 , 255.80 333.18 , 234.75 333.46 , 280.09 333.73 , 272.56 334.01 , 234.63 334.28 , 287.83 334.56 , 318.94 334.83 , 290.13 335.10 , 231.97 335.38 , 223.64 335.65 , 263.52 335.93 , 186.86 336.20 , 286.58 336.48 , 267.59 336.75 , 266.61 337.03 , 267.42 337.30 , 271.37 337.57 , 282.99 337.85 , 261.70 338.12 , 186.80 338.40 , 245.59 338.67 , 297.34 338.95 , 281.59 339.22 , 215.70 339.50 , 267.74 339.77 , 272.46 340.04 , 161.64 340.32 , 167.28 340.59 , 223.89 340.87 , 274.39 341.14 , 272.64 341.42 , 233.92 341.69 , 295.12 341.97 , 256.79 342.24 , 249.69 342.51 , 240.01 342.79 , 270.19 343.06 , 252.97 343.34 , 259.94 343.61 , 195.43 343.89 , 225.75 344.16 , 278.84 344.44 , 238.97 344.71 , 229.08 344.98 , 259.67 345.26 , 271.33 345.53 , 277.94 345.81 , 259.05 346.08 , 273.07 346.36 , 204.65 346.63 , 241.14 346.90 , 282.23 347.18 , 261.13 347.45 , 245.27 347.73 , 258.16 348.00 , 232.10 348.28 , 226.54 348.55 , 253.80 348.83 , 230.92 349.10 , 246.58 349.37 , 230.93 349.65 , 276.97 349.92 , 182.62 350.20 , 259.83 350.47 , 285.30 350.75 , 254.49 351.02 , 234.18 351.30 , 236.26 351.57 , 272.61 351.84 , 287.01 352.12 , 228.35 352.39 , 269.06 352.67 , 239.67 352.94 , 234.57 353.22 , 277.39 353.49 , 223.03 353.77 , 253.27 354.04 , 240.39 354.31 , 269.90 354.59 , 233.58 354.86 , 243.23 355.14 , 267.01 355.41 , 294.79 355.69 , 251.77 355.96 , 243.59 356.24 , 247.78 356.51 , 265.31 356.78 , 243.38 357.06 , 287.93 357.33 , 303.88 357.61 , 261.98 357.88 , 262.34 358.16 , 297.20 358.43 , 162.01 358.71 , 226.72 358.98 , 208.28 359.25 , 271.08 359.53 , 215.06 359.80 , 209.61 360.08 , 222.38 360.35 , 219.85 360.63 , 229.69 360.90 , 250.07 361.18 , 255.38 361.45 , 283.12 361.72 , 230.71 362.00 , 255.80 362.27 , 237.07 362.55 , 257.15 362.82 , 289.15 363.10 , 291.93 363.37 , 207.54 363.65 , 239.19 363.92 , 271.44 364.19 , 253.14 364.47 , 237.49 364.74 , 227.07 365.02 , 245.58 365.29 , 242.79 365.57 , 247.90 365.84 , 218.58 366.12 , 256.63 366.39 , 274.60 366.66 , 240.79 366.94 , 259.78 367.21 , 237.96 367.49 , 267.88 367.76 , 245.73 368.04 , 240.34 368.31 , 252.54 368.59 , 260.23 368.86 , 249.85 369.13 , 251.16 369.41 , 282.41 369.68 , 260.87 369.96 , 238.19 370.23 , 268.28 370.51 , 248.68 370.78 , 241.42 371.06 , 257.38 371.33 , 256.72 371.60 , 264.05 371.88 , 273.29 372.15 , 251.67 372.43 , 280.95 372.70 , 243.01 372.98 , 273.17 373.25 , 243.02 373.53 , 233.22 373.80 , 254.27 374.07 , 265.65 374.35 , 260.61 374.62 , 282.80 374.90 , 234.20 375.17 , 266.88 375.45 , 276.79 375.72 , 272.10 376.00 , 284.56 376.27 , 238.81 376.54 , 299.72 376.82 , 269.52 377.09 , 280.71 377.37 , 251.03 377.64 , 229.75 377.92 , 262.05 378.19 , 209.45 378.47 , 253.88 378.74 , 235.78 379.01 , 299.59 379.29 , 286.05 379.56 , 260.79 379.84 , 234.49 380.11 , 315.69 380.39 , 262.41 380.66 , 211.91 380.94 , 301.37 381.21 , 128.15 381.48 , 235.29 381.76 , 270.99 382.03 , 250.16 382.31 , 249.80 382.58 , 242.22 382.86 , 182.68 383.13 , 260.35 383.41 , 237.07 383.68 , 221.12 383.95 , 237.71 384.23 , 291.60 384.50 , 232.22 384.78 , 206.79 385.05 , 272.37 385.33 , 245.35 385.60 , 305.64 385.88 , 221.38 386.15 , 266.10 386.42 , 231.57 386.70 , 264.35 386.97 , 236.72 387.25 , 231.25 387.52 , 247.12 387.80 , 229.26 388.07 , 248.83 388.35 , 209.90 388.62 , 269.16 388.89 , 249.75 389.17 , 228.50 389.44 , 237.10 389.72 , 238.93 389.99 , 261.13 390.27 , 276.99 390.54 , 271.19 390.82 , 248.95 391.09 , 232.00 391.36 , 231.38 391.64 , 228.11 391.91 , 247.06 392.19 , 241.80 392.46 , 254.02 392.74 , 248.46 393.01 , 283.21 393.28 , 266.62 393.56 , 215.42 393.83 , 263.27 394.11 , 240.93 394.38 , 245.64 394.66 , 225.10 394.93 , 239.82 395.21 , 257.64 395.48 , 265.21 395.75 , 267.82 396.03 , 268.38 396.30 , 247.73 396.58 , 255.50 396.85 , 282.32 397.13 , 245.04 397.40 , 247.60 397.68 , 293.08 397.95 , 251.54 398.22 , 219.19 398.50 , 239.70 398.77 , 231.28 399.05 , 275.43 399.32 , 264.29 399.60 , 223.50 399.87 , 283.98 400.15 , 267.64 400.42 , 223.71 400.69 , 261.26 400.97 , 231.73 401.24 , 268.49 401.52 , 275.78 401.79 , 268.37 402.07 , 294.82 402.34 , 272.45 402.62 , 254.06 402.89 , 384.48 403.16 , 255.83 403.44 , 240.77 403.71 , 191.69 403.99 , 267.66 404.26 , 221.30 404.54 , 237.27 404.81 , 274.34 405.09 , 268.11 405.36 , 265.85 405.63 , 218.74 405.91 , 245.06 406.18 , 262.96 406.46 , 245.80 406.73 , 213.15 407.01 , 250.38 407.28 , 204.63 407.56 , 237.68 407.83 , 244.05 408.10 , 280.59 408.38 , 252.65 408.65 , 252.21 408.93 , 237.36 409.20 , 270.14 409.48 , 249.28 409.75 , 289.14 410.03 , 244.44 410.30 , 252.92 410.57 , 246.35 410.85 , 296.73 411.12 , 257.68 411.40 , 224.66 411.67 , 277.24 411.95 , 279.91 412.22 , 212.81 412.50 , 294.85 412.77 , 248.32 413.04 , 266.81 413.32 , 275.36 413.59 , 282.49 413.87 , 236.42 414.14 , 249.59 414.42 , 292.72 414.69 , 297.14 414.97 , 298.69 415.24 , 224.38 415.51 , 259.77 415.79 , 293.04 416.06 , 269.91 416.34 , 296.61 416.61 , 253.81 416.89 , 218.08 417.16 , 251.20 417.44 , 153.42 417.71 , 218.42 417.98 , 283.56 418.26 , 236.66 418.53 , 281.27 418.81 , 255.34 419.08 , 239.21 419.36 , 262.66 419.63 , 248.30 419.91 , 256.09 420.18 , 262.67 420.45 , 306.47 420.73 , 200.23 421.00 , 296.90 421.28 , 231.92 421.55 , 257.55 421.83 , 286.92 422.10 , 264.20 422.38 , 224.16 422.65 , 262.04 422.92 , 253.88 423.20 , 274.14 423.47 , 221.17 423.75 , 261.31 424.02 , 173.71 424.30 , 271.99 424.57 , 239.78 424.85 , 268.23 425.12 , 224.01 425.39 , 277.52 425.67 , 290.58 425.94 , 216.66 426.22 , 337.03 426.49 , 259.21 426.77 , 322.04 427.04 , 273.41 427.32 , 243.71 427.59 , 310.54 427.86 , 259.95 428.14 , 276.91 428.41 , 207.48 428.69 , 276.80 428.96 , 240.59 429.24 , 248.27 429.51 , 227.15 429.79 , 232.39 430.06 , 272.51 430.33 , 278.44 430.61 , 247.53 430.88 , 282.44 431.16 , 243.26 431.43 , 256.06 431.71 , 223.52 431.98 , 226.13 432.26 , 231.45 432.53 , 298.74 432.80 , 255.56 433.08 , 250.62 433.35 , 245.40 433.63 , 202.45 433.90 , 201.64 434.18 , 212.41 434.45 , 279.02 434.73 , 234.59 435.00 , 218.98 435.27 , 231.00 435.55 , 237.49 435.82 , 268.48 436.10 , 237.78 436.37 , 265.08 436.65 , 262.80 436.92 , 282.91 437.20 , 241.02 437.47 , 206.09 437.74 , 238.41 438.02 , 273.26 438.29 , 233.82 438.57 , 266.28 438.84 , 255.64 439.12 , 315.92 439.39 , 230.63 439.66 , 301.53 439.94 , 238.26 440.21 , 237.13 440.49 , 293.61 440.76 , 272.22 441.04 , 256.92 441.31 , 290.01 441.59 , 299.70 441.86 , 196.35 442.13 , 235.44 442.41 , 282.92 442.68 , 243.53 442.96 , 235.64 443.23 , 232.05 443.51 , 252.98 443.78 , 231.40 444.06 , 248.59 444.33 , 283.01 444.60 , 268.36 444.88 , 260.83 445.15 , 229.16 445.43 , 230.96 445.70 , 298.66 445.98 , 208.14 446.25 , 286.67 446.53 , 232.11 446.80 , 241.35 447.07 , 267.32 447.35 , 240.85 447.62 , 238.49 447.90 , 242.36 448.17 , 256.65 448.45 , 232.35 448.72 , 231.91 449.00 , 250.96 449.27 , 279.92 449.54 , 264.09 449.82 , 299.40 450.09 , 285.11 450.37 , 251.86 450.64 , 306.99 450.92 , 283.85 451.19 , 280.13 451.47 , 216.55 451.74 , 276.36 452.01 , 298.51 452.29 , 229.29 452.56 , 222.45 452.84 , 267.87 453.11 , 281.72 453.39 , 285.21 453.66 , 302.96 453.94 , 258.34 454.21 , 246.07 454.48 , 245.33 454.76 , 194.96 455.03 , 283.13 455.31 , 266.63 455.58 , 248.36 455.86 , 271.08 456.13 , 271.35 456.41 , 247.63 456.68 , 301.43 456.95 , 276.88 457.23 , 292.89 457.50 , 225.59 457.78 , 282.24 458.05 , 263.26 458.33 , 270.81 458.60 , 245.37 458.88 , 273.52 459.15 , 289.08 459.42 , 338.71 459.70 , 265.82 459.97 , 247.44 460.25 , 296.75 460.52 , 214.80 460.80 , 281.17 461.07 , 265.55 461.35 , 250.95 461.62 , 274.84 461.89 , 243.34 462.17 , 336.54 462.44 , 226.67 462.72 , 248.41 462.99 , 163.97 463.27 , 325.85 463.54 , 216.19 463.82 , 207.70 464.09 , 211.81 464.36 , 236.38 464.64 , 215.65 464.91 , 292.03 465.19 , 253.67 465.46 , 286.92 465.74 , 293.45 466.01 , 244.21 466.29 , 291.52 466.56 , 223.95 466.83 , 247.79 467.11 , 293.76 467.38 , 243.56 467.66 , 294.14 467.93 , 236.06 468.21 , 191.87 468.48 , 301.49 468.76 , 257.18 469.03 , 263.19 469.30 , 311.14 469.58 , 242.62 469.85 , 274.72 470.13 , 248.13 470.40 , 228.66 470.68 , 228.18 470.95 , 208.31 471.23 , 244.87 471.50 , 230.02 471.77 , 278.38 472.05 , 279.13 472.32 , 192.86 472.60 , 257.30 472.87 , 291.73 473.15 , 209.05 473.42 , 260.35 473.70 , 252.75 473.97 , 231.88 474.24 , 219.73 474.52 , 306.40 474.79 , 270.04 475.07 , 268.95 475.34 , 302.02 475.62 , 247.79 475.89 , 213.05 476.17 , 225.26 476.44 , 199.47 476.71 , 212.34 476.99 , 279.78 477.26 , 269.05 477.54 , 277.74 477.81 , 223.40 478.09 , 293.11 478.36 , 217.08 478.64 , 271.37 478.91 , 253.13 479.18 , 255.98 479.46 , 204.85 479.73 , 242.83 480.01 , 274.07 480.28 , 298.38 480.56 , 299.14 480.83 , 286.99 481.11 , 238.11 481.38 , 229.99 481.65 , 271.60 481.93 , 272.82 482.20 , 321.64 482.48 , 249.10 482.75 , 220.61 483.03 , 249.45 483.30 , 223.25 483.58 , 304.97 483.85 , 301.10 484.12 , 261.81 484.40 , 225.51 484.67 , 248.25 484.95 , 297.24 485.22 , 274.62 485.50 , 183.43 485.77 , 285.88 486.04 , 263.25 486.32 , 253.41 486.59 , 248.36 486.87 , 198.36 487.14 , 220.69 487.42 , 292.62 487.69 , 294.26 487.97 , 259.90 488.24 , 213.96 488.51 , 254.06 488.79 , 285.65 489.06 , 225.43 489.34 , 231.72 489.61 , 289.60 489.89 , 261.00 490.16 , 225.84 490.44 , 287.46 490.71 , 280.71 490.98 , 300.58 491.26 , 259.57 491.53 , 209.07 491.81 , 274.77 492.08 , 239.93 492.36 , 314.37 492.63 , 236.55 492.91 , 292.51 493.18 , 210.94 493.45 , 219.96 493.73 , 268.26 494.00 , 234.00 494.28 , 227.59 494.55 , 223.28 494.83 , 234.23 495.10 , 219.14 495.38 , 258.11 495.65 , 198.31 495.92 , 272.44 496.20 , 280.47 496.47 , 240.04 496.75 , 280.28 497.02 , 268.96 497.30 , 210.67 497.57 , 226.75 497.85 , 246.80 498.12 , 256.09 498.39 , 251.02 498.67 , 230.77 498.94 , 270.89 499.22 , 202.85 499.49 , 249.29 499.77 , 228.27 500.04 , 339.97 500.32 , 242.84 500.59 , 246.74 500.86 , 290.54 501.14 , 246.55 501.41 , 226.31 501.69 , 257.26 501.96 , 240.31 502.24 , 276.24 502.51 , 249.23 502.79 , 235.48 503.06 , 239.71 503.33 , 265.10 503.61 , 250.75 503.88 , 273.47 504.16 , 287.29 504.43 , 237.52 504.71 , 235.99 504.98 , 236.42 505.26 , 227.98 505.53 , 287.59 505.80 , 244.17 506.08 , 210.29 506.35 , 244.78 506.63 , 259.75 506.90 , 274.48 507.18 , 220.70 507.45 , 291.62 507.73 , 285.17 508.00 , 257.66 508.27 , 195.50 508.55 , 233.32 508.82 , 264.88 509.10 , 245.60 509.37 , 264.76 509.65 , 236.83 509.92 , 269.45 510.20 , 265.56 510.47 , 268.26 510.74 , 278.62 511.02 , 237.53 511.29 , 279.20 511.57 , 269.68 511.84 , 233.20 512.12 , 228.99 512.39 , 270.36 512.67 , 270.19 512.94 , 271.13 513.21 , 273.11 513.49 , 241.18 513.76 , 247.17 514.04 , 290.73 514.31 , 265.17 514.59 , 242.35 514.86 , 220.52 515.14 , 250.38 515.41 , 268.55 515.68 , 255.67 515.96 , 244.23 516.23 , 277.20 516.51 , 224.51 516.78 , 227.99 517.06 , 241.69 517.33 , 259.47 517.61 , 253.55 517.88 , 278.52 518.15 , 250.98 518.43 , 256.73 518.70 , 248.85 518.98 , 251.38 519.25 , 253.36 519.53 , 241.52 519.80 , 254.19 520.08 , 251.27 520.35 , 265.28 520.62 , 260.58 520.90 , 234.39 521.17 , 290.31 521.45 , 243.13 521.72 , 260.62 522.00 , 234.92 522.27 , 266.35 522.55 , 244.90 522.82 , 250.69 523.09 , 250.72 523.37 , 250.73 523.64 , 234.23 523.92 , 248.85 524.19 , 233.12 524.47 , 262.29 524.74 , 246.06 525.02 , 260.12 525.29 , 241.12 525.56 , 271.06 525.84 , 209.18 526.11 , 250.85 526.39 , 255.23 526.66 , 228.02 526.94 , 249.01 527.21 , 248.68 527.49 , 236.89 527.76 , 239.00 528.03 , 278.91 528.31 , 237.89 528.58 , 270.89 528.86 , 233.75 529.13 , 216.15 529.41 , 246.65 529.68 , 214.62 529.96 , 246.18 530.23 , 222.11 530.50 , 264.69 530.78 , 294.95 531.05 , 214.83 531.33 , 253.80 531.60 , 232.30 531.88 , 252.24 532.15 , 294.01 532.42 , 176.77 532.70 , 246.76 532.97 , 287.23 533.25 , 265.67 533.52 , 207.00 533.80 , 291.21 534.07 , 239.09 534.35 , 255.54 534.62 , 258.36 534.89 , 226.90 535.17 , 239.32 535.44 , 268.41 535.72 , 227.84 535.99 , 254.60 536.27 , 223.50 536.54 , 299.55 536.82 , 276.75 537.09 , 246.13 537.36 , 262.96 537.64 , 321.48 537.91 , 250.57 538.19 , 234.40 538.46 , 228.34 538.74 , 273.16 539.01 , 306.08 539.29 , 255.86 539.56 , 213.39 539.83 , 251.00 540.11 , 224.16 540.38 , 236.66 540.66 , 256.18 540.93 , 228.02 541.21 , 273.18 541.48 , 248.94 541.76 , 270.53 542.03 , 219.31 542.30 , 241.63 542.58 , 247.25 542.85 , 256.81 543.13 , 262.06 543.40 , 254.18 543.68 , 271.42 543.95 , 249.24 544.23 , 253.44 544.50 , 223.77 544.77 , 246.25 545.05 , 228.24 545.32 , 244.69 545.60 , 245.40 545.87 , 262.80 546.15 , 256.32 546.42 , 247.55 546.70 , 254.20 546.97 , 249.16 547.24 , 243.83 547.52 , 230.60 547.79 , 238.70 548.07 , 316.98 548.34 , 219.56 548.62 , 290.06 548.89 , 223.53 549.17 , 269.10 549.44 , 224.50 549.71 , 278.23 549.99 , 265.25 550.26 , 257.58 550.54 , 254.41 550.81 , 261.42 551.09 , 271.79 551.36 , 258.88 551.64 , 230.71 551.91 , 266.20 552.18 , 245.51 552.46 , 251.65 552.73 , 250.92 553.01 , 254.39 553.28 , 255.47 553.56 , 259.03 553.83 , 297.16 554.11 , 274.24 554.38 , 264.03 554.65 , 360.49 554.93 , 217.96 555.20 , 235.86 555.48 , 281.63 555.75 , 228.66 556.03 , 241.30 556.30 , 222.11 556.58 , 239.62 556.85 , 236.77 557.12 , 289.62 557.40 , 249.50 557.67 , 266.21 557.95 , 302.16 558.22 , 257.18 558.50 , 265.54 558.77 , 214.50 559.05 , 230.89 559.32 , 283.19 559.59 , 253.53 559.87 , 250.34 560.14 , 299.98 560.42 , 284.50 560.69 , 273.99 560.97 , 228.92 561.24 , 219.65 561.52 , 324.13 561.79 , 203.27 562.06 , 265.17 562.34 , 279.36 562.61 , 272.21 562.89 , 280.27 563.16 , 190.04 563.44 , 223.99 563.71 , 187.59 563.99 , 264.62 564.26 , 206.72 564.53 , 240.52 564.81 , 241.67 565.08 , 285.83 565.36 , 216.00 565.63 , 274.40 565.91 , 202.35 566.18 , 250.25 566.46 , 270.54 566.73 , 286.62 567.00 , 279.59 567.28 , 274.42 567.55 , 281.18 567.83 , 271.93 568.10 , 208.65 568.38 , 275.96 568.65 , 233.92 568.93 , 288.83 569.20 , 297.27 569.47 , 237.33 569.75 , 309.56 570.02 , 290.92 570.30 , 281.27 570.57 , 272.45 570.85 , 333.45 571.12 , 517.09 571.40 , 199.08 571.67 , 436.48 571.94 , 52.74 572.22 , 253.27 572.49 , 332.94 572.77 , 337.29 573.04 , 172.17 573.32 , 319.79 573.59 , 266.63 573.87 , 263.92 574.14 , 252.04 574.41 , 239.79 574.69 , 279.85 574.96 , 333.53 575.24 , 325.53 575.51 , 209.59 575.79 , 225.66 576.06 , 280.97 576.33 , 303.25 576.61 , 225.30 576.88 , 270.61 577.16 , 180.34 577.43 , 219.52 577.71 , 199.45 577.98 , 186.44 578.26 , 240.74 578.53 , 256.17 578.80 , 281.53 579.08 , 222.37 579.35 , 198.76 579.63 , 276.38 579.90 , 231.16 580.18 , 233.27 580.45 , 243.68 580.73 , 223.87 581.00 , 282.62 581.27 , 248.26 581.55 , 250.34 581.82 , 300.43 582.10 , 212.25 582.37 , 190.57 582.65 , 224.74 582.92 , 247.64 583.20 , 246.33 583.47 , 257.37 583.74 , 259.02 584.02 , 287.06 584.29 , 240.78 584.57 , 235.75 584.84 , 265.38 585.12 , 285.49 585.39 , 215.25 585.67 , 227.47 585.94 , 248.99 586.21 , 289.98 586.49 , 255.61 586.76 , 258.47 587.04 , 288.06 587.31 , 304.12 587.59 , 175.91 587.86 , 260.64 588.14 , 250.04 588.41 , 220.42 588.68 , 263.32 588.96 , 239.10 589.23 , 235.20 589.51 , 281.62 589.78 , 288.01 590.06 , 270.37 590.33 , 238.41 590.61 , 241.82 590.88 , 283.94 591.15 , 232.63 591.43 , 236.74 591.70 , 246.52 591.98 , 236.48 592.25 , 223.99 592.53 , 267.44 592.80 , 269.02 593.08 , 253.47 593.35 , 264.96 593.62 , 326.36 593.90 , 261.32 594.17 , 304.43 594.45 , 253.53 594.72 , 239.00 595.00 , 232.62 595.27 , 241.11 595.55 , 310.07 595.82 , 312.04 596.09 , 216.29 596.37 , 270.53 596.64 , 251.38 596.92 , 250.11 597.19 , 245.70 597.47 , 291.93 597.74 , 256.16 598.02 , 269.56 598.29 , 258.36 598.56 , 261.55 598.84 , 218.17 599.11 , 272.13 599.39 , 277.44 599.66 , 229.57 599.94 , 264.43 600.21 , 262.53 600.49 , 277.93 600.76 , 197.97 601.03 , 254.99 601.31 , 232.12 601.58 , 262.44 601.86 , 248.30 602.13 , 249.15 602.41 , 252.98 602.68 , 247.21 602.96 , 267.85 603.23 , 220.47 603.50 , 258.52 603.78 , 278.62 604.05 , 252.41 604.33 , 221.19 604.60 , 252.62 604.88 , 241.91 605.15 , 288.63 605.43 , 246.76 605.70 , 281.03 605.97 , 303.17 606.25 , 214.78 606.52 , 227.28 606.80 , 248.42 607.07 , 268.89 607.35 , 239.47 607.62 , 233.70 607.90 , 270.37 608.17 , 270.79 608.44 , 248.37 608.72 , 246.84 608.99 , 255.56 609.27 , 238.20 609.54 , 265.56 609.82 , 215.96 610.09 , 220.75 610.37 , 234.86 610.64 , 264.66 610.91 , 236.54 611.19 , 278.45 611.46 , 331.24 611.74 , 270.62 612.01 , 300.15 612.29 , 232.30 612.56 , 241.58 612.84 , 260.03 613.11 , 211.86 613.38 , 293.04 613.66 , 211.36 613.93 , 246.22 614.21 , 235.73 614.48 , 279.60 614.76 , 228.27 615.03 , 277.55 615.31 , 286.73 615.58 , 284.17 615.85 , 279.54 616.13 , 207.03 616.40 , 274.74 616.68 , 287.09 616.95 , 240.80 617.23 , 257.22 617.50 , 262.68 617.78 , 239.55 618.05 , 203.47 618.32 , 244.50 618.60 , 249.13 618.87 , 251.81 619.15 , 207.25 619.42 , 235.10 619.70 , 237.58 619.97 , 227.74 620.25 , 227.27 620.52 , 268.53 620.79 , 246.79 621.07 , 301.63 621.34 , 243.37 621.62 , 243.40 621.89 , 256.55 622.17 , 270.69 622.44 , 274.56 622.71 , 300.13 622.99 , 261.00 623.26 , 274.12 623.54 , 232.23 623.81 , 261.28 624.09 , 244.19 624.36 , 219.77 624.64 , 251.92 624.91 , 275.97 625.18 , 261.03 625.46 , 246.42 625.73 , 264.50 626.01 , 233.11 626.28 , 219.71 626.56 , 266.36 626.83 , 284.66 627.11 , 242.95 627.38 , 218.10 627.65 , 260.10 627.93 , 278.86 628.20 , 245.60 628.48 , 296.35 628.75 , 200.05 629.03 , 263.73 629.30 , 238.91 629.58 , 285.49 629.85 , 210.15 630.12 , 228.28 630.40 , 247.29 630.67 , 245.91 630.95 , 230.42 631.22 , 241.49 631.50 , 204.03 631.77 , 223.00 632.05 , 232.90 632.32 , 242.56 632.59 , 235.61 632.87 , 216.80 633.14 , 264.74 633.42 , 251.99 633.69 , 256.21 633.97 , 259.45 634.24 , 195.10 634.52 , 235.05 634.79 , 243.33 635.06 , 267.37 635.34 , 191.51 635.61 , 229.55 635.89 , 250.63 636.16 , 228.35 636.44 , 269.46 636.71 , 181.90 636.99 , 227.47 637.26 , 309.86 637.53 , 283.53 637.81 , 286.91 638.08 , 324.68 638.36 , 237.29 638.63 , 202.69 638.91 , 217.75 639.18 , 223.06 639.46 , 247.63 639.73 , 295.05 640.00 , 190.08 640.28 , 305.61 640.55 , 243.31 640.83 , 262.01 641.10 , 274.52 641.38 , 230.60 641.65 , 238.48 641.93 , 228.16 642.20 , 252.72 642.47 , 287.92 642.75 , 210.44 643.02 , 241.96 643.30 , 301.07 643.57 , 269.25 643.85 , 263.12 644.12 , 186.00 644.40 , 238.15 644.67 , 251.00 644.94 , 279.70 645.22 , 271.84 645.49 , 202.36 645.77 , 232.54 646.04 , 254.06 646.32 , 253.83 646.59 , 266.60 646.87 , 272.07 647.14 , 260.87 647.41 , 266.10 647.69 , 285.26 647.96 , 217.96 648.24 , 253.80 648.51 , 207.61 648.79 , 314.21 649.06 , 258.25 649.34 , 237.15 649.61 , 236.42 649.88 , 320.01 650.16 , 206.40 650.43 , 260.47 650.71 , 240.90 650.98 , 274.17 651.26 , 258.24 651.53 , 218.28 651.81 , 251.77 652.08 , 243.53 652.35 , 255.99 652.63 , 223.35 652.90 , 274.18 653.18 , 233.97 653.45 , 269.82 653.73 , 260.00 654.00 , 236.41 654.28 , 254.51 654.55 , 305.49 654.82 , 240.27 655.10 , 238.37 655.37 , 267.64 655.65 , 240.27 655.92 , 236.89 656.20 , 228.23 656.47 , 252.41 656.75 , 296.08 657.02 , 296.36 657.29 , 311.60 657.57 , 240.80 657.84 , 182.00 658.12 , 222.73 658.39 , 207.73 658.67 , 229.08 658.94 , 247.49 659.22 , 233.27 659.49 , 289.76 659.76 , 220.46 660.04 , 242.47 660.31 , 271.78 660.59 , 267.68 660.86 , 275.94 661.14 , 221.86 661.41 , 240.96 661.69 , 248.31 661.96 , 241.42 662.23 , 233.91 662.51 , 234.20 662.78 , 245.54 663.06 , 226.82 663.33 , 235.96 663.61 , 280.89 663.88 , 252.69 664.16 , 225.08 664.43 , 268.33 664.70 , 232.33 664.98 , 279.60 665.25 , 262.81 665.53 , 247.70 665.80 , 233.23 666.08 , 245.91 666.35 , 259.99 666.63 , 256.80 666.90 , 265.82 667.17 , 238.96 667.45 , 230.42 667.72 , 272.67 668.00 , 223.27 668.27 , 259.83 668.55 , 241.22 668.82 , 244.50 669.09 , 269.70 669.37 , 320.16 669.64 , 218.72 669.92 , 320.99 670.19 , 229.08 670.47 , 247.58 670.74 , 265.85 671.02 , 249.00 671.29 , 227.49 671.56 , 262.99 671.84 , 212.08 672.11 , 246.07 672.39 , 219.76 672.66 , 256.67 672.94 , 226.39 673.21 , 253.82 673.49 , 267.89 673.76 , 280.91 674.03 , 247.96 674.31 , 262.77 674.58 , 244.60 674.86 , 300.62 675.13 , 289.39 675.41 , 253.86 675.68 , 227.76 675.96 , 321.45 676.23 , 397.73 676.50 , 257.93 676.78 , 248.70 677.05 , 187.21 677.33 , 252.24 677.60 , 287.55 677.88 , 235.64 678.15 , 319.19 678.43 , 275.17 678.70 , 178.83 678.97 , 168.41 679.25 , 304.73 679.52 , 256.87 679.80 , 240.62 680.07 , 235.89 680.35 , 242.03 " style="stroke-width:1;stroke:#000000;fill:#000000;stroke-opacity:1.000000;fill-opacity:0.000000"/>
<line x1="158.95" y1="535.66" x2="588.57" y2="535.66" style="stroke-width:1;stroke:#000000;fill:#000000;stroke-opacity:1.000000;fill-opacity:0.000000"/>
<line x1="158.95" y1="535.66" x2="158.95" y2="539.83" style="stroke-width:1;stroke:#000000;fill:#000000;stroke-opacity:1.000000;fill-opacity:0.000000"/>
<line x1="302.17" y1="535.66" x2="302.17" y2="539.83" style="stroke-width:1;stroke:#000000;fill:#000000;stroke-opacity:1.000000;fill-opacity:0.000000"/>
<line x1="445.35" y1="535.66" x2="445.35" y2="539.83" style="stroke-width:1;stroke:#000000;fill:#000000;stroke-opacity:1.000000;fill-opacity:0.000000"/>
<line x1="588.57" y1="535.66" x2="588.57" y2="539.83" style="stroke-width:1;stroke:#000000;fill:#000000;stroke-opacity:1.000000;fill-opacity:0.000000"/>
<text transform="translate(148.95,552.33)"  style="font-size:10" >1980</text>
<text transform="translate(291.17,552.33)"  style="font-size:10" >1990</text>
<text transform="translate(434.35,552.33)"  style="font-size:10" >2000</text>
<text transform="translate(577.57,552.33)"  style="font-size:10" >2010</text>
<line x1="34.17" y1="477.53" x2="34.17" y2="142.32" style="stroke-width:1;stroke:#000000;fill:#000000;stroke-opacity:1.000000;fill-opacity:0.000000"/>
<line x1="34.17" y1="477.53" x2="30.00" y2="477.53" style="stroke-width:1;stroke:#000000;fill:#000000;stroke-opacity:1.000000;fill-opacity:0.000000"/>
<line x1="34.17" y1="365.80" x2="30.00" y2="365.80" style="stroke-width:1;stroke:#000000;fill:#000000;stroke-opacity:1.000000;fill-opacity:0.000000"/>
<line x1="34.17" y1="254.06" x2="30.00" y2="254.06" style="stroke-width:1;stroke:#000000;fill:#000000;stroke-opacity:1.000000;fill-opacity:0.000000"/>
<line x1="34.17" y1="142.32" x2="30.00" y2="142.32" style="stroke-width:1;stroke:#000000;fill:#000000;stroke-opacity:1.000000;fill-opacity:0.000000"/>
<text transform="translate(25.83,486.39) rotate(-90)"  style="font-size:10" >-0.2</text>
<text transform="translate(25.83,374.66) rotate(-90)"  style="font-size:10" >-0.1</text>
<text transform="translate(25.83,261.08) rotate(-90)"  style="font-size:10" >0.0</text>
<text transform="translate(25.83,149.35) rotate(-90)"  style="font-size:10" >0.1</text>
<polyline points="34.17 , 535.66 705.20 , 535.66 705.20 , 34.17 34.17 , 34.17 34.17 , 535.66 " style="stroke-width:1;stroke:#000000;fill:#000000;stroke-opacity:1.000000;fill-opacity:0.000000"/>
<text transform="translate(297.20,22.08)"  style="font-size:12" >Rentabilité hebdomadaire</text>
<text transform="translate(357.72,568.99)"  style="font-size:10" >Dates</text>
<text transform="translate(9.17,288.43) rotate(-90)"  style="font-size:10" >R</text>
</svg>
