<?xml version="1.0" encoding="UTF-8"?>
<svg xmlns="http://www.w3.org/2000/svg" width="722.70" height="578.16" viewBox="0,0,722.70,578.16">
<desc>R SVG Plot!</desc>
<rect width="100%" height="100%" style="fill:#FFFFFF"/>
<polyline points="59.02 , 248.07 60.24 , 217.19 61.42 , 377.68 62.64 , 242.26 63.82 , 213.32 65.04 , 162.43 66.26 , 272.08 67.44 , 296.25 68.66 , 221.31 69.84 , 292.36 71.05 , 275.45 72.27 , 206.00 73.38 , 230.98 74.59 , 244.02 75.77 , 204.27 76.99 , 206.70 78.17 , 276.32 79.39 , 264.14 80.61 , 340.20 81.79 , 269.81 83.01 , 335.58 84.19 , 148.96 85.41 , 263.16 86.63 , 207.77 87.73 , 161.00 88.95 , 190.04 90.13 , 239.39 91.35 , 257.05 92.53 , 210.86 93.75 , 285.29 94.97 , 305.63 96.15 , 284.10 97.37 , 123.87 98.55 , 244.59 99.77 , 236.46 100.98 , 167.93 102.12 , 245.53 103.34 , 246.50 104.52 , 226.02 105.74 , 238.81 106.92 , 198.01 108.14 , 284.57 109.36 , 218.40 110.54 , 219.68 111.76 , 279.02 112.94 , 270.50 114.16 , 135.20 115.38 , 245.17 116.48 , 215.65 117.70 , 247.96 118.88 , 226.75 120.10 , 254.05 121.28 , 249.60 122.50 , 255.43 123.72 , 169.84 124.90 , 235.29 126.12 , 275.82 127.30 , 268.44 128.51 , 254.20 129.73 , 189.01 130.84 , 217.44 132.05 , 196.29 133.23 , 223.29 134.45 , 251.30 135.63 , 225.76 136.85 , 228.70 138.07 , 242.26 139.25 , 205.76 140.47 , 216.53 141.65 , 228.27 142.87 , 233.49 144.09 , 204.11 145.19 , 262.60 146.41 , 229.14 147.59 , 224.63 148.81 , 234.54 149.99 , 240.23 151.21 , 228.55 152.43 , 219.77 153.61 , 218.56 154.83 , 258.88 156.01 , 238.40 157.23 , 220.66 158.44 , 208.95 159.59 , 239.85 160.80 , 271.33 161.98 , 192.30 163.20 , 240.82 164.38 , 237.13 165.60 , 246.97 166.82 , 225.32 168.00 , 215.67 169.22 , 228.70 170.40 , 243.23 171.62 , 248.06 172.84 , 212.14 173.94 , 254.59 175.16 , 212.89 176.34 , 193.13 177.56 , 257.40 178.74 , 195.94 179.96 , 244.45 181.18 , 240.98 182.36 , 287.51 183.58 , 240.18 184.76 , 225.77 185.98 , 221.60 187.19 , 208.35 188.30 , 288.23 189.51 , 279.06 190.69 , 221.21 191.91 , 248.38 193.09 , 255.05 194.31 , 252.42 195.53 , 239.17 196.71 , 270.28 197.93 , 189.16 199.11 , 153.59 200.33 , 223.83 201.55 , 228.37 202.65 , 241.61 203.87 , 190.91 205.05 , 220.53 206.27 , 241.60 207.45 , 209.78 208.67 , 215.73 209.89 , 226.99 211.07 , 215.96 212.29 , 244.34 213.47 , 243.35 214.69 , 178.41 215.91 , 208.64 217.05 , 256.04 218.26 , 151.82 219.44 , 234.46 220.66 , 341.04 221.84 , 195.37 223.06 , 277.37 224.28 , 181.26 225.46 , 233.10 226.68 , 183.08 227.86 , 223.53 229.08 , 229.25 230.30 , 200.35 231.40 , 211.69 232.62 , 218.14 233.80 , 251.96 235.02 , 212.44 236.20 , 229.51 237.42 , 292.17 238.64 , 200.01 239.82 , 240.40 241.04 , 220.54 242.22 , 253.11 243.44 , 214.09 244.65 , 243.96 245.76 , 192.16 246.98 , 85.55 248.16 , 241.56 249.37 , 186.26 250.55 , 180.87 251.77 , 247.74 252.99 , 181.36 254.17 , 277.55 255.39 , 294.69 256.57 , 170.95 257.79 , 198.56 259.01 , 174.87 260.11 , 220.53 261.33 , 183.69 262.51 , 161.57 263.73 , 175.72 264.91 , 264.21 266.13 , 226.28 267.35 , 177.07 268.53 , 240.07 269.75 , 375.37 270.93 , 242.87 272.15 , 291.15 273.37 , 146.32 274.51 , 171.65 275.73 , 199.03 276.91 , 194.73 278.12 , 240.00 279.30 , 226.31 280.52 , 234.14 281.74 , 259.50 282.92 , 218.77 284.14 , 237.21 285.32 , 182.74 286.54 , 219.54 287.76 , 192.33 288.86 , 226.37 290.08 , 212.50 291.26 , 212.53 292.48 , 222.74 293.66 , 279.38 294.88 , 179.07 296.10 , 254.73 297.28 , 204.24 298.50 , 241.86 299.68 , 191.16 300.90 , 195.22 302.12 , 285.67 303.22 , 313.23 304.44 , 385.36 305.62 , 252.91 306.83 , 123.84 308.01 , 276.70 309.23 , 268.67 310.45 , 420.87 311.63 , 457.25 312.85 , 52.74 314.03 , 356.82 315.25 , 177.89 316.47 , 263.41 317.57 , 111.23 318.79 , 243.89 319.97 , 246.40 321.19 , 252.00 322.37 , 343.35 323.59 , 203.63 324.81 , 317.81 325.99 , 169.58 327.21 , 185.11 328.39 , 347.44 329.61 , 226.11 330.83 , 282.93 331.97 , 271.56 333.19 , 339.41 334.37 , 348.08 335.58 , 184.69 336.76 , 382.16 337.98 , 242.01 339.20 , 109.97 340.38 , 277.46 341.60 , 277.09 342.78 , 185.06 344.00 , 284.10 345.22 , 233.41 346.32 , 243.59 347.54 , 145.23 348.72 , 118.98 349.94 , 257.41 351.12 , 288.29 352.34 , 199.00 353.56 , 207.49 354.74 , 285.06 355.96 , 260.00 357.14 , 426.19 358.36 , 178.35 359.58 , 86.63 360.68 , 251.12 361.90 , 285.56 363.08 , 207.12 364.30 , 176.74 365.48 , 255.52 366.69 , 249.02 367.91 , 230.46 369.09 , 293.43 370.31 , 217.38 371.49 , 287.11 372.71 , 205.30 373.93 , 296.45 375.03 , 330.67 376.25 , 295.54 377.43 , 198.04 378.65 , 326.12 379.83 , 302.02 381.05 , 97.80 382.27 , 154.86 383.45 , 250.92 384.67 , 254.18 385.85 , 178.23 387.07 , 179.94 388.29 , 191.96 389.43 , 273.63 390.65 , 176.36 391.83 , 209.55 393.05 , 243.30 394.22 , 213.00 395.44 , 326.19 396.66 , 265.63 397.84 , 171.36 399.06 , 292.28 400.24 , 212.13 401.46 , 323.25 402.68 , 295.21 403.78 , 226.80 405.00 , 270.26 406.18 , 176.29 407.40 , 191.59 408.58 , 212.45 409.80 , 252.99 411.02 , 350.72 412.20 , 258.67 413.42 , 324.30 414.60 , 228.42 415.82 , 327.56 417.04 , 151.63 418.14 , 226.96 419.36 , 257.99 420.54 , 295.58 421.76 , 237.43 422.94 , 229.02 424.15 , 204.58 425.37 , 391.67 426.55 , 291.40 427.77 , 227.39 428.95 , 144.65 430.17 , 313.39 431.39 , 192.03 432.49 , 248.67 433.71 , 140.01 434.89 , 185.09 436.11 , 276.05 437.29 , 153.27 438.51 , 220.20 439.73 , 263.95 440.91 , 229.52 442.13 , 220.03 443.31 , 204.90 444.53 , 218.88 445.75 , 207.24 446.89 , 217.66 448.11 , 220.22 449.29 , 365.43 450.51 , 337.07 451.69 , 174.10 452.90 , 343.13 454.12 , 168.32 455.30 , 309.11 456.52 , 320.78 457.70 , 231.74 458.92 , 301.31 460.14 , 235.08 461.24 , 312.69 462.46 , 230.20 463.64 , 168.51 464.86 , 289.81 466.04 , 262.16 467.26 , 330.51 468.48 , 343.17 469.66 , 332.94 470.88 , 179.38 472.06 , 207.27 473.28 , 254.23 474.50 , 293.50 475.60 , 180.84 476.82 , 198.07 478.00 , 196.97 479.22 , 215.56 480.40 , 343.55 481.62 , 313.45 482.83 , 266.43 484.01 , 264.70 485.23 , 323.52 486.41 , 173.60 487.63 , 312.40 488.85 , 268.19 489.95 , 236.53 491.17 , 288.13 492.35 , 257.60 493.57 , 164.86 494.75 , 162.54 495.97 , 186.79 497.19 , 159.31 498.37 , 251.71 499.59 , 205.90 500.77 , 284.71 501.99 , 182.75 503.21 , 229.18 504.35 , 215.20 505.57 , 178.94 506.75 , 235.32 507.97 , 285.99 509.15 , 184.33 510.36 , 286.29 511.58 , 261.58 512.76 , 263.41 513.98 , 244.28 515.16 , 227.32 516.38 , 185.60 517.60 , 248.38 518.70 , 208.20 519.92 , 245.60 521.10 , 298.77 522.32 , 214.84 523.50 , 211.91 524.72 , 211.93 525.94 , 196.20 527.12 , 148.14 528.34 , 236.94 529.52 , 148.59 530.74 , 157.68 531.96 , 205.81 533.06 , 266.96 534.28 , 186.93 535.46 , 248.57 536.68 , 330.13 537.86 , 236.86 539.08 , 242.54 540.29 , 195.17 541.47 , 240.19 542.69 , 222.30 543.87 , 247.17 545.09 , 181.37 546.31 , 230.06 547.41 , 226.48 548.63 , 257.87 549.81 , 232.72 551.03 , 211.85 552.21 , 224.47 553.43 , 290.67 554.65 , 280.39 555.83 , 226.10 557.05 , 242.28 558.23 , 305.92 559.45 , 263.92 560.67 , 360.63 561.81 , 238.56 563.03 , 323.57 564.21 , 136.78 565.43 , 203.98 566.61 , 302.26 567.83 , 247.30 569.04 , 262.81 570.22 , 391.70 571.44 , 517.09 572.62 , 247.08 573.84 , 198.55 575.06 , 344.26 576.16 , 295.19 577.38 , 168.89 578.56 , 152.70 579.78 , 162.11 580.96 , 193.68 582.18 , 199.33 583.40 , 226.07 584.58 , 274.91 585.80 , 249.32 586.98 , 311.96 588.20 , 115.99 589.42 , 273.64 590.52 , 246.59 591.74 , 146.57 592.92 , 242.35 594.14 , 365.81 595.32 , 280.50 596.54 , 222.67 597.76 , 318.67 598.93 , 178.17 600.15 , 257.70 601.33 , 160.98 602.55 , 209.81 603.77 , 238.46 604.87 , 201.57 606.09 , 326.44 607.27 , 229.50 608.49 , 255.65 609.67 , 226.56 610.89 , 237.60 612.11 , 334.78 613.29 , 268.82 614.51 , 206.11 615.69 , 304.25 616.91 , 236.85 618.13 , 198.29 619.27 , 137.84 620.49 , 202.22 621.67 , 297.95 622.89 , 349.98 624.07 , 185.38 625.29 , 275.30 626.50 , 222.50 627.68 , 235.87 628.90 , 232.69 630.08 , 181.83 631.30 , 141.65 632.52 , 168.86 633.62 , 201.52 634.84 , 167.89 636.02 , 125.53 637.24 , 245.73 638.42 , 246.58 639.64 , 240.03 640.86 , 260.44 642.04 , 161.11 643.26 , 248.42 644.44 , 148.52 645.66 , 199.15 646.88 , 329.46 647.98 , 244.39 649.20 , 240.27 650.38 , 276.05 651.60 , 216.20 652.78 , 203.07 654.00 , 208.94 655.22 , 252.25 656.40 , 190.97 657.61 , 224.31 658.79 , 176.31 660.01 , 239.89 661.23 , 226.36 662.33 , 176.46 663.55 , 217.39 664.73 , 222.86 665.95 , 186.23 667.13 , 255.73 668.35 , 221.88 669.57 , 327.03 670.75 , 323.92 671.97 , 144.44 673.15 , 204.43 674.37 , 276.92 675.59 , 324.02 676.73 , 330.16 677.95 , 193.79 679.13 , 245.01 680.35 , 205.10 " style="stroke-width:1;stroke:#000000;fill:#000000;stroke-opacity:1.000000;fill-opacity:0.000000"/>
<line x1="157.26" y1="535.66" x2="588.24" y2="535.66" style="stroke-width:1;stroke:#000000;fill:#000000;stroke-opacity:1.000000;fill-opacity:0.000000"/>
<line x1="157.26" y1="535.66" x2="157.26" y2="539.83" style="stroke-width:1;stroke:#000000;fill:#000000;stroke-opacity:1.000000;fill-opacity:0.000000"/>
<line x1="300.94" y1="535.66" x2="300.94" y2="539.83" style="stroke-width:1;stroke:#000000;fill:#000000;stroke-opacity:1.000000;fill-opacity:0.000000"/>
<line x1="444.57" y1="535.66" x2="444.57" y2="539.83" style="stroke-width:1;stroke:#000000;fill:#000000;stroke-opacity:1.000000;fill-opacity:0.000000"/>
<line x1="588.24" y1="535.66" x2="588.24" y2="539.83" style="stroke-width:1;stroke:#000000;fill:#000000;stroke-opacity:1.000000;fill-opacity:0.000000"/>
<text transform="translate(147.26,552.33)"  style="font-size:10" >1980</text>
<text transform="translate(289.94,552.33)"  style="font-size:10" >1990</text>
<text transform="translate(433.57,552.33)"  style="font-size:10" >2000</text>
<text transform="translate(577.24,552.33)"  style="font-size:10" >2010</text>
<line x1="34.17" y1="443.45" x2="34.17" y2="35.26" style="stroke-width:1;stroke:#000000;fill:#000000;stroke-opacity:1.000000;fill-opacity:0.000000"/>
<line x1="34.17" y1="443.45" x2="30.00" y2="443.45" style="stroke-width:1;stroke:#000000;fill:#000000;stroke-opacity:1.000000;fill-opacity:0.000000"/>
<line x1="34.17" y1="341.40" x2="30.00" y2="341.40" style="stroke-width:1;stroke:#000000;fill:#000000;stroke-opacity:1.000000;fill-opacity:0.000000"/>
<line x1="34.17" y1="239.36" x2="30.00" y2="239.36" style="stroke-width:1;stroke:#000000;fill:#000000;stroke-opacity:1.000000;fill-opacity:0.000000"/>
<line x1="34.17" y1="137.31" x2="30.00" y2="137.31" style="stroke-width:1;stroke:#000000;fill:#000000;stroke-opacity:1.000000;fill-opacity:0.000000"/>
<line x1="34.17" y1="35.26" x2="30.00" y2="35.26" style="stroke-width:1;stroke:#000000;fill:#000000;stroke-opacity:1.000000;fill-opacity:0.000000"/>
<text transform="translate(25.83,452.31) rotate(-90)"  style="font-size:10" >-0.2</text>
<text transform="translate(25.83,350.26) rotate(-90)"  style="font-size:10" >-0.1</text>
<text transform="translate(25.83,246.38) rotate(-90)"  style="font-size:10" >0.0</text>
<text transform="translate(25.83,144.34) rotate(-90)"  style="font-size:10" >0.1</text>
<text transform="translate(25.83,42.29) rotate(-90)"  style="font-size:10" >0.2</text>
<polyline points="34.17 , 535.66 705.20 , 535.66 705.20 , 34.17 34.17 , 34.17 34.17 , 535.66 " style="stroke-width:1;stroke:#000000;fill:#000000;stroke-opacity:1.000000;fill-opacity:0.000000"/>
<text transform="translate(308.64,22.08)"  style="font-size:12" >Rentabilité mensuelle</text>
<text transform="translate(357.72,568.99)"  style="font-size:10" >Dates</text>
<text transform="translate(9.17,288.43) rotate(-90)"  style="font-size:10" >R</text>
</svg>
